<mxfile host="app.diagrams.net" modified="2023-03-08T00:36:19.176Z" agent="5.0 (Macintosh; Intel Mac OS X 10_15_7) AppleWebKit/537.36 (KHTML, like Gecko) Chrome/109.0.0.0 Safari/537.36" etag="2621QBi0DC1yuBF63TxC" version="20.5.1" type="github">
  <diagram id="v1_lny58tsDpGlu6gmd1" name="第 1 页">
    <mxGraphModel dx="1803" dy="533" grid="1" gridSize="10" guides="1" tooltips="1" connect="1" arrows="1" fold="1" page="1" pageScale="1" pageWidth="827" pageHeight="1169" math="0" shadow="0">
      <root>
        <mxCell id="0" />
        <mxCell id="1" parent="0" />
        <mxCell id="tVIQ4qI_l5tq1dGleDvw-2" value="" style="shape=image;verticalLabelPosition=bottom;labelBackgroundColor=default;verticalAlign=top;aspect=fixed;imageAspect=0;image=data:image/png,iVBORw0KGgoAAAANSUhEUgAAA4gAAADVCAYAAAAVSN56AAAAAXNSR0IArs4c6QAAAHhlWElmTU0AKgAAAAgABAEaAAUAAAABAAAAPgEbAAUAAAABAAAARgEoAAMAAAABAAIAAIdpAAQAAAABAAAATgAAAAAAAABIAAAAAQAAAEgAAAABAAOgAQADAAAAAQABAACgAgAEAAAAAQAAA4igAwAEAAAAAQAAANUAAAAAh2TiBwAAAAlwSFlzAAALEwAACxMBAJqcGAAAEUdJREFUeAHt21ty20YQBVBKG3LWog0lWYGWnJhVEZkqFAqvmcF09/GPKRIYTJ9LSZCt+/Hr6/ufx39/Ph6Pv58Pfz/x5/NvH/PwfvD54OuBr4e+H/h+6H7A/YD7AfcD7gcK3Q/8/wfE5ye/PwQIECBAgAABAgQIECBQT+CPr++/Pn/+VbDe+CYmQIAAAQIECBAgQIAAgR+B5/8Uf/584G8CBAgQIECAAAECBAgQqC3w+fP7xLUZTE+AAAECBAgQIECAAIHaAs/fLvU/iLXfA6YnQIAAAQIECBAgQIDAS0AH8UXhAQECBAgQIECAAAECBOoK6CDWzd7kBAgQIECAAAECBAgQWAjoIC5IPEGAAAECBAgQIECAAIF6AjqI9TI3MQECBAgQIECAAAECBFYFdBBXabxAgAABAgQIECBAgACBOgI6iHWyNikBAgQIECBAgAABAgQ2BXQQN4kcQIAAAQIECBAgQIAAgfwCOoj5MzYhAQIECBAgQIAAAQIEdgvoIO6mciABAgQIECBAgAABAgTyCugg5s3WZAQIECBAgAABAgQIEDgsoIN4mMwJBAgQIECAAAECBAgQyCegg5gvUxMRIECAAAECBAgQIEDgtIAO4mk6JxIgQIAAAQIECBAgQCCPgA5inixNQoAAAQIECBAgQIAAgcsCOoiXCS1AgAABAgQIECBAgACB+AI6iPEzNAEBAgQIECBAgAABAgSaCeggNqO0EAECBAgQIECAAAECBOIK6CDGzc7OCRAgQIAAAQIECBAg0FxAB7E5qQUJECBAgAABAgQIECAQT0AHMV5mdkyAAAECBAgQIECAAIFuAjqI3WgtTIAAAQIECBAgQIAAgTgCOohxsrJTAgQIECBAgAABAgQIdBfQQexO7AIECBAgQIAAAQIECBCYX0AHcf6M7JAAAQIECBAgQIAAAQLDBHQQh1G7EAECBAgQIECAAAECBOYV0EGcNxs7I0CAAAECBAgQIECAwHABHcTh5C5IgAABAgQIECBAgACB+QR0EOfLxI4IECBAgAABAgQIECBwm4AO4m30LkyAAAECBAgQIECAAIF5BHQQ58nCTggQIECAAAECBAgQIHC7gA7i7RHYAAECBAgQIECAAAECBO4X0EG8PwM7IECAAAECBAgQIECAwDQCOojTRGEjBAgQIECAAAECBAgQuE9AB/E+e1cmQIAAAQIECBAgQIDAdAI6iNNFYkMECBAgQIAAAQIECBAYL6CDON7cFQkQIECAAAECBAgQIDCtgA7itNHYGAECBAgQIECAAAECBMYJ6CCOs3YlAgQIECBAgAABAgQITC+ggzh9RDZIgAABAgQIECBAgACB/gI6iP2NXYEAAQIECBAgQIAAAQJhBHQQw0RlowQIECBAgAABAgQIEOgnoIPYz9bKBAgQIECAAAECBAgQCCeggxguMhsmQIAAAQIECBAgQIBAewEdxPamViRAgAABAgQIECBAgEBYAR3EsNHZOAECBAgQIECAAAECBNoJ6CC2s7QSAQIECBAgQIAAAQIEwgvoIIaP0AAECBAgQIAAAQIECBC4LqCDeN3QCgQIECBAgAABAgQIEEgjoIOYJkqDECBAgAABAgQIECBA4LyADuJ5O2cSIECAAAECBAgQIEAgnYAOYrpIDUSAAAECBAgQIECAAIHjAjqIx82cQYAAAQIECBAgQIAAgbQCOohpozUYAQIECBAgQIAAAQIE9gvoIO63ciQBAgQIECBAgAABAgTSC+ggpo/YgAQIECBAgAABAgQIENgW0EHcNnIEAQIECBAgQIAAAQIEygjoIJaJ2qAECBAgQIAAAQIECBBYF9BBXLfxCgECBAgQIECAAAECBMoJ6CCWi9zABAgQIECAAAECBAgQWAroIC5NPEOAAAECBAgQIECAAIGyAjqIZaM3OAECBAgQIECAAAECBN4COohvC48IECBAgAABAgQIECBQXkAHsfxbAAABAgQIECBAgAABAgQeDx1E7wICBAgQIECAAAECBAgQeAnoIL4oPCBAgAABAgQIECBAgEBdAR3EutmbnAABAgQIECBAgAABAgsBHcQFiScIECBAgAABAgQIECBQT0AHsV7mJiZAgAABAgQIECBAgMCqgA7iKo0XCBAgQIAAAQIECBAgUEdAB7FO1iYlQIAAAQIECBAgQIDApoAO4iaRAwgQIECAAAECBAgQIJBfQAcxf8YmJECAAAECBAgQIECAwG4BHcTdVA4kQIAAAQIECBAgQIBAXgEdxLzZmowAAQIECBAgQIAAAQKHBXQQD5M5gQABAgQIECBAgAABAvkEdBDzZWoiAgQIECBAgAABAgQInBbQQTxN50QCBAgQIECAAAECBAjkEdBBzJOlSQgQIECAAAECBAgQIHBZQAfxMqEFCBAgQIAAAQIECBAgEF9ABzF+hiYgQIAAAQIECBAgQIBAMwEdxGaUFiJAgAABAgQIECBAgEBcAR3EuNnZOQECBAgQIECAAAECBJoL6CA2J7UgAQIECBAgQIAAAQIE4gnoIMbLzI4JECBAgAABAgQIECDQTUAHsRuthQkQIECAAAECBAgQIBBHQAcxTlZ2SoAAAQIECBAgQIAAge4COojdiV2AAAECBAgQIECAAAEC8wvoIM6fkR0SIECAAAECBAgQIEBgmIAO4jBqFyJAgAABAgQIECBAgMC8AjqI82ZjZwQIECBAgAABAgQIEBguoIM4nNwFCRAgQIAAAQIECBAgMJ+ADuJ8mdgRAQIECBAgQIAAAQIEbhPQQbyN3oUJECBAgAABAgQIECAwj4AO4jxZ2AkBAgQIECBAgAABAgRuF9BBvD0CGyBAgAABAgQIECBAgMD9AjqI92dgBwQIECBAgAABAgQIEJhGQAdxmihshAABAgQIECBAgAABAvcJ6CDeZ+/KBAgQIECAAAECBAgQmE5AB3G6SGyIAAECBAgQIECAAAEC4wV0EMebuyIBAgQIECBAgAABAgSmFdBBnDYaGyNAgAABAgQIECBAgMA4AR3EcdauRIAAAQIECBAgQIAAgekFdBCnj8gGCRAgQIAAAQIECBAg0F9AB7G/sSsQIECAAAECBAgQIEAgjIAOYpiobJQAAQIECBAgQIAAAQL9BHQQ+9lamQABAgQIECBAgAABAuEEdBDDRWbDBAgQIECAAAECBAgQaC+gg9je1IoECBAgQIAAAQIECBAIK6CDGDY6GydAgAABAgQIECBAgEA7AR3EdpZWIkCAAAECBAgQIECAQHgBHcTwERqAAAECBAgQIECAAAEC1wV0EK8bWoEAAQIECBAgQIAAAQJpBHQQ00RpEAIECBAgQIAAAQIECJwX0EE8b+dMAgQIECBAgAABAgQIpBPQQUwXqYEIECBAgAABAgQIECBwXEAH8biZMwgQIECAAAECBAgQIJBWQAcxbbQGI0CAAAECBAgQIECAwH4BHcT9Vo4kQIAAAQIECBAgQIBAegEdxPQRG5AAAQIECBAgQIAAAQLbAjqI20aOIECAAAECBAgQIECAQBkBHcQyURuUAAECBAgQIECAAAEC6wI6iOs2XiFAgAABAgQIECBAgEA5AR3EcpEbmAABAgQIECBAgAABAksBHcSliWcIECBAgAABAgQIECBQVkAHsWz0BidAgAABAgQIECBAgMBbQAfxbeERAQIECBAgQIAAAQIEygvoIJZ/CwAgQIAAAQIECBAgQIDA46GD6F1AgAABAgQIECBAgAABAi8BHcQXhQcECBAgQIAAAQIECBCoK6CDWDd7kxMgQIAAAQIECBAgQGAhoIO4IPEEAQIECBAgQIAAAQIE6gnoINbL3MQECBAgQIAAAQIECBBYFdBBXKXxAgECBAgQIECAAAECBOoI6CDWydqkBAgQIECAAAECBAgQ2BTQQdwkcgABAgQIECBAgAABAgTyC+gg5s/YhAQIECBAgAABAgQIENgtoIO4m8qBBAgQIECAAAECBAgQyCugg5g3W5MRIECAAAECBAgQIEDgsIAO4mEyJxAgQIAAAQIECBAgQCCfgA5ivkxNRIAAAQIECBAgQIAAgdMCOoin6ZxIgAABAgQIECBAgACBPAI6iHmyNAkBAgQIECBAgAABAgQuC+ggXia0AAECBAgQIECAAAECBOIL6CDGz9AEBAgQIECAAAECBAgQaCagg9iM0kIECBAgQIAAAQIECBCIK6CDGDc7OydAgAABAgQIECBAgEBzAR3E5qQWJECAAAECBAgQIECAQDwBHcR4mdkxAQIECBAgQIAAAQIEugnoIHajtTABAgQIECBAgAABAgTiCOggxsnKTgkQIECAAAECBAgQINBdQAexO7ELECBAgAABAgQIECBAYH4BHcT5M7JDAgQIECBAgAABAgQIDBPQQRxG7UIECBAgQIAAAQIECBCYV0AHcd5s7IwAAQIECBAgQIAAAQLDBXQQh5O7IAECBAgQIECAAAECBOYT0EGcLxM7IkCAAAECBAgQIECAwG0COoi30bswAQIECBAgQIAAAQIE5hHQQZwnCzshQIAAAQIECBAgQIDA7QI6iLdHYAMECBAgQIAAAQIECBC4X0AH8f4M7IAAAQIECBAgQIAAAQLTCOggThOFjRAgQIAAAQIECBAgQOA+AR3E++xdmQABAgQIECBAgAABAtMJ6CBOF4kNESBAgAABAgQIECBAYLyADuJ4c1ckQIAAAQIECBAgQIDAtAI6iNNGY2MECBAgQIAAAQIECBAYJ6CDOM7alQgQIECAAAECBAgQIDC9gA7i9BHZIAECBAgQIECAAAECBPoL6CD2N3YFAgQIECBAgAABAgQIhBHQQQwTlY0SIECAAAECBAgQIECgn4AOYj9bKxMgQIAAAQIECBAgQCCcgA5iuMhsmAABAgQIECBAgAABAu0FdBDbm1qRAAECBAgQIECAAAECYQV0EMNGZ+MECBAgQIAAAQIECBBoJ6CD2M7SSgQIECBAgAABAgQIEAgvoIMYPkIDECBAgAABAgQIECBA4LqADuJ1QysQIECAAAECBAgQIEAgjYAOYpooDUKAAAECBAgQIECAAIHzAjqI5+2cSYAAAQIECBAgQIAAgXQCOojpIjUQAQIECBAgQIAAAQIEjgvoIB43cwYBAgQIECBAgAABAgTSCuggpo3WYAQIECBAgAABAgQIENgvoIO438qRBAgQIECAAAECBAgQSC+gg5g+YgMSIECAAAECBAgQIEBgW0AHcdvIEQQIECBAgAABAgQIECgjoINYJmqDEiBAgAABAgQIECBAYF1AB3HdxisECBAgQIAAAQIECBAoJ6CDWC5yAxMgQIAAAQIECBAgQGApoIO4NPEMAQIECBAgQIAAAQIEygroIJaN3uAECBAgQIAAAQIECBB4C+ggvi08IkCAAAECBAgQIECAQHkBHcTybwEABAgQIECAAAECBAgQeDx0EL0LCBAgQIAAAQIECBAgQOAloIP4ovCAAAECBAgQIECAAAECdQV0EOtmb3ICBAgQIECAAAECBAgsBHQQFySeIECAAAECBAgQIECAQD0BHcR6mZuYAAECBAgQIECAAAECqwI6iKs0XiBAgAABAgQIECBAgEAdAR3EOlmblAABAgQIECBAgAABApsCOoibRA4gQIAAAQIECBAgQIBAfgEdxPwZm5AAAQIECBAgQIAAAQK7BXQQd1M5kAABAgQIECBAgAABAnkFdBDzZmsyAgQIECBAgAABAgQIHBbQQTxM5gQCBAgQIECAAAECBAjkE9BBzJepiQgQIECAAAECBAgQIHBaQAfxNJ0TCRAgQIAAAQIECBAgkEdABzFPliYhQIAAAQIECBAgQIDAZYGPX1/fv39QfDyev2/6/Pv5U6OPeXg/+Hzw9cDXQ98PfD90P+B+wP2A+wH3A/XuB/4Fh1Fgpa68VPcAAAAASUVORK5CYII=;" vertex="1" parent="1">
          <mxGeometry x="-260" y="790" width="904" height="213" as="geometry" />
        </mxCell>
        <mxCell id="tVIQ4qI_l5tq1dGleDvw-3" value="" style="shape=image;verticalLabelPosition=bottom;labelBackgroundColor=default;verticalAlign=top;aspect=fixed;imageAspect=0;image=data:image/png,iVBORw0KGgoAAAANSUhEUgAAADIAAAByCAYAAAARZ4LdAAAAAXNSR0IArs4c6QAAAHhlWElmTU0AKgAAAAgABAEaAAUAAAABAAAAPgEbAAUAAAABAAAARgEoAAMAAAABAAIAAIdpAAQAAAABAAAATgAAAAAAAABIAAAAAQAAAEgAAAABAAOgAQADAAAAAQABAACgAgAEAAAAAQAAADKgAwAEAAAAAQAAAHIAAAAAHrfD1QAAAAlwSFlzAAALEwAACxMBAJqcGAAABKpJREFUeAHtmk+IV1UUx0crp+zPoOKUYzCIVJCKYuLCRaYgtZiiAjVdBC5SCBTUnbiYnaBCIqEbK8hcWILlzjaWiygiCgLDaGEw+C/TQFNLHf18h9/By+P9ZN793d9v7hvOgc/c+967975zzn3n3vPeb7q6XNwD7gH3gHvAPeAecA+4B9wD7gH3gHvAPZCTB7pRpjcnhWJ1+ZyOd+G12AEmxnZM3O+RxnhWVh4+F0MqK17sMG4MebhoWYvHk+n/HkyoOM7zFdu3vflC7qCgjeX1WA1Tz8glFPkdqs5IP30mxRqRU7+jKKNZjJ6RcRPsbkjF53I97d+u2Ce75sqj9PxrEWgmA1zYDjObNcjh/GgMaVlPj5GWXZh4gHEzIw8ldkzZcMOcvAYn4KeyBn4u8EDVnCjoWlpV7vYyxIx7mX4/l446BicXcE/tGbHICVGSOvtVLNyEKjOifcakxyp1Kueh7B74G2wGo2ek04Y/yQ31BvlDoLyMuAH7oBOrKLeJlyV0/Qj06Jn3Vf4Gm2EqZCvT0WwLnIJQecXQZ5D9Y/QqSn4B/0FoQC28j84jMoe/ofId837qXKu47OpjxPfwy4iZNfujR+tLuA02O1ep74e5UDt5Fo0HYQjMIJXfwiqI/s5L3zERZQ9vwXEYBjPqLPVB6IPayWw03gl/gRl0i7p+VlgMtRPlV2vhJJhBiqkXIUo07SnlGQb7FIqrV7N7aK85BzNA6YlmTBtoZUltiD7nrKisxf0OiqEoSW2Ivl0NwmhnJFT6OgffhCe8XmcPpM7/Z+EMrUT9cB4uQi3lJbS25VSlPiZshdpteo+h9F7QkhoadIfjr+FdeAJqI8qql8FBCA1S/V84BPrngNSPNkO2R15gWCn/B3wIFxrHZpzi6APQI5m1mCF6rCSaAW2YH8MVMINUakePTlHo21YpGhLerJsDZcXhLCmGoiT1zj5aJRbRcC2sht6gk3KvKOmkIZodKb8Gnitoq2VaC8OxwvlsDl9BkzAOwvqfXNsB2cbF0yi3CYpfE2XEP3AAlkJMYkm3zshsbqMXpNDz/3P8FayER6EWoiA2I76j/j5Mq4XmBSWf4ngjaGZcYjyQOuC0c8cG8lX6/gh6NMdc5qOBxUhMuTzWAmWpKUUfrVuRx2M7pzbkNIpoiS1jQ0PJ3SXXDzeuRRftSFGa5Uv2QqVPPsU2evFqSVLPyIOUGWhc7CtppGVbos00W5mCZp+ABf856mEs9HOsFUvXtaFmJ3rr028i18CMsJ+iT3LuTdD7hy25l6hr+c5CpIjSEqXlprxK5VvbYQFoZQuvWV3XsxEpaoqp1OvsHpgFJoqVIbB2MnIXdDJeud2DZR6XpaBS+HUwGcpEq6VermR4szZl/Tp6Lusf/zvqiZibpU4apcNc0FtiVckqaZyB9hbEMeXyqtZb+9QrRauBG26UpuOoytSG2E1/pVJMHG0ROFNy7Yh1jC3bkTRKl7LE0JymR66YNOon6pbEBm9pkBw6uyE5zEKoQ7tiJLyH1ZUsboOLdiLnshvl9Er7RkUltYm+Az0V+3lz94B7wD3gHnAPuAfcA+4B94B7wD3gHnAPjFcP3AN5fSL6RN3/mAAAAABJRU5ErkJggg==;" vertex="1" parent="1">
          <mxGeometry x="-140" y="798" width="50" height="114" as="geometry" />
        </mxCell>
        <mxCell id="tVIQ4qI_l5tq1dGleDvw-6" value="" style="edgeStyle=orthogonalEdgeStyle;rounded=0;orthogonalLoop=1;jettySize=auto;html=1;" edge="1" parent="1">
          <mxGeometry relative="1" as="geometry">
            <mxPoint x="130" y="849.9949999999999" as="sourcePoint" />
            <mxPoint x="190" y="849.9949999999999" as="targetPoint" />
          </mxGeometry>
        </mxCell>
        <mxCell id="tVIQ4qI_l5tq1dGleDvw-10" style="edgeStyle=orthogonalEdgeStyle;rounded=0;orthogonalLoop=1;jettySize=auto;html=1;exitX=1;exitY=0.5;exitDx=0;exitDy=0;entryX=0;entryY=0.5;entryDx=0;entryDy=0;" edge="1" parent="1" source="tVIQ4qI_l5tq1dGleDvw-34">
          <mxGeometry relative="1" as="geometry">
            <mxPoint x="316" y="849.9950000000001" as="sourcePoint" />
            <mxPoint x="390" y="850" as="targetPoint" />
          </mxGeometry>
        </mxCell>
        <mxCell id="tVIQ4qI_l5tq1dGleDvw-17" style="edgeStyle=orthogonalEdgeStyle;rounded=0;orthogonalLoop=1;jettySize=auto;html=1;exitX=1;exitY=0.5;exitDx=0;exitDy=0;" edge="1" parent="1">
          <mxGeometry relative="1" as="geometry">
            <mxPoint x="614" y="850" as="sourcePoint" />
            <mxPoint x="-240" y="1030" as="targetPoint" />
            <Array as="points">
              <mxPoint x="634" y="850" />
              <mxPoint x="634" y="1020" />
              <mxPoint x="-240" y="1020" />
            </Array>
          </mxGeometry>
        </mxCell>
        <mxCell id="tVIQ4qI_l5tq1dGleDvw-12" value="" style="shape=image;verticalLabelPosition=bottom;labelBackgroundColor=default;verticalAlign=top;aspect=fixed;imageAspect=0;image=data:image/png,iVBORw0KGgoAAAANSUhEUgAAADwAAAAuCAYAAAB04nriAAAAAXNSR0IArs4c6QAAAHhlWElmTU0AKgAAAAgABAEaAAUAAAABAAAAPgEbAAUAAAABAAAARgEoAAMAAAABAAIAAIdpAAQAAAABAAAATgAAAAAAAABIAAAAAQAAAEgAAAABAAOgAQADAAAAAQABAACgAgAEAAAAAQAAADygAwAEAAAAAQAAAC4AAAAAonAZiQAAAAlwSFlzAAALEwAACxMBAJqcGAAAAYlJREFUaAXtmgFuwjAMAB3GJ6Y9Ztlrpr2C8IqJ19A9ZuwVkMVp5yaqpTRIE9g4ElJIE/D5LBqFOgDw6bVLL+3tKwGGbUG5L/rauj4BvSJUCTzggOKWgTeKAVk0A2bTomjQDCuSyaKYYTYtigbNsCKZLIoZZtOiaNAMK5LJophhNi2KBs2wIpksysMZLo94qozEn08P8DQe7sXoIUI+83Iv76GaKOzNAphAETJRUnPjyWY8HXYILxW8Kun4fQgQN0fIsIS67CT4MTHLS/c+UgHDZHFd0FO5r5t8N7MIONvtCStVgUTLBNzDOs+VZ3kG7irnGVlarwB2Q3fwrR+37g/8/wUz8DXfNd2br1l6qzUF8Fnzn2mUXwJ2zx8DuL6ylrj5IOAxBR2WBZYzMlbA2XILBKvAXd4k2kXgxV56Agm0EcHbFZX6eZ+TgisFN59iPwqOf03oxFiV9JqV0ucYsHSDrfjNcCtD0q+bYekGW/E/nOFypxVa2RF8PT+Fh/H/AeODl5ob8g0I+AugF0xl24MJdwAAAABJRU5ErkJggg==;" vertex="1" parent="1">
          <mxGeometry x="-230" y="857.5" width="60" height="46" as="geometry" />
        </mxCell>
        <mxCell id="tVIQ4qI_l5tq1dGleDvw-13" value="" style="shape=image;verticalLabelPosition=bottom;labelBackgroundColor=default;verticalAlign=top;aspect=fixed;imageAspect=0;image=data:image/png,iVBORw0KGgoAAAANSUhEUgAAAtUAAABjCAYAAABUv/wqAAAAAXNSR0IArs4c6QAAAHhlWElmTU0AKgAAAAgABAEaAAUAAAABAAAAPgEbAAUAAAABAAAARgEoAAMAAAABAAIAAIdpAAQAAAABAAAATgAAAAAAAABIAAAAAQAAAEgAAAABAAOgAQADAAAAAQABAACgAgAEAAAAAQAAAtWgAwAEAAAAAQAAAGMAAAAArxj2yQAAAAlwSFlzAAALEwAACxMBAJqcGAAAGT5JREFUeAHtnQuQZFV5x3uW90t5VeRVEFhgUSGGGBE2VKYHCAZxlecijwpYCBsFTSkPA0KmR4LgulolBYSHZQhBrUCitQUalojTC7g8hFRESHhJLWTZRQEF5BnYnfz+vbeXu70zPT09fW/fc+7/q/rPffTte77vd+553HNP36lUbCZgAiZgAiZgAiZgAiZgAiZgAiZgAiZgAiZgAiZgAibQTwID/UzcaZuACZhAHwmM9jFtJ11eAkPlDT3KyMeijMpBdUNgwJ3qbrD5OyZgAjEQUGMYUwdnmHgWozqKwaoEMYhGYggmiWGUpdvdiDKUUFSPhJKnuv5Unuqo6CauodnA+qF5HJC/tYB8tav9IVAnWcnWPwL1/iXd85SHOaPikWKxQQKpxxKM4zABE4ibwIy4w+trdGrgQjM1YFJoFirr0DjbXxMwARMwARMwgQkIeKR6AjA92l3r0XnyOk3T3+Yyr3Snk06VL+tGoIZCstGQnLWvJmACJmACJmAC7Ql4pLo9H39qAiZgAiZgAiZgAiZgApMScKd6UkQ+wARMwARMwARMwARMwATaE3Cnuj0ff2oCJmACJmACJmACJmACkxJwp3pSRD7ABEzABLomsB7f3Kjrbxfzi5vhViivEOuEoH5btEknB/oYE8iJgMpYKKZ+5KahOJu1n+5UZ03Y5zcBEygjgfcRdB29gn6P7kYfQKGa2oovoxVIMb2GFqH3olBtPxxfgl5Hr6KlaB6ymUA/COgG/Hz0DFIZW46+hop6A7s3vv0UqS5Q+VmGzkZF9RfXsjd3qrNn7BRMwATKRWBLwl2chFxl+WGkzmgd7YxCtHNxegR9A81Cc9EW6NZkySIoUwfmBqQOwdHoIKQ8uwodiWwmkDeB80jwQvRVpDKmMvfXaAEqol2PUypHKi+6ub4czUefQzYT6DmBsZ6fMfsT1khCCsmqOBvi6+nks3y39Y9AVmVUozU698xUaBuw/hKqpfb1ejXLa+pBnP1xi8PqiCrOw1r292qzyokUUxZ2Eid9E+2YOvkM1nXz8/3Uvl6vipctLgK9yFNdey+jf25Bo461Rq03b9nf7abKU7XbL6e+dyjrinu/1D6t3oHubdnX7abOH5oqykibCZiACZhA7who6sej6FepU77F+u1Io6Ih2oY4nY5HMTyWBKLPQjM1/ENIj9qbtoqVe5BG4G0mkCeBnUhM192PWhLVkyDNr/5Iy/5+b26dOPBkiyPa3qhlX6k23akuVXY7WBMwgRwIqFHR6FKrabRXjWeIplHqY1C6wTyObY326mYhNHsch5e0OL0N27PRwpb93jSBrAk0y1VrvfEwCa9ERas3FiV+nZACoxgOR603BqlD4l9dP/4QHaEJmIAJ5ErgCVI7Hv0B+k0qZT0y1XxrNT7qjIZkX8dZ/TBpOVKncy80C30atXYE2BWMbYWnhyDFcip6Ct2IbCaQJ4GlJPY20lSqW1DTDmZlPbRdc0dBlr/Dj9PQt9BcpJvUjyPVD1ei0ppHqkub9Q7cBEwgIwLXc141kDWkgYtt0ZfQAUimRjI00xsydLOgx76a3rIHUmda80BDtpk4fy26COkx+wXoJWQzgTwJaHqY6o1j0b5JwlWWui5lRawzNsEv1XN7ItUJqhvuRqENGOBy78yd6t6x9JlMwARMQAQ09/gU9FdInU7N252H1EC+lohFUHYd3v4Z2gXtjzRydilaiP4YhWr347ieHmjkXW830Si1XmtmM4G8CZxLgr9A/4leRIvQEvQIeh4VydTxvwJdiHZAesPRTsny2yxLa+5UlzbrHbgJmECGBL7Hud+DDkbvR7shNZS/RqGZ3jzwEXQVejpxXvM8NcL7LDoy2Rfy4lGcVyehhj6NBpDNBPIk8AKJ/QWaieagrdAXkTqtKmdFsqNwRlM9VCdotFqmwQPVCYeiTVEpTY8mbSZgAiZgAr0n8Cqn1OPQpv0lK/c1NwJa7oivG6PWGwI1ppoCotHr0OwCHNa8UHWk06ZH17sivYlBTxlsJpA3Ab1Bo/lWjdmsvwv9PG8nJklvdz7XTYBurtOmMqVpIdsjPbErnXmkunRZ7oBNwAQyJvAxzn8n2jqVjqZIHISuS+0LZVWN4xvo2BaHZ7GtxlWPp0MzjQbOR5rvnrbj2FiG3KFOU/F61gT0ZOQH6AuphLRP2/ei/0ntL8LqwzixD1IdkDbVfZritjS9s0zrHqkuU247VhMwgTwI1EnkMnQz+g7SnN1z0EJ0GwrNNCL9FXQR0gjuTWgPdBJaga5GodkCHNZNwl1I8WjUTe8QPxCdhmwmkCcB/ZOT29E3kW70/ht9Aunp1mGoaHYlDp2BVJ99F+nG+hgkX4dR6wg2u8ph7lSXI58dpQmYQH4ENCViDvoUUsOjudTqZGtkdBUK0S7BaY1Yn4LOQ4rpFnQx0iPf0Ewjbfsj3ewcjjS95QmkTsGtyGYCeRNQR/UtpI70Eejn6GBUxCljv8WvfdEFiY9HsdSUlRPRjai05k51abPegZuACWRIQJ22szM8fz9OrcYypgbzIeI5uR8gnaYJjENAo9XXJBrn48LtehaPziycV312yHOq+5wBTt4ETMAETMAETMAETCB8Au5Uh5+HjsAETMAETMAETMAETKDPBNyp7nMGOHkTMAETMAETMAETMIHwCcTcqa6Gnz2OwARMwARMwARMwARMIAQCsXeqayFkgn00ARMwARMwARMwARMIm0DUb/+oVqvD9Xp9kCwaQfWws8rem0BpCFSJtF6aaB2oCZjAdAhU+XJ9OifowXerPThHXqcIyde8mPQsndg71RU61tVaraaLSB3rGrKZgAkUm8Ao7uVVXqvFRjFl72KKpxlLczllGP5CKQjkWV9MBHR4og8Ktr+KP1Io/uJqWBZ1p1pZMTw8XBkcHKwMDQ01L6JaWFlkb02gfASSp0wKvJZx9M16IeNkcjl9NUllMJfU8kmkGVM+qTmVIAnkWF9MxGdoog8Ktn+sYP5E5070nWrlGAWuMjY21uhYMx1Eu2r6k4ON5pBGr5OocsLQGmX5HBpr+azRWNs4BEZHRysjIyPDPGXSp40/WsnAQmkMOwldZUDXVL2TgwM4ppr4GFMejQXAPTgXc6wvgmNjh/MlUIpOdRNpquCp05hHRa0GLiQbxtnQGuVqAjg01iFdF33xVU+ZMHWstaLyWkc2EzABE1iHgOuLdZB4Rx8IqFNd7UO6fUsyKXiaZz2GE1k31PW+BdpdwtXka/Xuvt63bw2Scmg+N3qMfSMWSMJJea1QXkdxWTdOtUBct5smYAI5E3B9kTNwJ7cOAXWqRzU9okzmglem3HasoRNQefXvIkLPRftvAvkQcH2RD2enMj6BxvQPTYsomzULnuZt5jzPumyoHW92BGrZnbpYZ+7j7yKKBcLemED3BGrdfzWsb7q+CCu/YvK20amOKaCpxKKCJ+X0g6ipuOZjTaATAs0f8nVybBTH9OF3EVFwcxAmAAHXF74MTCAHArwYw5bMsdaQfbVHzMd6dJ48T1MjMSkkq+JsiI9aenGtlbbgJuVVZayGurUQy2i7WHtxTbU7f96fVUlQMcVk/bzmXF9Mr76Y6DrMIk83I7GBiRKcxn75amXHoDJjGpkT1Vc1HYSGukpQo6iGbCZgAgUlkJRXeTeMalopqKmO3bSgvtmt1QTWZ7GJYcRLIJD6Qp3oL6MV6BX0GlqE3otsAREo7d3reIHzeLl5F1ebZh7qPKFZDYelkKyKs7oRCs3kc3WaTo93CZduH1O4VNZqXbDMsozujT8/RW8gpbMMnY2yGH3itA3rxTXVPFfr8nB2/O8E2rz14B5tVzmPYsrK9uPES9BbaBVaiuahLC3La24yv0tXN4wX8DTqi4n49ipPP0ECbyPVE3uiOUjX51NoC9QLk69Wdgw8Ut16lWqONQWxwnKYz2qtn3vbBEygWAQ0z5qnTCqvowXy7Hp8WQ8diTTSdDmajz6HQrT34PRG6FPj6PUAA1Le3IA0Gng0OggtRlch5ZktUgIFrS9E+0voNrQAPYZuRhegndGByBYAgfUD8NEumoAJmEBbAnq8i1XpXI+xHEJ11C87lIT3RR9G9yVOXMryo+hEdFmyL6TFljj7G/STkJxu4+vxfLYL0rXyTHLcHSyVd3PRD5N9XkRIoGD1RZPw1qw80NxIlupcyzZcvfDfohOYUXQH8/ZPr9cbGBiosBwh7Vre6Ts9EzCB7giooeQJk76sEevGijb6YGocZU+uXqz5q22N9oZo78bp34Xo+AQ+38v+dIdah2kKyD2oV4/adU5bQQkUqL5oEvoxK8egdB1xHNtvotuRLQAC7lSnMolX61WGhlTPNirbWuojr5qACRScgMovN8N13FQh1rJfph8XrUQnpBxQQ6l5yT9K7QtpVZ3qF5HeSvAnaB8U8ujZ4/i/BKVtGzZmo4XpnV6Pk0CB6osm4K+z8ku0HH0H6fq8GP0degXZAiDg6R9JJqmA8ei4zqZGqLXsqY2t+IcqUywbz6iZtM3E7UY6lYEd59V6mpBPZgIlJKCbYfrTdUJv3BX3GYFGdE9D30KaSqAO3MfRcnQlCtHUqT4AKYaN0YZInezPou+jUG0rHD8EzUKnoqfQjcgWMYGs64su23sNcmr6mp50vQ/NRM+jR5AtEALuVJNRWRawNYVLHelGeUmujIHGq8AqY8uvHlYH253rQEqM3SwUAfWjkxEn3QzXpuPcmrKqk6i8DgzUK6vGFmuzi/KpV7Tpl/x7og2QGsp/Q3qUG6I9h9MPI/1w6i70oWT9epYPIn0Woqnjci3STYNinIdeQrYICfSyvhgPz5o6pLv2Xjfc2yHN9X8arYdOR3pysi/6L2QrOIFST/9QAUs61GqQh3qdV2PPXF2rjM0YbTTQ7U5OB3t1YWx3kD8zARNIE2gpv7X0Z1NdH1txDeU0KauNBpEzNDrW3PyqfKosd25qAK9AF6IdkH6wuFOy/DbLEO1cnB5EdyKNpt2HPoPU8B+PQrX7cVw/wtwLqR3QKPX5yBYZgV7WF+OhmWZ7r9dSHor09hl1qGUrkW74nkVHIlsABBoj1epYxmipHyKsE16zgPGBKtLaOgf0YkcyGt3ZqRpTQ+qdHeujTKDcBJLpWoKgyquulW6Np0VjdKDbf10da54qDewwb6D9gY1Pj+LvcqQGUg2jTG+YUAM5H22KXkOhm2LS6JlG1kK3RwlA0lOFz6NL0CQXBUfYgiDQy/piwoCn197vyHk1rerXLefX0y7Np96tZb83C0pAneohdTAjtGHeBCBbJ7Q8CljtrDnrpNt2B6NiGq0e2P4z9bbH+UMTSBHQtRyjJa+8Gje0pPzW+VDBa9m1TXEEuqIR7YHtT1dHvp3tzocvoGaHunms5lprWsj26FfNnQEs9UTzj9AKlG701QHV9Ik6Cs00jUX5oScKaXuTjV3RFujl9AcxrLu+yOZanWo9oqdgLe296oM30LHoB6lrbRbrqk/0w0VbAATUqa4H4Gc3Llb5krSWpRrkyRrGtb6Xz4ZHq/PhHE0qI/y4NppgUoHQpx5Obb6z2svfPzRufKc0uoQf6zaG7zj3zprmF38SqUHU6GfTPsaKRqiXNncEshzAz++ix9ERKZ+rrL8LaSpIaKabgbnoX5B+DNY0vcJsGYquQ01Mri+auVyI5VrtvUakv4IuQrqhuwntgU5Cmv5xNbIFQECd6tJYav50Leugh89S+2kzgUwJ1DI9e/9Ovk6PWk/TdEPMcgS3+hz3Wo3heJSuZOcZ6DakzugjSO+fPQwpttYRbHYV2uTvF9Gt6Ab0H2hb9LfoZ0gd09BsAQ5rVPAupA6MnizoPyseiE5DMVotxqCIqf/1xVRvzsfPiEvYrRHrU9B56EV0C7oY/RbZAiBQik61GuRk3nhuDXL97scq1QP2nNoloB9G2UzABNYikDxd0j49XaprpRc2OHuK5bPzRNUA6seKmmJwMNIc6yfRiUg/hAvRFuH0R9EcdC7SmzIuQ/PRGArN9DRhf3QOOhxpPusTSDc+unmwBUogq/qiLQ69KWiq7ff4x6t+CLWOaIuoLB9G36nuSwHr9upJ3l3d7df9PROIjUBSfuvEpRtiLXtmU77pbaY8fmPY/LS51CPbM5sbkSz/nTikWOwhAjk5lmAcB5VExv9voqeM3d73FGdRThZ1pzqZb1oHds8b5MkycOQbN1eq/3rWZIf5cxMwgQkI9HL+9HhJdPU0SSfSqJTNBEygUASyri/aB7uSPsaMavtj/GkZCOhX3TFbneB6+si4U1j1JY9NufHt4h9MdOqOjzOBoAikfv+g8lssS/4hTLGcsjcmUF4C/a4vGm/tmuLNttv7OK/XmDvVNbKszw2y7l47ND8K6hCUDysDgTx+kKinSTYTMIHwCeRRX0xOye395IziPyLmTnXfc69x9zpZZ1l3twOrhnzX2vfssgPFIaCb4VrW7nTzNImf5I24rGadMz6/CUyJQC71xWQeub2fjFA5Po96TnURsjBpgGtrXg6vV++seUy0csT/7KUIuWQfCkagnpc/+kcujf+o2GGC7lB3CMqHmUB+BOr5JTVhSjV9Qv2gxciNV59e1cqxcz44+PjS55ZqfcGVixZfc8OdWq8mYmGLjYA71TnlaKoxruWUpJMxARPogID+9Xjjprfdu2a5Ee7gPyl2kJoPMQETiJDAWu/KnjvvmtUhNvrYlT9M4m0uk00vYiTgTnWMueqYTMAEOiUwqgM1wnTZ339yqdZnf2jmlh/cZ+ctH/jl0/rnC5WLvnnL0oWLfqHVxrFaKahVE7/WauAL6munbimmonPvNBYfZwImEDmBgcjj62d4Y/1M3GkHQUBzAetBeBqnkyqjyoNYTJ3pxageSUBV4hhEI5HEozBG0UBE8TiUMP/5kfMtGwIu29lwbZxVDXZoVsNhKSSr4qwaqtBMPldDczoyf0Mso+2yILZrSuUjxLLdLo9iu+baxVqWz5Snlhk0yrbf/lGWYu84TcAETMAETMAETMAEMiPgTnVmaH1iEzABEzABEzABEzCBshBwp7osOe04TcAETMAETMAETMAEMiPgTnVmaH1iEzABEzABEzABEzCBshBwp7osOe04TcAETMAETMAETMAEMiPgTnVmaH1iEzABE6jofwFsEhmHzYknpldHxZhHkV1yDscEwiDgTnUY+WQvTcAEwiKwH+4uQa+jV9FStPr/q7ESoK2Hz5ei59Hv0StoIdoFhWqx5VGo+WC/TSAaAu5UR5OVDsQETKAgBNQBvQG9ho5GB6HF6Cp0JArRTsDpz6P56E/RuegD6IcoxHYkxjwiK2wmYAL9JKDHXjYTMAETMIHeETieU2kEdwg9k5z2DpaHorlIHdGQTB3QC9A/InWqZQ8g/bODK9Ae6FEUksWWRyGxt68mEC0Bd6qjzVoHZgIm0CcC95JuukMtN1ahe9AW2gjM1Kn+LHqwxe+fJdshxhRbHrVkjTdNwAT6QSDEx3b94OQ0TcAETKBTAo9zoOZTp20bNmYjzUMOzf4Ph29Hz7U4PoftZUij1qFZbHkUGn/7awJREvBIdZTZ6qBMwAQKQGArfDgEzUKnoqfQjShkOwDn90aDSHPFz0SaBhKqxZhHoeaF/TaB4Am4Ux18FjoAEzCBghKYiV/XoncjjfLq7R8voZDtCzh/BNoALUD6AWbIFmMehZwf9t0Egibg6R9BZ5+dNwETKDCB+/FtS7QXGkEapT4fhWz6oaVGdw9Du6Mn0GYoVIsxj0LNC/ttAsET8Eh18FnoAEzABApOQG/GkDS6q9fSXYJCnjKh927fijTPejk6Bv0TCtliy6OQ88K+m0CwBDxSHWzW2XETMIGCEtDr584Yx7c32bcrCu1tGXof9XVoO5S2lWy8jd6f3hnIemx5FAh2u2kCcRNwpzru/HV0JmAC+RPQPF29z3nblqSPY3sZerllf9E3X8TBk5HmU6ftz9lQR/uR9M5A1mPLo0Cw200TiJuAp3/Enb+OzgRMIH8C+gHfsegudBN6Aek/Kx6ITkOh2VM4rOkdf4N2Qz9B+yLFpGkT30OhWWx5FBp/+2sCURJwpzrKbHVQJmACfSTwMGnvj85Bh6ON0RNIP+67FYVop+O0ftR3FDoLPYeuQ19Fb6DQLMY8Ci0P7K8JREfAnerostQBmYAJFIDAQ/igKROxmP4BzOWJYokptjyKJV8chwkES8BzqoPNOjtuAiZgAiZgAiZgAiZQFALuVBclJ+yHCZiACZiACZiACZhAsATcqQ426+y4CZiACZiACZiACZhAUQi4U12UnLAfJmACJmACJmACJmACwRJwpzrYrLPjJmACJmACJmACJmACRSHgt38UJSfshwmYgAmYgAmYQGgEhkJz2P5mR8Cd6uzY+swmYAImYAImYAJxE6jHHZ6jmwqBgakc7GOnRGBsSkf74DIS0AhHvYyBFyRml9GCZETJ3HC7W7IMd7gmYAImYAImYAImYAImYAImYAImYAImYAImYAImYAImYAImYAImYAImYAImYAImYAImYAImYAImYAImYAImYAImYAImYAImYAImYAImYAImYAImYAImYAImYAImYAImYAImYAImYAImYAImYAImYAImYAImYAImUHAC/w8GRI4aZZPVjwAAAABJRU5ErkJggg==;" vertex="1" parent="1">
          <mxGeometry x="-120" y="903.5" width="725" height="99" as="geometry" />
        </mxCell>
        <mxCell id="tVIQ4qI_l5tq1dGleDvw-20" value="" style="shape=image;verticalLabelPosition=bottom;labelBackgroundColor=default;verticalAlign=top;aspect=fixed;imageAspect=0;image=data:image/png,iVBORw0KGgoAAAANSUhEUgAAAUkAAADMCAYAAAD+gFF3AAAAAXNSR0IArs4c6QAAAHhlWElmTU0AKgAAAAgABAEaAAUAAAABAAAAPgEbAAUAAAABAAAARgEoAAMAAAABAAIAAIdpAAQAAAABAAAATgAAAAAAAABIAAAAAQAAAEgAAAABAAOgAQADAAAAAQABAACgAgAEAAAAAQAAAUmgAwAEAAAAAQAAAMwAAAAAjywZKAAAAAlwSFlzAAALEwAACxMBAJqcGAAAQABJREFUeAHsnQeAZFWV92/nMHmGIS4iggoCJhAMwGICwYBgZF1wdxVc9TORFMUFFTEgYsKwIOKKSlJRMCEKmBBcURAQlByHyZ27urr6ff/fuXWqX9e8nq7uqSqYrTozr+u9++6959xzzz3v3HNTCE1ocqDJgSYHmhxocqDJgSYHmhxocqDJgSYHmhxocqDJgSYHmhxocqD+HEhCOEDX1cUr0e+pXPWnpImxyYEmB5oceBxxQIrQlSOKcbrr1McRyU1SmhxocqDJgfpwoGgtTqcYy8MPqA9VTSxNDjQ50OTA44QDG7EcyxUkz1c/TshuktHkQJMDTQ7UngOztCJdaR5Qe8qaGOrNgZZ6I/y/ii+fzyft7e3/V4vXeOX6yEc0LHPq7Mp9wAGyJ2c2KBOpVC5geHg4tLa2ht7e3pDL5UJnZ2cYHR21sK6uLovjfwgfGxsLCxcutDjd3d3+qvlbQw40lWSVmCuhj1Jfpfya2TzGHGiZQ9OoUEl6yRAZfVxNMRI2Pj5uyrOjo8OjZP6iKFGmTWhyYLPigAQ3ueuuuxIJL8oyaWtr032H3fNc7aulpSWRBWL4ZIUkPFcbx3T5gRd8aszJvHnz6oYXesDJb09PT7JgwYKa4b5aOJT5rK+W0K1ktamLxYsXJ8uXb2Fl7u3tsd/p6mhTwxtVvtQbNL4uWbIkufPOO5NCoZC0iplNqAIHJiYm1HUaCUNDQ2YNYBXkcmN2j8VQ7Qt8qsAwMhJxXnLJpVXHMR3N4AU/Fs2uu+5aN7zQA05+V61aFW655ZbS83S0zi68oLy5knAAVuFs4dQPh4lkUOknLI/Z4Z5ZRtrb28LKlass79Wr19QEh9PcqPKFZY+MrVmzxtoXst5UkrNtCNPEx6+Uz48FfYHNt4SQ4UOqFaCEqUzwAPl8rlaoNpovftiBgYGNxqnmS8pNmfHX9ff3m++uOvlLSQUpNzP6xdNTTplDttTB4BzSVZZkaGjYGu7ERGLdbfyZtYJGlS+UonqB5gah/SLfc3C81KpaNu98JVTJHXfcEbbddltzrCNkMBulWX1okf8qbz4sHP7gam1tExp6CrWGFin/kYDfDLx/+ctfwl577WVlrTVm8kdBTEwUJLwdKnOLfSiqM2AmC7JFyrHIwtZEdffil4Rw7bUVF2tiQkqrRXbHxMZ9ihVnmIoo41Y8bjXrcXwcSx4eqAE35SvFpU2/5QMMT/kArVy5MmyzzTahGsOxO4i0V+tCG9yu62e6ZoIFinCErnm6Vuv6li4Hhuzeq4tW/wVdaTPlTXreUtd0AO6/ZbxcrrB9dO2pa3tdj+r6va4rdeV1OZTnX9CL9bpoKfd5pKxfrDqU4vz58yXIoSTAtRHiYJYESoruvfyCprCqoyyySjc1DMUMgO95z3ve1Jc1fpLBLmgzax1+0z3Eit90IA9VN1JsoA/RyR8K7ZUqyf86NbQWemJ6JLcG8IQnPCHcc8+99nFIkpaafpgYGGpM+Wq1D6983qYoqzWD4GuSB76/fh1agXxckIpPuh1Sabj3vHZLhW+TCvf35b8fTsX323/XzdA0aVF8+xcjzpT/TxRvq2LcDX7UWJPbb7890TSOhOlA+iIRVDMAB5e6uobjoosuqhmu8ozBqW5Jou5IqbzlcWr17DjJf926dcn69euriGpceY2VrnXrViX5k0/mmzftNbH/AUnyq6uTREnzGryTy6WK9EzNanBwMFm7dq3Jlj6OU19W+alR5cvZSDu+9dZb7bEan+DyuQjv2kCDTA3YVo9vmBoUKumfpPGco/Qfy7h+XJbvF/V8ni5Mnwd0fV3Xh4q/6/T7BF0n6ALS+aP4P6LrM7pu0QUcrOt7dvc4+CMhNgsKy5Uv/utf//q6UoXljF/wTW96k1mU9UIe5w62BCkMc2vUynpWxzssXrxFWP/eY01FnrVgqzD2wVOtmCN77xMm9jsgDF72i7Di25eER566u4xb9SQ6+kJbOx0fvt3VBbVW6zEwl5J7uoUM2tUKGlW+asXPbyhjpOKe4i/ytbOu6QDlQ/y/FX+5T8ffIRWetiSnC1f0TNhboeTNRTd8ka400NVHCX6+GDhd/ijwc3V5Xs8qxp/ywyennpYkloSUI2hLv/ZQhz/y1yRSkmZFgg7rrl6ABUu5uR599NFEiqJ6qAtY//B0LCnoWt+/KsnlC8lNf70zOePMs5MhoRrJFVTufDKmIq9ZOZZ8+INnJqPDE0lhYljXyqR/4AGlr00v4pRTTjEr0q086qBW0Kjy5fystiXpyuJq3dytq0XX0R5Y9ovC8XdfLXtX7cczihmu1O9huvrKENAFP17Xe8rCyx/xWaZpfXJ5hMfi2ScTY03gm/v5z39eNzIYAWTghl+gfGVILQmREFv2jDzCg2r5jCLNiK7fTYSFC5bIYgvhzrv+EY499h2hTQtgRoYeCXfd89cgVR2WLOkI3/nOpaGrRwNIw+1heKhbPmlc5pP5eH7V+JWStH4/eeHrbmurxpBCNmWNKl9Z3KhGd9vzxYI8r/jwb/pNd1+Lwaas8P2huL7vgTX4xXe4fzFfLMVN7ZeMp2hck7p/zG5bNIrKgIV3Nw888MC60YJSRFnh3D7ooIPqhhdEfBC4GDzSZHJzNVSNgFZEmAs116qrLUyMq4nItTA+qjej42HRokVhV3Wvu7o0+i0dxccCaNNoe1fnPPGlNgoSHEx5YpoZgIulJgPbljtKuDHlq1j8KT/VVJJkfL4uzAs+p4x4l8M7iwEo01jb5TEqe4bu8iudMm3tXZl+MYf7ZUpzZjHdWv3+cQ55VD0J00GYn+iNtFaj6FmEY8GAjwm3P/rRj7Ki1DQMCxZLUiucbD5b9ZGhKCVe+mEg//If/zZotpE+Cu1hXFODxgtaPqh/WJk33/yLcNn3fil6FD3RPNkaWZGUEcXIB4Ly45usZZ03snyVy1O1leRDQvDTIpJjypDJu23WHRL432XvZvt4sxKgjNMXgy0OaSV5rwfO4hfr8xJdv9Z1j64X6VIzCP+hq1/XYw7utKexaMQzPPzww3WjiRUlOPaZeoRVWc/J5Fiwca7kRHjyk9PVXI3ix658zKlVyig+961fIUsxkZIqhM62nvC5s74ohZiYJdfR1RkGB0ZDl1YjdnV124BKNSjJymPp0qXWc0BRujWfFa8aYY0qX1m8q7aSBMfXi4hQLOkBGbcicZ6heDYF6PKiFdIXo9UO2/mNfrH+ZgsvVoLX6tpP1wJddLdfoOuHuh4XgBWBP45RZnaF2XJLjPf6AAoSqwb8n/70p826qQ9mWWsy31DSKGjo4KoeuJKky8yk+Xz45ZW/CYceelgYGNTOPOL58PBgOP74Y0NB3d5cbly/mjbx4N2hs71Fo81jIT++KR2kjZfkE5/4RLH8cXTb/bMbTzW3t40qX1ncqoWSvEKIVuhC0o4uIl2o338t3qcHQYpBs/75Z6VAEaavD6RywaJ12NZvZvH774p7iK4zdNEK8ZB/UtfjBrAkUJD45VAcmi9YN9qiJdNtivLYY481/2C9kIPbu5x33323Kcvq4KaDg5LkF9FVh7ulM/zsZ9eGN//7YWHh/B7rYnd0dUgRjsuS69HAkZavqS9zww1/Yn576NS7ri71z2sAKMQPfvCDxnOyxx9dnUn02cQ2qnxlcaMWShKr65tFZCibTl1v1jVf14O6yucyKqjqcGcqxyel7iu9xe+I2+BEXccUE71Uv4cV7x/zn9WrV9vACcoRH+EWW2xRN5rwg7IkkC4ZjZfNJuoJWLEMYuy4446lEfbq4E9bkvJBSt+Nj7eEgT6pz9ZEfG4JHRrifv+JJwkvS0FbAkvm2RQD/dqm5zWr59JxmZl6LDt4TV2jHPlQ8HGsFTSyfJXztBZKEhznFREt1y+K5R3F53P0K4mqOaSVJAp6U+B8JcYHChwbfx77v3SxceBr+yxNrB6osrLYePlorD4Fh8Ebny6y8VTVe8u6WiwdLvyE1YWi4uFHrWPJkkU2QoiSGh7GLR3Cpz/zGVOYmqYoX6T8S9/4Wjj9tLPCWE5+yorWRVg2s/6z++67C2+rKUcUJf7oWkEjy1c5T2ulJP8uRL8uIvuyfnfRhYV5bjGs1j+PCMFPikiO1C+DRlmAv3GvrBdlYV8qPu+r3+nyKktS20csCbcumJbym9/8prYIU7mPjeXNH0kj1b57Ni0m9bqmtyho/JFMP3rkkUekMKqlJGWpSUQZtZbHT1ZbLEZHh3yvvXrQ/84uBnMmQrs2E2GEu1WDOZ2aO7lsi95w/wPyMLUUdF++ZqF67NAyORsko+5ZcVTLj1OjyldWbdVKSYLLFeLSIuIf6ZeBlnoBPkrsgQ5dv9d1lC6nBUl+m67bdX1G10xwoSIw+Rz4z/jz2P716SD84ps84IAD6kYQ+xqysQbWxre+9S3DXy/kWM/MDcWCXb58edX9oehG04/RLSnLbb6sZhQou8PQzW0NXz/vHP1qcw3x3seNWjXHcjyfyLqrltLO5igWJPWNFQ0NtYJGla8sftZSSV4qhPLmlOCrpbtNv5Gn3DbuGyz7PSWV9V91z4g6fRIsRvyka3QxwsEFPQzq3K9rJmBB7kXFSFim2u7lsQWsCKwqGkx69Us9qPKRT3xib33rW2s6gFBeHlNOKjcWLAqzepDIxypLckIzHSfaNJqdC7s+5XnhxJPeKoWE35Hu7WgYyQ2GI488Qt3qJLR3MOVcI+yjSXja03YJvfM6QnsNFRfdbaxo6h53Ry2hUeUri6fVUJI+58F/HQ+rXHwA5w7dX+Uvir/j+sXS48PNCLID9/Yx1286z9V69hECia1tszav7BerMQ0owufo+rkuFCTg/aGbdP8uXW8hUDAd3vg2hK/pBnoZqX/Mu9woKL72NBqU1iWXXOJ01vwXawYF5X6xWjfYdIH4KKAouSh/9RRliyzUjtDW0iHha9USw2EtMeTbKiHUZ3ZCcyZ71cXvlBMSnP19a43vbRrhnlAXfEi70gNsJ1kruPHGG4N2PjK8tRy0gf5Gla9a1R1isVjXdOLBO6bQZAHzJbLmTGCpZYVn5TGbsO0U+am6UHRZMB09Hpf3seV4SPFXVl1dN7iQYiptbMF2YRJqSKgLaOTTNrgA2cEHH1wXnGkkbLABsHWY36ffz/V+fDxnfFS3Obn3nkeTyy+7KlFQUshPFDfzYEOJQvL3O29LRnPwPKc6yCVrV/UnA+tzyete+5akr3+u2Deezuv3wQcfNFqkqG2rvI2nmvvbRpYvuCZ/e1W3SsO6ovvKbxbwDqsxC4YVyFUOfJazwsvjzfaZ+ZNYtf3TJJyOHo/Oe7rejzkw/QZLiilACxYsNOuiXkSxPRvWFAM3P/nJT2owwjx9ScCLPw6fKH7Javrl8nn5HfVP23SGbbfaMmy//VYhh7WqzSw6O1vC0OhAGNPs8e223U7PXYopkNQvXrIgzF/UGe68834NKE1P+6a8obfwla98xXbKrv4k+g0pa1T52pAT01t/WXGbYRvhgD4+G3lb/Ve+OzhTgJivd22lO2hXgRSUVHr3HQYz6gUoCy7cDOzUTRe5WtDR0W4DMSjKDik7lh62trQJB/dybXQv0LLELh1ZgadGUBzIMeeQql/jWfIRx1e1+PvGN75RvtG40gqfoW9uUgtcjSpfWbysn3RnYf8/FIZVR+OtF2BRdXR0mjXHV/8FL3hBvVDbYBF+SJTli1/84rrhBZH7ypj+Aw+qNwWItdljUjzSdppW9MgD7DjULh8ka7QnTFmyrGaskAvPfMbTI99lzeqlFFdBI9taLTFvUehon65DtelsYgI9uKhv+E/5awWNKl9Z/GwqySyuzCGMAYV6WpMMmqxdGydyM7m6llZFOTvAhYKkIf3iF1fV9ePAhwj8WNC/+93vzOVQTt/cnqUM2+UVkqXWqW3Qnr7H3mGPPXaVEkTpcclMlNs9NzJsVnS3BnBYQz6hem/VINJYbiK8/wMnqRteuybFIXNsZIIVjyVZS2hU+criae1qNAvb/+EwhKqeQCNhQjUWLLvDcLJbvYCyYtFhzdDVxz9YL6C8+ORQFPvvv39Vpx/lRoaC5skH9bBtug+/UUGiJGMvYcH8JeG000/XZHKN7qu7ndekcqBVSxaXLW0LIzWcmcNHiY8DHwp4Xk1/rBUi9adR5SvFgtJtfVt2Ce3/vRuECuHlF0vHu95p6zJ9DwfKn9NcSb/jvvyZ/FEU4OLddLsAladL40jfp+MRnn5O3/MORUUYfkEGE1DWDum46Xt/77/l79LP6XuP77/p/TNRGtBSKaTzTd/H9K1WDu1REYY0NLd4afkkhthU+gfWhv86+SOyK8X/efNDV++8UBAN3d0M+HSbT5P8yB9L02ES34a+68l3HnvyN/2ODS6YwM9HAp9hegekdLzJ1Nl35XHLn0lFWJxeFj+IyFd5vPLnNLb0u/S9552Om74nLnXKBwD8X/3qV+23knSeTzk+D8/6Tcflw+9AO3ZoKknnxCb+IrAoLnyDHLN68cWXaAeZn1kYo8AcmOWKEwuI7jnPH/vYx2zuG+nvueceCUhBaS8uxT300EPtnrj77befUcn9mWeeadYEe0niq2JHnHPPPdfes78jO4YjbMR9yUteUsJ3zjnnWBydD1Pc6TofPqO1yMRjtPiAAw4wK5Hnww8/vJTHd7/7XTti895777X3+MVOO+208Pa3v92sOfeJku6II45QVzyeX8yxEsTV+T+GF+uTnYOIh1Duu+++JRxve9vbjAbe/f73v7dwfh2OPvpow4UA77nnnrYsEWVx3HHH2XI98Nx8882WDt6TP7z4l3/5F8uCfJ/73OeW8H3kIx+xcHh/9913qSvdEX7wo8vDPE0Q69ISxMMPP8p2AppIOsKLD9jfutYLFywNZ3/py8qjJ6x5dLXoXWmb7X7j/G9pBZBG/aWzX/qSQ4p11qp6OBAXpz2fe+55ITc2LDfJo7asEHqd9yh8/LveaF/96leXeIE8sBT0lFP+yxQjcT/1qU/ZIgLqmDJRNoCyUmbKDg94D0/ARTi88rh777234eMZ3jrAc8L4ZXUV94ccEstEftQZ+RNOXVKnAHUMHuqcd8gAssA9gIywFyjPHEVBXpQFmcJlhIzxjvwOO4wtH7SNmOhClpFN3sEv6guZR4YBZJp3tClknXvyJh1lBmgbhOHLptfFss6zzjrL4pIfck8Pabfdnmbt90UvepEZPKRpQpU4IEbbPEl+OeqUXwmSHb0qwS/dE8YFqFLtXhWRyNeUqOIVP74jPe8lRJqLF+fEEY+5gZ4ePPH91APBJBgWh3gcQUocALTcky95OUgokxUrVpTS+NxDTwctgP/29fXZM/lAg5eJZ4+Tz48nxJNwl8rp8fgFvz+TGfPSeAYnvIhlMDSWp/OCEOaFAp6GdOp+Wpjj9/I5v4iTnk8acU3YIWbwF2B+5OCQaNO8yF13fb6FDdtBYwXRpgmTmiMJHH/8iToIbCIZZH5qYUT0jSaDA2PJTTfemqxZHfkxllP4+LDS5S2/wcGc4R/LU38cnBbLCh1OK/eAFI3xgmc16lLZ7KX+5HJjyb333uePFtfLRhrKDHi+zhN4xHuuKGsF4zcy53LhcaOMFCweefEefgOeR7oOPYx01Dl1jwwA5Ek4cQgbGhq0+kXuCPM46V/qHyAvaCUeMkoaB/C7XBSzMTr92F3SeD7lvHAZd/yTv3H+LfE52I/8q6QimtnATJiKQCAgXilUmFcUFeGVQRiVDxBGfBorlYfQejx+aRRRoFzZxcZNWoTIFQHPjhc6SOsX+SKg6XzT+GgEXABloaECHsY9YShFgPzBBX7HQbjfExd8Tg/v4IU3YI9HOGGu5MBHGn6zeOF0OR2cmOjKkrwAp9nLmn5PGPl6g48pYpn7+4aS4aF8cscd9xjtOigxGR7JS3GilDWRvCBFrn/aTzKZGJ9IRgb5WPDBkXZV3L61SbLdVvsWs0RBoARy4pvOYh9TSmMvdZI3XniZSeA0E+aKYJIXUZE89alPLX2UkB94QVm8nPx6uTzM8wUHYaTxd/5MfafDkAuPR3rnObRNV3/UrQP1R917Hum8KRv4nC7eUZeOw/PgPWWhnPzyHK9Yf9CYzhd8zgvCuZBRwGXQcRLGPeXhl/fEBw+08Qw9f/nLXxTOgtQmVIUDmOpiuHUF8KUAYrj5uZh8rQqzZ8K4J4xuoyrGugGqJJn+mmsnH6O+tNb9IA/Cx7QujvD+/kF7ljBYV0sCZ/mD74orrrDBBtJAh3dbSC/BtvQDA/1GA3HIo7+/z8KhiXgSDrt4z+g14YSBh1+fH0n++hCY3wjfEc+k9/JTPsLpqpEH4RLIEq28p9zOE7rMlM/jqjlbN5AwaIZWgHygg7RsNqyPjPnm4L3kfgqt0Ow08V5Cr+eCdb/Il2fwA9AGz3t6urWHZHtY+eioNtaVX85cVBNajhh3gJ/QDrt9fSttfbbtFqT30plhVHkBYplOWFwoWuS3Vd6FCS78a4zIa6u1kZxoSFSenPGCckOD85fy49+l7ginrJSLvSt5R3c2bo0HrT1WH5FHdK/j1CCXQ8ru+foveREffvK+v3/AnnkPbwHesfUevl/nO75vFg2QFpqhBfq8DpE/6IGP5MN76h4ZIB4X4eCkbJGGEQsjDfkjWy5ryCt50D7ImzLxjvQxb9pCX4k+wpAT8iWtlx1cXq6c1t17/vwCxIcnUsRFuiOt4CNtLKvWpDahOhzgi/O3v/3NrAAJj3gfv1aqpOIXNT6rAvX12vCLLmEpfXlJAxDXv7CqWAvzdxLs0rOE0O6J4+8tQH8kQH5rv8Ql3zQQNjw8aWHwjnSel+OmXIT5M/mcffbZlpXTyQO0EY8w7h2dhxHH84YXMU6kiTzhBbi4d1r5db5CGzSTP/mk4zlt/KbTgtP55OE8g99hbAwLYiK55eZ71DWWNSSW83ZkRN29MVnW1uVOkgsv/o5ZSqSbyEOnupDqTqvXnSxesJvdq2+gt8Napvio4soyH+asbvE+Vq3R7XXoNEOLl9vyVpmlqKwunGZ/Lx9lyQIibnnZiO/5+i9hng+WGOD14PkS5mnJ03nu4bFuI888rddDjBPr38O8jLxLh6Xrh3wcD+E8e95f/vKXSWo0IaNeTgsshpeHlcs8eTkP/Jcw54XnxS9h5Ecef/3rX+05elSroycaOhcYfMcdd4Qdd9zRvnx8Rfka1RL4CvOlVYXaV7eWuNJ5S47M2sB6kLBZObEE6gHgE6vNisCS3G677arGZ/kiNfDSGu7UQMJ2224f5i9oU11q0IVTEFVmQDaUdv3RGTu9Gt3hoDDtWJ4fGw3tOrZhUItdd3nqs8Pd994YOrsnZK2ulxVKr0KZTBRXBiESLeQ1e9lg4IO5ofBAjdnKjTVUK2hE+XJe0qbuvPNO7e70tGk3pfC4zd/HKQdcgBnh09cxXHbZZXWjlMOwUM50yWis9VKQ6QLS3d5mm22sK5cO35R7Pmqj6soPDOSk3KTXigta7GPH0ku972jrDiNyf+SkKFF1eY1Wt3e2iw9xA9552i6NaUSc193axo5CxUykTK212eT0uY2Y/va3v7Xi8ZFAUfIhrhU0unyl+dr0Saa5sRnd46/BkkJBYdG96lWvqhv1aqPmxwEhU1VotPUCFAOKGUB5qWtUNdRy/odFi7vCm97wJi28YYPdsqy1IzmaTr1r+eNkQcvXODaqX02oZ9Nd/GI33vyH8I9/3CO65Its7ZA1yfQY6EUxQuvcFCQ8prx8ELnUPbVnZVgTaFT5ymJmU0lmcWUzCENZ0NXCkY+DHWdzvQCH9qJFi23w48orr7Tufr1woyApK79///vfzZqtFu7unth1XbR4SRjPsSabTjEfAHhr/eQwqnNuFi1cHhYu7rBVN70LosuBgYHFS2Vda+32yLAc/9odkIGfjswNOKKSnw3dKMjvf//79kHCgqcO/GMxm3wqjduo8pXFn/q1rCzszbA5c4DRZSxILAq6vtdff/2c85ptQhqs/pcsSLp+9QJwoxywIJ/ylKdYt7NauIsrDMOIRrrZ0UcD0kXPIUpNAZoM0inL/Ve/+qmhpNwtbZ2yONkVaZ6NeqNK27StGjTK9tPoNrwhVE0tQQljjc7Nj/jqVx+mD6O68NLePgKrzGoCjSpfWcxsKsksrmwGYShG/EY0GLpfe+1VyXlm1SkYliuNCGvm9a9/vU3hqE7OM+eCQx3AzYCiqK5fDmUmFdYRt0fDkoxdZX5LGjMcfPAhpqQ7O4uDMUVVSiygq0sDK3TLC3nddyuEfJWZNs8ww5RIc4AbbrheH4XYXUdB19LN0ajylVUtTSWZxZXNJAxBxrJAWXDVC2icDJwA3/jGN+qKGxcD3U1NLQm//vWvq9rlzNs5DTo8SZbkuvWjZi2XazWUMh8laOA3C0aGOXKXuandZeozK3blYXvvvY8txaOuwa0pNZUnnkPMRpSvLDbVr2VlYW+GzZkDWFR06Zi0S9cTq7JeME8bOzBo5NYMCqte4JYzO7IzJaaaU2CSia5wwQWXhLvv/EtYogEcc0XaoAvdbV1FV+Kpp55qZUdRlltz1MdRR71PU4R6NUNIE7o1PahaMDwcp3yhJBlNR4nVChpVvrL42VSSWVzZDMJYsUMD9RFuGmy9AH8ku9FgVV111VVVHTyZqQwoCBQj03/A32ojzjOlquy9Fn5o9Yw2KpHLMKdR62hFohnpd1vf23zAbEoCbvNJwowUcBDYeH4sdPewCmi6gZtUglncHnPMMTZQx0exDO0scqksaqPKVxZ3mkoyiyubQZgvGUNZ0VgfeOCBulHtliODRi9/+cur2uWdqRB8GLiwnO+77z51O6s3BUjF0bzH2CS0XkV4ihZkypGolSo29QZFRfnLLUmUF1OCSNLZ0So6q3MkEni+853vGE7wUufun52JZ3N536jylcWrppLM4spmEIY1Ff1jBWswO++8c92oZn2sK6t77rmnrpYkZfYR/S222MLKXq2Ci6Vh3vzOkJey7OiQWWkrY7AgXVnq/bzecPLJJxvvmV1QriShpW+t1pqjLDWaHQduNp1CRvX5OFF+3Cx8HLNwbzqmmEOjylcW/5pKMosrm0EYDQRlxfw8uto0nHrB8uXLzZID79ZbbyVFVT/cKEiUk0M1fZLtckNeeunlUkQhrHhU+xfasAtlo0vNpWWJsiBPlU8S/qO4ygfMFBzue/ia8D/fvEg+zTjzwBJW4c8//dM/mavBfaHluKuAopRFo8pXiQGpm6aSTDFjc7p1a4odVGisP/7xj+tGftqSwVKq52mJrAShq8mFVcVVTVi+xZaaJB7CDk9cJkWIgiR/Lmk/tZa2ok90OgVFdxsYHhqVv3gg9Gj+pCnYRHlgmfJ+Ym4068ztUrmpg1r6oRtVvqi7cmgqyXKObCbPWFNMA0FBYlG+8pWvrBvl7g/DijtNu5PXsttXXihwU2ZGt6tpRTqesQlt4aUTCQGpIZWtV/rRN+8YM6XMOnnoQJFMB63JgrBQW5zncvKZFtSPZ45kCyPdc/eh8kFkVBsFSd3Xku+NKl9Z9dlUkllc2UzCGLzAwY51VU/AgsGCAzcjvT6QUw8aUIwMmnD42erVq42GauId0WmIrdJpo6NaGz0lY5pKYscIHHzwwaag4MF0igprVEanVuikZx3g3+SaG3CUh7Zds48EdT7dPM255b5hqkaUrw25UJwJlvWiGfb45gCKYsmSJaYksCx+9KMf1Y1g8NHddOWMhVNPQDkzkXrrrbeu6hQgyjCgLnKn5jq26sxt7zpPlq0tLBXPtZO2lR+LlisLOFpW2xJK0VbPDrngggtKS1Gpg+kUdBY9sw1rZPkq51X1arA85+ZzTTnQ09NrioJT7Gio9dwFyKe/YNVx6Nl0iqJWDGA5JF1dLiZvVwte+5p3hZ9feVEY0Q4/LE3U1rIbZK0zb+zjgBU5nV/yb7c+FH51zc9CRxebZGyYxwaZVhjgq5x8tU0tLclGlq/y6mgqyXKOzPGZL3s9lQVHOvgUFLfo5kj6rJOxbhrrkXl6nKhXTUVQCTEoZ6bA3KvNcas1cIMu6yhNTOdwBnyfaWpoKnFEm64+Cpr6zir7Lrtsp7yidV2QXFQL2E8SnJSfOudjUStoZPkq52lTSZZzZI7PWFf1BnBy0XBuuummuqEHJ91dFAS46zkFCOuJTR5QjjvuuGPVlmOiD7t7Fmm1DBtUyIrUjQ43iKPRZgwSo9UU07e//R1TUtP5YjUrS4M+UcNWc+T/Wc96lrlX+EBMh7uaQtCI8pXFv6aSzOLKHMJqOR0jixwUFDixKBDmZzzjGVnRahLGDkDgxqI88sgjq9rlnYlglGNLS5uN6ENDtfiOJdnXv0rdbI0/57UDuW1JxgYWelGyKOOE7je9KZ7j3WZ+y9LLEundmsbJjAOgwAhOleC3v/2dfRQYWYf3jqNK2U/JplHlawoTig9NJZnFlTmE0f3K6nrNIauKktBQUI4uzLVcolZOECtdcC8A5+rQ91o21nLcWK6tWvaHsvzHP/5R/nqTnvM6DRFob0vC+r5VmhNZ7u9kmWGcUYAl19GhYfAMkCiE7q444b2jijMPDjroQFu77ShZX10raFT5yuJnU0lmcWUOYVh0NGCgHsoSJYFvqp4402wBP+XEouGqJ4Abn+hOO+20CZYkfWgUvfWltd46hJcc+AKNbo+HdinhxYuW28CNts+NUYiqa9myZeFDH/pQyR+cVW6s0e9e+IXwtmPepz0llXHJ2ORGV0SZlXSjYbg1sJz5QFH3tQSXr1rimC5v5Ar8ALJV79kT5XQ1lWQ5RzbhmdFORnvZwuu73/1u+OUvf1nqHrE5rQNx+FLjX/vUpz5lG9gi+H/6059klQ1oadylHtVGrREaruc///klH9wXvvB5ayxr1qwJ999/vwnT17/+dUuHhXnooa8qKev99tuvNKfuv//7vy3OihUr7JwaLNBTTz3Vwjh/mA0roA1gXp4D008I14Ht5o+E9k984hPmC6XhQpvDEUccYdNkmKrzi1/8wnYq0nG7NseQPN71rnd51LDPPvsYnYS/973vsbi8ZAUR6f/whz+U4r71rW+1e3hBOm/Ixx13nNGGn/TWW2+1OBwrAU+h881vPsrC2Lrs2c/ep9gFbgmnnPIhvY9nTj/y6Dqt2+4JP7ziJxaXc7ePOvLflK/MwpZ8ePFLD5Byi37nJz3pSYaP3sOqVauMZngP35ke9IY3vM4W6Yz0d4WDX/bmsGbdmpDXBrznnnueTlQcCOvWrrM6o8yf/vSnDR9/9t9/f7snnC49OzwB55xzjv3uttvTiiP67eHjHz/dwoi75557liz7o446yspM2eEBAE/gDXGPO+5YC4N2fJzEA5y33F933XU2cv+HP1xvH2HKdOKJJ1h65z3xAOqSfJFD6hiaqXPqjnTIggMygqsGnMgc8ob8IVPkgYwB0Hr44Yfb/bXXXhsOPPClpTOVSEca0iLDgMs0dY2sA9BJG6BOAG8bzK1duXKl4TvjjMh74nq6XXbZJTznOc+xNox8kWcTqsQBCUWiw+PF76mgyi+d+atuael8YcJVgRZZFZ7wDsjl4jnZqhw7p9gC9cffq5tnZwFLUBLSkQ/XzTffbPlJAKfEhS5Awql48bxkCaGF8WdgIOJN00Aa8gTIT8Ju9+AGyIv4AHGhFdAE7NI530pmaXmnLqq954+XWY2pdA8uNVqLQ76et9PJe78nvdN2yy23lPA5f9Jpp/BiTOea69xmYERnZA8PR/oLBc4Gj/R/7rMXJuOie3i0YGXUwE0ymhtIJsaLZ5yPqS45jFsAL+AD4Dx2PhBG+Y/+j/9KckoK1/N2zvWwaBAvi7zxMsNfLxO/zuc0LwYHIw9J4/goH3wE4I/nBy945zxznjiP4GEaB3E9D6fD03h9aWDQ8vf3hDtuj0Me1DV8IM9itlZHyIYDsgs4fdw7PfDC6YG/HhfanSaX2XQeyHa6Pjw/54XTqJVaJCvJpMcjzPnKPXDbbbepLAUd2tGEqnCAbi+XKsMuCYp9rfBhid92T9eBbhLvJAhmFfDlxbcU40+YdSRBNJqIA7A9F2ukiUN60mC9+Rb7xNljjz0MB7iYGqQKN7zQRD5MFynf+h9ae3riUjdPB718QXnmPenJD5ocd2/vvJIFIkFKdfnjBGfScqmRmFUA7rVr15YsI/KiC+VfaugjTI3AeME9YR0dk6tKCAOw1tnUg7i77bab0cQ9NJLGu6HQ7WWSQhTv8pogzqi1jn4VDym3do0MUl5KE/vDXT3agkxdYSkbo2dIO5S3aM11QQM5E2MFw92meZmnnfZxDZjFDXexligL/KYrTZnV8MSTIItxxAaC2P+DzTJGRkdUj51h3ZoBo5/yQzP1SLngN8+AGreF88zV3d1l5XG5Ik4sXzwQjPS8o/58ahg8AOAJeRDOe+gjfqyHWLfEcx6TDzRRZ6QFz+67727vyYf30E65PQ0ySXzqWspP+KIMkDZesVy4DMBNHNqDywV4yAsayZ+LeaHM2iCul4l8qTt4Rb6OH9kGN/R53VMnns7jgTPys9vqALzww8M43ZJ86SHE/MeruBwALjcwuGKhEtkI1p/pGnC14PQSRMUTG0QMj4Icd5mm0uOaXNKjCKOyizuQU2mEkwdAem9gNOzOzugb5L0LnQsFz1y883mV5B8FKipR8ieMOAgV5UBAic89+Hg3qsbONBSed911V4tD4yOtCx2KjDYKfgChJz4XvKChQDP3/o6yAZQJWiZ0iBbxuKABYeZiojNAHPLjPXnw6woLvJSN8BYd7Zofo9ztSqSBny7VhbreQwODOke7Szxt1XnbKJMezW8U/p4OGyBpVbpx8UF2kbScul5jlCEf3vOedxvdlDeWR6PhumdAiXJ7mZcu6w1rHlWd50Zsj8mODqlK0Qhv/aIc8Aw+w2PCyZMwgIbv9c4KI8rHx4N4hDOZnnvwU1Z4aGVW2aED+SGN8wieUIfERzH4ZHz4GutZJz0qDhe40wBdMe9Yd+RJ/RHu74gfec/HJtYXZQEfMsL8S9IRBg5Pxy/lhwbookx8KDi7ifiUNfIiKkHyA4hPeciPi7TgJz3PvIvxpvKCcPDL+rT45A+v4AfhKGjqhDyaUCUOiMnJHXfcYV0SVXipy0A4oMqLN2X3HqhK9dspcQkkraf3XwlcqZtLnO9973tT4hEGePzy+/LnNH7eAdOlpXx0Q9RgSl3mmGLqX9Kn8/C36bD0vb9P01L+nne4JAhXwy51m0hLmMdP3+tNMp6I5oK6yrBZeUwU1P2bGBP9KoN6f7vu+s9kYV3jGAUciq88LZx+uB6920sYdWDvingdN2Fj+ULy1bO/b+9xqpDLxIRcGxNKE3vs9i5NZzq9vdSfNC88DP5DdxrK05bnm/We9Ol4nh9hWfKVfp91nw4rx+fv+HWc5XH8mfJRbimyKfKV5oXH9XzTz+n7NL7ye09bni/pcV3Q3Qaa3e0qKUmyET8tN75E5ZAOS997PL6WDuXvefYw/1VFmiVGNwe8OLrT8bLy8rRZ79L4s96n0/IVxprEajn++OONDk+T/s2ih/fpvNL3njZNS/n7aC1FS5yvPJaEQxpf+r70Xvs7hha6fUz1pq6op2i9tmrHH4AQrlbtcpHYzj2xLtltnEc23WVgQw25ZGk5rjStGSJQLHfMD1yAp/V7C0z9SfOCYClHs6ykwFOxYj7pgPJ807QRz5/T8Tw9YVnylX6fdZ8O8/w9LP3rOMvj+DPy5VZcWr7SvPC4nm/6OX3Pe549LH3vacvz9bjenidbpqdo/m4WHKC7QTdqwYKFpRHvehEObro0KIrPfe5z1gWrF26UIl1DGtIjjzwiGmJ3qjL8KMn4IdNNTOKPKXuhqBaLWRJBfrUWKSWNcgOMfkIH5a8nvOMd77AuLI2Xbi7d0VpBo8pXFj+bSjKLK5tBGF8/FAUWCwM/9dwFiJUm4KeRpi2qerEN3CgpdurGb1kR4Fd0wKIMZZZYmLRIPdrkrwakZH1iSaqvGB566CErd9qKnYybunMFnAralNszzzzTyk358Z/VcjJ5I8tXeR01lWQ5RzaTZ770dDcZ2QVe9rKX1Y1yBpdoRGz0cMghh5S6MvUggG4gI5Z0ifhIcD8zSFtp4CXuDBi724noZyMzB43l+22cY158inqOvzEuuwBttdVWpqwYiNgYMJAD0Mhi9z526S1wDn+w3lHMDDbEgb45ZFJhkkaVryz2NJVkFlc2gzAaKIqCxuIj0PUiG3wA1gwTh+sJKGf8kuB+4IEHbBRzZvyt8jzK+jX/o4u8RpllGtrgpazRCy88l151hGIUcMmbpTDSavRaF5azj8KjsN1vNZUGjaxKJx/99leHXZ+kCfmKp7EA/UpJtmjqUdtUK3Zq2umf/v73v9tL6h2Xg9fD9Cnm/qZR5SuLYy4xWe+aYY9jDmBV0EAZK8Ka8gZUD5JdUZkSMYuufr45jURauZmCxJSYbCU1ExfcgsSajKAx15kS2Xs2Ov7mN79pg1W+v+PGErbLNVECR1bCWnpT0c32229v1jN1j6U3Y3e/olyzIzWqfGVxo6kks7iyGYShLOhuYv7gG9xpp53qRjXKEYuKgaN3vvOdarAb8+fVjaxZIEJJSvRRWkXFpSJVBFiPb3nLW8zdUFGCKkb6/ve/XzrbByU5tw9EZQQ15WuSTxWKxmSC5t3jgwP4IrEk6BaxAqaWXa/yEtM4UZBMBj/rrLMq7PKW5zK3Z7q6dDfxyzG6zf3sICpIjlVA+OkF24BMhZlQdnhduZKaLX3ZhICXbekWL15sHyh4z8eqVtCo8pXFz9pxOQtbM6xqHGC7MixIup2sbChfHVE1RBkZ+WAJvkEUdS0tmnL0WHIMWOGL3WGHHUr+wfJ45c9xuIYxGS15lJ+RUwwZF9fkclt62NsjbVmBPkNJn3TSSZY9CjpbSbPsTkt4BP1DK+13U/+AhxMiWZVCV5irlkqyUeUrq56aSjKLK5tBGN3ddu3JRcPBqqunoqLB0h2jobLDDFZNvQDFgCVHeVGWDGBUBq4mEfm4ZA8F2dbWojO2nxGe9OQdKsqGtdqf/OQnjQYUdhYw+s8a7YH+sfDb33xXA00VTlPKyiwV9qIXvUj0RlcH5Y/ullSEKt42qnxlsbCpJLO4shmE+coTlAarbv7yl/od3+AKCty77vq0mk9HKa8OlBON+L777puDNYW5KEsyz2YirO3WCYlyXQzHXcnKUW3wzAcJS5pfVr9kAZs4wKM2TQHqH6yOggTPjTfeaHVN3vCe31pBI8tXOU+bSrKcI5vJM91rLDi624yy7rnns+tKOY0Ii/Kaa642q6peyH3AiG4+k8nxDVYGKJRJpdKpnSzGtGEFK3CesMM2oXdBZbmgIJnUjYJiZ6EsRdWh+T+EcwhYXx9d8sryriQWPKfM9CCwpGsFjSpfWfxsKsksrmwGYXR3UZB0ubAq6gk0VHxzDBrRBaxcUW06lSgGFBA44QFKszJAU9E9xvqTdSd9iTLDmhwZzrYIs/Jlfiab/MJ3/KLwohxa5DfEv9mpLveyxfKAaru1iYICJnV0eZKKnp/whCfYB5EPBPyvZb03qnxlVUR9W1cWBc2wOXEgWjLjJX/gxRdfPKd85pII5QigqCpXUnPBtGEalJP7AlFYWLSVQKvWZjMrUpt86RrWNmnaK1Fbl/3uN7eHa6+5RvtMVpJL3HMRCx5/7MZgPK+dwMcmwlP22CE8Z69XKH+6+KRIwlClffsyBLfffrvt9k3d19KKNCrNUm48+SpjuT02lWQWVzaDMLcgfcPe9PEQ9SAf5YiiiKcl1q7bV16WqJxaSiP7WFSVw6QpN3/hkjA8NCb/4niYP69H1mRlueDaQFlhaU3nkyQn3vf0sh/naOjvG1DXW/ssajppf/9ImNc7+wO8UIx0geE793woajntq1HlK0sKmkoyiyubQRgNhQvI6vLVsggoJi4sqosuuqhkzdYSp+eNcmCEF98g55XMTkl6LlHsOTY2l2OjV22BVqFPkp202Wg48j97WSIj4HTFGddhJ/P+Ae0WrtWI2gZTv9o1fnT2u/dQxyeffHLYcsstTUEycFRLa7JR5cslJP3bVJJpbmxG9/ilALqcKIqf/exndaMeK8l9giCdqetZTcL8w8DUH3iAsqgc8B/Ga1gWnvat1U462vZfht2q1XE9+kx5sakHB1ehrOFD1geKpYtjeU2LMuuRLe26goxJ8UmDONqBqL2t0sGmqdR87GMfk3KOYeBlN6ZaQaPKVxY/m0oyiytzCKPrk9Vg5pBVRUnAhePeB00OOuigitJVIxJKEWVF9+/AAw+sRpYV5+FWLLjp+lbqkzTdaFgQ+bbQi2mnjS20AbZ1tZcsqWQ3ISWRctx7772N7z6pPov4zg7t2FN0W3IC5qLFOgVwlC66PjBzHJXGF5zPx4GqOLsgC3N1whpVvrK411SSWVyZQ9jsLJo5IChLgrJgfp8ryXoqaLdgOEb08ssvL6Os9o9YcFiSd911l40yV44xKkjWbWv2jqy9eMDWiFYscVZ2JQBu/HVu0W40TdHqGxmOE97Zzb2QJxBrdvbgvQZowNVRyzpvZPkqr5mmkiznyByfK7Zo5ph/eTK3XFEW+MkefPDB8ig1e2bHHMo7f/4862rXcofs8kKgnNh2DIvuyU9+cvnrCp/pqraExUu7wmGH/2tYuKA7jI5UNpWIj9IXv/hFwxNpyV5144SIzDA6fmf47bV/DosXqV/fykFWc2t2y5cvNz8kCsytecdT7d9Gla8sPs6ttrJyavCwWn7Vs1hLV5vTEbFqFi1aZNuGZcWrRRg4UZIcc3v66afPcfBkbpShHHU8VhwYKdIxu5wQeS2rLE75QdHnNfTc1R19vDPlhfI49thjbZSZkeZK5ioOr+dUv26NRrOUs10WbKVLKadS85nPfMY+Dq6cK7Jmp2ZR8VOjylcWg5pKMosrcwhLCyz3/kyjdkiHExYbfOyT4ZCnGwWUxyt/Jh2WBBtb4Jej68WuOJ7Wbor5+L2/c7rSeaZpTMf3NOlf4tKAcC9A7wknnGAjzR7H8+fZy8M96crxpOOm6YEXHpdwvycfrCgsMfK+88477QgDz2e634gfPsNf6kNb8Ba7191di0T/JL40LtJ5nn7PiDIrbSg/tKTLmL6nDOwuBMg9GTo7hFure8bHJ3QfzwiPb+Pfcjzpd04TvKau4T9X+YfZ45HW88v6TcdLx+Wed6RBvjj+Fd8vYX7gHHEAzzc+xXTpfKfyYrI9EL88nj97nvAYA4A8TjzxxJJ8pdMS1+On750ef8ez32f9elg6HvdOE/dNJQkXqgDe5USIncH4kBBkusQoMe658OVhhWCN4YxHGGh4vCOM+NwD+B0B4iOoAO+IwzQTppsgyIyoehdp5cqVpUnHCIGtTRYt3JOPg+PCMow0jFvXnSVvlIG8nY40fkY+yZN3hHOly8c7cKFEoIm8uGjY8MTLRHp44XQQzr2fPe55kw6AV4TR5SW/XXbZxdKDg8PkyY/0The/8ML5hgXaP9gvGuSQFHtzmhO/fh38sFnepoCcD+QDH6hXwnBpkB+4jz32OJWLM5rjWT+UlXJFOifCYB9807nSGske7B8PK9do8npOI/E9rLdm0+AoB9AF7QB5gwNc4AQ3NER+RB8kZWawiPfuiya9KzDyoB4oM/fwil/nCTyCh4QBpEOOAMIBykA6wOuMeuQiLnlRZ54HdeZlJz4XNBHfZY+4XP4hJ+80Pp6hxfHShqTaLF/C0nxAVp0O0gHE8Tpw2eMZ+XVeQBM0QB/A9DHy4TldJtLAe9JDh5XNUjT/bDIHaDAw/P777w/33nuvCYRXAuFUnisjhIVKALhPVzxpqFCPTyXjgyMMIScvz4+0sVFPHrROvgg6cal83iPUNCzeIRyEIwy8Q1h5Bw0IG+lIT1wXFmjiAojndDz66KMm3DQI8kWooJO8mWjtdIKHd/ySLzjBxXtw8AugJJwXvGciNuloQNAMLwDy+Mc//mFCz5Ze3mgdH3FccVCW1avXRl5oNHv1yjVhaHBYeevDlB8KixdsqZUwOXs/PDxi9IObizKRPk0n9Hzwgx9UWLRkiEe50nWxSuXI5UZCbnQsrFn3YFiytFfTjVC6/VJu7YofGyZ0wgvKnMYRaV5tNEQ+sOtRCPvssw9J7ONIHdDoqTvoJL03dq8/eAAgS7wnvtc7NJMH+OEnvCU9abyuqFfqk/yoGyBNJ7R5+nQdOz5kAHzkQZ5R9qJBkKaDfACXM/hBO6KXRBraE3EIp7zgBB95QDNxKAPvkAXeEZ6WZeoHII7zgrKm65f3HAkCL8CPEeKDlLxrwiZyQIy3w8wlEIkq1A5XJ0wVaM+qNPvlvSrbLlWy6jaxg9D5VaUpTs7iEQeQQCQSHstPX7WEfCQEFkfCmKjSLZ7mSZZwEsfxQYPHIQz8gIS2FB+8HsYvcYgLDeAHHxdhEkKjk3fQBQ28cxzcQycXYTzDD+iQ0FqenjdxnBflNPDs70gPQAsAXsI0WGXP0AsewMvLL5fjz+XEk8JAMjyykljJyHAh+cElVyU/u+LPycDgqhJfy+mgDE4v+J0Wyg19nj9xeM81onfJRF744ctYkhf573v3aUlhPBF+6jKXSOmU0nta8uPeeUkdAdDk5eMZGlasWFGSG3DynvS8497LT17cA4S7/DlOwklDHn7PO+SW/Bx+/etfl+qdcK874vJM3YLH8YPX5cBpj2Hij+qLeKTjHTJFPtxzeb1RzwDx07zw9x7Ge9IDXl7yJ4zL4/s74oGHMhNGXM/Ly8U7bQNoaZvd7U1Ujp5czLYuBl9rNkblV3WhEwWX2b0qyr6UhAO8W7hwkX3VeFalmH+tRaf6qWItL1W+daXxwakirYvF1x3gmSWJ+MaIzzxJvpYSLPuSkj8gYbAumirfvubEx2Kiy+xh5EM60pBX9LuN25ebrjxfagm00bpkyVL7whIXv9XPf/5zS0M3MJeL1iFdQfDEsOhDo9xYfQC8wNogHvlwsbs6tHLvvODey+284BfayW+bbbYpvYdu3mEFYAFgUVAmwrEWWuQPVKdPSwPnheGBgnV9b73lwXDQy58ZujUABR4sH3gBX8BNWganoAuaKQ+8+epXv2r1Qjh5EwZ/4Af86tLkcdJydXd12EGN1//xhsC+F5RZ7dPcI+RJHOqNvHkmT3ASDg3QAk3QByBnxOHERvDyHl47ICukpezwAF7AE3hDOPjhHXRDL+HghW7ueS+FEZYtW1bCCe799tvP6giauIhHHZIWoG49X9JTHugiHnGQDcK6uiIPCYN+6ECmeIaHyBpAXsg65wkRB5yUCV6QP+WOMjxieDwMHPAHIA33pIPH8ILej/MC+ig38chLHyOjkbzASVp4FlusZdn8sykcEKOTO+64I+y4447GYCqYiq4VULEIFhVO5VOhCF09ALzg90aBINULt5cb3I4XgZ4R+Ga0FFfVJBqpUdWc+clvh+M+8Ca9kB+5oJ2+K1gGTgMCUDDwIRO3whmkSUQjW2rQZp//vEPCH2/4iR0XQehcZIPlkH/7298MLw2aoxxqBc5n5AvFhHz5B7pWOD3fcvmqJ26ngQ8DA4NPe9rTmgM3zpTN7de/cggwDe573/te3YrgX1l+URp8qesFCC+NFdxYHvBhdiBtGY1sJSta9ZMBM2aFckSBoKQyFSQ5aMehCBER30ouQEl1FR9iUMV/b7rpJvPDUd/QUEtIyxd4Lr300lqim5J3uXyhqB9L8Np8LGlo4p4DBxBit97oStRzFyC6cW4JveY1rzFLYw5FmFMS7yJ6YqzJesO9GkigW+fWVj3wg4suIQqDjwNzY2tZ9kaVr6y6bCrJLK5sBmE0FhoJo8Ne56gAAEAASURBVMMLFiwsKa16kO7dL6zIK664QnTM1pqbO5U0XhQlPimUdb26gE4xPN9BB5DxgeJD4R8Lfz/t79yMx1J24Pn85z9viwZQkly1hEaVryyeNpVkFlc2gzAczgB+qVadpXLNNdfYcz3+oKTSgwVsXVYvcMVE+dmpm8PQZgfqLhcTjOS0FEaQJMqjpTKLFOV48803l5RjlpKUt1g4wKKPh37adB304heGu+982Dr40ndzgqOOOsq66vAeq9J7EnPKbIZEjSpfWWypn3RnYW+GzZkDTLju6Og0nyBf/X333XfOec02IX5B/JAoyxe96EWzTb5J8XHqY809ojO3sSo1zaay/DSQYmsnJjTJuZhizRpN2MYgU1horezER3Duscce1u1lFH5D0KBNmyY3tzDBGSXJIE0IH/v4CeGyH/yI8Rx73jDdzCHgI0/qG/5DS62gUeUri59NJZnFlc0gjGlGa9euKfmpamlVlLMDXChIGukvf/nLklVVHq8Wz1hu4MeC/t3vfreJfjlXl5VTioKi7O6TzBpA0eQVyxBasfKrBUyzefjhh82Kx5KsJTSqfGXxtKkks7iyGYQx/4wuEb4pliQy/6tewOgjFh3WDIog26KqDTVYkViydDn333//6UeYa4PeBqk+8YlPbkQ5R6WomZn6hxKevSLeGOl8HJzntfTHNqp8ZfG+qSSzuLKZhGFN0FCw6JhcXC9AMaMkmZ/5pS99yZR1vXBTZpQEChoaNqXLySwaZWVXpfQzgfrkkz9kytmnX01Ni5KkWfmkS5DEGODaFJ354Q9/2E7I5CMB8MGoJTSifGXxs6kks7iyGYShqNySoPv50EMP1Y1qLEksDRrp0UcfbUqrXsjp3oKfBsyBXJviZkBnDQxoB6X1cV17JWUAN4CCnhmIwyBOhEIBxamVPJW5P4up4g/lPuOMM6znQN3T3d+Usk/JPOOhUeUrgxXNyeRZTNkcwlBQXChKGtB2221XN7JRFD6ZmmVkbNhQLwA3CopfdgFyq2q2+Pff97XhrC9+SJvtauchaTE2o6gEsJ6PP/54iwoPsnySk1YkapiNJZT/SBLuvffu0NIuP+UcFkZhPTPlCnxYsEyBqiU0qnxl8bRpSWZxZTMIQzlizQEIdD0BxYiyoMsLDfWcAkT32q05yuw8mG35l2q9MLB06RZhi2Xz7QzuSvLA//rpT3/arLg0HTOlzY3KR1nsgfuGvzOlKX+/++67G154wA45tfQFN6p8lfOc56aSzOLKZhCGENMlYrQVRXHllVfWjWoGjFAQXAwabYpfcLZEY1EBbPSAi6EaXc6RYTbBcB/ixikCHx8l+E4dOD3ZqbCw40YV6h1rfXicsjNXJcn2cNpox/gOz3t64lzZbNybFtqo8pXFtaaSzOLKZhBGtwvlyHQU7ut5aiH+MIAR5vPPP38GRVFdZqKYUVRYUttvv32FCpodfTRvUaSwbDqnUws7O6OyVVbatac9JBOV9YHh9w9+8APzCTofykvIZPIIKF7lrV1/6GKzIznQPc9+ZvXHu/XsZuT+0GpOLyonplHlq5wPPDeVZBZXNoMwBi7obqE0sCjrCy22TRZ4jzzyyLrix4LCksMfyOFnlVqSLS1Kp63QGDix0XFt3YUuQ1Vq20edhR0HVWbiI7hf8YpX2IcJReLKazKdRtz1T55IBdG81M1O8naXL55tsz7u/zqZpII7aH7uc58r6zVuL0aSWrpZGlW+sqqiqSSzuLIZhKEg8QsyP5LGgnVTLxgaGrTBAyxZrBqsq3rDwoULbT/JSj8QKBcGpJm92N2p0XmZkOoxB8acWNlYsJU70brcWFlQyvhiHe+GSnLD1DmdFcMBibL9g/RlWLRwwziVhFx33XUWDZx8LOgS1woaXb7SfG0qyTQ3NqN7vvRYU77649BDD60r9eAGDj/88AxrqnakoBhQzFxYV66sZsLIRrddXfPCQL+0onTLUUe+NgwO5UO7Fq4k0lzDI5Wbd4yoM9IMfiz5mYB4E9LGZ3/ltPDKV/1b0KkUswYUI/nwQURBOv5ZZ1RhgkaVryz2zFzDWamaYY85B1AWWDVsmeXd7noRxcDNokWLbfBCx0bMeRrOXOhFOaKYUBp///vfKx7dzue167n047z5UeSx7BYv6gijOnESP19vb2XmHVNv2LUbn2ilCrqrV3t+okzlFO3upd5mX3IU5EUXXWTlpt6pA5RlraBR5SuLn00lmcWVOYRhXSDI9QLf8h+8zJv7wx/+UC/UVk6K6l1NFFe9wKwy4UNBPeUpT5mFotAos4gsyBU5agdQag24rMhunYMNtLcynYoYGwcs91/96lcWqdJy50fZA1J5i2fqeYe5bpr0ute9Xgo2HnnBh6LSEfmNlyj7baPKVxY3mkoyiytzCMOaqyfgjwQnioou2HOe85y6oceaohFhzdDdrqdP0iePgxNFga9xZlBXWyPY69bGrdG6F2iEO6dBHPHOtjOzDGgKM3/k4PfLXvYyU9J0SSuBDs0CaG2NH5Kxsf7QH08JriTplDh//vON+ijEObFYkTptbMr7aj40qnxl8bCpJLO4Mscwt6zmmHzWyRBkLAusq0p8Y7NGME0Cykl3E/jWt75VV9x0NRkwYvBEJ/jJN1lJl5NR6LzRrH16TS9GBeeWI82gEmWrWMLPRwka+K0U2uhuCxYsXKaDyOb2QX3GM55pA3XUNbiZq1lLaET5yuJnU0lmcWUOYSiNena3sajo7rW3x9MV2XihXjBv3nwbNHKfGAqrnoCCwJJ9wQteYEqrEtxYXUzBQVc96xmvDq985UtSyTSSMwuj7CMf+Yh181GUlXwYC1ryWCho8EYj2685/PVS1nObBD6qbjuKCyVJ3XNfK2hk+SrnaVNJlnNkjs/eWFCUfk9vDgWCQNOwCWfFBPcoGARxMm6c1kFcVz78+pUmizhx1Usc3aXr6Ueyelry9bw9Le8IAz/gcckvHZd73hEPej0Nv1EhRksS5z5HymKVxbgxHy+f4wMXODbGC6eJuI7ffwnz/OEv+W699dY2BQbLzsvBL3igmV8P55mjVrt6ujXgFMJDK+4KuCDtJEPFQ0NOFOK6aE8DToBnrog/HnH70Y9+1HCnj1QlLnEYIGopqFnpMLBEV2FCYa0jYSTfH3J619VZCAsXax22JrRjBecLrMHWaY3SoOPaAZiq0fncZGcADygL8O53v9v20WRmAQq6HNJxoTmLFx6eTuthXgekQ6bgGy4dnjECeJ/mBfgiXybrlny93jyu00Vcj+/4iYNceF4ely3hkC8GBn0XfH9HWtIB5Ee4P1ug/hDGBfCOq1wuSMssAQfao+eDnLnR01SSzqFN/PWRToSXC8ESn62iqQwaMxVSKGjaie69YqkIwnVYfSkuwuEKlHsqLionb4ianCxrYmgong/Nu3vvvccqlfz8oC7y9Y0Q6JpBh1e8Cw5pyYuzchwHVhoQ6ZywPLgnLxoP+ZIXwEof0vOePOGDl4/3LB8kjPIS7u/BhZIgDHDc/Dov4AH08guAh/SuIFimh6KCR6Tx96g/aEExwotWLXcZVVsYH5NvUsZXr5ySY7LqlJ1Ww0iRKU9oATd5rVu3ttR43NcMncRxHsJPt+TA5V1f6CWPcSnEMV1trTp/urMjzJ+H1cn5PJIN4e5obxVNWlLapkUBw/0mL/EoCvgdu+PQs27dOisX+Z933nlhxYoVprCoB8IcL3GpF3gQ6z+eGw0v4Bnhab46T0kP/bwH0jxnTT4fX1YW3X///aU6cl6AM12n1DG4qHMgXefg8LrmHjz8clEWZIv3/DotlOfww19jeYELGeUd956Wl/CcenFekAdpCfe2wD28IDzW8TrDR35penkHIGPQ4/Vvgc0/m8YBMT/ROb3JlltumSxdujT5yle+kmiCd6LKk6wkyfOf/3z75c/y5ctL9+9617ssjioj0U7biSo6+frXv156r6MCSvdahle6/8AHPpBIESfabCK55557LPxTn/qU/RKu84JLcXfaaadEQmXP2pzBfjUJPZFFYrhloViYBDwhrgO4JZD2eM4559jvn//854R4wH/8x38k0K3GN6VM6gYnAwODugaSiy++2Oi84YYb7Jl0b3jDG/gx3PDK4VWvelWJX6SDpxpJ9teJBkzsnrJol+5S+BFHHFG6/9///V+jWUeglsL222/f0v2WWz41eepO8fkdb6fcBZVnRHV3h37HkjPPPNPiUkYNhpXSbbvttkYPAfAe0Iofu+A3vFfDT9Tgkp13nuThTrovFAYt/ufO+kJy3td+mvSvGkkefOBRhRWSD5x0gr3L5caSbbfZ0e75s+eezy7xGZqgR1OeTD6kBJJ3vvOdFhdeaC/RUjptRFy6hwfUHzxxeOMb3+i3VmfQDjhvuddu84YH3lMm4rzuda/jlQF15nLtdUldU8fEpe54RgaQBQfkXh92i/P2t7/dgpEfZApwGQPn05/+dAuDxzrLqMQLZBXcyC4yDLhMw4u0/NIGvHzUD7zQsR+JjABLd+KJ77df/mgXLbuX0rT2qz0Jkj/+8Y/WbmYezts03dEwqWnQzNvbeeedS90DvkJ8kfiK8StBty8hXyvuVSv29WMKD2E8q1LtS8l7uhw889UFJARmvWDpkYavIl95vpyk56sIHuLxDrx0y3lP3nxteU8YX2XC6MrwxSQcPKQjjLxIzy9faPBAE3kTn2tM5hi+Pr7szNfkPTjofvsXmWfygOboIog0god44CCO84I45E25weWWDhtpEM95QTysSKwQx0k6aIF+z588RkexgLuFqzMMDgzLOhhQnC3CgkVaw61yDw+uF+0Toad3QWiV9UQ+lMXzgkYvj/OH99AIb6knaCAdcRO62OOxi9zRQbcNy1Yj8S2yTOQ63muvg8NfbvmhajRvdOVysqZ0XpGqIxTET+Wq7rjK0bXI6sXzlpIJK1euNOuG+oAmZAzAqsUigtfOf3gFf7wczj94QveZtNALkAb6sVzJF/kiL+cjccmL+MSjvjz/NC+QA/hCHABcxOMZGSMd773OkEMvC+9d1vyX9NQz9Q2NLmOUCVrgPXVAODgII67LPDRTHt6T3vN1XhCXd0ynQpZJ73y95557whOf+MTm2m2rySr8gbGACwH3VBCCS0Vz7CqVSBeGCiKMinah8jCEkorzcPLjooLJL6/1xzQIFzzy5fmqq66yinYBRfAQOuKTlmfioUCIQ/4ImAsW+BEQGg/4oI94Xg7fMxLho/HwXtEtPXTxDA/In3wQbMIAaGQZIbwgT8KhiXjQB27KTRxw80w8fqHHPxbgRdmBz8sP/YTzSxrKDPBMXvx2daFQ1J2UsmJgeX1/W1i4tE1hnaIlH3rnLQiL5jPwNtl1I6+0Hy6WN37syJ+8KQ/KhEZGWQgbHh5Qpy4qCWiZmGhVt1v1PS6eyUMhchR/TAoqdkmdZrn/pFjhlT5E2oxjwfw4uAMPAPizatUquydflBZ4qVeXC355ly47CSIdkSavI/hOfOqLMHgILfCaclNe795StmuvvdZogB7SEkYdEo908IL68+OFCUcGiOc4CCMeAE7yARcyBSBj0AQfXcYIJ1/yATe/lA86vY2QP7INL6CJfCkzz8SFPpQg0NmJr3XC8PMMvbxjsxDPH3piPpINuRuaUCUOqGKTO+64w7pkasAlM5/wWgA41HAMj4SxFiimzdNxE+HUU0+dNl4tXkgxWBcINwN0qOFVhGZkZFRdtvFEu5AnDz24KhlXL5OUEwW5DsijsmwMF91Y6ID/GwLd1zFdsRsb39OlH5eBKRfDSJI8cbv9LVg+ToWPqPtYxF+iYVjvYxc9pp/8K+vdusJe95NvqnsX6zjK8WMhX+AHkC8pteoWroLc4O9tt91mMZsDN1VSkmQjjlpufO3qATj4vRtUD3yOg680lgBf3FNOOaVkCfj7Wv5iGWBByS9mXUO3QmbCSbq+vlwY1eCNmpyslpgiaaXOKm8GDASwC5BbI17nk/ijDEw+ywocG2EoyWYZtXXzPBr61+tZNLRpACc/LvMWOkpiAz2xu5rO5+Uvf7nKHgezqAO3MtNxqnk/PDz4mMkXlqTLF13kxwK8biuXjseCyibOaTmAoli8eIkJMd2YH/4QH1d9IHZfou8LjHRr6gk0HhqOBslK3aiZ8NN1XLa0VyO8jGrSZSPFhgptpnzwjeJf5SOBVpv5g8i0qUHFV1dR+FY8MhSesMMWoVcsa9Xo++jokL3TuLKyi13rqCA3nOJz4YUXmitGVo59kL0Rz0TzXN43snyV86upJMs5spk8sys1ioJTEmmo9dwFiAZEQ8U606h9BYqiukzFZ6vuWJGG6GuaCUOPNplg3fRBBx2u6TdLJo02T1ihvsSPjILkqmzTW/kCtXSyoHk/rW34BQvhogsv0K5DIzYNiUGlDlPYWEsoSREyoTLJl1kO+O9QjFiQfChqaUk2snyV833DmiiP0Xx+XHJgTC0eC45Gg5O5nuAOfxTV73//+5KbIU2DnH0a5aVPS8PnlwtNpCMnbIcJDVzlhmy0VoFq8Jo8aB1SRvKVhqhx3Eg3UwHljMK47777pKgqE2FGjzvV1U10VOHCBSghOtkafCJr1lWXurpTcWU9sQsQHwk+Thtac2QETZ5hqwYVNErdNl9lnAjLtlignYA0kJeL1mxH+3yNaBMXyxG6iumKa70VWIKrr77acNLVps57e1Ug428Wo+A7PBXf0buaszmq+ZgUfEKj7/DBt7tjTmc5PN7lq5zeWj5XJmG1pKCZ95w5gEWHoqKxaq7ZnPOZbUJwYsW6gvCR73Q+SQtaiMYbtR3TK4Y08ktXkmMMRkbGNMWl25Td+vX9srA0FWeERly0pkjGVQZYT2zygCW3ww47VOwPNatP+TGajV4VOQZaLKhfvaiwJWDFXnjhRaaksCo3BJRc2rrlGVORLdLidDCKxeGMGvuRT1LTlkaggQ9dkQjtop5V+L333tvcK3wgRpkdb0BuRSXHbQl4mFyN0trRKuUsa1p1h+t8VKO6wKjqsb0jTa8F25/Hs3xNUln7uwpFo/aENDHMjgMoKCwKrDqE+VnPetbsMtiE2L4sDtyayK3Gv2Eja9V0Gy0gLGFp0RzBCZ07zeDJqlUDZgX397PkTZs+zF+o8AF1O31Ns9JNGcgoZWPKsUXHDjKVBGsKHlQC44zUSF8NaA4QU3HiyYVTtEol2di0rTe+8Q0Wlx2IZvZJbpitBmvDkqWdskY1N7Nbh6qxuWUFcP3115d80F1dmvM5GDc+LiUtGqGlZyln6BsYGg2rVw+EkTHmvnaa26GjrVd7a2oPTU19yVL2j3f5mixj7e8qq53a09HEMEsOMFiDcnRh5r5eoNUuNroLvvPPP780920SP8onWjJ07xJ1J0dHmRM3T/ZUIWy1xRItDdwmPOuZe0tvddJOTVnEZXkoXCwrFOVkjn5Ho8cqpMvNssRKobOzLVx6yc9D/+D9Ye16bTHHxMSilVtpHsRjNgH+QBRLR3Qmzia5xd122+Wa47dbWLiIsvKxw9LcQMNtkO8LX/hCO53SX8zX3M4IMKpc4ccP17h8m909nTaqv8tOe4RvX3CFtmobDavWsJacubxx3qzn6b+Pb/lyKuvzmyGG9UHcxLJpHKC7iaJwQKjrBShm8POLNcm1IUBPUby00UOrTLfxsUK49bY7tP54VViz+hHbvKBXO3XjukSJjQzThaSxoyTpdnNtCOAGp5agVWxJJsqqh4Xbgp4uDbqYDgEP4L/xaWN/8UeefPLJJX/wxuJO947u7pZbLLYuf07d3+hXLVdyG6bGAsVyZnZBrPt08y0vA+/UvdcHpa2tIzznWS8Id9z113Dwy19iJ0a+8Yh/V7i6/Ezg7t6w/h7/8rUhf2oVkuZyrXA0860BB1g54JYkv6w6qBfQSLGmsOo4gIznqaAunrrD42qAwyM5+cG0wqarNbzz7SeHJ+/8VFlRW2gJYAg7POEJ4fIf/VR7JK7RckF8jbI69S+eNDg1R38CFx8EfKJ0udMfCo+T9ausbckfOnjRIqwnFDCKvJz2rNSTYeDWOmD7QBDKh2K2QO96iy23El9kyake+7UsshJ4xStebrz2DxT+xdKHyDKYsMEYVubgXuAUSL4Frz3szeGRR2+R/zNohVCvuvrzwzHHHKHBJJVeihf3RTk8vuWrnNrm82bBATWW5Pbbb7dVGFJaNV8lAA5WBbAaQoMZyS233AIJdQEpKMMDbr8vRzya60/Wr1+TDA2yeiRJ3n/CR5NR3eZzE8mYFqpw5chGq0y222Y3izM2OiG+sdKCNKxmiZuD2MviHylJKy9lZrOC6fCn03AP7muvvi5ZvzZJHn2EDQ5Y3tJfvOLqDj3MCOCFBvgPcD8X6OmMG5BoACbJj7NiChpUXshiaU5Z2R0PeCkzGzxE8LgxPSt7gPXrhpL+vlxy+sc/a89968eS0bHxJKelRsMj48mAkr/vvR9K7r9/rcpiUab8ebzL1xRia/BA27r11lst56YluVmo4A2JVKMxq4FpQIODA2G33XbbMFKNQhgwUUM16/Xuu+8uTSVJo+vqnCerZZHWRfeE++5dFdb3DcmalOdNAzJt7bLiWrU1VqfWUg8XwoMP3xJO+fBnZOQxpQarxn10G1ppWK9YnFiyTCav1M2ghSrhgQceCouWhLBkGZsa+OhwmuqZ77HiTjvttJkjzhDjFa88QHxZZ/7IVpVpJqDcAL9c0BHBf3li04lRTTUqaHu2XlnnmqguK1EfH01D0gDXhCahjw9qVsG4/JSF8PGPnRau+eWfNI+zmFXq5/EuXylSa37bVJI1Z3FtEKAc8I8xtYYBj0qVRTWowYeGckZRaTsqmzNYnm9OowI05CF1o7/z7QvDV7/2STt7mrmR2tVPI9kadNI8vlEpeE3ZU+NWfKRR/svYhWTT2g2VB/MTUQZMg5ElW/GEaunr8LWvXhi0haMpJo5ziLAhjuKLzB/2ZNRWadbN93mGmRFnCPzaV862OabwMsd8oA1gQ7r4KMBTn9UQeZFOGH2WzDYY1SYP//m294UTT3q38ZWu9sDQan2oRqRktR+jlkricfjyl7+eOWY0KV9sEvL4k690qWt931SSVeMw/i1sIUZzmaQcd+memn2ZZVT2ODVu+om8aUg41uJPq6bU4Hdq0xK7efM6w48uv1RrgAc1Ysk6YUVT1OHhqAhyNg9PwyDF7buYKxiVBHkSh6ty3xwNiHmGvZp3xyTw5ctlngW27PKBF/naOrTbinbYnregPdx11x22EzfuO3ZrgXYNn2iOntJurQEM8esTnzopHHLwm2ykO5g1ya40G85DREH4BHIGbyqdAiSEauzsTi4+aBdyfG5xbiK+XJoBjJ0ZwOl+UH7dwps5ZSqG+LBkeQhbLdeuOWwE3M1xtvBf9dFKXUhBZqy4YZs09f/sg8jv5IAZablkNWqSOgKwaFF7ePNRb1aYBSvdeNhi6ZbKeYHWjst0bNFuO4p63R++Gz73mXOUThvgSmlG97LqN2iT5sKQytpmdXbFFT+JeW30L37eLFkSQRaOvGmlUGG98ORsChN4R4ZoK4qh5HKjmvwyoDV/gRZLTIyF5cv0hTMfcnwHlpoDO8tPsJNUlI6a42sMBAjCJKAupwLv/Sq+mZpkavQpTx5Rv8VsUVQ5nXnS17dWgjUYDnv1oRI+CdrYuKapRKust1ddLJLKRHvoIW3hpXaEo54J2fTeRmVNxMZFpKL2nYI3+4Gu6vAIO0m3hve//yQ1OhQkjRTxjbQyYt2iVvjCf351OPe8L0kRtAkn7xgoQEm2h3myRlHY2nwr5NUl3HufvaJ+UFYDQ7J4bDUN+U4CtAMMWqCkOrXrd0WgbKAzLybltJYa4bdJ32oIswGUvDZHNvxMLJ8LRA6pqBpiX7eevRBdQVO2qeUtzz9u7RW3NYvviD+Zxq339/6/U8Mzny0rX1Ov2rQcMvKej4H2+mxlD0664No5vj8Jf9IpjJ0a8dfOH9rJe10Y1MYW1OX4eJQvBoAOPfSVEV1Ff4v0eEFL9BEuy7RNiwmGtbN7zwKzjHvmMX9TFr6qQvviSrZYIKEt8Fo6JF8fkPIWX2wjEudTRURUGAmepy9wFOUUnPo/OwmpEG1jRnOlyK9fzokoHP4UfxWnUjs+UTWh4WyCtWqNpBL8btbZtXTLYhwM87RErVUWGWuEL/ifi7QC52YJ21BYpL34nv7Mp4dj3naEGnYSVq9aHRZrk4bBwWglRFoRCmhGQMppj9Sm/8YNIrRPoo5lPfPMz2jTWq2kMcuMcnKx36SEXuQde+w75BNTw+iM8xtjPuDTODajqtJWHZqiglW5++47G3oaTI9MvtGcNurtnrp5Bv5QRrWx4Ni0YsmSpVKWFShK8TrHvFIpgh6UG8WcIzz3uc81BY2ihp7ZAuWjXRbG28IWy+ZJUfbJKsSi3TgcffQx4XOfO8ssSKxp+DB/PvxBkOC7qkEra1p0XXLpD8JnzzrVzvKxlm7vY6H5QHT1aCqR4nd0tYRvffsrYc9nvSRcf8MvwlJtmjLRomNG9JXr1EeoR7Mmhoe0x+m8mekzAuxPkbklHjt9OD81K0Pn+3R1LLYJ/eecfX646eZbpZCRmdHw3OfvK1/q+vCe9x1tH7JPn/FZkS9mQXTxI7tJlTdJpO6QQ7d8vTFCozjTRrgs3xZ+m1AVDjAaefvtf7MR5zENFzLoGQc+Ga5kxJHRR7/iCKQCKgPPwvJh1HcoyY31JVoDXUp/8YU/TIYHxpOXHfQGC2OANK+TF0bjQHSy7bZPS37+06uSFY8OaqSXPESVRmojTTxzTAMXyDYOhYl+bcE4nKxZ05fkRn1olFFeyheftU1i8sTt9yqOYKdHgB3nWDI2HIe3NTE7Dugq9dbLn56MDCVJ30CuWL502kiXJnSXRpcr3evw+Pd+3BLLgtJvTvSDW7RacaGJa2aQBa8R4fun2Uty5vTEQC5WPDyW7PeCgy0Be11GvlGfupfpllUN8gEbXmjQB8LSTpEtZZzTyHV/32DSty6XjI0WknGvHotN2Qsl2vNjExrlHtaI/1hy+WU/tRjD2sZSB5FpxF1yMrZGYVFWLrvsMnu/8T8bk2/4q71AFYVr/dpx1XVxVoOqYlxoBvsm6/p737tMI/ijol+j+YMSCGOI9reUjBVMzjZOSWVvwce+ncym4KIeKK9kMz+Q3HrbX5LCxKh5yauiJJqZwAG+RvqSs4sLwIeqBHxW+XanrykRSjE3foNfh2MHdAyClqb1D8oJryxf94ZXhWOP+0D48RUX2kFTzMXjYjULA7l33XlzOPBlLw4Xaweadm32wGhvHCGFVv/ke1dj4xRgZbDqZenSheGgAw8rGjHkQfljXiseHQrXXfdTC+E41dhLJn/KHyH6FtmgQ+twsBYEPbJwcnJFdmiAoq0dv6HTZq/lLognRfKkaSo2gBTfbPwvu5ADrW2yQPs4XKtYRxtPtsFbVtqw4ggLktU3c4WttmLX+Ji6Tf7BKCzwr2gxcVsGzIUFL1u10e3fAGSiYp0O9nEaY7/5HBmwmYRYR1jA8LFdR0u0d2gQbGFHeMWhLwtP3H5PWY4xdlubfK+Sk8Ehlj4WwiGHHDyZzbR35bKUjsg7daFFDydVnnDCCeHee28xcaAjoJlL8l9LTsQTrsMPPzRc+J0Lwz8fcHDonodbA4bIZSP+yNmg+0k50sMmAHIBk/hVPST86piJCR2nIVeM+j+GWYFN2FQOTNjuLTR4MVYKZFxnpuTUHR0bozLjMai2friECAXpVymw4hsdHKUGkYSF87X9vuTny2d/O5z9lTPM57Zm/WrlrKk2HQUpUm1lb1M+OFskCbfdeqdNKu7vkz/SdHQUvqiMuJ+qlLIIiqf5cUTDcPjVLy+Xgoun5EETxxUwAPDOd71d+12qKyyZwwnfwoYXZYLdVlzWR9e5Xa2HUe4///mX4YEHHzYlNsa6uTJAseKXZGT9gQceUBdt5sZCT629fbK7iB9zQq6JuQAjyj5wg6KR2THrbOhu47P1Aai2NvKA9xsHzduzCPALZc00rMl60woosaJnfgi77LpbWLpMS0eLA3XlucbzawjVVKFuDYRJf61eNajTGM/Vaiidnin6hvTxbdEAWi9b8mnPyw4pzMogLT+cdZ7XWv01pXpatXI4HH7Yv4b/Pvezkk/lqGK3yHXU1cPZPjoPSd3cFm2Msnb1UHjDEa8LO+/0RHORSLTCww8/ZAnytmNUGk9llG0Yq0W+UUK1r4A+LiseWRvWrcUICWGnnXfTB7hb09u0IspCmn82mQOxwYTwxS98LbzjHe/VmSC/N3UzMjymRk1jUqWa4c4XFbZTyX7NgN6ioQxoTDxo1E1fvnZZRzoOJWy5bI9w0Ev/WYpDwtyVyM81X4K9TvEYHWbEGWUTRy+/8rUzwgdP+mhYtrzHfJRRb0EPX1NomxnaW+epTHHNMWMwhcKYGpEsAAmvJouHW2/9Wzj0lQfZrl86mcAGBfIaBNgQKEsRbP6kqM11hu9deqGVMn54PEL8tZF1KSbOPdlaZ28zBWomwA/J8a0AH5Z2Rsgr3FSiPG823b3gggts2hPTkOYKKKYxzUQAEvvApnmfrXh33HFHGzDyEfboD3UeMhobwt3/uD+cddYXzYWH1RZXFrnspKn1dMKvD0Zvb2d4/vN21Wqi003MujvnKy3zVltkXc4Pt99+WzrxNPdON78RJwpt2dJl8jnryNfh8fChk4+XX/XMmF4j+XHQT19V+UFDixSSehQMrPXO01QnmZj/+q9HmtHBx3arrbYPffJDd/AQv/DT0FF5MO02P9aiXe4Hw9bbLA1vO+aY8OUvfSvcf+8/NNj5iHy+kx/XynNtxszkAH61P/3vTSVf2Xnnfif5xZXXJRyh0teHrwMfID4bfDMz+/2IX4IJHEvk4T6TvPw1+Gl0DOfXLkzWyT01qnMJdMKe/F25ZFz+wkIB/xYX8fCzROfUmFa8QMa/v/k9ycMPafnJFHIqo2tIPiKNQCrPJDnmmLcI51AyMPhIovOjzZ919uf/x9xqmrKSyAmv95yVgg+QizKQVpehgwCe5R/SM76p+T076DlRuSLf7KH4B38cqyEAfJPwvRJ4/wmfTAbM5yUbUvwZn7NPklVB8oxpFIxfrrkA/mLgPe/6qBU9PlEueAQ/NqwL7Uxux6iCGz6wKiZCjFvITyQ//8kNFqTBsuIZQOTn9V9Oa+Q95+xo67pEJ+om/3n0B5NHH14vX7ZW5shnnFeFDPSvk+w6riLKaX+ghbiUIa88xGv1paHnwu9crnwLydBIPlnfP6h65HyfSN8EcjEer3wenzPptVLrAx9JXn7w65EO5QW9iVZa3ae/G/LHXs7yD9W3XquRgH878t32OyYac+KHNlCRjA265s9s983AWXCAhnvjn242wR2SbhroyydXXfmr0sDJ0GA8uGtulSvhKSm8KCj49r95/g+sUtdI1w2z/E8VnmNQY3RQDueiQkLBFvRCyQb6B3QutPLS45rV65Jrrr4xNlCynIXMofRpkCyPy+UGklx+rbJcp0uNUfns9cxDlSFL94aTfEGKbGytGjVLAd05jlAKqeEEOeXTg/6jJIHLL7smGRyKwhtDJv+iHBi4QIhdYU6+zb77wIlniC8Sfl1RYRcVR4kG6JgZGOxCOQNzVZKmVw1vkpxw3OmJfQPtGZqylaQrYxSkRrWj8rGBNyhhqSS/SbLPXq/UR3AieXTFkCm2gUEJR+nDVERqMfnDc1RompJjH3QG3H7xsz8lK1fo2QaIViufyTKXkk57M5knebN8Uq4nHcA2nuy910stFWNng0PUuWKYkoR+5FRpVeXrV6/QmygILF8lx7bWrYmu+kMmoJnQTQetUEpWPLI6WbRw2zh4qGzlerDzwW+6+QZbMtrsbs9CEW4sKl2fji5t0y8fmeZY2yTqF7/oheEZe+xrPY9uDUioWakLw3nN0XFOXFam5PN0i+PRsfiZJPAlVNzjE4qbrMqXpj0Z8d3RWzz//POt17FUc7nxb+GH7NCUmXZNn0l0zjNTfpiAlsdJqN5cpyZCTzA3Rz2thQsXhyPe+Ca7592gbYirTVrVPR8bG7ZunRqmaImkQLuUXli99j75sdiEAn+Wdvvu7FF2mneX7w75kc7widM/F2644bKg0VXzK+okHDkXejW41KFdyLWnoSa2x6WH2v1HWdNtz2n6T3+/NnlQl7ulXfM45UJo1/QmzsTGt4urgOkY4pb4q3mggzlNll4UdnrSjjbwMDy6mpx0CVRk/H24ANTJVkAsAGdew1UGCVavXWERbS6rtQAxQC8Z0KA7D+BLA/B94od03yeDXR/+8Ie1P+Nqm4ZEPOYuwis1WRtU4d6Be1+Zwz3+VOZqSs8rvvbSXNQleoZt7jiuiTHNaxweEg3y7ToN0MQ9v0yeZwAHWjkmd3BojVC12UoicPb0aBBsvEVLNnst//naFX3SlRLPUCcv5CrOz1RaLWVEPmEFR1yccsp/heVbdWsqTiI+L9NUqzXqjnfZCid8oc4L8FFmwpjojhyzcip20zvECx1nrA2W8aH+4fe/D9f/8UoNmmn6ltJ1yXdvZRKtq1evMzmQwDBmEhYs3kryKF6oSnGFqgrCwMgj4cqrfisZlkwUOPMd3yF1xYVsUtfs+K7BNBZLqEwFbaxC9UOjTqaUO4INh+G/js6QjAMMmuGj/evN16u8ylMk9M7rklzTXuGIBpssZvNPdTgg3w4VgjDjnB9VJd1222/DPnu/3OofpqMUVq5co0rCV6g6VMWh8NQVt4pkJUhOw7v9GhQhL/61tWqUUf7GvBQGa58Z9D3pxNPDr66+TIKbU/wRCU8UOuLrgyx/Fw1X8iI5gR5GYvEZ4mNZp0aJPD684rZww3V/tgnFDGz0SVENaxI3I8CMXoMfJ34cIGASeIvSL9LABUsGUUoT4YY//lFxECgpbwni6jXrNU9PKz6W4MvhoyH6bR7kuO2FGFfItJiQS60IT6sc+DqKQGu88UX1rRkwvn3sYx81P+eoGsOANpeNQq6jH/QRYTABGKMV2QCMyqzCilx9UHD+i/c5GqMUgObkAfnxPjU2zl/GZ7u1Gn6fFAKKMLH5lsw5NH6X6q/FeMbHL66ssWxMUZx55pk2ukxDRYlS1yg/+IzyBlAcXAD+U9650svpXBvKTrphfSDmLdRHTfGgFz9zt3COMpleEUgHXdDBeUIAdblgwULV8ZCU1zx9FJRacU798GfD1b/+gepBikofNWQMGRgdZYVVzIs8oZuPHjSrSy35QeHAQ513LkXD9mlAZ2erFPxoWLxsaRjWwgWWojInFbqhKSoq1bLmU+KrHVVebZIdfPAoYXZbatdHhfo49aOn64TI8bB4kXyd+tBRn9Q9efi52uQJzzTcKXn+/+2dCZiU1ZX3b2/sNAgiggKC4pqZxBhjxqjRiZq4TTLmSfLExyWajBtGVFwikcTRmQk6Zvsc/TSaaERQcSGIGBVx+UQjKiKayKIoEFmbpqHpfXu//+/culXV1dUL3VU1kq7zPG+9b73vXc8999xzz7n3XHkalU51ydvLXElhk9uycbM7YPxod4fWVYr8RAdN6iOy4KvqdSobfaZJjBH5gv1CDaL1Ji3rMKGAumpgYHNCs96XiNaLRKS0x/LlH7rFi99zo0bvq4FCzFc7gPrrDp311f53/ueZpJFDZn4Y4S+7bJK76KKL3PPPP+/e+8s7IgTnFr81310+6RqTvHS8vfv5z6eLONjbXKijAB7WszqUGN2aj1eLwGptR0fp4AFGaD+Z+hONpn21pWys+9HlV4sQtfj3D/NEyDpCQdu5iiV54eDizbfecPPmzTPCoyP8TEe90rGQfNhrDEGyQ+SZZ59ReixE3inmWOfwK/jWkj+rbCVakD7UTZ36UxF2sXWGa6+9TqO2pAGls2DBQiOyzRvLxVQ4hiFy9/7u9+6LRx6l50J36SWTTdmu/uJu/Okt6sj+sDC8adMZkbyQpCjbb37zG0sTM/i/SVFeJE7MLoz/uf0uhnYx4iJ3xmknuYUL3nCrP/hQnsv3UG6R++Uvbte3wZLYC9y//fAyczFWqAHkd/fMVHE47L5RWyBXqLPXuXff1fISMWk6w9FHneFuue1nYtzFchF2sZVj6NC93KxZs4yJw9i2a4CgYz/33HOGM6TH6dNvMQYADidNmmT1wFijc7eNYbCPm44NPP300/ZMJ7/qqqtM2oMerrzySnVgf7ohYag/+NheUa7207kzMP1+vNOKgEmXaXmMmIqWd/3XrdMtHnlTJjrtwoULtSOm3PK+//77JKUNElacu+xHk7VMRoOalqzcMv2X2t0k6UftvWzZMivT6tXQFbusCty9995rDJ50J0+ebHUtHTzc/XTaja5Zi7UHSBL909OPuOuuudGtXLVCzFgMRXi84PsXxHBRKBxeaDiELmhL0qVtt1ZUGNNa8tYSmwE01Ebuppunu2k3/Ny9puVgN0y7NsaQY7MglR0cbdy40dKgz5Bmc+NO9+Nrp+hrrfu8dg1dc91UbX0d6SbsP8H96rb/a7Mf+hVtDkNeuPBF0cVQa0tolkGZxflTf3aDSNMzx7lPqs+I4VXI4XK1nA4jrLz4wqtikivc8V/5grvqyqtEV4Xu/At+4M4//wduypQp1i8TWz+VXx56hgF1lmjlypXcWsH2ChTUXt91wfcnm94nBJD7fXvU2S7S7/HcpAXUldLPaCGwKCzovtRB4jqcV15+Nfrre7F8pD9Z/8lmCQVed6dRWfG8Ky0SRmkuxmF5oMfSFFTP0snpYsFwUOtM/fF0ew66+Zra7TLMYPRR0uIcGGAA0pDUoScp31G8Cp57boHcofn8x+/3OXvHj6QXi0v+lAugHqFOYjDSVfr3GHxqYulRpqodXt90zZT/Np2uOriMQujWpFeVIQgjFeDL4/WDNTVaeKwKbN9BWaukCyXNuqheatCvHneBhUe/BVRs3yx8VtizlroIL+Adfa2vU3I5wSEGDEBSnd3vvvvueJ14QR35xkVcgHvyc/hOWHAKYLyZOvUXZjCR9GbvakUTtdU+DXAV0qCugNZImo6Q5/oG9NC+TPy/7hq/YH7jhnK1k09DTNv0t1IJGD0QjnehLtSvrtan3VTfaGVBXfyjST8mqNJpjHT8gz1r9UQ8DepBGwLJ5WxQpXDXRrHkI9S+Xzl5mvLwdIhrONoToAzgAvoIdAGtNbXQhkqnuSJauPBZH1bR66p9Gl8/6bxIS3XsfYhXobKEjQVNUmw3gRtReq1oub6hSovDtYFA2bLAHnd9i/+8LJr14OOmW5d6w9LaXhHcz9nfaNUqXB9q3p+HzGAAtAZ/khgTfD+Qz8eGamsc/BkCp3zt27SdjCh11uEbZNyA6TQ1q0M3+p0sjU28a4p3PtEVUaLt5U3RYYceoyffN8RHPciEDmOFcLkAiC8QYeiU1dViwKbEb4wTpaTRSJKfMW/ZewywdsJsYQ4QMMTlO7dnTJQXoAMHxsP/p+cv0idZRcW3YKbgIXQI0oGI+c97TY+lFG8SM1YaUt431MYQpKTZ9QFcdeWtZonnuU54FMmrHDEGstMztzptz9G0myBWVk2rVXcZC2TdN/4hdBz3pQvtu4WR5bS2vkK48dZpX351HJUBPFG+wEDiaQqnvi6+U9MxCUN9kvHNM/XkIh0unnnv8ecZIWkZfuQ/8ydTf6l8VXZVAYbVXC9mT4N7FFs+pAOMHTvW7oQLzFMSuu1ggUCmXn+zGABhsbpDE768xA/l5B7Ss8T0wyBRH2PuNRrwzJCk9wcffJQFiaHXmCvxYbIwXXAQ2hhcYAQhb+kszX9nnejgoIlHWhoYzPAXWqf6gZNAk8RnAOA/70lTQ7B2XG1QPM+coUXqh0GqbHN19OqiN2RYUvvqXT0+SIWrMHBqyZMqRB2hMQY9DZhN2qGmgRU6Ziyu2FoTLdVKFMqnrbW+fPXURzuQdno6pJ74kwSHmeEQ+VSYGpkkyR0EeyKAYaklGJohet0gwM/94zG+Yeo04tL6ellTuyOqqduuhqrRqAfRQDBqfC1HgBiAE47DaizmpBGVFRKaPqhRsRpH0ezZs+3e8Q+jb/LVJKsj5YuifzjsaOtscWlSHTFRDwsS/0GaCwylFglB9Tr0kCPV0dTRZZEO5Y1HaOcBlHDFEaOIWgAdlW0R01T/uPnGX6kMKjF4qMdKztIUET2OZfVuJ059KyXNgB9LSO9lQa+uwTqqBPRu7eqm6LSTf6T/Aag/nU8Jt4rH+xiiQ9A0d6y1tHHPAElceFd210y5RR1YpbHyK1UIhN5M46cAzLGiAgbvpUKkMgMF/fpJ58Sf/QP1aZuG/5byS4MhyRI8XPq7QKszNm300vXs2Y+lRGr7d6c8+cJwEQBMKFAac594yTevnil7V6CqGtprFuNjMGFW5ZknjLkFgUDXqhXrNGvwZauOLQ1KpE0lhEcNqjurymxQAJ0sAdupLZufrN1gfUjJtAsJJomWMw8ZwQCja5AkE8zFN5RnTGoPNRSjaaUYU8VWcRT9r67yIzvExYvaeqZTdZIqKo0RMhUgzhNz5luDbtvuCYOpj1+7JulnlzotZUowStZuwti2bqmJfnjBVTZaI41QHIjTA0THJUoXIImQP/D98y6JtmysjGY/8ie95xvSBaOxD2uB2vkJqVovElE3s/5H3B9pBsa7cuUnWod5naZ7kjI0aNh+Ynk8b1aYHds0NZJkUVsjfMSz4oEySy2gKRbv4aG/+u+HYiUAxzBILn2MF4D3xIsnpOf2YcmSJYaDBH7aD5v+C1KmHwTfWbIhmnbDrZ5Jkr0xSZXF6CERO0hemzZtMiaJ9CXjk5bXiGbUFPfc/YANUr4KoT7cuwDkG3DBXdCokWnTpvLo3LMvEaPx7zr7rdUABiOsE72S3mmnnBWVSeKTyz6LinRnkl4nCe2slFqmypf9rLPOsQEZpifXeYopiV/tu628LhpaOtaqiwYIJgif90AlmLH4WYeMPMKT/zJk8BipVkQXO1niFAue5pbMJPOGm4ywSNkbpAhHgd0aQK9MewbSzGu7Ff4f++kY0TvvvNu9/eZGGTtwCaX9oTIBagGtvKNoJ4zu/eVGSj1GhofIvbLodXnaqZX7sEa3h6yDmprrmyyzZmFmoEvNN5Zl6s3GxFAe/siOqKUT7OEdMqS/22f0fm6njnytrcUS2iQros7CZv0F6yiSrgJZG1G4V1TUuvvuv9P99p6H3Df/5auyBLYobpUZhjDsdB0ovyzdWKVluOovnOzQtrgDD9zH/eW9lbaNUooqWd85dpZtn4WuVAaUbXITJ0So+liwyY90uNib3iDjVIMbrOVRhx46xnxbYvdsHzr6loglJiBvRZ9Rtiwr8ct+El+7/iThTbOPFvfZz49yf5zzvI8YUBb3dpNID9rCAIfjXfLFoNBP1uYtm3fqPG3nRo/ex7an+hjeOt3lNiDfkHcheMDA5rQra5iMJQepTf1ymURp0j/10/IzjrrtI3ravr3W/dOXvqwTIbUeTpb1Wvk21cJ0Szd97MRbLOQYJNnWO3PmA7r7nUlxOld6pXv0dRU71roLzp+s/JwtLaIOtEuAArmEA9jtwx72q6+aJgPdOnlm11IpGbcaGjBAJtN2Iq5FtB/oKQ8ZwQBTIAw3rafbDFEMV0gp/mIFv3TINq28/prbo6sm/2c0b+5LfvqMwlsj4M5K9GrEjaLXX/tLdNedD2gK7kdWJExGU6QqLvSMwPz5T9u9wx+KYunyw6jsp/aysGoai86zNnp45vNm7ECoKy/30ydfdsKHejBKy0BUXa84jdE3Tj/P9Ds1UgPUaZ5V38C0qoNhWl8BQvhQ/IIUiUTsFlI+6ILqJCm+9NKbGvUl1WzerCm3PB9JLUElqmXA2LkNTzjEDeXSowBJFp2jjrGVBxnhZu7rll6iHtRFOIgXANzG3pFAJ/DWW29ZOwejQSfB03xujraWo3NTiVT00069WDpU/eFCkpR+OVWSJCzSJBIO0jrSPMYx4pQUjbQ2S9RH8W0xdkx8InJHQL6gwIiOB+lglTa7s6olcT23YGn03LMvdJSCffM6SWFSktucx54XbdTICOelUsqK5yrouzOo1A4f8FCz09ORaq16qk5YunRvUQdCGjSHTkrs3HMujZa8s1z9AXRIZYOSUvmgqgGWvPVuNG7sEfZcK7Fz+45a7fiRLrcFEZlAhA+XdRDDs9dJJnHdjHCKXpwILdB2us1bIDQA97bw/orV0d57HSxGICufGAJMdFt5fbTnsAkWODGN4K9Pi07C1CVM+cJ0rG3q7b1pv0xzHnva9GTwke07xChFSCjTm1tgUBVmZAjTFy29tQxsdigibcEgIibuy9le3uneJ5cngadn5y/1DECpNshiLa/ixj/gJVrDZvmpO9AlVEamsEzp0NmCHw0n6kzPPv1aLMPkPFLLkMgz9Uvy/4DncE/+1vVnOqb0bbFp6L+cIp2p75t6r2/slmrDS9BDyn2ZrA0wSoxqbC/FEHHgAV+w+I1Y8my7JSoZGbaUhzGYLhcsgR9WZOiUS8P18GH7Wwq0eYuIEZrDuIjluEmGsDBI1as9lGk0Y4Z3q8aurNZApTrHs6dpj4ATTzwxfZxYUbHTAO+8877pQiurxNjV5pvKaqKVKz6M+hTvZd/BFeoDDwyqqIQoe/ryIOzAJIH8dDsnjB00h6t1hhJA3QET9nMbNy13Gz/Z5K6YfI0bO+ZwTbM5QH61kw7bFnQnYvl0mN7v1EFP4fiCtlP9RIz0T6E83JNAs4/77n9Mi3k1ddEz3qNtO4jWpLHusIUtERpcmYRM+8ktrrZqh5+xxJJgwlKQ5uiB2OcObsnliZVJiR1//OfcMcecbJ5kSrQmMtRTg4T7eM1q85Aen4ZpCktMysYiZlzEHXzgZ92RX/piLN/kPFKLEssz9XXKfxmNbD2m+k7Kl67/Ja4GOKlYirVIulZTxtN9oYONgHWHrZIzrEq9sU1xtONEdWehOFPIMq2bnPvkI/KQs0kLqLUo3Lwt+ci0kpbyt0op/R/SJ0fuvl54bWIdb1nZdm0Q+NCdd86llp/2OUutop1FeFSXCgTPuZ6NyMWdFsZPnXqjnJucrvW8rGxNBtKnZTrHc5EqRpqsCX3qqac6jEOKWpfuDvvMIW6bvF+dd87Zbtjg0VLdyPXagFK3fOW7pnbB2QdrPr3KhbIEWiCFjqHzEnccP/+1hxjQ2CziK9QWrmo3fsJeciH1C7dh41Ixv8HS4zSLIP0i59RstATEGIYMRuo8FeY2LDVMt/6LZh577HfyFPQf5jnadrQwlraIa7aIyFq0yF3+ISE6LV/SImYxThEpO3PoAyxiTuHq3SqGRVJ62vWoHTe1dvCXNp+ozn7XUp0WBk+cOFH6VHz+4WeQXUJiCCpIoxbqS+CxXRZRc4k8kXeFUXStmGxXu+OOOyywZ3Z0uO6AlmhrvGGnUWlsl45nIqTld6m0TrXFjRo1SsyfenIQ20AbxBq1rW+YdrvsNWJvV2Ke3mkINY4xR+5dhcAg/R0mAyMeqTOIZH2Xf8fT3L13PyJdcB/pHYvtEDoXQQuFWhjfoAGpybZY4odycKl8gZYEptjV/BPh6BMMBGwXRPcqI1XiY3gKnEvVpcZc+47Zx814cIaradigBfP95S5umBu193DtYGLnl9ej+5DQAwlwb83K9aINhKzafMi/yBUG2PYkJ7riQaViONp2KqKU4WaQmr2FY1sZVVGmtwY6SjhAnm1ddKBMgGjTfC2edurX3W/vekg0FGMw1ndELlKaI59cesnV7pZb/91df92/+yMCoKQ4NUGymQEJXO7kk4+zHRLSMWrbpIxWwhd7nk2qk79NllibAAAgN0lEQVROn3UiT/N9qP3RfbWLiEO/UNRnChiUrrjiCjEQMQbt8LFBYRcTh9FLFaBBhsO8JHGZ4Qm8KyGO6mgDfCjS7pbbFcYfKUvdgXlznvRbE2XMKWa/KowyzgCEE4XvHCxjBeMOc9MeaInhjHdshdXc333lKye4iQfu5+bOna/tfyq/sh+k/dxCgRuiA7tKxIguu+R6d/N/cuaRfAAomdZ2zK6Uw5c04BYGedNNN5lR1H9J+qWoJKmLbb1sN63WVt76hkpJuJL2tU2RQaioWHjR0SFsyeXyAI64wHWcaP2n/G/2MCCpogOdJF/bg+ZoS9nftEZRLqVsl4BYonpPPQYa6abqG9EDtlFQSd+mpUSxA+pZfhR2P7SXS1ffY4DC/T+7Vdau2RC987YU4jKgsJAX9U2DlPLvLl0Rvfnm+7Z0iHS3laMDA9DvUNa25eVrd4BNQh9/WKklSvJGIx0XdUUfy7Vq1SrpxrQ0xBIOeaNvki5NYVHRjRh2UHeybTdOWLdHgO7rJaU91SYCdvsAcx77f3Zn7auvDAuy0VsC1Eu6V5SwAupPuLpa6RuF5n847BT7j6Gt2dbCYLTx+Oe3tT6bFNIBGCQ0BaBMykNGQfS/LDMC1q3ZavczTj87emvxX6PyLVowT3AV613RyBcO/7p9r9axGyzKTg/UpXNAJ0ka6F65OgVl59sCw2dDVKndVBiI6uShSufmqC5adyti0B5vJdW1MiTrJLPHNXpZyjRk+4abjpoZ4vSEaURK57AOkiDYQPTJqdj2LTEK1qVh7cwkSBdknXVHhXY+yMUVRiWguGBvLWg/y4wh/Gctnbfwkj/1iF3xDk6ongEdsUpMe8X7sgarM2BMqNf8r7xc1m4RPVZ/cpW9V79ciiDu0aRF+JvWb9Zi82oZn3pWhtTYkiSNSfO++4wSA4h2XVVS5igaPfLzZqDasUMrDmB2xrBa41Wea6ytN6wvk9GERdVR9LUTv+d3KCkZOW+IxfNp8tt1ygh5+bxt4BaThL7Ckk2s1X9bp/8agEaJJmbOmBPddccj8WaX1KkcMwdswQS/YVtsq5Qpbriw0IW2F95glB5/qXfw43Gjhw4hmUmmk+17GXv7364u84YkkV/ThgSE5kl+578GzzI4Z9CWsLjTgkTc7j1VV9fo7JphpgfqL70O3lY+XvtXp/3irrFlo1+aqeJWVnJioXPl28vcuAGjNeuhDqEe4d69MiTHYio1cNBAd8bpJ7tVq181F3AceTpAc2icGNTp+NFCnQ2dDM0xD0hMHMvLW9yIzGgiLAv1LHfbbb/Q9M47qghHOSTn39kzaWCAYk3pYDmXYD1gaekepn+ta/Au3ThqF+OcB2pS4g477B/tFMxRo3U0gwx+D86Y655ZMEtTY614leeeYtMDBloJcTsrTfie3GZ4ft9D01Pv1Ui7uqTa6ef6DpDzkdIh5rlo7brlbt26zdJRlshgUq966Ax0TWszAeBHTMrW4nJER/CslDZtDFW2rpSvvg6JUoC3ZAA3XLwnFFfneErGjCLkIdcYkOMzNRlHG4ULjR9NiX9I7vwPzDJRurB4XfRkrqZek7++TMBAHbqkZSZukBik76govAvdvmP3kR5NRhS5bMMtWf/+8sMnXdReUo57ooTwKDGQObIy3ZuSKyvbYilzHMAgWSn7yFvN+vU640ZHDCQ6hQVxRSjq1XHwtKSlNmI2/n0mfiXZmNVXaolu6SMpAwwSr0ilpQPNUlxQ1ORWfvCB9K2R9KdqazUqGwYS+ORVg1u16gMNDFooLz0hC9GH65gOAN0hulfieQYQ7vZ5F39oO7mvs5UE6MOhryFyifeaua6TY2XpABulT612+08cKVwXinGixaxWWPSk0EG4djHrWHB0kmxWgFGOHDkyPZNk0TtXnEHGIrOygoP4bIVFKmUklyfgiHvHAEby8L+MAXU7kRWXZ5TNeubiXXve7LD+wSix2kFMxx57bEZq0YBvSllwG7Q7okQ7JwbKASnneg8ZwoFQOgd7gMoorTy7XlCEL3xhocoZDEudE9yuFpLzxcvL6l1F5Qduxv1zVSa5cdMSkfJtO7T7ZKR2TsiXZTxRnmTdrlPZtdvipRdf1q6RwW6n/BhmCsD5XXfdFcN9qPeupQ7j4cRFcFygTl4ii3V9zVrVs8wYIO/6cqa6AQzHM1bu0tXJuKdBShb7/3P7nW7NRxo8xAvAC27tEpDASuJdV55gLLStKFB41sJsMfJmd9yxJwjPMlZpRxSW475yfov1m51aRWLyhYX4qEzFhy97V3JNDoN0jkUbt3SPPPKIGcmSv7d5xjhljFHMkWeqbnfP8A1BrSJRLgJ1rXx5JtkKebn/A0kiJ/pL27FEoP5K2N8Ikwr43WNawqjLM0wzE9BHXs3x0YhHaX8MK34oOb5UDHPAYFlQcaSqY3P1BmnjjNPPVKdFVJMpUUzdroxRlVb5Favj6ZAoHE6Xlg6S4CDJWhbg4XsM113zTDEUrVYR1gDPGAqK5ANRht4b5MdwgJjoHsPaSuIWvBs/DEjnn3++SYPdmWqTJWoK6U21xZJjW1XySN7Jy+UIWV6y8SyOhbpJy6w8PsErzyXuwIMnaqCqVHuDZ6khBoxw+2nZGJJkkUy5xSU4I/bOjolLqO42hacvJFYNOJIWGRCLiwbL3+RQslZeeKXvazRSVDhADnKHqByUlRyTL0LvGiBp4+AXqf3cc89VuulqEaM1amnmbeVBsKTX9t5ehB4WPlJO3gXc6rEDSJd7B8Hznz4tGICAYIycvwxRPf744xkuGh2TCxJp/QzRhukmnYgjKBIdQ48ZA7yDV5l0xRLImTMflWNU9QMxaTqkdnhY57XixfPkaFVJZtrui3RVoL3yGzdtiH/t6UNwwsqRDOC9J+AXemsJkHj78OED3An//DU5X/blLuQYylZQ51at+Kt51ZYc766+Yrp7fI6cFLeC5HZq9WGX/7SlryeURrr0k99lhp2k0hfLrnoOlJPypV6dp5yZWnWeTz5EhjEAkwqSDIfVf+c738lwDu0nx06IwCDIl0W/2YFI0+kBbuSooWJ4zq1d+4n1Uzl3UXasF9TZJmkkaMI++thc99GapSZcjhixV0aLt3r1apN0kORhJt0Bzma37qofPdoZ1P10LIVm3hqApJE2qYyU/dQQRorjDiR9PGx7xyO8yw70DvrqGu7yTLJrePrUhWJ0RZLUqYHS3ZTGmVYuCgpTpBMhRc6dO1flSNVFZaoUOo9Fi6abtf1NWgUdg/GU+8H5V9oOJTnT0E6jHZoCMoWCkcSYlZgJC5wHD+JsZhmatHWTLYCZAnA+frwOIMMbkSTJMFjsevqUm+6nAuvGFsopUy5yy1cs14FU/swWnya4xStPX8fZOiWSopluHzBxnKlbfJjM//YO+uoa3vJMsmt4+tSFQmcDDB06VFJHgXvhhRdyVkZz0yXrYwCmv9kBHYAl3ZcZNzTNBoaUSi8q/sKJdmPGjJMBIcZo7KvEMOksFUVS53pMribxcUiaMSML07MfmKMcH8SZY7eZpEmGlMUPMLg7O+fs7zr5i9Q2Op10iCEiDjD5Rp2XM0W7sZx7e+lSt9/4vbX8KZ5IPGSmHnoHfXUNW9mi7q7lng/VbQxg1Wb7HYYbpl7HHXdct9Pa1YhIkEgaMMvjj/9KnGHsajqdh8evIIeZSWITpWI8nThxf+UtlsEBf4IGxMYgRZrOTH/FK19YqCVRumMY4bAt+6PfngIS9CGHHKI1jrV2amG30zP+xg8SsJigHtesrdBhaL/VekS9aQpMEgZJmEIdivY3OY5wbvp//Y878aQTZeHOXvftHfQltHYBsoflLmSeD9J9DODMYdu2cjHKEmNYQT/Z/RS7HpM8YZAwjBdffCmr0z5vrqRsYhRiepdcdp474YTTzKHC66+/IUkTC2VgNgl2uUXLaYJTnT59YTjGlUioR8CAxBo+JC10klzdB1XIzgvXek49jdl3DzFfn1pfrN4GMEigwJw16LBIedq5RlPunuTrU+zot/fQV0dY8N9CS3QeMh/iU4UBGBVHxOJkgTOPOZYzV4D1EYMFEiXTTaSq7ANMQUuelNXFF10qJlWs88y/KIkLy2dgJLor2EU/mOJee13H64oH2bpCWz8IQ+o5sHbvlltuNX1wz1MjhVi9pJTUlmV3zz23up//x52mMvDp8x1pmXOx+7nTTv2h23ef8XIFBuPnfXag99FX+3jMM8n2cfMp/1Jg0hyLm2FYmfIC1JVKw5jJEyb961//2qSqrsTrfhgYBYxQOkrpGw84QNsgpWasrpG1I76GDiaoXUoSH/v080YbTh1gxw5r+jIFLHKeOvV6ZaudJjJgdVsnmVIg9MoD5flpwsQxbvOmLVpM3Wzs0+pkBp5iGW5udYteXeyGDNUWQA2SLEbPJrBWkhkKM4Zc0xcSeu7oq2Ms5plkx/jp8lesnmF9V9B/0UFpbCQt7qytQ/riGZ0exAfD4Zn91wBb6XgXngmDWy0dvGVxeQ+DYrcD8QDumzdvNks3cenI5IO+kv+Ujby5kzd5AHyTgwpLj2kk5SQtLuJzAXIwYGEIq+iqp2fMfLv44ovtG2lj5aZsIR+eKUv4T3jyoQz4wOQ9YciPslBeygAuCMPZJuzwgEHW6xuOWOu02+TLxx3u+vcd4z7ZsM011A3QN/xHFkrKxI9hgTvooP3d1rIqV9xX75vxdVho6Qd8k77HK3hM4ELevi1fykw5Ag64J9fBS6fe4EKdqAO4IU2AsDxz8QzwHHBt3E89j33yLVGJ7R7i3CCd/mdhBw5iH3SRmKDSrZfz4IYhKkvkJk2a5Kpq35MGQm3TUKcF3P0NV+CO9AMOA85ZqgXQfpSD9yGspwPOAaqy8lOHZFzwHQZJ3bmvXbvG4tJWhCU92pBwtCnAc8iHMOG/D5/ABWUIdODjgQtPh5SVfsR3wl144YVKx1l78I60CMs3gDKHfAKN8w1aouyhzqwCATCMhTJyB0iTPkYcnkO/oRyEyTNJQ1PPfwJivWThdVVIB2XSjYFsgKkaEgDAO9Y38p9G5huNjMIcoKHZHghBwBD97gbtxFCjER69GEQDoaIfY4+rt3QXmoQZdJR+62Kz7e8mT9IjXYidvIkLQ2DUBkiXDkfYoHfk8CnqRfjy8q22mBvChaACIVIWrNyULbyDQFnsTpmJTwegPABl5R35JMrldxGBCxiZfVMYndWsbXoDdBCaDgLT7g9OQt5a8TfF1yAhHLNTpUhegIuE2vqY9LjnCC/l9e/fR+kkptoB19wDLgIjAC+UGQmR79SfdqUc4JP68u3qq6fYf74BtBX4A4+0IXfqxpX8jjDWuVWc8q04jUDCLXDD5VCkWIUfMlR7uWWx3nvUcOEJGtGBWtqJ00eOI/r2LXBfPuZYV6udR0jGtWLoHNAFrihrMtCGlHn48OGGe9qP/7wP9EMbUz7KxDvqTf2pE+95B41AH7wbN24/w5e1idIiDG0I0Ka0bYhHm5MeF7ilfNAGNEK7ggPKYrhQfGgK2iI+ZQWHPINzmFtov4BjykR4yhf6COUKTl8CjRGfNuQbZaVOe++9t5WX/AOdkpfvY8JrrO1oG8oX+pFVNP/TMwyI6KL3318uekgA77hEHPZSDRD3j6cGNt+AfOC9CMPCVFVx7oZ8NG7bZmeJ8KzGkmswfz5HSJP3uLFSw9ud/3wjrAiWv3ZYFfkAHEXKM9+JI+Kz/2Vl3k+giDdeTtJVx7B4Ygw629v7iyQOEHwM8rxhgz/QimfqEcJKqrTykGdIizDqONzMxRrlAAgjhmXP4AoXWUBlpfKTP0DcooVDpsrLOX/bPkcHH/RP/kG/ds6z7q+98obOVvbnkhOnbCtncMs9hOoTyiGpW3nid9HjNtQ3+OSkLUKb8azOZGHBbyg/7+SkIp4GdSF9/CAC1CfUiXd8Iwz4DxDanDPXOWfd0tABa/iJPOKIE3XQVUu0fgNtHEWPzZ4XjRvz2Xg9vX/Jxoi6AMn1o/1JK5SbdqHsgS4CDRBPg3gcL7wHB4QN7Uibh3pwD/RE+uF9wEkoB2FIAxoASIsyAOAiPJNGgEBbhA044g7dArRHKBM0Sx7EIQ3C8T+E5TnUnTrznfIAlBWapt4A8QmfDvBXWqtDknrGGfKx4xiA4D/44INo5syZ0aOPPmrPq1evNgKkEZ588klrBxpoxowZcaJ+5ZVXrKEgchghjbt8uWe2Cho98cQTFo/GfOghf340abz99ttG9IHg5s+fHy1btszC0ukpQyCM2bNnxwnhvffeE5F4hka5uN544w2LBzE9/PDDcUagrY7xDsRJkBBY6FSUIcSjY1HvANSV+hAGHHCHmZIX5dWaTgtKnR544AErJ/X+0584u9t3HLnIEi7qog3r11lYDj179rnn7Hm7/Fw++qjHy333zYpeeflVOzxtxLBD5AwWf4wtkaaHPuyOcuH+j1YGXlDO0IHkOclwwXtwlox7cAHuA7MkHnWinQOeqRsdlfq98847JGNhwHcAnokHEIaw5AUuud5848/2raGxNtLCfDEehVX7PPTQU9FX//lf7Vv51kY7w7quWoxpp/Cj74sWvWTfKHPAPWnPmzcvPmh+/PHHVqfAzMl34cKFcVw8+OCD8bI9++yzcVx88skn1iYyBsbrf+2111pa0BRtFtqJtqRNaVvamDKENqfege4pLPmBV2DRokV2B7/QFLiAxgCY7x//SJvZX8NLiAfNBbolX8JA0wDvA+4pJ32AOgO0GbgiP9Ki3RYvXmz14D9lA/7whz/oeWYkxxrR0qVLrW7xTp5/6BkGIBqc7kIYNF7oGKFDQjw0XGBcNAhhArElj7CEoeGIA6TGgxhCOqQfwoWwFkk/Po2EY1j+E4/wPHMBPhxHcfr8uIfnRPn8SEx+ITxxf//733MzIO0QnheBiHkOhM1zSD85bEiTb+CC8ECTvO7aKYDyzM1RoU2xc0Rr61QHFXfGA09ECxcsiqb++EYLj6ds7/MXXCO9UEcdjxpjVD6QlyBCOcibCwj4DPUP+OJbKO+sWQ/Fw1PHAKHMIWwIz//kb8n0wdG3nGiIF/AmSV4c1YszYzsVVfHWrN0SXXDeFSRhwImEdfKphsftqmov2Ydv1DG53LwPZQj0wj3QJN8JT5hkXPCfcAwIlDukGXAU0g1x+E+4UEfIKBkvIT3CAcn5Ey78D2UkfMgL+gr5cA/vuXPxjnjhvQ/radrn5vsPz6QLJOcTnsN74gMw7XBaYs84Qz52HAPgNv2524bzrPzQkEAgsqxkkiZRmBgjMZ2SkTl0jjRBe/4Kt9jqBDYHFZKb8EQuRlm2pSJC4oGxPD1/gc9HQbdsDkyLKTJTeKQ4zwB9oJ790hnBu++MicGke6ky8HDRebnooL6TcqMuXzv5TL1TLTRmHPmFoy1Yo84cbmyoFv69GscCZOGnV9BXO3ijTwUmmTfcxNlczx6CwaVnqXQ9tqYkZhTBqq0R0s2ZM6frkXsYEs88wQglGjPleA+T7CB6zOiCf0BbUC4vm4Utbs8RpW70PiNV9wZ3yqknyju3jjmtatL7fjJqYG3F0hzWT3aQ/C5+QpGvwSFudKD+3YPksgXDEu+4/PKfEXv1c088MdvtrMTRcYNb/Poi2XlkWNFedMnUOh2R7ZbZgd5DX53jL88kO8dRl0JIsuhSuEwFwvpWWbnDGBSWum984xuZSrpL6WgqZuG+9a1vmfWyS5G6FSiJRMUocQTbrIXXMlwotUjMSlbeep39rYXVxVpGQztw8qTfyQIDo128RZ23mQBNEc0yilUUy2lmITBKv3RLJ1SoPrLcFzXKzaSszrK4NskyXccaUTHsbEHvoa/OMZjpFu48x3yIjGCAZQ7sa+b8D015s9BZ2y8mSzGGDBlqyyVkbDGG0X7oTHwJkpZ2nejsl0iMSVN+t3r1B7YEhK2JWrmnJUBap6ljDsISEJ9ziJuJcvh1nngVR5LW1DszicZX4iWkUvFf44H1eBtGatSgOGvWA6qfPJnLwe7AgYN0rGum8m9bjd5FX23rn/wmzySTsdGDZ0be7k+9dj1jJLn+/fvZ1I+1e5k646YrJUGCohOH+oZ7V+LuchgolHWOSGxaxF6gKWaLnOpy7T/hQDFLzmORZ2x5Uu/Xb6B5+8bvok6Fjl2sS80co2Td3csvv6w0JaP2aPZgFVMqoQsi7SIZJl9FWsc4WOeHs4a1xH3ve2e5EtWRIz0KtK6yoChzO4mUQSvoNfTVqtbp/4QWSv81//ZTiwGkOfRGdFR0kkcddVTOyorkykJ4yvDNb34zyzrJ1tWirjA9FtfDMIs5gd4gMELuqVcsSAZuDAgnnXSSDU4MjJmH1LKH/84tW/YX+dZkEbgkae3GyYbONdSnt9JXqH/yPc8kk7Gxmz2zswF3aUh2raeY2a0IjILpJqA1ejmd6lNPLlnUTaLzTDO79U1OHcMNecIgc533YYd9xrafogclb7Y1ZhN6I32lw2eeSabDym7wDgsrUmSxPNDSYZDscgXow7T7wfKFQcOwcgnUm+kgJ0SyPS3XcPPNN9vWTfLOqqohpWJaXG8rGmCS4AA1S7agN9NXKk7zTDIVI7vJfzoIHRRmgZ4MC3euAH0k+2SRqrTDI+eMinzZqw6zyLx1uWMsav2cu/HGG02aZXBikMgVXH755bYHGQaW7Xr3ZvpKbc88k0zFyG7yH70gEDb1a0tYzkrOEhgYNBLkmWeemVNpCqaEFKWFzm7NmjU5n/LCoCgDDJLnXEmS5KPdJ5YnjJr8uWcLeit9pcNnnkmmw8pu8A5pCt2cdpwY0xg/fnzOSo3BiE7LtX79epMoc5U5EhTMCUlnxIgRNu3NVd7kgy72+uu9P0m80eSKScKYGZxoc208ssExm/XurfSVDqd5JpkOK7vBOzon0hQunnzHyd1idpgTjBLjhZdkc5c30lOyaoHOnEvAR+hNN91kWcK4sj3tTa7b2LFjLT/cg9H+2cy7t9JXMr7Dc55JBkzsZneYBdZHGBWd5ZlnnslZDeQUwJgjHYkyZO+0xLZVor5MtykD9WaAyCXg2zD4PsxlvuSlvepWd+pM/bNptOqt9JWuTfNMMh1WdoN3rGNDqqHDIFGeeuqpOSs1TIopL1LcbbfdlrMpJxWEOSDBYc3PtRRJ/uBbLrisHNnUCZJXKmCgY2AKgwTP2YLeSl/p8Jk701y63P+O3olg8QLk0A0GCYfOnC1gSxxTXjot089sShXp6gCzgknQmVDyc88VkC8SpfwkmufsbC6FSa0TRyKQH20L7jnKIovN3Cr7k08+2cnnpNEX9cd4k6127830BdIRAj788EN36KGHxvdEtWqM/J9PPwYgYlzSw6BgWHSeXAGSDAMBHRVhBgNGLoE6Y8RANwqTyiVwMiVrRGGQ7OzJFYOkjnKCbLhmkECKzKYk2ZvpK5We8tPtVIzsJv/79/dnqrBeEKkml16A6EB0VKa7xx57jOWfS7QhtTLS+zLklkmy7Anm5KXI7M0U0uETyzp5I0EyUHDPFvRm+krFaZ5JpmJkN/mPVTssQUGiyyWExeswKrnhz6pEk65eMGes6mvXrjWJNl2YbL5DgoVBMzhlU5pLrcOCBQssT6bYtHk2VRy9mb5S8Z5nkqkY2Y3+I9HBqOisS5YsyVnJyTMsKCdT3JblCpCecHDMdH/cuHEmUeUqb/KBMWG4YaCAUeYSjj76aNNDI1HW1WU/795IX+naM88k02FlN3iHBINEQWeFmI844oiclRqdXMj7u9/9rqbduZvyMs0tKPAWfaSpbBku2kMm0+1vf/vbZmH2RpvcTbkZCDHWoYPu27ePrWpor5w9fd9b6Ssd3nLXwuly/zt6J6LKqXU7LOYOTAIJK5dLYpAmYVJIUzDpXFqYYRLkuW7dOjdmzJicGo6wbqPmQHrPtcEqLP1Biqa9GSCzBb2ZvsAp9J23bmeLupQuo3C2AYkKphjygmnkCsiT/LkH/WSu8iYf8ibfCRMm5FySHD58uJs2bVpcH5zLekNWDIowy2wPiL2ZvmhTBsEA+el2wEQP70zDIF4coiJd8cxolC2gk5AHEgWjvs7hzlZWadNl/zCEdPrp/5pz4wmL6Kn7Rx99ZPe0Bcziy8MPPzw+7Q2DVBaziyd93nnnWnsHRgkOsgW9mb50VrfNVJDYwXFuN75mq0U/Beky8qKjwucfyn0YJdMxpobZABgU0iN3tgbiBShbeaWWn7piPCkpKZYBZ4cZT3I19YRoqXdgTvzPVb3BA3XXofXu7LPPtjKQd7LUkYqrTP0nX1YShDYPU27eZwN6K30hdLAWFjxDWxgo80wyQxQGsba0oFDva0wDHV029YQwCXbabNu2zfLkf7Y6TDoUBScTWFlzqY+EcBmE8KOJtEOdc1lvcEEHAmAk2Z72WkaxHzosUiT1hbayufSrt9IXuEXvjFoFXOeyfZPb+u/yWQQcrV79USTCjWR5RCmpQ/0K7c5zpi8x40jMIp5HNvNKLbtGWquPpMdIRBTtuefwjNcvNc/k/zoAzfKjzuSf/C0Xz2KOkQaJiDtXLvIkj+S66pTMrObbW+kLmqJNoe0VK1ZEUqPZie/Cfx56igFJOBCtSZFMf5mGZVPCSZZS0YcGyQ5JSw3d0+q0ik9eIhyrDxIGz+2B38fNNsX2w7QXd1ffZxvHyeUJ9UaNwmwBCbpfv+xZl8mbtkRqJb8AtDW6bqTpbEs56Lqh5QDZoC3STkdfSM2ocKgrEh34h67BP3feZRpwFMOsiFkKmxXIk/yyT8mZrsmnND2tHUSyM8Km80JQ2dTTkT6NysJiiCwQGu8DUJ5MAMRC50Tn2tjojVF0UJgl78kHwvXMur8GCspVmoms26RB/WAc5AdDZiDK1nSffMKAAH7Jk9MZq6ur4lPdZAbWprA9fMG0b9iwYda24JsyUH/KAY2FqXcPs0kbnbqbPk75AoFR8R7GSVkyxaRT6YsBPwyAgTlSBuodGFloF973BEifOoV+E1QZ9F3omf//H01JHgwtaVSvAAAAAElFTkSuQmCC;" vertex="1" parent="1">
          <mxGeometry x="240" y="240" width="330.45" height="204.9" as="geometry" />
        </mxCell>
        <mxCell id="tVIQ4qI_l5tq1dGleDvw-21" value="" style="shape=image;verticalLabelPosition=bottom;labelBackgroundColor=default;verticalAlign=top;aspect=fixed;imageAspect=0;image=data:image/png,iVBORw0KGgoAAAANSUhEUgAAAUkAAADOCAYAAACzSPB8AAAAAXNSR0IArs4c6QAAAHhlWElmTU0AKgAAAAgABAEaAAUAAAABAAAAPgEbAAUAAAABAAAARgEoAAMAAAABAAIAAIdpAAQAAAABAAAATgAAAAAAAABIAAAAAQAAAEgAAAABAAOgAQADAAAAAQABAACgAgAEAAAAAQAAAUmgAwAEAAAAAQAAAM4AAAAA9exKSAAAAAlwSFlzAAALEwAACxMBAJqcGAAAJl5JREFUeAHtnQl8VNXVwE8yyWQPBEgCIZCwhK2sUUBQ3KggIkhB0SqoKOrXulA/l7q02la/Vj6XtrjiQhXsV6qI0JYqtVZQUJGdRPYlkI0kkIXsk0zynTPkhZlhljcz987Me++c3+/mbfeee+7/vpx5790NgIUJMAEmwASYABNgAkyACTABJsAEmAATYAJMgAkwASbABJgAE2ACTIAJMAEmwASYABNgAkyACTABJsAEmAATYAJMgAkwASbABJgAE2ACTIAJMIFzBCLO7fJeIASamprar732Whg1alQgatymjYyMhLVr18LMmTOhvb3dbTx/L0RERMC6detgxowZYLVa/VXjMZ3ZbIZdu3bBsGHDPMbz9yLp37hxI0yYMMFfFV7TnTlzBpKTk73G8zcCsbdYLBAXF+evCo/pTCYTlJaWQlpamsd4gVzcuXMnjB8/3laOQPS4S1tQUAA5OTnQ0tLiLkpA5+vq6uCFF16Q9n8QkHFaTtzc3Nw+btw49F/yBG8MecpR8/Dhw6XqJ+XPPfec1Dzmz58vVf/evXul6m9oaGgvKSmRmseGDRuk6n/kkUek6l++fLlU/Tt27Givra1tr66utoVILTsmo9k+d+5cqUWeM2eOVP2kXNaTtmL45ZdfruxK2Xbt2lWKXkVpVFQUxMfHK4dStr169ZKiV1GKDwvKrpQtPUUGU/h1WxBtepKcNGkSbNmyRZDG89UUFhZCnz59zr8g6ExRURFkZmYK0uZaDf46g0xHU1FRAampqa4zF3CWXvGio6MFaHKtAh+RoK2tDei1WJbgpyGIjY2VpR4qKyuhW7du0vTT63BiYqI0/fS5gByx8tkpSkBOWahjFgZyuPsxfIrBmyRhhB9jSMBwCsMKDIpQ7f0MA90lSzDUYlDkFtzx9DGF8t6nRLbb0n/NeAwXYCAvU4bhawz/wkAfNm7F0B2DGtmKkTapiSg6jlJpovUq+mTrp3zICcgU2WWQbX8wGMkuAzl5mSJbv7PtIpzkE6j0bjvF5DDX2h272n0dT5LDU+RL3DnecZCO29917K/B7fcd+/SO8H7HvrsN/bw843RxAR6/gsHVO8wJPD8fw2sYyGGrkeUYKSROUo1xHIcJMAGxBEQ4SbOTSffjsScnmYHXb3RKo+b9xT6ftzD9SScddLjO6dzLeHxfx7lC3NKT41EM/THMxtAXwyMYyLHS06Yi9NFjZsfBi8rJju1Gp2M+ZAJMQMcERDhJBU8B7mRjuBLDQAyHMbiSe/Ak5Uuv5kNcRVBx7o8YR3nCdBedvh4rDnI97pNjrrGLvAj3f42BHPRiu/O0ey0GcpL0bvgwBhYmwAQMSiBSYLm/QF30lBaB4S43eskhKdfecBNH1OnnOxSV4/ZHGOwdJF2qx0AOkJwlCxNgAkzAJQGRTpK+1i7ryOV23Nq/Hnectjkr+rZIjmu1clLClr5rXtqhl546GyXkwSqZABMwAAGRTpJwvYuBhmtQCzQ14DjLvR0nyJlanC/6cEx2Owf75Dl2B/QdkoUJMAEm4BcB0U6yGK34pMMS+xZvOjUcAz3dtWF4E0MgsgcTkzO2D0vtFNo7yQK787zLBJgAE/CJgGgnSZm/02HBlbilBhxFlKdIakQ5ppz0c3sa05U4hSo7Xb3t9ivt9nmXCTABJuATAZGt20rG/8Ad6p7TE8NdGH6OIRnDPAwkIhpsLkM9nlq36YlWkQzcKVIOeMsEmAAT8IWAjCfJVjTgvQ4jFuCWGnBuw5CIgZzVOgyyxb77UX/ZmbF+JsAE9EtAhpMkWtQwQ5KKgbrf/JQOUKgTOH1HlC32TpIcNAsTYAJMwC8CspzkQbTmyw6LaMgfdRqnJ8y3O87J3pRiBv/syGQ+bqnRyJXQGPILXV3gc0yACTABIiDLSZJuxSEq04H8Dc9RY0uw5DHMiFrSozF8jeFWDIotXXCfRv7sx/ACBhYmwASYgEsCMp3kKszRfpSLiAYbpRDbcafORXhaiYDbPAzUot6MgZ4Y6TsptYpXdwSyhxp1TmBgYQJMgAm4JCDCSVo6NCtbJSMa5aI04BzA/X8rFzq29PpNT3rtGFo6ztGG9ukcib3OU3hcYTsLEIPbBBeBnhrthRzhWAzU7YgcJAk9RZLsxnA/hjvpwEmUfMnBsjABJmBgAiK6AP0E+VE3nzMuONK4aHq6o6c+xfEp0chpJXUcNCgncUuv5OQAIzDYn6/H4zQMvgo9UV7dkYj6TyZioG+WruztiGabLYi6LSnOUjnPWybABAxGQISTpKdBeoV1J56u2TtB+/T0FCpD7PtPetNf6y0CX2cCTED/BES8buufEpeQCTABwxJgJ2nYqueCMwEmoIaAiNdtNflwHCbABJhAJ4HdR2pgxXpaLABbUHF/1IAuMGrg2TbV+VP6dMYLhx12kuFQC2wDEzAIAcU50tZe6Nj+3MgByTbHaR8nVPvsJENFnvNlAgYjQE7w4dfyvZZ6+fqzXZdf+OnwsHCU/E3Sa5VxBCbABEQQUF6v1eryNb5avb7GYyfpKzGOzwSYgM8EVvyr0OF1Wo0C51dwNWlkxGEnKYMq62QCTEAIgXB4mmQnKaQqWQkTYAKeCCjfGT3FCddr7CQF1kxEBI2klCda1y+PzDnNWmdE9uuhDOdq5OwedfHxR+xbvJX0svlERztOAcGt2wp5AdvCwkIYMmQITJ48GZ588kmwWMQN/aYbg/STtLc7D4MXYDyqKC4utumWpT8yMhKqqqqgpsax+4cY63HeP9RfVlYGjY2yRrXi7CstLeD8TyTKftJD7Nva2sBkMolU26mL7iPiExsb23lO9E5lZSXU19fbyqHobmpqUnZ92s4cnwwFBQUOaerq6iA5OdlBv0MEPw82bdoETz31lO1Havdumv/mrLCTVEgI2GZmZsKWLVsEaHKtgv6BsrKyXF8UcJb+gWTqJxOTkpIgJSVFgLWuVcTExEB6errriwLO0g+f2UwrksgR2U6SrCYnGRcXJ6cAqDUxMRF69OjhoP+u61JUdf9xSIQHXbt2hexsx87ltbW1tvvIOW6gx9nZ2TBv3jzYs2ePgyp+3XbAwQdaJyDrKTiYXPRQBmdethE1Pr5yD81Ogj8doRkSHUU2H6vVcYUZdpKO/PmICTABSQSs3Ry/9XnL5s5rsuDvd46EH76x01tUqdfZSUrFy8qZABMgAi9/VQiThnUDGkVz69S+HqHQU6cy2ibBbIKnp/SDx9cd8ZhG5kX+JimTLutmAkwASs40w/HqZrh/0tlvi/Yt3bsPnx2zrZybP7XPeUMRJ/XvChX1FthZXAtjeivzdAcPLDvJ4LHmnJiAIQn8ZNUBWHvHSIeyKzP9KFuHiy4OZo9Ig4lLtsGnd492cVXuKX7dlsuXtTMBQxN46tOj8MLMgeet3eIPlE/vGQ0vbiyEmKjguq3g5uYPGU7DBJiAJgmU4mt2Slw05PSIty1YFWghkmOioLzOAtsKPS1PFWgu56dnJ3k+Ez7DBJiAAAI3v/893HdJpgBN51S8OCMHXt5MawUGT9hJBo8158QEDEGAxoN9c6IW7puUCdEmsUN1482RcPXwXrCrmBZgDY6wkwwOZ86FCRiGQEpsFDz/xXGYg40tMuSGYV3gjg/2y1DtUic7SZdY+CQTYAL+EnhnVzXMy+3pb3Kv6WjEzeJrB0BNU6vXuCIisJMUQZF1MAEm0Engo93lMHuE49jtzosCdtrQSV4xMAWuffvcJBQC1LpVwU7SLRq+wASYgK8Etpw4A7MGJ/qazOf4Ufip84ZRaVBQ6d/sQr5kyE7SF1oclwkwAY8EfrX+GNx6obxXbfvM75nQG/7n38fsT0nZZycpBSsrZQLGI0DDD38yMQMs1ragFJ46lRfVWKCpVW5+7CSDUp2cCRPQP4G57+XD1MHdoU3OnNAuAb5x/WB4bXORy2uiTrKTFEWS9TABAxMormmGH+emB33IYFZKLI7AqZVKnp2kVLysnAkYg8DrXxfDvReLHV2jltzYPsmw6Wi12ug+x2Mn6TMyTsAEmIA9AfoGueW4nHWL7PNxt//gZX1gMXZelyXsJGWRZb1MwCAE/m9HGbxz09CQljZX4jyT7CRDWrWcORPQPoHvsG9k367yVl9UQ2jqkO7wEk6jJkPYScqgyjqZgEEIHKxogIzkmJCXdlzfZHjt6yJsWRfftM5OMuTVywYwAe0S+MUnR+HJq7JDXoCoyAj47bQBYGllJxnyymADmAATOEdgWHqCkAl1z2n0f++aYd1hxfZS/xW4SclPkm7A8GkmwAQ8E1i5swym4bfAcJGEaBMs/s8J4eawkxSOlBUyAWMQ+OlHB2B8VnLYFDYCJ714bHIWbC8S27mcnWTYVDEbwgS0Q4DaR574YXbYGbxwfAbsL68Xahc7SaE4WRkTMAaBpd8Ww+1je4VlYd/+VuwaOOwkw7Ka2SgmEN4EFn18EHokRIelkdQd6OjpRmG2sZMUhpIVMQFjEDhyqhFev35I2Bb2l1f1g3e3iWvljgrbkmrQsLKyMpg9ezaMHTsWFi5cCC0tLcJKEYFfpcvLyyEmJgZojQ8ZQvabzWZp+iMjI6GqqgoaG8X9yttzIP1UhrY2efMLUp1GR8t7gqK6JftNJpN90YTt031E/GNj/RshY8L+iGv21MCC0V2hpMT1a21lZSW0trZKq4e6ujpoaGhwqz8BV1Q8WFwFleUnfZprcteuXfD666/b+KxZs6aTOTvJThSB7/Tq1QtWr14duCI3GugflPKQJVarVap+sjsuLg66dOkiqwhAjjItTc4qfWQ0/fNHRcn9tyEnSeWQJc3NzbYfW3/1r/hzETw0xf2TJDngbt26+aveazpykomJnpeIyO1ngeTUntDNhxVtMzIy4JprroFDhw452CCvJhyyMcaBzCcYIqh1/Xoog+w6UJ4kZf7HBFKGLcfPwF0Xef6hDkS/mnKr0T91cDf4388L1Kg7Lw45YXthJ2lPg/eZABPwSGB1XkXI5o30aJjTxVEZifB1gZjp29hJOsHlQybABNwTKMV1bLQi04aKGQ3ETlIrNc52MoEQEziEM/6M6OX5W2CITXTIfnjPRDiANgcq7CQDJcjpmYBBCCz8cD/cPyk0SzT4g3hCdjLcuDzfn6QOadhJOuDgAybABNwRGJwaD7G4jKtWxGyKtHV4D3TJWe2UWCs1w3YyAZ0SCKcZf9QifmFGDpyuD6y/MjtJtbQ5HhMwMIHZ7+bBxH7y+rfKQjsiIwHe23YyIPXsJAPCx4mZgP4J0ACvnTj9WHqiWXOFjcQpgdfklQdkNzvJgPBxYiagfwLVja3w3s2hXQ3RX8o0x+SQtAQIpOsSO0l/6XM6JmAQAqv2lMOFfbT3qq1Uz0vX5cDGo9XKoc9bdpI+I+METMBYBB762yGIj9auq6Ap3XYEMFu5dkturPuUS8sEQkIgv7QOaOoxrUtBZZPfRWAn6Tc6TsgE9E9ga2EtPHJFX80XNLd3Euwt829ZB3aSmq9+LgATkEdgs6BJIuRZqE7zf1/eF37/ZaG6yE6x2Ek6AeFDJsAEzhI4jDOQp4bpEg2+1pHZFAHVDf51Kmcn6Sttjs8EDELgw93l8JOJvXVT2txM/5a/ZSepm1uAC8IExBLYh9/w+qb4t8yDWEvEaKMFwj47WOmzMnaSPiPjBEzAGAT6d4/TVUEv6JMEL3/l+3dJdpK6ug24MExADIH/HK6CMdgirCfpGhsFtc1WXOjOt1Kxk/SNF8dmAoYgsGDlPrhueA/dlfX6Ub4vEsdOUne3AReICQROYM6I1MCVhKGGCVldIA87yPsi7CR9ocVxmYABCDRYrLBgnOcVEbWKYWCPOHh6/TGfzGcn6RMujswE9E9g0ZpDkNlVP63a9jWWjN8ld5fWQmNLm/1pj/vsJD3i4YtMwFgEyHmcrLVASlyUbgt+z0W9oaxW/aqP7CR1eytwwZiA7wQq6iywYKw+X7UVGg9M6uPTKor6/blQiPBWKoETVU1woroJdhXXwTGcaaUMn0LONLVA9wQzpOFM1rmZiTCwRzxkYadkmrKKJbwJlOC62rNH6rPRRiEfh9O+fbCrHKYOVrcuNztJhRxvVRNow35mf//+FMx6ZzcsnjEQZ4nJgkv6dXWb/lBFI9zy/vcQHWWCxVN6QtcUwEn1WcKRwC8/OQqf/deYcDRNqE35J9XPCMSv20LR61sZfavK/M1mWPyfAqAhXu2/nwyPXpkFNEW+J8lJjYP194yGjxeMgI2HqyHnd9/A4VOBLxrvKU++5jsBWuKgj46GIXoiMBf7S25XOREvP0l6IsnXbAQK8XX6vtUHYcrgbnD8FxPBFOnFK7rhRpNbz8vtAQsuGQDPf3ECvwvVw5s3DIF4s4mfLN0wC+bpzw9VwWP4o2cEmXdBT1idVwEXZHofVcROUuAd0dDQAOvWrYP09HT4wQ9+AG1t6rsZeDMjAh/XSH99vfrXBG86na+TfgrtOG6L3GAb/n3mi2L4vqgS/n7HKKhvsUJTo/9PgJGRkXCmth5Soszw6CVp0Ib53P7+Hnj66gEwICUKrPQeH4CQftmMLBYLtLT4N+WWmqIRe6vVClFRcv41lfvI+d6MjYqE7wqq4JaRXQK+x6gOGhsbhd7/9uxIf3R0dED60+NMsL+0BlqaUsBiPXvfVVRUwJ49e+D48eOQk5PTmaWcmuhUb6ydhIQEmD59urRCk34KsoR0x8fH29QfxO+Iub/fCpXPTAKai49ExIqiiYmJDmX44I4xcP17+XBzbk+YPSLwYXDO+m2GC/xjNptt/6ACVZ6nihwYOXxZQrpjY8/vB3mqEX8Wo+Mg0Pa1pqYmiIuTNzkG/ZCI0N8CJoiOjQelOZHu/+zsbNi3b58Denk14ZCNMQ6o8mRKsPRft2wPVNQ3Q91vL+10kKLK5aoMq24bbnuqfGmj7zO0ONvl/ITkfD3QY1f2B6rTPj3pD0UZthWegYtwyJ4Ikc1IFJ9s/P5KPTOchZy8vbCTtKdh8P3NhU3wwzd2wVL8TnhxtvvWahmYrsduJ72TzfDqpiIZ6lmnFwK//PQoPDAp00ssfV2eOTwV3vm2xGuh2El6RWSMCA+uPQRbiurh3/81GtKTzCEp9I1j0qEVv0su/aY4JPkbOdMhafI+44Qr1yFp8ThE0ftkF+wkw7UGg2RXEw5Dm4Wv1/QU8dDEs51r/Wu7FmPwokv7QIOlDV7dzE+UYoiq06KnGcjVlfhsLDU/DuwkfSGqs7jHKhth/B+3wZo7RkK/bnE+T0YqC8eDl/XBb5QAeSe9/8rLssFIeuktYrZOp0bzVo+DUs82VHqKx07SEx0dX3vg44Pw0Z4K2P3wuLAs5f2XZMIbXxfDqXp53W3CsuBBNoraGl9HzjRs1IhyUVYyvOnluyQ7SQPdGUrb+w3Y5eaKgSnwMK5FHM7yyo8Gw5Wv7YDmVnH9TcO5vKGwrQUf2Z+akh2KrMMizwG4jo+3b+DsJMOiqoJjRBWuOzz97d3w2pxB8CMNvF7RcMfvfjYWfv2vY8EBZMBcaMqwO8ZlGLDkZ4scg53oM7vEQEtHh3JXINhJuqKiw3Mnz1hg7vJ8WLdwFKSK6BUeJEaxOJZxRM9EeOtbbvGWgfyxdUeAJqI1stw9IQMn4bW6RcBO0i0a/VxY8lURvLutBLv3aHN2lx/npuOEGI22yWD1UyuhL0lNUytQ74Z4GlRvYLmobxePk10Ym44Bboz7Vh+AAd1jceKCbE2X9tlpA+CWP3+v6TKEm/FF1c3w5A+1fV+IYJoUa7I1ErrTxU7SHRmNnz/d8f3xIWycmT4s8DHRocYRjePHn726Pzy/4XioTdFN/q/g6KZcFbPg6KbAbgpiNkXCvnL3E8ewk3QDTsun80vrYdqbu2zfH6n/o15kQnYXsLS247hy7hYkok6/Pl4jQo0udFCn8kNu5jhlJ6mLKj5XiD99Vwrbi8/YWoXPndXP3qM4C/qlr27XT4FCVJJDFQ0wbYi65QtCZGJQs/3jrEFwosr14mDsJINaFXIyU/o/Xvn6TlxPJg5uu1C/CznRa/e7Nw6Dt7d4n5hADm3ta6UO5B/sLodn8PMFy1kCvXBylf1uXrnZSergLtl0tBpn79kJ/8IlEib1D+7sPaHANx5HSazcWdY5WWoobNBynvHmSNtIJvrBYTlHgEaguRJ2kq6oaOjciu2ltuGF1L0nys9lFTRU3E5Tqby3/2Vv5zHvqCdAHadN1FOfxYFAWmI00GqRzsJO0pmIRo5pqYNxf9gKc0elwx9m5WjEarFmDktPcPuKJDYnfWn73efHgRrBWBwJzPhBKnx5pNrxJB6xkzwPSfifWIbf42bi9Gbr7xkDNKzKqPKLq7Lhtv/jp0lf6//PO07CHJ2vre0rE4p/Cw5aWJt/CiKdnrKN+x/mD8UQp6EFi2a/m4frn0TYuvekxBl7OBlVxzs3DbPd2CGuGk1lP3lwqqbsDaaxaUnR4Pytlv/LglkDAeS1Gj8qv7qxDD6//6IAtOgv6fCeCXD3h/tgck4KJMaY9FdAwSWqbbbCjbn67f0QKC56EEnAJY7thZ8k7WmE2T517aH5FLOe3QxjcGTEOzN6hpmF4WHOynkj4MPdZeFhTJhbsWjNIRiYEh3mVobOvIvxW+2GI1UOBrCTdMARXgc9fvmVrWHi8OMTceZwY06KqqZG+qbEoJMsh/L6VjXRDRvHgvNyVjW0QloCv0C6uwlonlXnxeiYljtaITx/44p8nJQiDoqfuhhoqjAW7wT+gVPA/WztEfjVxcneIxs0Br1KPnBpJlixNzk/S7q+CXrj3JKFdbj+uN1ldpJ2MEK5W9vcCn/dVQ6r8Ilo2U1DISM5JpTmaC5vapGkfqJlDVbopjnrg2Pw/3xeAL+a2h/aLI7rSgcnd+3kctPEwWisMo6NuwCFvObO4Jx+87Eby8Ql2+H2sb3g07tHs4P0s1ZemjkAfv7ZST9T6z/ZX3CUUgyPsvFa0ZcN7Y0TqZxbMoTf5bwikxOhtskKg5/7FtbknYI3bxgCeY+MN9SIGTlUAcb0iPA47ZWsfMNd78laC0weyM/Yauqpr7kRPsivAqW7JL9uq6EmMM6znxXAvrJ6mDs6zeYYzfzLLpAuwB0XpsFV2NH+wM8ndN7kQjPQqLJvcVq0t+bSaySLNwIRTTVwa+4gsLScbQhkJ+mNWIDXaaW/tfkVsOVELTRYrEDradBIERY5BKiP2+LpA6Gopgn6dOUeAQrlT/adhlnDuRO5wsPblob9KsJOUiEhcEvdLI6cbgSa+fl4dSM8eGlfeHHmQIE5sCp3BFrx5r4WZ2KfuGQbbH1wrLtohjt/ApdqYPGPADtJ/7idl4q6DFRAEtz51/3w3YkaePvGofDuj4eeF49PyCdAw8qWzB4E3+Ar5oQsnsjhva0n4fHJWfLB6zQHdpLCKrYdYuOT4GdjE6H7xfGQlh4Hzc3ifr0j8CuyxWKxhXaaNVWwKPpbWlqgre1cy57IbEwmk42JSC729pF+YkT6x2XEwRVLd8OX9+XisbhO5sRHBn+lHKSb+Fut7pc4VeKq2Ubj+i2bjlbCbWMH27hERkZ2btWk9ycO1UFra6uwMjjbQPpl3Kd1dXVQXFwMR44cgZycczNrsZN0rgE/j9ux+2lSQwmM6J/ZqUE0XLPZDBRkCemOjpbbzTgmJgYoyBIqg6L/ngl94O97q2CGwIXQ6MdEZh2QkyQHGRUl7u6JjyFdJuRydkxyMOqA7BdZBvv7hX4EZdynxKV79+7nOXfuAmRPn/d1ReCWC3rCur2ndFUmXwvz3tZSuHF0uq/JOL4dAXaSdjB4V38ExuPC85/sP62/gqks0Vs49+hF/F1WJS3X0dhJuubCZ3VCYMG4XvDihhM6KY3vxbgaV0Q00KoevgNSkYKdpApIHEXbBB66vC/kldZpuxB+WE8dyKcP5WVj/UDnkISdpAMOPtAjgamDu9mWu9Bj2TyV6RefHIXBaQmeovA1FQTYSaqAxFG0TYBmCFpx8zAorDbO7Dc1OHFKLK5/FM9T7QV887KTDBghK9ACAepUPmXpLi2YKsTG0zij/e+vGyREl9GVsJM0+h1gkPKbsPXi11P7weaCGkOU+KWNhZCTGmeIssouJDtJ2YRZf9gQmIv9BWk5Xr1LE06qQnMHsIghwE5SDEfWohECQ7EhY2vhGY1Y65+Znx2ohCd4rLZ/8FykYifpAgqf0i+Bh6/oC29+U6zfAmLJ6JPCpP5ddV3GYBaOnWQwaXNeYUFgHI7CKTkjbvKRsCiUnRGHKhrsjng3UALsJAMlyOk1R2A+jum+/S97NWe3GoPpKXnhRRlqonIclQTYSaoExdH0Q4CW6Z0zMg1ohUq9ycf5p2AaDkVkEUeAnaQ4lqxJQwRuye0J097crSGL1Zk6rm+SuogcSzUBdpKqUXFEPRFIxLkVbxqTDkU6WtbgqU+PwpRB/BQp+j5lJymaKOvTDIGF4zPgyU+OaMZeT4bSulX/wLkzL+7Hy1V44uTPNXaS/lDjNLogQN8meyaZIf+k9mcIaod2+PmVvI6NjBuTnaQMqqxTMwSentIfVmw7qRl73RlKc2Zyg407OoGdZycZGD9OrXEC8eZIsOK6Zyc0PENQU0sbPPHPo5AcK25dHI1Xq1Dz2UkKxcnKtEjgBVwT/Yl12v02uR87j2+67wItoteEzewkNVFNbKRsApcNSAGaGEKL8uqmIlzHJlmLpmvCZnaSmqgmNlI2gdvG9oQRz2+RnY0U/XsMuDSFFJBulLKTdAOGTxuLgNkUCc9NHwD1FqumCv7bzwtgw09zNWWz1oxlJ6m1GmN7pRG4bngqXPLKdmn6ZSjee7Ie4niJBhloO3Wyk+xEwTtGJxCFs5c/dFlfOHyqEXsdhr98nFcBlw9MCX9DNW4hO0mNVyCbL5bAPJwhaOEH+yBCrFop2hZ/cRxo1BCLXALsJOXyZe0aJDB7RBqs3FkW9pbfnJse9jbqwUB2knqoRS6DUAIPTMqEdftOCdUpWtnsP+2BG0aykxTN1ZU+dpKuqPh5LjJSLk6t6yesWinDzRdkwOP/PL+DuWz7I3CNcJPJ5PEObMIG+Oa2COiVbPYYz91F2WWQrd8bH3flVns+Kclxujkex6SWnIp4FRUVsGjRIhg+fDjMmTMHrFax3UlIf1ycvGVCFf3t7XKaLeifp7KyEiwWiwqavkch/VQGcjSBymU9I2Hl1jqorz4N9TjsT9FItpvN/jknNTa1tbUBhago1/+a2LYEa78/Dctm9ITy8nKfy0psGhoapN5Hp0+fBrqHqBwypLa2FpKTk215iNS/b98+WLlyJdTU1MDSpUtFqmZdRKC5ubl93LhxeG/Ik2PHjslTjpoLCgqk6ifl6CSl5lFaWipM/8Hy+vZFHx900Ef1LFPQsbS3tLR4zKLLExs9Xvd2EZ2ktygBXccfqoDSe0uMTsxblICu79ixox0dcXt1dbUtyH0/ZP/JBDRMICc1HsxRkVDTFD7LPPx1VzkcenyChqlqz3R2ktqrM7Y4iAR+NSUbrnkrfJZ5WPZdCaQmRgeRAGfFTpLvASbggUC82QR34eqDGw5XeYgl/xJ9JX5nSwn8N3Z2ZwkuAXaSweXNuWmQwO1je8EfvioKqeXUcLThSDVMHdwtpHYYMXN2kkasdS6zzwRemT0IFq056HM6UQke+8cRHl0jCqaPethJ+giMoxuTQGaXGOiZGANFNU0hAXC0shEuG9A1JHkbPVN2kka/A7j8qgk8OrkvXPP2HtXxRUV8cO1BWPKjQaLUsR4fCbCT9BEYRzcuARN2xP7bnWPg2X8XBA1CIa4LXm9ps63qGLRMOSMHAuwkHXDwARPwTGBAihlise/kQVxXJhhCY7TfvGFIMLLiPNwQYCfpBgyfZgKuCFhxuB11w7n5/e+htlluJ/O/4ExES7DBiCW0BNhJhpY/565BAjR++sv7cuGeDw9Is74ZFyX76mg1TMjqIi0PVqyOADtJdZw4FhNwIBAfbYJbcD7Hez8S7yhpcosblufDH2flOOTJB6EhwE4yNNw5Vx0QmD6sB8zCdXE+yisXVhrqNH75K1vhN1P7QTQuTsYSegJcC6GvA7ZAwwSuwhEwR3FNnPUHTgspxfqDlfCba3JgdG/HOQ2FKGclfhFgJ+kXNk7EBM4ReOSKLDyIgL/uCmzJh1V7yuEwtppfnMUO8hzd0O+xkwx9HbAFOiBAY6qjcNLfB9ce8qs0r24usnUruveSPsInk/XLIE7USYCdZCcK3mECgRGYMzIVFuBkGBOWbIMi7ASuRpqwFfv6d/OgNw57fGJyNjtINdCCHMf1HPFBNoKzYwJ6ITAyIxG+fuBCeOqTo1DV2Aovd/RzpAYZe2lpa4f8knq4fnke7H10PMRgB3WW8CTATjI864Wt0jABcojPTOsPdc1WeBmnWFv6TTF0T4iGCzKT8AmzCfaXN8DCi3oDPXkeeYJnGQ/3qmYnGe41xPZplkBijAloeVoKjbiY2MnaZkiOjYLu8TyzuJYqlZ2klmqLbdUsgbjoSOjXTd5Kl5oFowHD+UOIBiqJTWQCTCB0BNhJho4958wEmIAGCLCT1EAlsYlMgAmEjgA7ydCx55yZABPQAAF2khqoJDaRCTCB0BFgJxk69pwzE2ACGiDATlIDlaSYaDablV0pW9n6yWiTySTFdkVpdLTcPogRuM6NbJGdRySOMZcpNB+mTJF9DznbLpeWc258HBCBu+++O6D03hLfe++93qIEfH3VqlUB6/Ck4KWXXvJ0OeBrhYWFAevwpMBisUBlZaWnKAFfy8vLC1iHJwXLli3zdDnga1988UXAOnxRwE7SF1oe4tKvfzuufyJTDh3yb4YZtTYdPnxYbVS/41VVVfmdVk3CkpISNdH8jiO7julJWPaTHjlimVJRUSFTPdTV1UnV7/w2Iv/dQWpxwkd5Y2Nj+/z58yE/P1+aUTExMdDcrG52GX+MkK2fbKJXsdZWeQto0ScDmU6AHFhbW5s/eFWlUV61ZTpj2WUgJ9PS0qKqvP5Eotdtq9XqT1JVaeLi4mDjxo2d9cxOUhU275Gqq6vbZT8BeLeCYzABJiCCgP0PodwvrCKs1ZAOe7AaMptNZQJMwAOB/wdXmP3wL5LC/wAAAABJRU5ErkJggg==;" vertex="1" parent="1">
          <mxGeometry x="241.45" y="482" width="329" height="206" as="geometry" />
        </mxCell>
        <mxCell id="tVIQ4qI_l5tq1dGleDvw-22" value="" style="shape=image;verticalLabelPosition=bottom;labelBackgroundColor=default;verticalAlign=top;aspect=fixed;imageAspect=0;image=data:image/png,iVBORw0KGgoAAAANSUhEUgAAAFMAAAAdCAYAAADW4FAcAAAAAXNSR0IArs4c6QAAAHhlWElmTU0AKgAAAAgABAEaAAUAAAABAAAAPgEbAAUAAAABAAAARgEoAAMAAAABAAIAAIdpAAQAAAABAAAATgAAAAAAAABIAAAAAQAAAEgAAAABAAOgAQADAAAAAQABAACgAgAEAAAAAQAAAFOgAwAEAAAAAQAAAB0AAAAA8Za/BAAAAAlwSFlzAAALEwAACxMBAJqcGAAAAXZJREFUaAXtmAGugyAMhtnbOxicjHoyuck7iq+/QdIpzpKRLJGSLCL8NPRbKaBzVkDA98Dw7GHkBjb+2IcH/9INfPm6C4v3fuFZ0NdncoMJLChEZEA7/JkrTAEUUH0Hu0OaKDB3QGlIGh86/QITL/M8Izqblj12MPpwIncYHplf1Y8QgkspTdxJVYFoBEwkXtE0ZjXGeOr4NE2OGSUWhFNR7kBUW7kgkHf6y2V/Yca6NwIaoJvWnkoC7w74ShMmkwRylM77HCo1Vm8gIJa9B9R1N+fxe8D2riSQj05Qhx/lGJNVCODIxGfQxF04MqXfisaaFARyRCaWlrOnRaYCnJQgEMWtqIDcNA0pd2yp5r4+NiGl9/ude4tE+VxzJhLp6EV5NweodMbqwR101jlQe+QArbpb22iqQmssBA6LHfnx3bWxjLTKgcALTE1+PFiwhkKgwBR3bl96rdJEYIWZl/Xh40WTJRM7y48dgwBbOXW0N7Qp38P7f06gBE/VZNrpAAAAAElFTkSuQmCC;rotation=-180;" vertex="1" parent="1">
          <mxGeometry x="160" y="450" width="83" height="29" as="geometry" />
        </mxCell>
        <mxCell id="tVIQ4qI_l5tq1dGleDvw-25" value="" style="shape=image;verticalLabelPosition=bottom;labelBackgroundColor=default;verticalAlign=top;aspect=fixed;imageAspect=0;image=data:image/png,iVBORw0KGgoAAAANSUhEUgAAAA8AAAAOCAYAAADwikbvAAAAAXNSR0IArs4c6QAAAHhlWElmTU0AKgAAAAgABAEaAAUAAAABAAAAPgEbAAUAAAABAAAARgEoAAMAAAABAAIAAIdpAAQAAAABAAAATgAAAAAAAABIAAAAAQAAAEgAAAABAAOgAQADAAAAAQABAACgAgAEAAAAAQAAAA+gAwAEAAAAAQAAAA4AAAAACdnGjgAAAAlwSFlzAAALEwAACxMBAJqcGAAAARdJREFUKBWVkyFPA0EUhGdeSANpqACDRrSiBkEVCQqNKBUY/gEa2TSVaP4BBgEVaCyqCExFK9A1IEoamobcdF/JXcgddznW3L438+1LbmeJX6vZa1Ya3LowsgPhANAOwA8Qr5F0P9bX7ag3WsYI402732pRuiO5H/fSX0lvIs8H3eHQtTXc7h8emfgUqs00kKmFRUSdDLovzzy9amxXqrVJAPcyxryGMF3OZ3XbqNYu/wX6gWGQc2bEWd6Aor5zJqBeZMrTnLM8sUw/TMekjDHtcc4i4SEtlKmds+/57CakaVoGSDzB75w9Xo8/w6V7HBeJWLT5CUnHufUP87RExLHHr5ALuvvc774k215kHga1C/E9uP58GCuX6XJcU/C7FAAAAABJRU5ErkJggg==;" vertex="1" parent="1">
          <mxGeometry x="100" y="451" width="15" height="14" as="geometry" />
        </mxCell>
        <mxCell id="tVIQ4qI_l5tq1dGleDvw-27" value="" style="shape=image;verticalLabelPosition=bottom;labelBackgroundColor=default;verticalAlign=top;aspect=fixed;imageAspect=0;image=data:image/png,iVBORw0KGgoAAAANSUhEUgAAAEEAAAAuCAYAAAB3VXTKAAAAAXNSR0IArs4c6QAAAHhlWElmTU0AKgAAAAgABAEaAAUAAAABAAAAPgEbAAUAAAABAAAARgEoAAMAAAABAAIAAIdpAAQAAAABAAAATgAAAAAAAABIAAAAAQAAAEgAAAABAAOgAQADAAAAAQABAACgAgAEAAAAAQAAAEGgAwAEAAAAAQAAAC4AAAAA1Hp06AAAAAlwSFlzAAALEwAACxMBAJqcGAAAAvxJREFUaAXtWDFv1TAQPoduiB9QMbEgJFaEgCXOxsJWfgATYmZGzxH/gQoGxN638QPqTEgVbEVCTCyoYmLo3OfeXRy/19QJdt5LeUp9UuLkfGf7Pn9nOxEAoPDK8Zq6VBig8gW5Y5VkoH0GE9FJjKNzohsQKFZNtwlLJwjZhIMODi2BgFAlEBIIdcYkJiQmJCbUCCQmJCYkJjgEUjqkdHBkSOcEhGL1K9IhM9bD3tsHEkDMuH0DEowo6Xk+O1Ks+083gf02A2jKjQ/FBU+BdwkCMiIY1C+BX/i6Hz0d9sqHCmf8EPoAoJEJM6vB8g1zXN3oIFBw4SHYVAl32IjlqCAwC2KGiWxZlw0GQOKlYrq90oUxbGDMBh1m67Ui5hEQLLjoKfvYWYwLQk8q3P916h3U06M/cNA/8NzruFRK+0hg4FIEszn+P31ulb7CC4I52ZcAN7gRMAa3MuCtTNx+qXyNdOoE/rztWBDVxx9dbhIr6LoyuQCCC54CJwwbEby9gDn5kAOclWL3lW6qhpbf79zyup7e3NGPjv9W3spaqXvqqIomT9IDSmnTQeJzPamkbYkDgQEw2eGF4FvGzArIJNoWYUAYZJCQ7WboXb2451Nj96KaHw8/PJk62CZ4fx8t7XJ3WGSyVdfzalOlx4Kq5m++aqCUiJB1D0w484Wd/eBeGQT1+tkMB9tJl0utYbrUqXOpxqMgNgSKPUYHWm/MbMmE6CYj2PCv4IgtwhTrsiA6BOvAa0L+5O5Q/yA/G5xyhyfaOl2amJLTJqilcYwYBPl4AAi8g8QNamWmVZznuNacDvrLz/hehNDxTtvpMXxNWJhqO0OKHxWD8O6T1vGu0/FgEA4+f6sght54jI4+Qm8xZivpcBa+n2eLSTHHgcDHYLEoehlBbEGbsCPzFk99a2ju24H0Njhtfr9XbEenSJcmm/lw4na38EYB0zVlkRgcfhz6xaWDv/p6aBMIOM8JhARCne6JCYhDs0XSD5W8xuX63fFPFIu05dQL7QvwHMjqvgjLaBYiAAAAAElFTkSuQmCC;rotation=90;" vertex="1" parent="1">
          <mxGeometry x="-241.23" y="656.3800000000001" width="80" height="56.62" as="geometry" />
        </mxCell>
        <mxCell id="tVIQ4qI_l5tq1dGleDvw-31" value="" style="shape=image;verticalLabelPosition=bottom;labelBackgroundColor=default;verticalAlign=top;aspect=fixed;imageAspect=0;image=data:image/png,iVBORw0KGgoAAAANSUhEUgAAAIwAAABdCAYAAAB3oo60AAAAAXNSR0IArs4c6QAAAHhlWElmTU0AKgAAAAgABAEaAAUAAAABAAAAPgEbAAUAAAABAAAARgEoAAMAAAABAAIAAIdpAAQAAAABAAAATgAAAAAAAABIAAAAAQAAAEgAAAABAAOgAQADAAAAAQABAACgAgAEAAAAAQAAAIygAwAEAAAAAQAAAF0AAAAAn3zj+QAAAAlwSFlzAAALEwAACxMBAJqcGAAABSNJREFUeAHtWQuWmzAM3H4Opr1Jb1LdDHKT3oTO8HCe10uSTUE0MqP3vMRAkDyaaGT2x5usRwQMi/q1LOzPctzl8G2Xp+ghr4aAIaDBzN7GcSyx8cOlTHDknOMp+/nU3bo5CwIjAh1BGBuGYY4ZxLHL5WLzhBfH8XdDJl4qhBp5C8YnU4X5BElXJyYSBry5uygSB2S63sN5RSaeHzF4A4+yjhFgkZm2GAhH0k3AiEN2AgSQ72ELZyZ3J1mcWH3nH1nXCFze39+7XqAWtx8C3CnNkrKlxCAcydF+OXnJJxmTTCnZarUcveRKFdQmBAzf3qWqFKKxQuGZjiHrDAHHejbLTyFKOfKZneF0+uUYEJirSknyXkfJUV/cuhJl67b5FsEAF6sL/ciSI+CIf5em9hZZSEL6SI7T6cM3ILBrU3uLMJKj3Fw7jCiFQIBLcpSUM87k7fFOpZDh0XGRoyEpXqcN27DyUPkhMdaIKDnKx7lQorDCLKSYG9t2lwW41Owm4YwzWWu/+kcy8tXrJMfy9paSYxycF1uIJDkCMK9shuBCq8oKUWo8hkLShTBeX9Tn10KAyZlaWSi/+D2OCwkoM/R1y+YYcFFydAuh/3zemJxaDvYgR/2MB1WlXb4zHgweZS+EgCGWUPkhaUhE+sGgv68a7/ev3qz74hFgMsKbWvrAoK9nzZ79gu6PQYCJCK0qT8pPzCr11M0IGJ4QShTKT9XU0p8sKQKOuMPlp+pVksKksA0QhFYVyU8/JAslSiM/3g9s51sJk3ek/Nj5IO5jxUxcaFWR/PRBFK7CMSYmNMqq3Q99yZIiYIhb8pM0eUeGTaKEyg8rVbVNpj9ZUgQccYdXFfrAoC9ZUgQMcc9VJapPUVOblBlN2FeiHNTU0p8sKQKOuMPlp+pVksKksA0QhDa1kp9+SBZKFPY/eqfSB1kcyzhSfqwP2M63CiYutKpIfvohlWMp00G7H/qSJUXAELfkJ2nyjgybRAmVHza11TaZ/mRJEXDEHVpVtPtJyowmbMN8rir89UeYmtoG8aTTK1EOamrpT5YUAUfcofJDEtIHBn3JkiJgiDu0qZX8JGXGStihRGHvo6Z2BfWEpxwxh8tPtVVOCJFCJgKGEVpVJD+EuQ9zLGNiQqNM8tMHUYxEYTKjTFWlH6KEyg8JWPUpJKYsKQKOuEOriuQnKTOasA3zuapIfhpkNP2AgGEWLj9VVaE/WVIEHHGHyg+bWvrAoC9ZUgQMcYdWFe1+kjJjJexQorD/qeTHV/zrVBIEmLxw+am2yklgUZgtAoYToVVF8tNCnnfuCH1iQqNM8pOXHHXkRqIwmVGmqlLDnfcziRIqPyRg1afQnywpAo64Q6uK5CcpM5qwDfO5qkh+GmQ0/YCAYRYuP1VVoT9ZUgQccYfKD5ta+sCgL1lSBAxxh1YV7X6SMmMl7FCisP+p5MdX/OtUEgSYvHD5qbbKSWBRmC0ChhOhVUXy00Ked+4IfWJCo0zyk5ccdeRGojCZUaaqUsOd9zOJEio/JGDVp9CfLCkCjrhDq4rkJykzVsI2kiXKJD8riHdwaojoWaqqQlLKOkNgtx0Rqwqw0Sv9zgjSLsfZkG4xyU8Laf9z5Hz4J85U8uP9w6QVFgQMH54iTFNVynN0PBECKBaPX9o1RLET4aOlriAw3ZMmyc8KYic/hf73cwOsqnJyVjxY/od3MyQQ7h8w7MH3dPmkCJAY878LeMRwDJkQuIuA46qqyl2IdFEICIGbCPwFEjNcPYKjAXAAAAAASUVORK5CYII=;rotation=-185;" vertex="1" parent="1">
          <mxGeometry x="-161.23" y="491.74" width="180" height="119.57" as="geometry" />
        </mxCell>
        <mxCell id="tVIQ4qI_l5tq1dGleDvw-33" value="" style="shape=image;verticalLabelPosition=bottom;labelBackgroundColor=default;verticalAlign=top;aspect=fixed;imageAspect=0;image=data:image/png,iVBORw0KGgoAAAANSUhEUgAAAPYAAABQCAYAAAAqV4g7AAAAAXNSR0IArs4c6QAAAHhlWElmTU0AKgAAAAgABAEaAAUAAAABAAAAPgEbAAUAAAABAAAARgEoAAMAAAABAAIAAIdpAAQAAAABAAAATgAAAAAAAABIAAAAAQAAAEgAAAABAAOgAQADAAAAAQABAACgAgAEAAAAAQAAAPagAwAEAAAAAQAAAFAAAAAAMXQ2YgAAAAlwSFlzAAALEwAACxMBAJqcGAAAGiNJREFUeAHtnQmcVlX9h2cAVwQXNBdQ0dRSs/ybmhsyiAluqeCahLhAaamkZZmVQ7gllljmkmtufxXRXFIwk9Fccl8QTS13TFxCAZcEmZ7nfe8ZLtf7zrwzzMAlz/fzeebs9577O+d3znnf96K1NS1o5LiBdaUqnRtPLIWNNeV0KRH/RAtEC3S4BWprGkr3aKy9a+zgCfXV3K+2UqWSQ+vM0ZErmSjmRwssIgvUjvLGzTl5rmOPHD+wvqYm2aG9givGJ8nF9pnQYFZUtEC0wMKxQGmT7RROyim/rKkdVcm5P+XYI68fMGneLl254cJ5pHiXaIFogawF5t948310Pseer8Hc2n5j4+6ctWlMRwsUwgLlXbxxUqkznKjHDprYL92xJsdOO/XYwROb8tOVYzxaIFqgWBYYOX5AY7lH8+/cncxMO3UNO3Wxuh57Ey0QLVDRAk3+2nhi0y9YVC459rxGeH08fs8zR4xFCxTcAmV/LX+xXRN+kqbPpSN32M7jEbzgoxi7Fy1QwQLBhz1x6+ydysdwaydeX6FhzI4WiBYosAXCSyxJFzvV1Db2LXB3s11bioz4xV7WKjHdURbIfFTtqNu0w3WT90zCcXxex+cmr621wz1auMSplJ8Lu7RQL6/4TDLfg6vzChfjvBPo+3jYYgGeYTfajgNf/Z03rp++YG+ynoObYG1oD9VxkSlwLXSFtmggjX4Jg6tofBV1noQfwAGwOSyI1qKx17sZvphcaHvCD+FpWDnJqyZYjkp3gO0XmbqEl1EW8EuzFXmCneCanCdZj7ypoJHUpuAg3mWilfqA+t3g1qTd7YSrgs4+N8nLC9zl7ePJkNfHvDYLK09HOAZWSujXxhv3oN3eoH2ytliWvKPgVbgb1gcn4CvQXtqICznO77fxgl+i3XFwGrjINafuFG4Cr8MfwLnlwvZXyNPXyewNF+QVkqe9vJ7XeRbULFgS7oe3oVr9jor9oQ6GwnXQB6ZDJds4P5eDZaDSM1BUWfovn7N5YbR035oulau2qmQitV017fgtmZaTSOt8h8NF8C5oyBuhtZqZNHgkCb2W19ZwM+DPkNUWZKwFT8H12cICpEfQB51a+VFD/mOilXLiqKvKQenvavythz1BOzXCt0Bpq8mwPGjXpcF+fAN0/rRcfMyvNDldKNRL4Fhk5bVdeP4Cb2ULk3TofzUT++OkjePZGS6BCTAInItp+XwuFN3A5xgLWbkxqMdBGykdW71YDqr6eyC1dGavcSzcAGuAO3g10n908AVWezn2GfTEnfAy2AxeAvUV6AVPgsZXOvUn4OrYWs1JGoSJvy9pJ80TsDacBA5OkJP5MfCeh8JsKJJcoY9JOuRutzW4Ax0ATo7WKNgmTEjb6tjfhr/DyeAEC441g/gU0H7G3bHWgXAdok1ak1h6wWgqyESGk5ZKGkCBp6w8hTH1VNaSPqKCzm14Odj2SvgOTIS0dNrBoJOdCc5552tawdZhwUiXOVer0ZZUOjepqFOflcTfJDwK7IdzPtyLaJPcsbvDUk05CxhpL8f2s1VfOAKMbwcaaVdQveEeI+iLsATcZyKRq9QK4O46Lckz6AUa7N/g4PUGZb31QYd1IA+Du2Ac1MFUcMKaXh1+Dg9C0XQeHfIZtY2T/mbYD16B42BBpd3UTfDbUmz+HcF7Bf2QiAuxTp7Vq2S4G70D70N2cjqmF8LZcDVktSwZK0N60c3WyaY3I8OJ/i44zmk5ts6hLySZLuyeCF3A6uBuSLfxdLIjOFfGgLv8L6G95Pzz2e3vaHABCXKhCrYPeR0edmnHOxzDtbYCnc74b+BQmAMaOkgHVU6SIPOcLOnBsKwOLjeSUdg9niPfwf0rjARXyb/BIKiHPmD70VA0uQgOBR1lGDgB9oA7QCdbHqzT3I6xDeVdYQZsBEonc5E1/2FQ2ugAWBHGQ9DBRDYDF4Btk8zsGJjt+ASbJ9XmC3wG9Q+4txTL/9OZ7FrILgx5tR3L7fIKUnk6cp60nTZJy3mxG0wEN4WT4avgwhH8YGfi4TlXIK6+CZ5m7LvXPQduAqUj67TDTaB6GAXW7Q8uKNU8K9XaV+GB2uOqDv6+oIP5sKfBunAlDIEg0/vA7iGjmXASZXuCi4DHmBEJ3scBSes3JDSi4YNJwV8JD0viRQr60pmxoNM6cf4JymP0LtAAPusa4K6q0+fpRDJ3yhQ4YZU2C87ugiFKmwRtT2QYzIFKc0HncmHW3h9Bnpzgynv/qBT79B/ruLA49uOT4s6Ey4DPndWFZFwKMyG72Awmb384Fl4B5YLRDTzSOlfy5LNvAc/AFbApTIdOoDxVfKUUK/fL6Opg+RLQA6wTtBaRHcD+fRfOA2XchcmF9RCYDAtVlQazrZ1wgh4JK0D/5CJjkrAtwVQaSdArSeQxwn+EzFR4P/GZ4ACrnnAgXAkfQxHkkVGndqIcCq7+xteEV8HdU2e9G9xhnoDh0ABZ1ZNxBrwHfZL4Twjvg+Ug6FIi7jROzNchyLESHeuHcDpkpT11Gu39QLaQ9FaweZJ/K+G0JJ4NNiajH3i9oN2J3ABuCkG3EekE1ks7USg31Hl1bMdb7F9nmAMtaUpSwQU1SFt5v8tBe6gN4Fn4FZwKeXqezE0SwmbiQjA6qazNXDgWutrbscMDrENkAtwJ7kASpCGcyMeHjCTsRuiKfgxUWnGTqjW9iVhfB1eu+r+A74MDfA34bHvBxeDici84MR2sR+FFWJiyj+fDt+ATcFW3b2pbmASzYX14GdxZzoYhoB0vgJ/BmxDkpA4KTuDz3ZVk9kxC2zyUxNMOPyvJSwfaL60wFjeTGSZsKO9P5GCw3z7byfAGdAX7+xScAupw6AdzTSTyOS+Dt2FD2Bm8zzughoFzxYWrEZaEZSGMnScaZdv7wEWiHrzuwpL2eTB1s18Td+G5HVxMl4esTcnKVS25tnWBejq3RpWZC+rYDvT34N/gZLVTH8FxoIM2pzDg2TonkBEmU7YspP9M5AhwYPeGPcBFYRrYH53jeXBnHAH7wTcSCEptwuQw3ZFyARoOLjq9YAbYHxe+oOlJ5A7CMCmdzC4CN8J54HMcBFfDWfAYNCd3PSeVsl3fUmzekds+uHgE2TcV2pRT5V3eeI+QQehEdYzrwUXDa+lYai2wzx5z1QfgOISFJ30dn8G+qSGgY58DDaAcw/VKsXl/dPptkuTqSei97LfhzCTPYA8I83MO8RVA+zp3OkL9uej+oD943+egLWqgUb+2NAxtFtSxNZK7xtug4QbB++DA9oTp8CGo22Br0LibgzuID/87UMuBg6NRKkmHVS4i24KTQHkPJ7sLzSxwcWkEDT0UDk/iThwn8PWgnAgT4T1wQtimrdKRuoO7VW/4D/wUjgWfWU2GA2CKiZS0mXq1HMz39zpS98JFYP91BJ//UMhTLZkuCN57N3gctKl2UUuUg5LNpiVxA8t1Uvud1mskvNbD8Dk4CbaDDUFZ7vcpjp+42GqDv8HR8CCo08GxdmGrVvb7GdghaXADYQ8IduqV5P9fEnoP2wStQsS55mIwG74Id4NyvNKnh1JmFX8qtduYtpcm7ccQvgg/BueW41tpbmkj+z8MvLZz5S1YIC2oY1/I3SXIDvoATo7XQ2YS6ugvZPLSSSdWmHzpfOM+7KWwBygXkJvAhWUp0JDpSer9nRCTQGlY60taGnIl0BmWhErGp6hFdaZGcOxQ+Wki2thJdQqcnMQJcvVxbm5Nzb/I3wW+DSuCjlRJl1DgKeGf8Dw4JmnpfC5i2uLIdEGFuE5kv5XPuBO4K08F7a/dvWYfUF57JPwdtG2QY5JdNEJZpdAF2nF5I6lg2kVc3oavgtoWnDs3mkgpOz8/oOw90D7vJnHb+VzqEAhzzHmljofDwTmyPLwOLhBp9ScxHixX3mMO/NJEC9qdcheFK1qo16riBXXsvJtVcg5X8uBoee3y8jTm/uBEdjIF6TDqBDgHngAHSmMqB0XjP2UCmXaSOUDXQtCjRJYIiQ4Ir+ea9tV7TG6H659f4Rp15B+dlC1DeDGMhoNhV3AXmwtKR1FOxvNKsfJv/k5KJ5cTtJI8KehE00Encf58H0aB4341HAc64Mugw+wJE6C99QgX3AbWga3gMrBPLclnmA23gA7oor89OD/vhFdB9YB94Vl4CGpBG82AtA4m4bg4xs/D+rDI1RGOnfdQPqyGcheppM9R8Gam8BTSP07yHIgp8KMkHYLniDTATHDQ1BdAR7/HBNKxvX/2+pZ1tP7egTfYj2v/DFzxgw4l4iRXG8AAcFJ2BXe6d+A16AY6vc63OjjZw+JAtKKmUvJ5GAJDYV24H+rhGXDy94Lfw0i4AXaHO6C1ss+rgM+kvK7PohrAZ/sFmHc5VKuPqLhHqrIOvREcBtOSfG2nY7s4n5rkZYNvknFxkml4IdyXpBdp0GUh3X2f5D63NnO/P1LmJDsQ/pHUc9C2AHfeY+B4yGpsNoO0A/I0fCen7H8py91Zp/ZYOhG03SwI0l6iDR+AG+EASGsEifPBiflKuiAT11HdGVeG1TNlW5OemMkzaV+WgptgF2iAaqWzuhj3BB0myAVbNZT+lhcYF6rWngaT5qXvDbYn4RwLTh3KWgrHUeEL4CJ5LGjnQmhhOPZmPOlPoAHuhrTC/T3GuKuvCGHgrOcOs6ORqFwLXEqujvYHcFLp2Hl6iMyL4DDwuKyDKx3nFHgLToDm5BF0E5gJz4NO8EZCJ8Ij4Er4HfwLLHf8XGSvgZthHXARak462d4wGPYDF+gPQPlZfplSrPxlnguHeVfB3CS/tcFeNHBD+UtrG1J/NpzYhnYd3iQ4VkfdyIH5LXSFUambhIEaluQNJHSC3gEtDXzSpBRYf3NwMUgPrAvEdvACBLkDdIc5sGrI/B8Iz6jyGY6nnsdPj6wD4BG4BHrAEHgHmpNH/p+DY6f9DoIzwcm9HujYz8D9sAoMBa9/LWwEfiTJjq3jtAH0gUGgwjz5kLhOnW7jvVeDtcGFw3FfDm6FtmhjGp0Mzok/tOUCRW3TkY7t6u1nEB3OQW+AIAf5JdgUxoJ6E1p7dL6HNlPBAf4Egr5HxAnxx5BBqGMvn4Sp7M9MVHu4gE6CCeAYbAnng2PVknQ01Rv+DDrzbrA9ZOUC4Bi4mNTDaEiPD8mS/sTfrZO488RF4S9wJ9wHy4ELtAuDJxLv5ULg9XpCL1DOs7tgaXD3fR9a0uep4HO4sPmR7zFIa8kkEcJ0WeHj7eXYGqkevgyNcDnoVB7D68GjWFoO4oawK9iHyeBEM781qq9QeRj5Xu+YCuWf1exHefDRMAZ06v/AuVCtHN/bYA3wY5XOmyd3ak9ge4Px4+BnMB7SuoqEx/j/B+fIG6BzvgA6XNapZpL3EKwHB8Br4Hw7BHwmTwD27+dwDgR9iciR4LW3ggPB+bca6NAnQVZeS4WwnFpM/mrUBdGaNL4AdKLdwYG6BzScA2X+dMgOEFmln0QcaOs9DTq1O+om0A3S0rgeo3dMMlu7AKSv9b8az7Nx+ll7k9CBTgftNwWWgsfBXdKj8EqQJ3fG38MjoFOfATuAC7LKTn4XEB1vXfgNbADXgU7ZE4LOJqKjnQU6tfoI3HE/gJvhB+C42wfnxxUwGFyU7PNI6ALjYEvoAduAWhbOhCfgIPBEsAx4Ddu6qA2B2ZDVa2ScCtqmIzWHi7f7fNYgCyIH5TB4CgbA66Bc2TXKngkOlkfmfyV8SNgVVgAnhRPKAQkObfvJoDrDs7CKCTQLPLY3pyUolMVFPqMKYTlV3V+PqevD0KT6J0noBHaibwvbgY64FNwHR4FOujkcC3uD5eqfcDscYQKtCc+A46XzDYdbQNWX/pbH2ajOmNarJI4GP79eAO6u06Al6ZjvQHrCO09ugD2SfB3ShUIuA5//bFD3loPSMV/Hd771gwdAZz8BfO4N4UDwmV+CV2AGuGjUwmzoA7vB8uAc1R63wfchK22uQlhOzf/XfuwP+spM6Av6RfvK/x5x03+TuG2XrqfZWhWaegQ6GZxMDtQn4OCmccVyhbZ8KvwJsvoFGbPgHnCxaE4uVl5/cnOVClamA9rnK9rQL+0R7OkEXju5Rn0q33LHYD/Ik+P3K3BSO0bfgLS+TuJicGKnNZ5EuLdO4HNUkouWC3hb9Wsaei/ni86YlgvWeWAfpsPKEHQ+kcEhkQp7E3dePQouSOE5qgl3p36etJvtR+UVJnnrJXXS98k+TzPNKxelfbk2OPVC/J8FuGI6yA7CxzAXWpKrp4aoRktSaQy8CS4qi4M8+YyDCTC8lR12ITsL3G1cFJ8C5WR3Z5kCv4dqFrru1NsU7oZq9GUq1cGL8CBMg47UEVz833B1hZt0JX8JeLdCeXPZ3SgMJ0dPB84j550LnYuJu7gbkBvMC2B+Vm5kw+AOcCwr6QdJgXa7C96uVLE1+WlfdlIsbGWPa9Xcv1qn9louFkdXc9EC1fkbfVmzjf1x0n03p60TcYec/Oay3LGrdWqv82SC8YWhc1q4iY7XVs2kobzc1gvQzkU1OG1zlzmjucL2KOvUHheJ14gWiBYolgWiYxdrPGJvogXaxQLRsdvFjPEi0QLFskB07GKNR+xNtEC7WCA6druYMV4kWqBYFoiOXazxaK43viDhzy9p7UziYTgyndnKuHPgEtirle1i9QJbIDp2gQcn0zWdz99PD0/lP0DcFx7SeaniqqKbUcsXJHzZ5ISqWpQr1RM0wDEQVTALRMcu2IBU6M7nyN8NekP6ZQZf1jgTNoSvQVvkjr8z+BvuSfBrqEYrU6kvtOYdg2quG+u0gwUWxQsq7dDtz9wlhvLEvlF1NviGWlo69lHgu8v7pwsqxA8j/5vgopB+6+910t1hb+gFQcsQ8aWfwSEjCd9LQt9uiyqYBaJjF2xAcrqzHHm+Sec/wMg7Kvu22Bg4FS4HXyttTitQ2A8mw6xURZ3c3dtXfdOO7SumL8HXYUt4FHRm33hTbXmTsNwy/u0wC0TH7jDTttuF67mSjjYEdOI8/ZZMd+xzYWPwWF1JOq7yFPB4KVb+cydBHWwND0DQk0R0Yo/6o+EyiLs0Riiy4mfsIo9O+Z+/ulvfDVc201XfkT4NfN/8GvAfgFSS/9jB+u7a68GqCR8RKv/xjHk9YRPw873H8XD0voF4VMEtEB27uAPkLn1T0r3vVdFNd20/f+8MN8LSkKeTyPR4/yt4Hjzii+38Oe2FJP0aobu1n983hLTjk4wqsgXiUbyYo+M3zrfD2vBT8PNwS/K47Jdiah/wuDwEpkKerDsdPgS/2a6HrWAgKHfpHnC/iajFywJxxy7eeG1Bl+4Fd8nT4HhwR32uBdxh/abbetdCHTwNI8CdOC0XdP9NfMB0mAvGRWf33xyHfKJRi4sFHMCo4ljgx3TFL6gcF7/p1qk3Bz/f+oWYTu+XY/eAx+i01iPRB6x7YFKwL+H54Ofkk5I8A4/iV6TS6ahfoqX1LRIvpzNivPgW6FL8Ln6meujnWHdJPy8flzy5PzMFnUVExz4FPGqntR8JHfst8Fiuc38Az8LpkJbO7xdj/pdGvKe78wXQH9YFtTSsBK+YiFq8LBAdu1jjNZbueIz2ZZE8rZVkvphT2DXJm5GEOvfBOfWGkefx2t+wXUSCViWyBNSFDEKP8J4SXCCiFiMLRMcu3mBVcmp7unbS3byjcXDs9EsneU83isywQOSVX5eT6Usp5+Xkx6yCWiA6dkEHJqdbfk72GP40+E12VtU6dj8augOLR/CgW4hsD6uBZcoduzs4T3YCZV5UwS0QHbvgA5Tq3gjiS8IVqbx0NDi2X7I1pxeSwiOTMBzdnyH9NuwKHtGXhdlwIahu5aApTJIxKKIFomMXcVQ+3SfH6TvgDlvJsf3NWemc1eiHVFozp+KgVN5TxLOOHRaQVLUYLZoF/BIlqvgW8Eu1nnANvFqhu2uQ7077ZoXybPY7ZPjySfgtOxtOoczfxYNGE/GlletDRgyLa4G4Yxd3bELPdKjvgt+Eu2vnyXfDvwrTIP1Nd17dkOe35p4A5oaMTGiZdYK8brXXDm1iuIgsEB17ERm+itv6zfWJcAj4Wdffqf39OWg3Iu6yfhbeF3rBJdAa2d5dOE+WNafezRXGskVrgejYi9b+eXd3TDx6Dwe/LPM4rHM/BGmZt1cqw9dOx6TSLUX9dvtrEL4Bz6v/VibzYNIHgd/KD0jKwpdvSTIGRbBAdOwijML8ffBorEPLnTAUpkJWp5DhT1G+WTYZrgbfJKtWK1HRz9lHVWhwEfnhC7lQ5XkifUOC0JdpWnPPVNMY7UgLdOFXyQY+adWNHDewbuw+Exo68mbx2lVZQMceAePhdmiEPD1M5o55BVXm3UY9P0NfVaG+P2+9nym7j/Rh4OnAL9degqgCWED/LU0V/RnFHVsrFFMTO7hbfiHXnPzHI1m56LiTRxXNAp1q6tJd6lTzSe2oUkbnxhPTBTEeLRAtsBhaoLH2LnvdqanrHMeb4jESLRAtsJhZoLwxjx08od6Odyp9rk7O5SPHDyxlWhAVLRAtsHhYYJ7fJqdvul3escNxvKbxxPKH8MXjgWIvowU+6xZIvjT71MfokmOXvw1PvL1T46TPurHi80cLLDYWaPLX2lHhGG7ffUmhSSOvHzDJn75KGXNr+8Wfv5pMEyPRAoWyQGmnruDUdrR8FE+6PHbQxH74evlbchrNO7sX6pliZ6IFPtMWKPllcGq+H0vv1MEw8+3YIbPs0OmfvxJnn8tF4ksswUwxjBZYKBZo+t7Ln6TDibp05/mP3+nO5Dq2Febt1mkHTzeN8WiBaIFFYgF/xeIL7+Y22YqOne5wyclrG/uW8uZbMdK1YjxaIFqgQyyQ/BwdXiZrzqE75P7xotEC0QLRAtEC0QLRAtEC0QLRAtEC0QLRAtEC0QLRAtEC0QLRAtEC0QLRAoW2wH8BRjnPH7GI/qcAAAAASUVORK5CYII=;" vertex="1" parent="1">
          <mxGeometry x="-50" y="820.3" width="182.62" height="59.39" as="geometry" />
        </mxCell>
        <mxCell id="tVIQ4qI_l5tq1dGleDvw-34" value="" style="shape=image;verticalLabelPosition=bottom;labelBackgroundColor=default;verticalAlign=top;aspect=fixed;imageAspect=0;image=data:image/png,iVBORw0KGgoAAAANSUhEUgAAAKYAAABKCAYAAAAxDi+OAAAAAXNSR0IArs4c6QAAAHhlWElmTU0AKgAAAAgABAEaAAUAAAABAAAAPgEbAAUAAAABAAAARgEoAAMAAAABAAIAAIdpAAQAAAABAAAATgAAAAAAAABIAAAAAQAAAEgAAAABAAOgAQADAAAAAQABAACgAgAEAAAAAQAAAKagAwAEAAAAAQAAAEoAAAAAUTNFyAAAAAlwSFlzAAALEwAACxMBAJqcGAAAB0xJREFUeAHtXVuIHEUU7Z5I4js+8CMiivnw8SGKgqjssrs6+qMmCBKJzxDU+GFMTKL58GN3iaBgNiLxASoEIkT88i0ig7txVxAVFcUEo2gUDagYNU8juu053VU9PZOene5kp8dOnQsn1V19u6r73LO3qro2ie+1seqq8f7QJfAHo9KLzsMT/SEGMjLge2OhZxBsrq3rHWp3l9/KIRQkxRhIiK04Uv3hMBAM8+5WIk0VZnXF+JDnmQzJu6l23zS0tneMVTIxkIeBMNFN2iSX0JYXDKeJ8yBhVldOjNazZPpNeR5IvmIgjYHG5HewzhqE2eBcCQZqyo5pnKpumhiIsqg/GjaHUbk20jNgm46FmRRlbV1PXG8dVYqBTjFQXTERRG3XM2eFFUlResiUnXoAtSsGUhmINecP2q9AoTDrzlCshu86HToqhIFIc9Hi2jOfJcMh26ZSDeGFxEGdtGDA6pCjdiUaxulpFNviJlWLgY4zYD/Co6OK5/t9He9QHYiBLAyYb+UczutzzIrZMsrSgHzEQIcZ8O24rvllh5lW85kYsHqsZ8xMt8lJDBTDgIRZDM/qJScDEmZOwuReDAMSZjE8q5ecDEiYOQmTezEMSJjF8KxecjIgYeYkTO7FMCBhFsOzesnJgISZkzC5F8OAhFkMz+olJwMSZk7C5F4MAxJmMTyrl5wMSJg5CZN7MQwcVUw3/6teTsLTzAH+APYd5pMdh/tnAz8Bu0xbM1HeD+wBdgPmL1p5M3DMvncA3wNHA38C/wLNNgsVpwAfAb83X3Th3EVh3ozAPjXNwV2M9jaYNimqR6dofxmurQYunsLHXpqHg9ftiUuli8LcigBTRMxWzJg2o+EwtgtxdB1AUXwe1zYeMAMeAzBjbktcYqZkFnwHuNvUM0N/CPwMPAfMB9g3f0jS7CpULgV2pl10oc5FYY4isMRUdgsuUpgvGkzl23yNQj8AUKA/movLTTmCcj+wF/gLeBVIsxNNJX2cNC1+Oh/2U9HFPcBvwDOd7+7I6MHFjFl05JgtuUhaAzCLWjsZB5/Yk6bytKZz504lzGwhvwtu7wNbsrnHXhyS7wV+AZ6Ma6ODSRTfNNXZU147w564WEqY7aN+JVyeBX4FrgE+A7LaEjjyE9F6gPPKpHHxtSBZkTi+DccbE+fOHWqO2T7kXChtADi8vgtcCmS1N+HIbMnVOQUuy8iAMmZ7orjKvhPgD/EdQA24FhgH2hmHfgqSguYKvA+w80oO888DaXauqeTc1EmTMLOFnXO+xQC/Xd4KvA3wWyRF2s6+hMONwHvAA8BCgEbu+b2SdhbAf0dqO0CbBfwNnMkTF41ZQJaNAYpzEbAJOBZ4A2DmzGITcOK2Jf0pOtpO4GwDLqz4zfIic346yn7gaWAe4JxJmPlCzh2d24GXAApsA8A973YWwOEt4AQgbY76MurZzk0A7QrA+nPhZcXMa06YhJk/zBQnh3N+/uEqPevuzDnwpXE13myvmIpFKJcDYwBF/AhwHsCdJKdMc8xDC/c/uG1phluXwGcu0AtcDnwHbAGa7VtUcF/+eoB+PwDcFuUUwEmTMDsb9vPR/DLTxVcoFwIUdZo9hErOQTmKUZw7AGdNQ3lnQ8+98ccA/kLIBcCnQJrNQSXnni+Yi4+nOblUp4zZ2WgzSz7Ypgvu8jwBfA1cDVwGLAC+AB4GnDRlzPSwW15sme516LX8PU7+hvprwEaA25bjwC7gBmAPsAbgomgu4Jx1iviyEznbvIAt874PP++0+sTDj+mXmAa52OFOELPkKlO3FSXFuRuYD3CxtBpwyiTM9HBzu5Bmy+gs25/Hw20GwCyYZtxzpw8/Ow0BnFvyt9uTxh2lfoC/8b4P+ABwyjTHTA/3CKq5cNmbfnnKWgpuPcBPQGn2MSoXAfwLadzxaWU2k86Ew7ZWTkdqvYSZHtkDqCYOxfbjpvva3LipzXV7ebs9cK3UUO5axEvyvhJmSQLl2mNKmK5FvCTvK2GWJFCuPaaE6VrES/K+EmZJAuXaY0qYrkW8JO8rYZYkUK49poTpWsRL8r4SZkkC5dpjSpiuRbwk7ythliRQrj2mhOlaxEvyvhX8+w9jfNbqqvF+ljIx0C0GYg1Ck8qY3YqC+j2YgUmv31YiYwbD4UngD9pKlWKgqwwEweZ6xgzqau3qQ6lzhxmIkmNtXe9Qpba2dyyeZ64YH3KYFb16FxmoxtqLRvAoY9rh3PMH4wloFx9SXbvFQKS5xqlkKMwwa3pmrjnpj7pFi9626wzEmguGOYzzefzkQ1VXToziv2PqD+sqwUAk2KSHjsXA9DEQZsoUUbKHaCg3fdVGegbwH4VFq3TcUB/3p+9h1JIYIAOhtqwo8d3SZkrLTkPGtJWRIJNjvhFrBQ1wsSQTAzkZiNcu/CxpR+WwjfrwnWwyVZh0qGfLpECTt+pYDBwGA9xxxKK7VaJrKcxkl6FIfb8vrGtQe9JLx2JgCgbM1rfd0GklSNvCfwk1cxOKIMUVAAAAAElFTkSuQmCC;" vertex="1" parent="1">
          <mxGeometry x="190.69" y="820.3" width="129.31" height="57.64" as="geometry" />
        </mxCell>
        <mxCell id="tVIQ4qI_l5tq1dGleDvw-35" value="" style="shape=image;verticalLabelPosition=bottom;labelBackgroundColor=default;verticalAlign=top;aspect=fixed;imageAspect=0;image=data:image/png,iVBORw0KGgoAAAANSUhEUgAAAN4AAABKCAYAAADUkOriAAAAAXNSR0IArs4c6QAAAHhlWElmTU0AKgAAAAgABAEaAAUAAAABAAAAPgEbAAUAAAABAAAARgEoAAMAAAABAAIAAIdpAAQAAAABAAAATgAAAAAAAABIAAAAAQAAAEgAAAABAAOgAQADAAAAAQABAACgAgAEAAAAAQAAAN6gAwAEAAAAAQAAAEoAAAAA05fEJQAAAAlwSFlzAAALEwAACxMBAJqcGAAAFohJREFUeAHtnQm8VVXZh+9FBecJixRTHAq1NIf81MREQ1Ercko0B1BT+yo1kcqpACUrBTUtUsFEQVBTMYcopQ8QHHPW1FQi0cicZ1OI2/Ocs9e9+272OfdM/Lpfd/1/v+euee213/W+a+0Lhc1NFWjA8Dn9C91amkcU06ZiuVCIP6IFogWamptmFazQ0jJ7xnm7jOzIIs3lOhQCzmBriYFWzk6xLVpgaQu0jLKuVBCWDLwBw+aMbGpKbjhnMKKbk8nG7DLLqqhogWiBogUKl9SScEGl4qapZVRe8OUG3oCT585su+XyB0aDRwtEC5S2QPuLa+kYWirw2g3o1rLbjHi7lbZubIkWKGOB4i3YPLPQhS/GGWP77Ra6twu8dNDNOK9fu7YwIKbRAtEC1VlgwLC5LcURbTdftzBFOuiauOlCfUyjBaIF6rRAazw1jwh/Q9AaeG1TE5Xx87LNHDEXLVCnBYrxVPyDyabkr+RaPyfDdRg/Meu0chweLVDCAiHG/KIs3HjFz0x7J1FZYmCsjhaIFqjDAuEv2Zmi+KnZ3LxrHdPFodEC0QKVWCD5e3A/N9v/jtct+Z+9VDJJ7BMtEC1QswUKv+OFb8/4+13NdowDowUqskCItfY3XkVDY6dogWiBei0QA69eC8bx0QI1WCAGXg1Gi0OiBeq1QAy8ei0Yx0cL1GCBGHg1GC0OiRao1wIx8Oq1YBwfLVCDBWLg1WC0OCRaoF4LxMCr14JxfLRADRaIgVeD0eKQaIF6LRADr14LxvHRAjVYIAZeDUaLQ6IF6rVADLzKLLgC3ZavrGvNvVr/v5E1zxAH/r+xQGcLvH2w3GjYrw4LnszYR+GUOubIDv05FU/Cl7MNDSr3Yp6/wc+gZ51z+n/xuhaOBg+MPB1B5Ww4FqoJ+Kn0Hwefg3K6kMa7YFi5TlW23Uj/WXBwlePS3bWvfrFeujInvxV17scfYAs4FRoaK40+xXX6D+AdWA3c+PNgd9gG3oAlsBY8BMV/gYlMIl/4dJgE05I6HeNSeB/eBMer7rA2TAc3RVl3EvSGraER2pNJjgWf7fzLQhcx6bpwAmiXiVCr9mPgV2EzuAoWQVa2fx7cqwmQ/GM85MprR5r7wBU53ban7khw/1aBneBKaJTWZCIPldPqmNDDSP8Z38Ec7rPBOR+OA/dFfzoM8uxJdXVqdOCdxeNXSi3hbfIG3pfAgEhrDIVs4Onc6ppiUvipU/jCK4KOojx9DGrbdNqgw8n0Tgo6oI5yT1KuJenDoInJwAdI+4CHS548aHSO8+G5vA4l6gZRbyAEHU/mBngrVFSZDkz6DyH9Z87YVakbAIvhKAgHGdkO9To9tPm9qZ5fI38M9E/qtiO9M8mvQ/pqgs9ZAx6FsEayrTJQPwY+41+ttW2ZHmR1en12l7bqQk5/0PbvwoxCTf4P514IrqmcPkwa55L+FPSjg8AD5UDIsyvVlavRgeeLaXQdSefZGJT1aivQSA9DqDuXvDeXwfYeqKzT2fcJ0GGU8/s5dSM8Dmp9OAfeAI10Nfwa+kE1gUD3gtblp5toqnZPKBRK/BhHfTXP2pz+l8Fi2B/c1CPgN7APeMtXow3p7E1nYDxUYqBO7yGm7V4o0adUtet8J9OorfvDJeCePwLfBTUfXMfLYNAcBs2QpxOpHJzXkKmbnSmni3dTcM9K6QMaKrFpCCwvAn1vD7g1Sbck/SPUpUYHni/ly+n8nhrhBaxT1ht4KpwqBuOeYKCUUugb2k9NMqOT1DmvAANYR7gdvpKkHgTO/wRUqv+h41TYGMaBjqTTZaUTXQoGi+v3tqpUG9HRdfaEI+Fm+B30AoPjHvCAeRoqle+ptEUp7Zs0XF6qQ5X1ryX9TyLNOrXvc1VqvgPIZw/V0HwhGQ9f58uztYfq1hDekWyrliO3FrzXWtNxZg26eDt7+wU/DaPWTTKmfZO8B8MO4KG1KTwLNavRgVfLQjxV/HyZCYdWMIE3wTbwW3gQNPoE2B10Jm85NRcMCDdzDmi4yVBOa9L4HTgNVoCzYTY8A9+E30CQzx0PPmN6ki4hrUQG3QzoDQZ1CJRF5AfBxXAkPADfhitBG5XSUBqOgg2TDt6cXwDX6Ds9Ca5/M9D51Ug4w0yi0HcO5aFJnc65G3hjLYbVoTvsCD3hCQhOuy/5lWE+BBkMP4VXwKDUafNspB/eBeXkGjyAPUjLyblca0f6LB3cg3LyIM07TM+nfli5gR21ucj/tDSm3/SVGMu1GhRqNOgEnqg62p/hBEjLIOwGv4RJMAR+BLMh68g6uIG2GnhyHgeXw97wEZgMO8HjsDE43+dgJvh8g6YSHUqncaATnwNjIC3tYRA9BjrtRBgOZ8J1kF03VYX1+XvPs/AIGBSiPgOubQXQVivB/fACpNVMYVt4MFW5BflpqXLI3p1k0k45Jam7gvSVJG/gHg2u2TW4F3n6HZX94HXIez/HrAO+w0ILOXL9HjLaYMtU+yrkP4Csfy2g7nvwIngopOVcU0E7jUk16G8eJo+m6mrKdobAq2bhu9J5Z/gDaByd5FPwMBgg70BW11AxByaAfQbAPNgBXoUgbzNvBR1kMDwFajocDlfDTfBzGAU68EgYDf+CjtSLDmPhUNAJfghnQSmdT8NtcAn4ztfCX8B13gK+k2tVbxSTwmf2Q0k+JL7jW+CzDKyXQBu8CWnpVDqofYMeJ7M//AN81iSw3yHgYeSNZ3Aq7alNfN5QUM/BR+E10EbvQp7eprIHXJfTuDx130jqXdv1OX1ClQeWc6V1J4WtQN9YDTaG98C1Hg++U57GUqmNwpoM+mDvvP5V1flSjZDzZE+USuat9vmnJpN6Ss0Fg282LAcXgEbPnpiesp68npTHwHmg874KaT1PQefxxtEB07qewv/B7uCG/BUOhbugI/Wlw8lwBOhcz8DfYAkcD+W0Ko33wo3wbdBpTkowIKaBcs3lZHDsl3TQhjpUVtpQpd9de4Zn2KbjrwiuKUiHVI/B+4Vc2w/34pW2YiEXnpOudlyePbSXB57yEBgBN1hAA+EM0K7zQR0EzpPWrRTuAw8nA9h3ugbWBtd3ArwGvrdrs17fWgDrQdBkMtr/YrgsVNaaVuv4ec/RANPBzdTBNwCd3BPRFzG/OqgHi0nh5zn8lPtTdR1ln6aDzzPgzgQNoTF9tieaRlUfB3/3eAl0DB3YdXwd3IisM1BVUBgfytuTOQwOBk9u9STsBHnOa3tam1Dw/Xy+m3wR/AB0gv5QqTal48/gcDgFJkE6ICiWlU47GvaEy0v0DL6QddwS3QvV3fjpnqs74F+FXFPTRkl6O2n6UFiZcuifdCkkPfnpXGuCtlFbwJWwHejsJ0KY6yTy54L+NRe0j/tt0DhXWqenCvuTfwGGJXUenpOTfDrxQFwA2itoGzKfgFoumDBHa7p8a672zIsM1Qk8NYaAp/nN4EuuBteBi+4HvwWDRgd6FOZB3kZQnSsNrjN/DY6CkaC6g46tnF/nmQr2CbJe/b2YLPVzbWo+mbA56X7QF1TaGW3bCzw1O5LvtytcCKNAR1TO+xZ4WIR1n0l+GLiGheB6/f1kLZgPruFXCSRVSWeZkuB7/hi8+dyzoOALIXhCfV66PpXe/PeA+303vA7BKcMh9TJ1BoQySO6C5y1kdCXl2eCto28cCAOhB2gfHf4O8ADTX3z+ezACLoVw03rYV7J+uhUU3v9oSvrmzqC/Wu86DeKVQNtsCk/DFVC3grHrmegRBh+QTHAwqc51AuhAfZL8KaT9wLQ7aNzJMCZJSSqSRh0M98Mv4BZwc4Pzki2pcn2uZpTzZjWPCg39RzDQVoeD4CbQKbLyRNc50s71IGXfPS03MCudThmM7xZyxfw/knwlSS86rZvpmN3j02g/FjaDPeBDUKFfR477afo+BR4KHrDnQ1bu68nwNXg125hTvipVp10HgXbQTn8H99iDUPuqWfBt+AosgqBwW4ZyR+k/kw6u8UV4JSkbyAuS/Lakvmsz6LMNUTB2IyYzoFaFv+RMZr3SoexXj9wQDXAW6DjbwVsJJAUDmW4FJ5lJtAJpT7gTDJy0RlPYH9zgWTA7Sd14T9dZYNCpa4tJyZ8zaHFd/wlNr+Ch3qxfhM/DZXA4qOALeYGn3bwVPgk64EJwnhtAW+rw3kBB3hzKoLS+G2i/5cCDq9wheCXtt4GHl/385BwPBp113tRT4CfwPdgVBkE4uMg2RA8ks+xEujm4Fv2uIQrGbsRkayeTzMuZbLWkzsDz06leuTFnwZ4wpMRkBqRkNZaKbOA9Tl1vMPDS0uC/h4/DVHgI8uS7e5u/DV/P60Dd3nABvAZ5TrIp9WoahJO4UMEPHdZnePueA6V0Og3PZhonZspvUfamuA8OA/drJARf8JM26CNkfN7BsGJS+QypdjFADQb3wMPQ4FQvFJNCuluS17YG7KWgA5fThzR6++wLh8OXQHuNhgngAboNzIJjwOd7AHgjOrYaeZOpgbAO+F7Kd70ffK/+sDN4YM+HhigYuxGTbZFMknfjedppPDcrK09DqUbhk8JPq01Ahxc31bk8ZSeBGxPUnYxBrzHzlA26A+iko+jwo2AKPA1Z6VA3J5Unkz6X7ZCUF5MuAu2QDSy72K50nmy7++TYPPtR3SpvvOzh8MvW1raM73EI3AIjwDGPgko/wyDdCXREnXt7cG2hj3YOAakNdOB94DEIsv1PYPCdHSpz0h2p82AyAD4GISjIFoLtDFJJy3W8DT7z13AgaKdK5bPU/xaT1p8eOO6HwfbFpFZ/apgaGXhukJpXTNr97Evp+XY1bQWD0mBJG7qtdenchlSFDdCBDPRLoAd8A4LTargPwJPwO+ApvwA60qZ0GAP2d2OPgxXgSfg+2JbWaRTcnN/D+HRDJn875U8ndSuRHgq/gnDD6JSnwmD4O3ib9IKGnbLMldZ0Cj6vH8yBnqBCUJnXfkfABnAd3Ach0Mi2kzY2wHynnUD7q1NgY/ghlDqUaCr8DyC2I/UgewmegRdTDCK/GewNC5N6fzdz3w0Q288Cn1dOBpuB5ievz9kEXgffdTnQDq+AmgUDwbZrobHyP6QQ/mMKdcx8K2PDgp3md/AUGFTvghutDJwWGG4B2c92X3gI2LYLpPVXCjPAZ9gu78MnQAOGuqHk3TjLOoCaBZbvhvDJS3Yp7UCNz1gC9v8ThHXoSO8k9UNJlc8ZBfZ9DtaHSjWVjo6bBm62MvCsW9cCOhfccD+N14RyGkKjY/0Ey0rnnJKtzClvTp1z+E6lZOCFmzGvzwgqneNq8L36g/ukLbtDR/KLRH9RR8D2hVzxx2SSRanyYPLhINuQvDZ1fFo+08DyEPU2fRdcX0AbZ+WYcAB8i7x9Z2Y71VoOsRZestZ5wrjeZAZA3qnQl/qVwSDM015UrgI6SEeaQwcNcRf0g8VwKeigB8JEyMob72HYEW4B15Inb0/n+SecDluDz1MGrZtn+wQ4BHxXT/HZ8Fl4ASrRGXQ6GFy7zyy1ByvStjwMg2fBU7oZlpV8lkrfeMWayn+eSddJYFDcAb8F7XkAfAgdyZvHg08bXQFzYSBkpb/Z/gj4vOXAPXF8Wv0paLsb4UR4G6bA0bAR/Bg+Bd6W5l3zm+B+bwU/AfU56GMG6auNUYjCOmY7l7EabLPUHNPJPwWjwWDZA1RfsDzcQkZDKNsWbprQ/FcyM2B1WAfUDrAA7O/pGNRMxrpfhQpSxzwO1t8OOnWeulH50byGpG5fUucIXEQ+OGzSpWxyDK3ayQDeK9PzbMrOu26qfkvytyb1tukY3vJZDaHCdg+DCzPo8DpbR/J2cQ6dvpTuo6Hcjec49+gf4FxyOZSyN03tZACdD457D74DPUBNhkWFXPHv1k4gPw/s6zuOg7TtKBZ+RXiCdDzsDu6vOgXcA8em8dD5C/hZ/WTS5iFvn4mgpsFtsL6FatUu1toVqp2peC2/w7Dfg7eJi9YIi+ExeBm8zfws2A4uBV9EoyqNHQwyhrxtpQKPpoJ04GC4EUldSFyDc6QDz7Ze4EFgm4avRgb5BbAQHO/JeSRUqjXoqPM7VrscAFmNpcL2rPPYbx94EWzXIbeFtFxLWJdOn8Z6naUj6cj2Pa5MxwdoKxV47uEQeAGc53l4LcnrA2eDB0nYa7Kt8rAcDH8Gx+r8W0NaN1EIgRfqncsvGoPLcdom+BXZkjqUFg9Ab8wL4RD4DKwEfeBecL7rQf98GAxKbaQNbNsIqla7WGtXqG6q9egeHELnUF7TLkwHM5Uz4KxU2bo9QA0FDRo2ybZNIK2XKNyRqjiWvGOcM+gLZPYFA845fgZZ9abix7BCpuGjlD3xPwtfhm+AN/VECKeqc+p034TVoFJtQMf54HgPCx0laCCZb8FR8Dp4chukefoIlTrfTMg6r87m/K4/rZUpWD87XZnktyU9Eb4Pl4Nrs6+HY1oGhQfFV8E9fQiCdL7D4WJ4GhzvIXw6eMutCseDgWRbaHc96cNV5w/tk8ivCWpn+BFcAAaKc+epO5UjwXcYBB3J/V8rp9P+1LkPrsXgc/3KS8NnhzU+Z2Utahdr7QrVzbYK3YfBdHCDlJu/N7ip74OBab8twBPmOjgMgnqR8TTxpTwt3bSsFlHhSZNWNjjH0RgMo5H6pTt3kP9SamyYI6Tv0jYZqpkv/Tjt8kN4C/ZIN5APAROe5ddAR+qR0+EH1DlH2pntZoDuBe5JVp+nIjzX1PUNz3ZKyg+Thr7jkzqD441UvQ57EfSGrJaj4kAIh/Kd5NPvoX9cBjp+WltSCM81vTndmJP3AK1VGzAwHXRrZCbStvPBdZSyU2bI0sUQa4VgsWCXZfCfYvZk6QkGXzlpsLfBQM3KNR4B3ojlDN+X9qGgk9wGGrEaOffy8Gfw9A48T75gH9J65On5TmYCN/sXsAD+CB5K2T5ULTP5VeDe/Almw5uQJ2+RnUHb3gDeLGoweKNNgGsgb/+obqcdKc2Dl9vVli4cR5OH3zNwHzRiL5gmVxtS+104HUrZYj3aFkJNCrG2rAOvpsXFQdEC/60WCIGX/V3hv/V943tFC3QqC8TA61TbERfTVSwQA6+r7HR8z05lgRh4nWo74mK6igVi4HWVnY7v2aksEAOvU21HXExXsUAMvK6y0/E9O5UFYuB1qu2Ii+kqFoiB11V2Or5np7JADLxOtR1xMV3FAjHwuspOx/fsVBaIgdeptiMupqtYIAZeV9np+J6dygLFwGtumuWqBgyf0980KlogWqDxFmiNL+It3niNt2+cMVog3wJLmvqHhuTGaxlVqGhpHhEaYhotEC2wjCzQ0jK7/Y3X0haRy+iRcdpogS5sgeLFNuO8XUYWAm/GmF1m8S+mzNIiA4bNGWkaFS0QLdA4C7TFVfHrsu3Ga04+N5uaR7T+Eti458aZogW6rAWK8dT+17jWwCvcek1J8C1pntllrRRfPFqg0RZojaeWUX5mOn3hHztKP2fAyXNn8u849S/UdWvZrRiQ6R4xHy0QLVCJBQo3XU7QObb1xgsTzRjbbzf+BbXin3IyqO3bNPSIabRAtEBHFijETQg6/vwk3HRh3FI3XmgoBlz6uzQJxm5M4h/GREULRAu0WqD1z0X8K7nwxVhobfu8bO1MpmTg2anttksHYHp4zEcLRAvkWsC/JeAPLEtdUmUDLz1hIQibm3ct1LWL6HSvmI8W6KIWSP46zmDTAqUCLljn3zurjIJMzwvGAAAAAElFTkSuQmCC;" vertex="1" parent="1">
          <mxGeometry x="390" y="812.12" width="222" height="74" as="geometry" />
        </mxCell>
        <mxCell id="tVIQ4qI_l5tq1dGleDvw-36" value="" style="shape=image;verticalLabelPosition=bottom;labelBackgroundColor=default;verticalAlign=top;aspect=fixed;imageAspect=0;image=data:image/png,iVBORw0KGgoAAAANSUhEUgAAA5oAAADFCAYAAAA1xY00AAAAAXNSR0IArs4c6QAAAHhlWElmTU0AKgAAAAgABAEaAAUAAAABAAAAPgEbAAUAAAABAAAARgEoAAMAAAABAAIAAIdpAAQAAAABAAAATgAAAAAAAABIAAAAAQAAAEgAAAABAAOgAQADAAAAAQABAACgAgAEAAAAAQAAA5qgAwAEAAAAAQAAAMUAAAAAJOl8PwAAAAlwSFlzAAALEwAACxMBAJqcGAAAQABJREFUeAHsnQWcHEXah3fDQoDg7i6HB/fLBAuHa7AAwR0Chxy6s7gnHHZ4cA8Hhx6SCfrh7oe7EyA47Pf8Z6qSTqdnpmd2erdn5n1/v2equqyr/l1dXdXdM9Pad7Oh2c6WlvYWrLWlpUOubZse1h/sfEhiPHhuxIFZ9a1a21KbDWXYKlgS9VbJNi7auKh+YP3L5gnqB0mNZSrbzBQwBUyBhlFAC82GaYw1xBQwBVKrQJJjTXChmVoBrGKmgCnQEArYeNMQh9EaYQqYAt2gQC9/l74b9mW7MAVMgSZWIMmxxj9lamJ5remmgClgCpgCpoApYAqkSoFeqaqNVcYUMAVMAVPAFDAFTIEUK2A3tlJ8cKxqpoApkCoFetmAmarjYZUxBRpWgSTHmiSfljbsAbGGmQKmgClgCpgCpoApkKAC9kQzQXGtaFPAFDAFTAFTwBRoLAXsxlZjHU9rjSlgCiSngH1HMzltrWRTwBQIKJDk5CzJp6WBJpjXFDAFTAFTwBQwBUwBUyCmAm0x0/V4MiapGVeJduf6bbdpjilgCiSsQI7yR7Goyya8nx4vfkjfyzKFSrTaeNPjR8Mq0KQK5PhToVHDntspm7b2p/3G1pAb183kNZuoszB+dY6dP6VNSquPKWAK1KsCrS25ls7WUcM2vztbqgl18R1NFplqxEhHBleYmQKmQPcqkGF37ZyPne6crGjvSU7OqE97RZUpkZhFZpZ/SxxZID/WZEoktyhTwBRIRoEM52D7kL7DOwvnZDI7abRSh9y8bralV+fIPFpg2iKz0Q6xtccUSIcC+bGls33IzQM68+NOkVql+okmk8cM9dYEUq4sBx3yMGmV38wUMAW6SQHOx6zblc5JLTjldnAu+nAXXZ9O4Slm/glmxrUgx5o6P97wVAW/mSlgCnSXAuMWlzon8wtO3M6ONDzhdGNftru0iLOf/FNMPcHs7Mzk0+tpwx+thfFry7tzccqwNKaAKWAKxFVg3OJSb07kF5waqzsmeMKZ1j8eZiDPgp6ciJGQidt4S2cKmALJKsD5GDw/s3H2luRY03ezobHqUKyemtQWnpzo6cnwkYVFZ7HUFm4KmALdqcD456feOOhZS3Isq6ZlmvAVnirwZGHEgJFjX52tpjDLYwqYAqZAhQqMNwbprYqA9Qr4U+PVJJbKtLsK6YlJf8i5bXNMAVOghxXgfMxShfzdclw93czg1qUVnpz472Lqicng/vYEsy4PpVW6QRUoPMUsvF1QeLrpv0PdMw1m/PNjX89UILDXwlMF911MPU3Y7J7+w+wJZkAh85oCpkDSChSeYhbeoMg/3fTfE2fHaf2OZnCRmU1aICvfFDAFKlcgvNgsV0KSkzMWun7MKFeNiPjgIjN9PzwSUWELMgWaToHwYrPpBCja4MAis8yPchQtwiJMAVPAFOiiAuMtNv0PkVFm6p5oMmHMurY2zHe/unjsLLspkFoF3GIzRwUzgXM3tfUNV6zwNFOh6fjuV7h+tm0KmALjFHDfz8wRkhl37o6L7y5f125s1a6W474jFfG9qNrtxkoyBUwBUyCWAvnFZv7XaBmj3Su0afwfzfyTCTeBjdUwS2QKmAI9qkCH23vJV2iTnJxV/7S08DTTTWB7VETbuSlgCsRRID2v0MapbbJpCk8zJ/jxjWR3Wq+lT1+vFY+od1tEmAWZAulQwP0ImX+FNlVPNANPRPzEtTtFm4OdTVbDHZ5JWcfDQjUscyBlDYEpalimL+osPP8A6VDKliTyI3gAFoPDoav96AXKeBLWhFra9hR2L/SuQaHS5VrYAHx7T8B/IfwNwjYrAYpfBVgHNa7RuBytE3Vl456I+IlrXVXfKmsKNKUC3BTK0XDRY1b9ja3aVdk/LdCvPNau1JaJu1BWn5h5NX+ZF6YC5YnDDKSbG6q1Q8j4NmxRZQGqo+YSW0fkn50wxWteEIdpSFdu0ZslzTYQNSediPD34SXoD5Wa5lman+5WacYupr+V/NfA4qA52S1wHHTFpiYzp+N4pvnYU7DfeKGVbeg4XgabVpatbGrNH2+EdtA+itk8RLwBt0FX+j3Zx1oG38twA6i/Jmb574jrqaaztH1Hs5+vWIKuFgy7RpT/HGFjYK+IuEqDliKDFoRHQrUDW3ifuoN1CgyFqwKRGix2By2qyrGHS4Mzge1CyBHw8wQx4wdMwuZsIFf7PRG0AOvKBWpK8i8ID0OtbHIK0uJ5LdCg2lVblwJ0kRkO04JsWZD+v2gjZBrspOc1oMGw0c1PdjSARhpXA58mMr4rgZ1VfUeztTvGm640y/KaAqZApAL+5pD/fnVkosYObO1MYvz6HtG+AM1fKjFdv3+A90DzglK2E5Fa9I0G5YmD6vQsVGs/klFzAk3yNS+YGCoxXf81l9Bc51TQYs+brvFqwx8x+YZ0e0Ixm4mIo0DlbheRSPXQjezF4NWI+HJBC5HgQFigXMIaxmtfG8LmoPnjyrARqJ3HQrV2GRnVl4Lz9sfZ1v6CYWxWZMuQWtrfDJrHx7UsCXNwEESZbjBsAWr/n6EE6p962KP9qi/pnFoOdFOhVrYoBelGh9Y6yZp/qsl3NduS3VPFpWeUgwlpVm5CNpJy1QnVOR8I7EMDrDrB/YGwar2aUNOM/B2wE6stJJRPi5x5XNiXuDp2v8M+sBTENbX/yojEGvw+AZVdyn51kQ/jngIrgZ609gGdQD9DpfYtGXR3J2rBVmlZPr0uLBporoO9IQe6yFRrutDIdIH4Ku8rXCjl/T+3HXTWcRuH46p9ZulTIKMq2Wuz6TswViNTIM0KdBZubGV7tI75P0tn/KrtDwD9RJv0pPHyCtv2sUs/F+7zZfJ+5+LPw32uTFofrTmV6lbMliVCiz1d9zUvCtsIAjTHuQL2h0fgIYiy3gTOCM+AJvwyLTgGwcVwCPQFzcm+hmvgPgjPXzQ3mw6OA2+aF04D2n8x24QILWTvAe0vbMHF5zFEan5Tifn5y6OBTJp/aQ6s9siNMqVR3aXLeqEEU7B9MGhOGHWc9iBcbT8B/guyneFSOBr+hCxUYjORWE8IJ4bgvFVtGApZWBEeh0rtKTL8DUbA8aC1QbHFI1FjbQZ8/eDWsSHje9QHZeoz3mbBkwUd95mB4SX/0Agnv4Z4FVfzax2XSUF9aiN4EII2NRvrg9oftZCc3yV+C3d15w86KlvtVLn+fA7GV+1vS8WAWXX1q8p4ErkugYtgSfAH5Df8WiS9AV2xZcm8sStgedxnShSmE0Qn6EB4skQ6naD/cPFv4u4CC8KWjj9w/QJQadUxJ4NlwA8qeFumBJ9O20HTIKlBupxJI9lo0EmzFtwJa8MSUKodREeaTqzwIB2ZsMLA60mvgchfIJ7F/78Ky1BynYBq5ztwM3hTvWXeLWwVFs1rsiE9iw04Pm3Q1fHSAKJB92rQgBDHqs0Xp+xYaeh0OSdCplgG4tuJyxaL70o4++/oSn7LawqYAvWjgF6f5f9uVeGMPsxqpoCu69+Bru3e/FziER8Q4Woepeud5iKapJcypZVNC3PlfeU/NK/RRDvKehFYbp/hfJoblLOpSSAtvOmarPnXLaD5jm4w/wUugCjblEAtfk+NiiwRNtDFnRmRZlHCtgYtBN4DLeBugBzENc0vZME5ly7fj4KOodrsLuf4xpkWvzpmr4wLGuvTnFr17gcbgtrtTXk0Z/0ahvpA3MthYrgQBsPpEMzHZknbgVjlPwduDKXUfvaHA0F6lbNdSbAtqI5eH+WRzlOB5tpzgDedE5pLb+4DnDvauXeFwv3m784TbOcshOk4vgYnwH3wBch0LNS3NXeXX8d/XvDl4B1rs+K7euxWcc+eRIliNoAItbtLptdn+W9f9aRMW5dKqs/Ml1HtnWFV0EEdAjLdqfks76v+QwPeSS77E7jvFylqQcKXcnF745ZbnG1GmsVgBGwDaoNOiqdBHV378rYEnj7wIDzvAyt0pye96vcV/BzKqzsuMnXqhfO+lpYDcJcH9ScNvDphgrYKG4rzF5hgnPyTw6SwrDYiTHHi/oi4ckH7kmB1mBtugJVAA0QltgWJp4ah0Bkj4zKkmQG0Pw3cce1MEvZziRfA1UAax6rNF6dsS2MKmAKmgCkQUIBVT0dgs5G8WiiGr4//JiwDa8FDEGW9CdTkW3MOlRHHNiZRcMJdKs9MRH5aJIGuyUfBN6DFU5xrNMkijUObv/k/BW7UtVtzLc11pMkV4Bcli+N/CcrZQiTQnKrY3HBJ4taEN+BeCJrqdgFMDAfAs/AC+OPzHP5qTZqtXW1m8rWD5nkZ0EJpXfgWZIqbFh6D9SBo37Oh+itufRehRdV0cBoUO5Y6PtJAfeJICNt3BCj/SXAl3AGlbBoi+4OOoerkTcf3KfgN5vCBuJpnfwDSbAV4BrS49AvAqL5DdKR97UJvwz3b+dU+b4O8B/cQWAbUvrC9Q8C2oPI01w5rp753KVwMl0PYdP5q3vpkOKKr22303I6uFlJn+SX+3vA0bAGHgQYndTQdqGqtFxl1ENXxNABoQJ4XtI/gAV+a7btBdjycn/cV/1iMKHUMdZwhoIuAOt57cDg8CH8FDYAy+WU3FJyqPvuS674yOfcjXoRtKAEHhQJ1wmsQKmc6oYvZJ0TMViyyRPho4naAkaBjTpev2PZyOTRgPQBLgMr1i24NTn1Ax3lWGAiy3rBH3lfY7/T4H4cobecm3B87ZdkUJodyA1a1+bSPbjWE70hqhwjfTtnZpMq3ck0BU8AUaFIFNP/QvOYWWBHegrDNQYCurZp8l7M2l2BzXD8XKpdH127dbI4yhv/8Q4Ng3DZsaLKu67Tii5nmbVPBq/BwsUShcD3t0eLC28l4tACQNqXmMEp/PujGt+Z+x0LYNKeTnQvhemu+tRrcBTeBbHuQ/x7Q4k5zz56w19ip6qbFsXTIwXIwP2i+LVvZkd8IfWi+E7bTCQhr4NNk8ajPDYKoRRfB+UXbgbjSXPPo4AKSzfFMC0mZ9Hwu7yt8aL6XAdVdczdvSvMnqK3HwRWg4xJlmvtqfqh6LuwSaNHXD6aBx1zYgrjbgOaJOte87Y5Hc04tIFUPmfYdtj8IuDYcGNjWGkKm+Wqpvj4R8TqXi2lPVGXmT/jKctV/6hdowo5wH/wCU8DEoLsjxUyTfnVG3yGD6TRYDQd10i9gK7gKNBgdBeqIMnWs20AD2wVwNJSy2YlU51VnVNpD4UlQpz4C3oV1YDO4GL4FndiyfUH1kKl+6rzHwI3gTeX+AL/7AOe+jnsYfATSJ2jqgOrMz8NJgYhJ8E8LuiCE7UsXMDAc4bZPxZ0S/IIunGwYAdI1rs1JQg0q0kP2IOjEfksbFdpqpPeL5E/wa7D5BlR2BtR3cqD6q28sAgeAbGNHfsN96DjeFwxw/m1xpe3LsDCoXA2+V0MpqzZfqTItzhQwBUwBU6CIAszA2onKFolutGDNGTQXGQq3w8rgr6148zaXc993bilnOhc5Ajc89yiWrw8RnxeLjAj/O2HLRoQXCzqNiFKT72L5FK75heZLWhxKm6hFAMH5+eAauN+BNA3bMgRs6QIfDUUOZlv6/wT7gDdpeDCcAY+BX1jhHWtr4bsVvgI9TdXcQnYJqLyp4Q1YFbpi75FZ86Xb4FLQnFrzF7myDjgv7yt8LIGjudDxcHYhKP+pudRkUEzHJYk7AKR7qfmRFla6CXAmXA+aT4XnswTlbVo+lV7115xY80fZj/AHqO/NDG2g/jsfvAujQXZLwYn81FixTijmJLetY7Ko86t+Qjaq4OQ/V+BzF9C5ojlilKne0kPnpY5xlPnjcCyR6q9R1ptAaaF+eHNUgmrC2ppkwNwNcXaGb0CrdQmuDrOfc9WpZeoMz8CkIMGF/IqfHHaEKyBoKu9y2A7UEbaCN2FdyIEOqgbJ/4NrQeUdB8dAKdPJfxfMCY/A+fAq7Aovw9NwoeMM3CXgMXjBgTPWZsH3Fwh30hxhOml1YqmO84BOMPn3h6shyrQ/LR5vcpHS8zfnj3J0on4HN0ZFEnY4KH+x+COJk7ZRtgqBOgbPg/Yhuw36wn9gI5C9VXDG+1S9d4eLIWoAUrnnQtBUV29qv47nLi5A+o6CSeAkOB1k2vcTsA9Itygb5AL/iavBZl1QWLFjQFTeqs3n83ebm+RYg/Ad3dYQ25EpYAqYAs2lwDCaOwf8HXSd/hv8Dt40T5F9UHBKfmoecxZ8DZobxLGp4iQKpFHZmg8sGwiL8mqSfysofTG7kohZQRN4XeM1N3sO9gXZnaDr9Hag+ZnmZVHm5w4HESkNgtaHjWtAc46wae56EXAJzc813gklOJNtzV/OBi3k1oPD4BWQfQKaG34BP8FGIFM5/4Np4W2ohX1OISu5gq7Flf6a88wAo0Hx3lQfmbQPhgf9+QSBD/VBze9kXv/CVvSnNFkZtHDScd4EohZiWcKFFrc6xmEL67MVCW6A3VzCUnXOkuZ0UPs1Xx0Kmq+MhN7gTcdf55mOR/A8OoDtIaB5+iFwKoTtewJUb9VTxzpsOibLucB7cD8LJ3Dbi+CuCSqvZqbFVjOYDpyE1on6LUhEdTadnHJnAZkWBDoACv/VufJvCJNDuLMR1DIPzC0Ppk6gziP7BtaBB0EnvUwD8y5wqTbK2PzE/wjqnIPgK9CA8x8YAcuCTmCZOqBsG3gPNBBqX2NAppNMJ4UG3qDdwsYjoPy7gwb9K2A6UPv3Bw0C0kCdWDqqE78Ps4G3q/DMBxfAxT6wm9ws+1kbXgctpmW+necUNot+PkTMirAg6EQOWwcBS4YDA9uTBfzy6visDtr/aaA+oHNMx0N9538QZcsQuChosX0zqE9qoal2zQzFBoVq81GkmSlgCpgCpkA1CnAx1LWh2exQGqzr5Vqga+ue4G1O5/nABwTcLfCvAZrDaF4i07VRc4q4c1DNhWTtoDxTgSbmj0OUaS6jeUuxa67PM6nzKH0x074099GcSLYS+LlXPoAPzR8GwImga7jaGrQN2NgEXoLLghH4Nbe8GhYOhc/ItnQeCNr3NjACouxcAr+GS0D7Wg+ugH3hZdAxk6m9m+Z9hdeN73L++3DvBc1dOl1YMUfznulA851XIxJpH+fD1vAuaM57P3TVZqCA/8LccBS8COVM/W1bl0jzYLV3EHzkwsKO0qpv/gTS4RjoD+q/MrVtenhQGzFNc2ZvaoPsBRiV9xXeFpD3Q3jShU3hXDljAn7vnch7nKv6ym6F4/K+cR9r4t0JNL/UHP0E+BT6gG5gqE+q38r2AqX/Uxu1sjbO9I5aFZbicnSyXglfgsQOm05ydbDt4dlwJNs6AXWivhkR9xZhq8MC8L9Q/HJsB/f3K9szgzpqeCAiaDx7hi0NaFPC9y7mdlwNKPuATprzQRYeGI4lbD/4L6wL3sLpgsd+cxKpox/kEm+Hq04ZNpX7PqwTiFga/4JwXiCsu7yLux0dHNih1+upQFiUVyflinAA6BjfAd4UdiTohHsaloewadAJ2qxsSEP1pzEuYgZcTrN8uAuawNHAJ1MdvoJb4F+gAV0Xl2EQZdXmiyor8bAkxxo6djsNyCbeCNuBKWAKmALNqYCuhTvC87AH/Af8NXMR/LIPCs54n7qJqvS6Lk8EmkT/Av4aiTcfNgnuHzBaASVM6VTGo/B4kXTTED4jxJ0wT1ukHAVvHIjTtVxl+jmGj/oSjybwQ+Ek2B28qR6XuI3DcIN16s32I9AXPoZL4ShYAu4E5f0ZNgPNLU6B1+Ay8KYFw+WgeZnmbafDfPAT+AU63rypLdJGpnnFe/AKaJ4iXbU/Lqd5kyZzwyfwWT6k8DEZzvSgYxm2NgIeguXgGwhqJ03WBm9TOo8Pl7ZTwxgIplOy5eEqWAhOhmNgP/gOSpkW8bpR8E+4AQaC2nsIXAS+rXjzNzDUJo/CVCfp6Nuq9Oqj6n+1sF4UojbLtod+ed+4/WldorZ70xxT5vMUtgrHQ34dF2+q86GQhc9hK3gUZHPBraB+J/sR1B9m1gbm+0hhq4uf6hTNYBJRRJlO9A3hW3g+KgFhM4FO9uDJFk7qF5nqOJuCFilLu0Ra8L0Eu8GJcDRcCWfBK1DMdPKLrwIJTsU/Eh6EGUEn0hwQNNVVJ8hdwcAK/bo7JtsV7oDV4EZQ+AegDq0BR31oAXgDLoPuNNVBJ95vcH9gx34g/z4QFuU9hUAtxP8KqvtSoEFV9hRosf8kqDx/ssvdEXRhUbs1WOrCMC2MgP+Df4P6w8WgviOTZlGmwUCLSdl1BSd/Ebsd/5YwCDQAhK3afOFybNsUMAVMAVOgAgU6m/fG1tvINAT+An5+oWufFkK/wgsQNs15jgddRzeBW2AL0DXO20A818N6oPlSOdO8Tdf9YqZrcA7GAIerqGn+ovrreh/HlF4Wte/zCT8INC8ImtquecB/4M5gBH4tuKXPuaDr/dIgexm0ODoENoUHYAM4FFSG5itB25yNj+AIyMHGMBzCNjgQsBD+x0Hl9w2Ee+/WeK6FHeA+H1jG/Z14tbcDdgX1hyVBprlq0DRHlflwbWv+LE2C9g82joM2OA0OB83VfgTN8VR38TC8CUGbm401YDRs5yIG4l4AM4Hq6m0KPFf5jZAr/YOmReH/ggEV+tVWlXEU6Lg+B5pb/wAyze9kauNneV/hQ/FaD4Q1UhqV9Rj4dq2GfxGQfQgng9ooZgPdoNB89QB4AmSnwFkgvWpmzfIdzVKCDSBSi4WLQANhlOnAfREV4cImxl0WVoedwB9cDZhZ0MGXnQB/h/1gd4dOxNfhDdBJIldhY0B1K9bxiRprn471FTz+BA6fHKFkJTe1WJV9CSrft/8n/O+DbBlQZ9X+4tSTZDW1JVxpL+KqXpWajvcO8DzMCFfC2qAL0yOwPOiE14nnTQPXPvAHaBCQtUMbqJwcSJMV4WJYDGQfFpwJPtciZBaQ3v8OxF6Lf0tQv1J/ehWCVm2+YBnd6kdU6ZRNYqd0wI4kyrUyTQFTwBQwBcZT4JLxtgqvRk5G2K0wOhSnzd8jwnRd0zXU29LOswmurp2aTAfjFa1r8fTwJNwNQdMC5UDQNfl70PVWxDXVfxBoEv4O3ANRprmeLKpNmvyvAOH52P6E5UBziii7kUAtvlWm10Fzk+PhTPDzjG/wy8J101xRWj0PmkeI4RA2LS7WDgRqn5vCHbAt3Ay1sFsp5FvwiyVf5jA8Q/0GrhagqnM4PJAk71V71L6z4dB8yPh/k3IWYX3hRLjLxXtnKzxaaH4B0leLTempOfepELTRbGhOqbprn0xZ8gvSdXHnAVlvmA7e0kYX7ELy+nI07186VJb6ofrxv2G/UFzU5tsEnuAipPs6MBd8BO/BZ6AyVweZyh4Cr4Hq4e0nPKKm1lbT0uqzsO1dta/DPRCCJ4KiNIDNCM9rI2Cz498ddOBWBH9XRp1Zd+rU6f0CE2/edMfiSNDgobwbgwYmnXDe1Nm1gFPHeQr+Aer46vRBW5+NjeBe0H6OAW8zOI9OriTsaVfoyrhaBKluV7mwYs6kRJxeJFJaTlIiXgOkX9wGi1jcbTwZDKzQr5Nwb7ga1oTD4GSQ/enIb7gPHUPZTnBl3lf4L9Ob8CtO9dQgtgrIdJxk7+Y/J/wY5II02Ovk93YnHvWFqUFp1G+CVmm+kWTuFywAv9o3D1RyQSa5mSlgCpgCzatAa3Pd2NIc6BLYFf4IHXXF6fopu6bgxPrMFkmVIVxzilK2TpHI0wjn0HTZ1NbwYs4X6ufMv7mAgbgLgRZ7YZuVAM17vD6bBxL0wa9FwGUuTPPGKNOiyJvfp3d9uFwtjIJpg3Hevy8eLUJuhC1Bi52H4QxYDW4GzYEfgqcgaGr34XA+fBmMiPBrzqK5kRYs5Y5lRPYJgoYRcgN8PEFMIWAuF/5ORLx0ln1XcPKLTc3dwjaYAPVl1flX8Daz8wTnTupjy0PUcfD5otwMgQe4iKlwL4XjYDcYAJo/ak4mm7jg5BeM/3J+9SVpexXoWBUznaOrwjegPqFjp+PaAZ1wHRwK6jPvgfrEJnA3JGJtKKadN6utTsO3gCfgIFgfZoQjwJtW+zoQn/sA5/6CuzPMATp4D8G1sBFMAjqwvlPhncCQPr+APAxXJ+6GsCZsC2+D7HU4Je8b/2MKNo8GnTy7OHDG2kzOV25AGJshwuNP0LWJ08J1YZdG4U/BD5ABdehHIOokJzhvOoGlSTE9dCLISsVHDTIbFLIV/Z6Giy7rXEMKHXtpfxzcB2pjlOkkLmY+7r8k2A9WhHXhDfDHFO9Yk5abuq2NccNp/DHYjrijQP1MVk2+z8j3UT73uA/Vt9LBclzuCn1JjjUI0051shVWqZmTz0XjNQZ9CL7fxtVDed8vkVjlqt/fC7+XSJfWKI1H9VjvtOpp9apvBY6h+oNBE97HIWi6bs4Lmg/cHowo49+J+ODEVtfB80D7WgyycA78HWRasDwNr4HGlbD9SYDmQ6/A1uHImNtaVGguqAl/MfMLAD8+rEZCXetL2ZlFIjVfvKxIXK2Dl6HAQ0Dj/QjQQlOmumlucCMsDmeAxu89QHp6G4TnWFgdNLZL72KmheGccBOUSlcs/2RE/BSKjJr/+SRzO897PiDgaq4kU/8sZR1EzlUigdoSNvXHC8KBEdtbEXY0qF972xnPlW5DWg0A6a76/gxfgo7V5LA+TASzguZrxebJRI01zfXmBx23HWA+eAyy8CpMDXPAhTAEboEN4T6oubXVvMT6KVBt18AmOwl0sq0Jh8On8E+Q+UXbF4XNsZ/qCLpDpRPvelCnkO0KOqlf1kYJUweaFzRoarApN+CsQxotYGQ6KdRJdoEPIGw6Yb6F38MRFWzP4NLuE8ozPdsqV4tLnQCyKwtO0c9piekEDSBRdXqG8ClgIYgyHRtdBII2GxtruQCvSzC+Uv/eZFgVdBx1bLtiOpa6+AwH6XU+RJkurn1cRBuu+kOUzU2g+tmDLrKafNVefKPqY2HpU2A7qnQXfB2zameRTncxHwCNe3FNeW4GjXkHgs7NsGlcvBHehb+BJoelTOfAv+ESuC6UcHa2NZb9FAovtjkVERPBV8USEJ4F3cTTPsPlKu/7IB11Do+ESkxaalx8FS6qJGMX095K/jFwIrwJ0vElOBrMaqwAF7N2iszWuNg0Fqe+fAzofNLkNWg6bzUXkd0GP+Z98T5WJtmUgaRLO78WN6fDPrAXXAzPwymgc3MoFDNN0EeDzl+ZjtHEoPGDQzaBTUrIdKA2aL9+bvIb/mKm67TMp9X5dQJov2EbRcA0sFQ4gm3Nd/6MCC8VpDmjrFfBif05CSmHg+o+DHzd8ebtaudqIdoKV4DGrq3A21V4BsPaIL2KjSsbETcYdAx2g6Ap32GBAK+lD9e+pdfHMG8gXSmv5ueLwSsQHsuVT31UVm6h2Z806r8i2FfUrzMwCwTL10JN6dYDmepezCYjQnXUvPIe2A40VnvT+SWWh8fh37ANBG13Ni6AS0HaFjMtHFcCzd9nDSVame17QmHalDa9QW1Ve3JQU2tDqXZKzNa01PoobH+quTjooArZTnANDIMPYQSoI8u0+AzbEwSIoH3Lhk4UlV3KVifyQfimVCIXdz7unqDO9joMgTtBnU6mAVimE3dBWAL+A97U0WXeLWxN+DkNQXvBQPgc5ga1RwOT9qFFk04WWQ4GwC9wA5Syh4h8C1RGeJArlc/HbYFHA0DQBrGh8l6Cj4IRMf26sC0CmpD9CbpQrAqfuG2cqu1Zcj4Aa7gSiumjNshuBbUxbBMToH6oi6HSqr/Iqs1XyN1Dn0mONYzyHT3UrDTsdkMqcRV8AFvBY1DOvncJTimXMBA/Cf7ToBdorImakClO1xTZ5VBukal068JajmVwD4c/QHYN/DXvi/9xFElPKJJc47niNXbsBhdD0FSPWR2vBiNi+hci3YFwasz0tUi2AIWoD+h4DIcZQBO+TYDTbryvVbBpZgrEUmB+Ul0Fuj5qTvAheGvDcyPoOipbEWaEL7QRwwaT5utAuuDcRJNwjUunw7/gZNBc4ykYDnFN10mdG1HjlMqYWB+Y9vVd3lf+w+f53SXVvEF1i7rGSzel+xnCFhUWThPentkF/BqOKLN9DPGaE34K58H6ELZ5CNgGPod9QeNG0NQO9YGn4Uh4CMI3+BcmbDho7N4ONHcM2jNsPBwIUHt2hRdhJOjaMRXEPRYkzc+JdV26ShsR1seF+etdRJJ80NsuYj/n+jooXH16PdDxnBzUny4G2ZQFZ6zrNsdzhrOlMVnXQy0mpU2UPUngJSBNNC/VvFCmefeJoHpI+1KmeutYq71vwmeg4y7Ud/eAq+Fc+AQU/xPo2F4P/4F5wc/z8Xbd2rpeRF2WsDG1Phl0UHRSedPB1eC6N+ggyfzJrYMSx/wEKU5apYmT/jbSqYOcDT+ABrfdwJs6omw6WD/vK5x4S+J/AXwbFO9NJ+ecsDj0B02udBJpIJKdDu/nfeM+fsGrTqwBQx1Z9hiEB5R8RODjqIC/Gq8GtbCt7QLuDkfE3F6ddGfB1rCRy/ORc+M4yictZJpchm0EAWuAbiS8Eo5kexZYy4XrBNdAHjaF3Qg69lvCfjAtVJNPx86sMRV4hGbdBX+DB+EI0PkbniwQNNb8+fva2JDyHvW/BVyySXF191TWCuqXGqc0PmlMkekc9X01H8DHFKCL2wAfgHszDIKL4RDoCzq/voZr4D4I9999CNN4dhx4Uz2mAelRzDYhYiK4B7S/sAUnAZqg6VpQiX3lEj8ayKQJlPRWe7zugei8V2lU92dgvXzIuA9pdjCcApoUhE3jg9p+AvjJ3874L4WjQROkLJjVSAHE7qhRUWktRnMBXcPUJw+CB8Cb+toloPFGpmuc5k13QH8YA+VscxLcHkjkJ7rzELYyDAPN03Sd/jf8BurTf0Bc07n4LSxfJIOu//uD6h/X2lzC3517IO4Z8BS87cKScuZ0Bb9T4Q401vWBpyFq/OhN+PUwMRwLxcaoz4nbCh4GzRM1zv8MshlAx1/XgeNBacJ2KwFDA4FL4t8VbgqFB5KU9LYRuyfoOndVkZTTu/Avi8SHgw8hwOscjNsysPESfn/tUHtlOl9K2emlIgNxh+NXv78SdI3UMbsM1I5BoD5dyo4m8hj4EWaGHUGa6/xZAHSteBUegxlhB1D5N8CioPlAXK1IGs/ammDADCuxCQES1XfSj0IJdLE+B0a78Jmc+4lze8K5i51qAGiH3rAffAze7sTzHvQCXRS+BnUiDR7qsAfDpaBB11sGjwYgb5/h0YB+PzwA38FioAuIBv5VYXnQYLQcaKEuWwXmgXdBJ0O5E4EkNbG1KWU2+LXK0vxgEj7+5YqTxrK1oG/eN+71jMnc9l9wO5xfA9ElsBN0ujA528BE8BPcBsVME+09YBrYAOaCavLdTL4etdZxmtS8HgircyNb84Lro0Cd7+ob/iJzKv6/wvYQPOfZHGt+ouTdsRFFPAsTfhTogvUKaEyYAX6B10H9fFNQuMbOR0CL0TVApgWQ9vUnRF3Irib8TbgFdG7/H+g8ugCiTPv6AdTWSmygS3xmRCZdaLXA1dj6Hui807UiB3FN7ZNJF2867x+FH0HjanAcYDNvOqelobQNm8YP1bsfbAhqtzfl2QXUB4KTuMvZnhguhMFwOgTzsWlmChRVQP1mSbgKgv1KGU6CHeTBNBe5Bx4HzQ+ug40gqo8TPNY0/5oPlgBdRweATOf7nbA+7AwaE2Tax4t5X/wPXat1TdY8Jsr8IoRLU2zTOSXTWKbz7gzQNXwqSNo0Bmh8iRojSu37ISJFMfsXESvA8yD9S5nGMR3jbeAw6IDecCvMD8/AsdAdNoydzA6qzwdFdjgb4X/A50Xiw8FfEfAhrBaOcNsv4H4diMviPw5+CYR1xatr47owEu4GLfx0bHRcdI0sZ+qLsnngXlgANDf4K4TtGAL2hcMhC2qHtKq56WRvJhtEYy8FDRYHwbUQZaMDgXM4/yeBsJ7w6uRdFdaCdeAc8HY7Hg0+6pgaWDeH7+Fd0GRzZdgWngRv6sivwiMgHXKgQewf8DpMAkFT3HugwUjpp4DHQGVnYTBcAdJ2Z/gQkraPy+xAWvxWJI0mbTK1vxKb2iXWCXqR8++Dq+MxA8wO94AuYlfBIrAjaMI/BLyt7jyaWI/xgRHuQ4S9A/OC6uz7Y6X5biavWeMqoPNTF/3H4WrQeTk5qN911RangPtgGtgd1O+XAe3rI1gNFoYc6PxXf9fEQ6YxQWPQG7AflLIniNRk9d+gfGqTTPt/Ke8r/bEQ0T/D+0WSLUn4mqC63BtK08r2BaD6HwDPgiYVqksGnoNqrZOMa1ebmXztsApkQMdBE5FvQaa4aUFj8XoQNF0DVH/FaeIumxKmg9NA9TKrQgGEk+7ZKrKmPYv6x4zwF9CiQee7t/nwnA6bugBdA891/i1xNf/YAKK00TVS57bOZZmuX1Gm65TKnBmuCCRQubeB6vNpILyUV9djXTfLjR26Vn9SqqBAXJvzD8JV2T+Azq2ujA9kL2v9SCH9roWPy6aOn2BXkg4GLTDk/x3K2REk2By2AF1ztgONTxp7Ndb/Bl2xXmTWGKU6fVOkoOMIV596B/YskqY34cvCZ6Cy4pja3wn+2hPOo7igRvIHt8Ppq9nWeaf2aYzWIvMXOB/imq5zd8Fs8CDoPI2yywjUOaLjKP+hcDToHKyptaFaOyVma1pq+gpbgCqdDbpAy06GoXlf6Q9N1PzF++3SSceLnZQtDT6lbLFSkRFx6viD4UXYENR5zgHZYDgdpgeddH4S1Re/Oug28AgcBeq8HPb8YLAobtg+IECTLU2yRoEmKVrEvgEa/K+Hv8AIGAhPgwYXnRzq2Nqn2t+TNsbtfD9cXay+dds6nqrjVqBBWwPinVCJtZH4R9AJ6k2Tag1mGtSehFlBJ+uOoEngSDgANBHeG94F1aEPjIZSpmO1MCjtD9Dq/JXmI1vPGg1ppwbZJGqBKLrgmRUme+qH6oO1mJDofNZ4ov6uMfMikOl8PxV0Y2pjeMLxHK7OB2974VkB1H/jmOqs9N5OxnMIrAhP+cAi7vmErw7Hw7ERaQ53Yefi6rwKmsaK1eAuuMlFaFyT/x5YF56FnrDX2KnqpuMgHXKwHMwPGk9kKzvyG6GPTUPb2tT1IqxBRDILaiIFlqGt/rr2Df7N4SeYEo6EIaDJu2wfOC/vK3zcj3MSHA3HgM7V28HbtHh2dBuf4j4Gz4PmGULX42vhGlja+Wd2rspV+Ibwugu7FFdjTin7O5Hq42OcG0yr6+hkoHp97SLkL2cZl2A+3O9gAPyfC0vK+QsFaz6hOeBxNd7JHZSnsU+mYxY0aRRl7xI4CO5zkZfhzg7S8RUXFuWcQeBpgQhfvsaiYHgvthWncVz9KWhzsdEOO8NvsBWMBm8b4JkIJoeBMAeofpWY9q++EWWKK2XzlIokbpIy8cqv/q526Xi/CouBrqsPgK5dOfB9Fu9YU1uPgZ1A81TpquvzHyAL929dw7eBQ+Fg0Dl9EzwFm8BHUBtbarOhOhFTYVSkU9S4MhL6Z1C5EvwIKGW6mGtCoZNIiy7l00AY1+4nofLEZde4Bbt0W7uy1Uk0wdMgp339CuooUaaO9xMondqnhWQxU1y4QyrtZqCLj8p4HKYA2eLwA/j2fqbACu1F0r9TYZ5SyXXi+PqUcsv1Bb+Py1x50/mAkLsS2y+5NNqfLpi9wdvMeF4DxemiNwgazmhcyfM3ybGm72ZDs5UKOqTv8E5Rab4GSX8W7VDbdeOllOm81/ipCYkusmvCl6AJ35vwO6jvF0MXSo1N+0M1th6ZVE+NOcGL/GNsvwzeVsCjdJp0LOIDA+4y+FVXpVkuEC7vYNC14UeYF4J2EBvKIw32CkY4/1q4OqffhzfgY1B6XaT/B1/AI1ALm4lCNN7vDpOBJgTal8iC4j06Tgo/LhCmuPlBY3bdW0+ev9WMN7UWfMjNAzpFDctdkrJ0jmiCu4ErVxPRT8D3s8/wawEaZZpEvwBK+0oowSxsbwfh88sn2xGP34fc3+BoaAWZFg5ng85TxX8A4XmK5ieajFdiS5F4b9gFNDdS2Trni9m/iVAajTMrFkvkwh/H1fhXiR1IYpW/CkwEGje/BYWdAMXsJyJGFIsMhes4qDzNH8M2DwFaEKoeD4LSqV90xZYls8q5HjTfLcdepDkSVgNvbXjOgV9AZX0FUfWXBor3qO8uAnEtOKb6MsLuqFBhO7Gdg7tA547STwNBW5QN1dfXz9d9MsL6wRFwJ+g6o/y6Zkg3ma5X14LOCV8XXVvOA29z4vkBFK82+/MXb/7akMV9DhSvYxtlukY+DU+A9O6y+TGqjbO4o8ulpbsAdczeoJN1W1BnKGVvEblWIIEmVIMD2+W805LgVwhPZsL51BFOhOnDEWW2ryNeneA7uAHUtg9hS9AkJMouI/BFUCdXPnXYYqa4b0KRc7F9CejkUSdcB9SpZS/B3+AKmAcuhEptBjJMUWmmEumHEadjsBLMC9KIrp4PUz94F66CURDH1G6Z3K/zvvE/NMjrOOokzsKxELTP2FgLNHB/CpVeDMlS/8YB6EiqFQjfTtnZpMqv03Kno96zwpegC2DQdIGTqd+GxwOdixPDG6AxY0V4G1SGzivl+RyeAo0HpWxmIv8CyhdlVxKoOuoCq3N0angO9gWZLr5Xw3awK1wIUXa4CzwI99VQgj5sXwOauIVtZwIuAp27u8A7ELQz2fgFzgZd2NeDw+AVkH0Cj4EWlD/BRiBTOZoM6Hog7Wph0lxjmuxaWBZ0bDV+jgbFe1N9ZBqvguFBfz6BfZgCToEXcC8AzRFud2GT487i/LrGa5KqPhVlOsd3Ap3TG4QS6Lqn87iYaUyRnQ5rwJ7wJHj7Ec9+cDnoOqLzPDhP6cX2VOCv1Xhjmca5cwMpdT6NCGyHvXsTsATsAI+HI0PbOvdVp0rM11/u9jAMNC4eC7rGRdmkBArtL45N5xJ5N5hH48Ye0McFPoL7gvNX6/g2aa54cZWF6NozieMBXOn/EYRNc2pp/jq8CNfBtxDXpMmn8PciGXQO+L7qk7yJp5/fwL0BwvtciLBbXBpd655zfl1LgsdV15Kz4HoXL+cp2AaU9gDYDeaFu8HbB3g2BaU7BLQQ96b+upnb+B1XxzTKniFwBdA1WOlqZm01Kym9BQ2laqPhQdCFv5z9iwSvwvugRWelJ9mt5FEnUhmlDtYvxPcGdaJK7SqXYTXcfeBQ0ABRyrSfZaBUnYrllxZ9QR34SJCeQXuIDXX82eHjYERM//GkU+eulemCN6xWhVGO9H4efihSpuJWhUXBX6DDST8kYEWQdsUm3eE8tm0KlFNAF74FwZ+TmhjqIquL0RpwI5SyYuPbf8k0wGVU//bmz4E7CLjGB5ZwdeFaE74vkkaTgmnBnxMr4ddkL2hD2FBdNIm4GYIXUTbzk9pNcDWRuUwBAZMeV8PCgTB5Z4RzYCBo37pAj4AoO5fAr0E32zaA9UC67wsvw1og02Rv07yv8PThLue/D/de+A46XVgxRzcApoOdQdeQsGkf58PW8C7sAveDWTcqwEHU5DDbjbvsrl0dxI6CcwT1+UngbbgHytnTJNB1sFK7lQyfw5NwSInMmsesXyT+OMKLjTNFsuTnX1kifwSNmzpX5S9mmt8sBH8USxAI1/mrcaYSUx5pMRruBGmyAPwTipkWoteCjlEck4ZnwJsRiccQthNMAyrvCeiqaezUGCW3WvuTjLuDxn9dm4qNo2qbH4/xVmy3kUP9/ZoiOTX+hvf9KGG7ghaouh68C2HTvPA8eB/ugPdAdhL8FZTvQngRipny/h06oC88CEHTNUaETelHwTug4/kZFDP1664cp8hy21CsnZhsZGzjBF5aQVOeI62o1nRQ49gbJMrGSVgijU6qnUrEh6O+DAdUsP0eafctk/6jMvHFos8tFpGScA1uopRpUBalrNzNgFJ56z4uybGmtfTT0j6IdwtkQReFRjJd+CaGKQAZ8q9c+cmWFl66kH0FyD+eaUG0GpwM4X45FWE636PMl3MwkSKu+Xzh9BsHAlT/P8HX30dp3DoBdNNQ7dkdvM2IR5Nh2WGg/N5643kEdFH+GC6Fo2AJ0CROeX+GzeBDOAVeg8vAm/rO5aCL/HZwOswHP0F4Qqq2TAOyYSANX4EZYBLQ/rwO0+KfGz6B4IVfC83pYSIIWxsBD8Fy8A0EtZMma4O3KZ3Hh0vbqWEMBNO5ZOakWAEdyxuhAx5LuJ6/RJR/fkRYrYPeokBRrem8z1aZWbpWYpqMx7Hg+RknvdJc5/DpNU6VM41F25ZLFIhXHyrVj9TXamnPUthaNSowzs2OruxqSJnMuoaETX3PX4PCcX5bN2/28RsBV+fbGoHtON7vSBReZJbK9wKRosdMFy4zU8AUMAUaXQFNroXu+GXhUWgEGxhohBYpWvzobrhMi6Yj8r4JP7TI0ULzbPh4wuiyIZp8XlM2VeEpvhZnccxfj36LSKz9HQQLhOKOZ3sm+A+EJ2W6iJ8I58KWsDTIXoZ/wiGgBfcDsAEcCiojuNBkM/+dtI9wpWUONIEcDmEbHAhYCP/joPK10A2bnkheCzvAfeHIItuarKi9mhjvCpo8LAmyyQvO2E8tLGU+XNu9IGohoXRmFSiAmDoG3WU6dgMcmmhr36UWCkSbmQKmgCmQDgXaunnATEerrRamgCmQiAKaEWH+qU1hy31+9qrmSNFx4yWsYsPtsD1G1rELzo/HvNkyW58FY2SpmyS9XU31lC5p+ys7mCPGTvQ0L65N7BJqQRU2LZBWAL2eFLT92cjBI8HAgF93528BlekXmroDrQXbmfAjyL4pOBO8HjiGcD3BeB6kqxgOYZuNgLUDgdqnFpl3gJ423Ay1sFsp5FsIP/HUE9ShgR1oAao6h8MDSerfO+y5wWpE5HiTZOs+LYxlccabWlcjuOCsddlWnilgCpgCNVegreYlWoGmgClgCpgCPaHAJG6nv3bDzqdmH3ptt5z5xW+5dIr31yP/RHMgYXoyqMVe2GYlQPvf20VsHkjQB/9HcJkLi1q4KsovMuX3+/SuwrxpcRlM68OD7r5saPGnhe2WcCE8DGfAaqCF5oGgV1+fgqCp3YeDntp+GYyI8Ev3K0Gvyy0SEW9B3aDAzIsMaPn01bu7YU+2C1PAFDAF6luBZvmOZn0fJau9KVAnCujRAk813YPN8SvN5KyTyVlk3PgpK9+i0Cy5RJRp4fGDi7gXNwuP8jSz25+EuDok5fhFXdRiqVb79E/SzqLAc2MUmiHNneDzlcoysYv0C0Mt0PYrlYE4PZWMsmsJ9AvNqPhahi1DYYfAhzACtNCUqW6fgRafi4MWner/e8B34G0QnmNhdVgX9MS1mOkJ5ZxwE5RKVyy/Xq/WIrUhjL84aeGpZiJjShmB3FBXJlVtoqeimNGuKL0W0gGPQaONX66J5pgCpkAjKaDvbJiZAqaAKdDoCmiBuSqsA482aGO744nmtE6703D1lK8cWmTKpi84JT/bXKxfaB7N9iygxVEY/XreGxHhSjcj7AuVmP8uY6XXRGk+HFR3LQJ93fHm7Wo+9YRZC1EtiK6AiyBoV7ExCtYGLSKK2UZEDIb3YTcImvLptWLPAy7Sh3/Gtl4/fsWFm9MFBVpLH6culByZVQtKLTBXAd2I0CLTzBQwBUyBulDAvqNZF4fJKmkK1L8CSU7OmIm1o1C2iEpjCNcCs9Gtt2ugFjbeZsejierHPqCL7gfkPx2+gpVBi5+z4T3wpsXecaDFoF4ZnQ6eh3I2sUvgF2t6ijMAbojIqKd5SqfXWsMWFRZOE96e2QUEtQunido+hsAlQAu882B9CNs8BGwDn4MWwDoeQVM7BsLTcCQ8BP+FoC3MxnDQ90W3g28haM+w8XAgQO3ZFV6EkaAFtJ6MBZ+ksmlWBwp8Tx21wDQzBbqqgPpRf/Bjc6nyriFycdDNsY/gTXgKzEyBihRoqyi1JTYFTAFTwBRIqwJ6uibziyUtTrRg0dOvriw0DyC/noZpwS57oeCMXeRpIqxFlLdJnUevaH7imAN3e5gI9ANBt8NrEDR/PfILzQOJPAM0uXk7mDABv15Hlb1TcGJ/6kmTXs3WIjHqldTehF8PWkQfC9IqyqTfVqDFohasmuD5BbP0ugP0NPl4UJqw3UpA+MeAdiXsplB4OJ9tV6EAdwrayZatIqtlMQV6UgGNK4fCyXBzmYroxtQSoGvH5aDxbQPQjTAzUyC2AvYdzdhSWUJTwBToigJJTs6SfFralTZ3c14tamS/gZ6sXQlanPgFIt6qrINc+hGaYnZEkYh+hIso+x+B4YWmFmMyLTR3AS0yNbnRhCdp0xNFPSV9pcIdadJVauL1L+JXgOfhAihljxJ5Hejp52Eg3XVMtYicH/TUUotVM1PAFDAFqlHgG5ep1Jjly/U3LEcQMBFcBnfDZqAbbGamQCwF2mKlskSmwPgK6NW4IaDB5yyIukuvV7WWhmWgL2gS9wboScY74G1ePBuB0ss64Ud4HXTnXq+KmZkCpkB5BaZxSfbH1VMwnXN6FVMLmK7YGmT+AYIL1mXZ1gJIr2BtDkHTEz4tIq+GfwQj8GvMUN1eDYVr01+PBuHXuKB9asH8HCRpWgwvD9dCV578huu4KwGDQWOY/P5JLd6ipkW79NwCtNDUa7KrwM+gJ8K6idAV0zg7HahOftLZlfKaMm9r935Hsyk1tkYnosAvrlTNscqZxhwtNuVeCcqrMX1PsIUmIpjFU8C+oxlPJ0s1vgIzsXmiC7oF9+Xxo1tmZVsDUv9QuDaHweWwO2jipYmVJmFR9hGBirs7KtLC6kuBJCdn3J1oR41sfSlS89pu5UqcEfcT0PZDLqwrjp6kBW1FNs4DTUIOgw8haFO4DS1kwnGKes/Fh52MC5gP9zsYAP/nwpJy/kLBeoVMi/LjaryTOyhvP1fmU6GyOR0i7V1CtdC+z8Vehjs7fA2vuLAoR09/TwtE+PJPD4Vroam44+FoMDMFTIHmVUAPAvTWxLegMTBobWxMDAu7wOdx94LXYE0YBXFunpHMrJkVUEcyMwVqqcAiFJYDLUaZ/7fcC4+DBqxVYXXYCc6Fp8H3wXfxD4dJYAHYEDTBuh1Wg6QnnOzCzBSoawW0GJHpfNsEPtVGEfPnnXeLJMsHK82SoKeYA0GTjB9hU8hB2HQOy7xb2Cr/qYWlTIvMdUDtKGZaMIlKzNdH7kSwDxwLU8OJ8CpEmdKKOKZJm0zuJ3CONpzNg6uF54cg7WTB77YWQgp/h+L9GkOP8xsRrsZV2Y2gsbacKb2eaGqSaFalAhyUdrJmq8xu2UyBtChwFhXR/KqUaWEZZRo3NVabmQIlFbDvaJaUxyKrUEB31rXI1ERUr3qNgKD9lY1TQU87gqY7/h2BAN1py8GUcBRsAGZ1rECSk7PW8ftOHavUpar/g9xj4GT4qUxJmiTIvFvYiv7UE1ItTKZw0br5sy+857bDjhYyMu8Wtsp/7k2SJWAHKLXIVEnTwlTyVGDTuLRyNTYNA7pOfrGphUOUTUqg0P7imG+zd4N5vmBjD+jjAh/BfcH5q3V8m16igIurLcTymQKmQMMqoJteusH0Q0QLLydsOHwP4SeaeoV/azgY/Fiv8VJzMo1hutaYmQJlFYhzN7tsIZbAFHAK9Mf9m/PrtazwIlNRD8JK8pSxZ4i/FQbB0mXSWrQpYAoUXmMqtmAK6/MtAXqypklIOdOTOb0iq/NbN4mehFL2MZF7gsqvxJRvIfgjRiY9fdQCuBJTHo0po+FO0NPEBeCfUMw0sboW3i6WIBSuG2a62fZmKFybmpjtBFocqrwnoKv2NQXcD3LNukkBOkVHN+3KdmMKdFUBzcluAX3H0o+tulmoxR+V13IAAC7ISURBVKcWmDNAlE1FoBaaj8JjoLFQb3b8DmamQGwF7DuasaWyhDEUGOjSaNJzYYz05ZL4iWqlr8iVK9fie0CBJCdnST4t7QGpumOXeiIp4tp5JBRx7EcSXRAnYUQaPxGKiBovaOPxtuJtXEcy4e1O7ynh6snwtiXiw1GakIlidmOxiCrDnyXfWlXmtWymgCnQ+Ar8jyZeAV/CwrA+6OaUbuz9BoNBi07dgONSmv/Kw+S474BstoLTsgiuFp1atGbhPTAzBcoq0FY2hSUwBeIrsKBLqolW1Gsa8UsqpNR3wmSvFRz7NAVMAVPAFDAFelYBu7HVs/rb3itS4CVS7+hy6A0xLTSHQg5kevtigbxv3MdXeFdxm/pxR1lfmNq5ehJqZgrEUqCXGzBjJbZEpkAZBfxC890y6cpF6wnmIbC2S6jXPMzqXIEkx5okn5bWuexWfVPAFDAFTAFToJgCegNNN/O1oBT6frzCPgDZHAVn7FeY9PUJxZuZArEUsCeasWSyRDEV8K9YVDMIrco+boMpQK9ozAIyvaoxLO+zD1PAFDAFTAFToIcVsBtbPXwAbPe1VOBnCpsEPnWF6usCHr1u698s0xxNb6rpe+5mpkBsBXrZgBlbK0tYXoGPXRK/4CyfY1wK3UnbEPqDFpka4I6CNSHu97ZIapZWBZIca5J8WppWPa1epoApYAqYAqZAggo8TdkrwrywEtwM+g6+mSkQWwF7ohlbKksYQwF96XwumC9G2nAS/QLj3+EXeAuqeSpKNjNTwBQwBUwBUyA5BdyNrWxye7CSTYFuU6APe5oednF71E1/vzbI4R8AxwL3iluuBDNToCIF7DuaFcllicsooIWm7K9Q6WLzffI8DE+CLTIRodEsyaeOST4tbbTjYO0xBUwBU8AUMAVQQItHLTLnhIsd+mVahcly+c/C38x9iH+k2zbHFIitQK/YKS2hKVBegUtckolwjwMNYlG2DIFTRUVYmClgCpgCpoApkGYF7MZWmo+O1S2GAvpF2XNAX3faEfSfxHqyKWYG/cKs7CnQ9zJl18CfeZ99mAIVKGDf0axALEtaVgG9/nqjS7Ut7n9gMdDCUzc1tMC8FvTev/xmTaRAkpOzJJ+WNtEhsqaaAqaAKWAKNJYC09Icfc/yYNjbNe0E3H1Af1fyCug3MfTdS/E56CtMc4Neof0WZHcWHPs0BSpTwL+HXVkuS20KFFdgCFFzwMqwvkO/YKbF5iQg+xU+y/vswxQwBUwBU8AUqCMF3I2tbB1V2aravArcQdM1H5PpiaT+5/x+eAAehSlgNVgUlgd99Wkh0Ftps4PmczI9PBgFk4Lmc2PAzBQoq4B9R7OsRJYgQoHfCONamzf5g/YxG6vDMfAy/A6TgRaZ38HVoKeZr4JMi06Zdwtb9tlwCiT51DHJp6UNdyCsQaaAKWAKmALNosA1NFT/jamHAFo4rgJ6oqm5mOZkepr5EFwAu8Ks8CQsADvDh/CB8ytsCXgP/NNRvGamQHEF0vYdzZyqyoQ0I9cstQpoMam7YOKNiFr+QZjuhi0OU4Jen9VdselgEGgB6m0vPHq1Y3sfYK4p0E0K5LSfIX0vy8g1MwVMAVMgjgKpuLHV2pJTXYfcuG5GrpkpUEQBfRdTf01yFvj/ytR/Z+qJpF6V1Vec9FrtWqB5ml6nvQo2h19gM9AitQ1uhBVAPxakBauZKVBWgbZUDJhlq2kJUqiABqg4pgHtlRIJ9SqH/w5AiWQWlWYFuDmUdfXLFatnkmONe1rq61CsChZuCpgCDaAAN4eyrhm5BmiONcEU6AkFtFD8CjQH86ab/rfAxqBwPRjQ001xBewAWrjKHik49mkKTKjAkJvXzeYfG3JDLG1PNDtcddsnrLaFmAKmQB0oMKoO6uiq2OnGm1Ybb+rnoFlNTYGAAp09Mt64G1uBevSA94/Wwvg1UaeNXz0gfwPs8gvaEFxkqklHgxaZeitNi0r9eKO33fHo9drfQQ8H9HTTzBQorUBn66i0fkczw0CeKV17izUFTIEUKZCf7LSOe7I5QdWSnJyx38Kka4K9xgrI2OuzsXSyRKZAShQo3Bwa9txO2ZRUqOeq0dmSsddne07+BtvzQbRnH9CTTH2HM2h6jXZPmAbmhS/BzBQookDhBtiwze/OpuqJJpPFHDX2E0a7S1fk8FmwKZAmBVhAZl19/LmbpuoVrQuT1Byvdrg621PNokJZhCmQIgXGvTbrz93urxxzlR4f64ZteXeOv6ou1MOeanZ/J2jcPZ5H064r0Tx9t9O+7lRCoGaPKrw2KxUK41Pq/keTATxL7XKgp5rym5kCpkBKFXDnaP6mkDt3i9aU+MKkqGiK6iOoR74OlZbgnojkyKenmtlK81t6U8AU6D4FCueoPc30iutpQYt+FEhPNfPfifIx5poCpoAp0P0KuO9m5udj+fGJKqTqiWZAEj8hbWcCmQ2Em9cUMAVSooA7N/0Cz5+zKaldJdXwT0Za222xWYlultYU6D4FgovMcW8idN/+g3ti7PPjXjC4Z/z+u5otne222OyZQ2B7NQVMAX6auPADQG5sdG9bIEwqv6PJk48cdfMTV1tsWg82BVKkAJMsvW0wkiq5AaWlg3M2W66K5PHpyyWtOJ79+/Gi4rzhV2htsVmxhJbBFEhMAc5H3jYYznjjX2/v7LDvZo6Te7xXaG2xOU4Y85kCpkC3KKDviA8ZMYAx2v8wWWuHf5qpCrR1Sy2q2IkmrkxMZZqcarEpNz+ZVBx+M1PAFOgmBTj/Mm5XOg+9P4dfi0y5dW2auDKhpQ2azOrJ5nDcwpNOm9TW9aG1ytehAlpcFqqdX1w6v8aZ/CITt2eNMS8/F+nZWozbuyZ1PE0gQBM9PdkcoHEsX8fghG9cDvOZAqaAKVC9AmN/gEzfD+/szPD6PkMOYzRvWBRufo0ru7XvZkOzz404MDsuKH0+6q/6MXCamQKmQEoUiPUUM1jXJMeapTYb2vn8iAOZ/3XdCk80/dOTrpdnJZgCpkBXFUjXU8wkx7KuKjX+62tdLc3ymwKmgCkQR4Hxn2IGc6T1O5rBOrJIbsmCJpEdkBsv0jZMAVOgOxTIsRPRX3AyZnEb0vQEc9hzg2li/olmriEbaY0yBdKtQI7qQSfjTWf/tL1VwM3v1N741hPMYZvfw/jFE009YTAzBUwBU6DWCmhsEX+29hcl35zQk4Ba79/KMwVMAVMgrECSY42eMIT3Z9umgClgCiShQJJjWRL1tTJNAVPAFOgpBeriiWZPiWP7NQVMAVPAFDAFTAFTIKgAjws7gtvmNwVMAVPAFIhWIHX/oxldTQs1BUyBelcgyclZml9lq/fjZvU3BUwBU8AUMAVMAVOgGgXsiWY1qlkeU8AUMAVMAVPAFGhKBezGVlMedmu0KWAKVKFAKv9Hs4p2WBZTwBRIuQJJTs6SfFqaclmteqaAKWAKmAKmgClgCqRSAXuimcrDYpUyBUwBU8AUMAVMgTQqYDe20nhUrE6mgCmQRgXsO5ppPCpWJ1OgARVIcnKW5NPSBjwU1iRTwBQwBUwBU8AUMAUSV8CeaCYuse3AFDAFTAFTwBQwBRpFAbux1ShH0tphCpgCSStg39FMWmEr3xQwBfIKJDk5S/JpqR0+U8AUMAVMAVPAFDAFTIHKFbAnmpVrZjlMAVPAFDAFTAFToEkVsBtbTXrgrdmmgClQsQL2Hc2KJbMMpoApUI0CSU7OknxaWk1bLY8pYAqYAqaAKWAKmALNroA90Wz2HmDtNwVMAVPAFDAFTIHYCtiNrdhSWcL6U4Du3WKYBuX6wMi4XbuNktpJnI2bwdKlUoEMtRJmySqQo3hhVoUCSY41ST4traKplsUUMAVMAVPAFKhXBbik1pVlqK3WMv3rqtaFeXs91zuW3G2xUlmitCugjiobVXDq4lN17qiLmhYq2Q8nV0f1taqaAtUokKkmk+WpWIFcxTksQ2oUYBZeT9eu1OhmFTEFTIHmU6DNBsyGOei68OXqpDUZ6qmFWxbqxUbWS0XTWs8kx5pOezOjFoc9QyHq5zmoF8tQ0Vy9VDZQz3qsc6D65jUFTAFTwBQwBcorYE80y2tkKUwBU8AUaBYFcjS0fx01VgvjervJ1l5H+lpVIxSwG1sRoliQKWAKmAIRCtj/aEaIYkGmgClQewXc5Kz2BVNikk9LE6mwFWoKmAKmgClgCpgCpkCDK2C/OtvgB9iaZwqYAqaAKWAKmAK1U8BubNVOSyvJFDAFGlsB+x/Nxj6+1jpTIDUKJDk5S/JpaWoEtIqYAqaAKWAKmAKmgClQRwrYE806OlhWVVPAFDAFTAFTwBToWQXsxlbP6m97NwVMgfpRwL6jWT/Hqidq2oed8iDKzBTougJJTs6SfFra9ZZbCaaAKWAKmAKmgClgCjSfAvZEs/mOebkWq08cCZ/AD/Aj3AOLQBrtfCr1QQnmSGOlrU6mgClgCpgC9amA3diqz+NmtTYFTIHuV8D+R7P7NU/7Hg+lgh3wD7gNFobD4W5YHL6HNNmlVObeiAptT1g/GB0RZ0E9oECSkzP3tDTbA82yXZZXQDevJoMx5ZOmJsUUrr50LTNTwBQwBUwBU8AUqEYBe6JZjWqNnWdbmvdfOB3egP/AUTAXrAZpsyep0IgQD7CtumYhbQtjqmRmCjSFAvPTyttBC0y9HfExHAFpve5MRN1Ohi9B44bqfCvMDWamwFgF3I2tsdvmMQVMAVPAFIhWwL6jGa1LM4dOQuPfCgmgBadMcfVgWSr5BZxXD5VtljomOTlL8mlpsxyfGrdzSsrTDSstNveB1eEmOAH2hzTatlRKdTsVlgO93bEU3AJpXRxTNTNTwBQwBUwBUyCdCrSls1pWqx5U4E72vQ0cDL+4emzl/Pe77TQ7c1I5TWw3hd/TXFGrmynQwAr8jbbNB2uC3jCQPQyrwtYwDNJkepqpNzcuAy00ZU8D90dazoUF4XUwMwX0C3n6eomZKWAKmAKmQBkF7DuaZQRqwujTaPPioNfc9NrYX0Df09wV9CpZ2m1fKqgnsnekvaLNVr8kJ2fuaWm22TRNcXsfp26bg19k+qo+hkeL0LSZFpp7wwuhij3itvWE1swUMAVMAVPAFDAFKlDAXgeqQKwmSfoT7fwfTAeLgu7ka4H5HaTd+lDB3eBs0JMIM1PAFOgZBd5jt/rudNjWJuDFcGAKtn+lDnpj44tQXTZk+0PQ000zUyCvgLuxZWqYAqaAKWAKlFHAvqNZRqAmjB5Om/V629ywEswC+oEMPd3sC2m2Taicft3y8jRXslnrluTkLMmnpc16vBJot74DuRCcmUDZtSxyZQrTDaurQE85DwC7cYUIZqaAKWAKmAKmQCUK2BPNStRq/LRT0MQB8C943zX3D9yL4FPQ9x7TbHol7yGoh1d806yj1c0UqLUC61PgJXASPFjrwmtc3oGUp+9lbgdXwygwMwXGKmA3tsZKYR5TwBQwBUoq0MsGzJL6NFvk7DR4Uvgs1HD9qI4Wb3rKmVajK7esA/emtYLNXq8kx5okn5Y2+3GrQfu3pIx/w1A4ogblJV3EQHYwLejG1QKgrxLotXwzU8AUMAVMAVPAFKhAAXuiWYFYTZBUP6LzM2hiGDT9GJAmXK8FA1Pmn5X6zAhPpaxeVh1ToJkV0FsQ14B+ybUeFpn+WI3Bczdo0akbbVuAmSmQV8BubFlHMAVMAVMgngJtbsDMxktuqRpcAU2ojoXjQL+yeCMsCIPgE7gA0mp6GitTPc1SqECSY02ST0tTKGW9VGldKno9nAZHprzS+r9MvTL7D9DXBLzpqwMaFxfzAeaaAilWIJPCuuVSWCerkilgCnSTAm3dtB/bTf0ooO9Q6cnmYDgcvoXb4QT4BtJqmgyqnh+ltYJWr9QokKEmudTUpjErMjnNughugXp4kqlxbkfQ1wYOA29/xTMLpPltDl9Xc7tJgRTf2MogQb9ukiHOblSfDsiCmSlgCjShAvY/mpUf9AxZcpVnq6scN1BbUU/2LJXVXxGYpVSBJCdnFT4tzSCRyIJZMgocRLFzwJfQHrELvUqrv1JKi71HRS6HA2A+uA+WBv0X6Oug13/NTIFSCmSIzJVK0E1xo9hPtpv2VW43aalHuXqmIT5DJXJpqIjVwRSopQL2Hc3K1RxJlmzl2SyHKWAKpEWBTCajxY/O5Uxa6tRg9fie9ugNg7lguQgmJixttjsVOhimh7/DEjAcVoafwcwUyCvQGX3zxOYG1j+6okCGzNmuFGB5TYE0KmD/o1nFUXGT1GwVWS2LKdC0ChSZnNVEj0qflnIOt2Sz2Qw7t8lhTY7ABIWcRYjeMCjGdxPk6PmAX6nCObAGLASrwiGQ5q8MUD2ztChgc4O0HIn6rIfrP7omZeqzBVZrU2BCBXpNGGQh5RQYOXKkJqntpMuWS2vxpoApkE4F2tvbW3QuY3Yup/MQWa1MgVQqUOzGls0NUnm46qZSdgO0bg6VVbQCBex/NCsQK5hUk1S32OwkPBOMM78pYApMqECxydmEKSsP4STUYrFi04W9s7Ozxd1JzlZcgGUwBUwBUyCggM0NAmKYt2IF7AZoxZJZhpQr0Jby+qW6ehoQZCw4R+J0yAtmpoApUGcK6ElER0dHO+dyP6rev86qb9U1BUyBblSgs8xbEDY36MaD0YC78jdA+/fv357L5dTCrD660TLduK9a7MrX17u1KLM7yvD19W537LMW+6iovm3lBsxa1KiRy9AFpV+/fi0aEFw7s43cXmtbUymQqWVrv//ifzpHcrUs05c1+qPnVW7Gb1fjuslhhsUmw2J+sZmrphzLYwqYAqaAzQ2sD3RVgR68Aerns11tQnfmz3Tnzmq4r3qtd2wJknyimY1dizpPmIK7T1IwU0cy+rp6t46q3lRVHam+XTt7uWXOTGZk7coLlvRuyzw1qKw9iQhqan5TIBEFsomU2o2FfvbqPdpbttwuUzI3KFfNeovP1FuFu1LfHroBWm9v9fg+YfXuSmeLn1d6x74ZkeT/aOo1tPjVboCUPXj3Ser1c9SLkhkqKurJ9Hp0U5n6dLOZfxKhV2l76LWlZpPc2ttcCjTI3GCl2BOtHp4bVNu7DiXjfrAW6L9k02I1vgGalmYVr4fdAC2ujcWkX4Ekn2i2+JMj/TLUroahu09amGRrV3rJkrSvXMkU6YnMUBVhZgqkUgE9iRDue5uqYzaVFa19pTIUWU93F1RfWexJfyG5ffakAjY3SP1vOixM/zjF9ZHePdlXovZtN0BzkiWrDzNTIO0K2Hc0EzhC/iLKE10/+ckmsBsr0hQwBRJWwJ3L/keC6ulmTrXK5MhYb0/uM9U2tofy5Xpov7bbHlagTuYGrch0ETwEq/ewZLb7gAJNfAM0oIJ5606BpTYb2plQpfnXADMGBumbTUhjX+xIPBm/UQeu6ipd6g3Vu5nMTmCngPuBoO44l3uyf2XYucaSejLVt97GkXrTuNb9wcYVFEhobpDlYImu2B5k/gKWA51bS0K1liWjqKVZ/0EBd03SWJKppbiUpWNeb5ahwvU4rjZFve1/NBM+nfSKh3uyWY8nQcLqWPGmQH0ooCcR7nWtdmqcrY9aWy1NAVMgrQqkdG4wO3qdCgfCl2nVzurFdwUK/+WeQQvNLbNgZgqkUoFeqaxVg1UqMCB00rRMgzXPmmMKNIUCem2JG8ktuLbYbIojbo00BZJVIIVzg3Np8f/BVcm23EqvhQJ2A7QWKloZSSvQi5WPJk1mCSugAUETVWwk5D3aMDMFTAFTwBQwBUyB5lQg6blB5yfnZzo/uXBkno8v6Oz86IKsiFB7C8LWhj0j4iwopQpoXmk3QFN6cKxaeQV6mQ7dowC/XtnCXyXk2Ft/kGtmCpgCdaSATt/W1ladx/qxnGwdVd2qagqYAilVIKm5gV9gtnT2GslKRKuRTF6CVh4uQKdbdDpZpsE9G/Tg4R0XZo4pYAqYAl1WIMn/0exy5RqlgP79+2tymqM9WmTWk/WhsmPqqcJWV1MgCQU0GeS71irabhQlIbCVaQo0oQJJzQ3yTyw7tWjsLK2qFpyfnJ9rnXWvzUg4HXwPu7hMMzl3c9yF4Ca3bU6KFNDUUv0IsxugKTouVpVxCtgTzXFa1NznBwBcDQD5kaDmO6l9gRNR5BHwEfwAH4P+T6sVzEyBplPALTJzNFznsFwzU8AUMAWqViDxuYGeWsa2iZRWC8yHYSBs69gIV7YebJj32UeqFNC1yS0ydW3KpqpyVhlTwCnQxv0uDTJZU6S2CvgLCaV2QLa2pSda2uGUfiQcDPfCCqAfCGiDv4OZKdA0CiT1xKFpBBzXUD0t0f/yPQz6+wQzU6ApFUh6bnDDBbtnKhKWV2p5qtnBU01d94M2DxvvgJ5wvgBmKVIgcANUc8xciqpmVTEFxlPAnmiOJ0dtNur4LpP6w6GgV2S0uHwDroITQJPDKcDMFGh4BfxkEFcXcd0tNuuaAmeQfVGYsWvFWG5ToH4VSO/cIP9Us36FbbKa6wYoX+XI0Wxdm+SamQKpVaCttfDELZEKalBtRNOvxBWzOr/LNAftmhLuCLXvbrb1+uwAuDkUZ5sNrIB7LafhWhj4pccJ2uYXmURoAMtOkMACKlVgLTJsA09UmtHSN6YCNjdIbnGw5YbL9qtRrxlDObfD6BqVZ8V0UQFdm3TuuBug2S4WZ9lNgW5RoC3BvXS4H89IcBc9UjRz1OiFZgO8ZtfbKarvZgbtZTb+AC1EzZpHgf66sNXK5lx64OAPnr1heK3KC5Yz/1/3GfnWg+fq7m4ca+cn4WUTpHU3ihSusnLymHVJgcnJfQGcBPPCVGDW3ArU/dxglkXWbf/01bt1IypoqZgbvPnuF+8uOM+M8wQrVtbvf5F2/IRfsJnK72baDVC7ATp+V7WtNCuQ5Hc0s2lueBfqNsEqs4HuMr2LLr/D30B3Mr2tiUc/EjSLDzC3KRTI1bKV08278kgWmoNrWaYva8oZFtCkL+e3y7gZ4sV4FngbQYtMs9oocCzF/AJaaF5YmyKtlDpXIFvn9W+ZeZEBWmiG21G/c4PO/Nsb9XJYanoDNEWNthugKToYVpXaKZDkE83a1TLFJTXYE5DfkPoK2BIuhmchA8eBTItNM1Og4RRwbyNosZptuMb1XIOWZdf7gxbuv/ZcNWzPpkBtFWiN8ZWjnpobnH7ePaMuOHXQPLVtcapKy6WqNrWrTIaixHhmN0DHk8M26lCBRL+jWYd6VFTlwACgCWquoswJJtYfNbMmLNxdzf9Rc+FuZevse2Rj7FY/BjQXPAP6bsZkcB7olbcvwcwUqEqBOJOzqgomU2eVv56ttxHca1g6h7PV7r9R83VhLNFNTN2sugQeaVR9rF2mQJQCPTk3uPCqh9694LTtcy3Rr8NGVbcl5twgMq8FJqeA3QBNTlsrufsUsCeaVWrtBoAc2ftXWUTNs42dFOYvMEy9vbn/1Or8+IJ2ZuQdZS4qX5FtbZgPZoen4SfYGT4FM1OgIRToqScO9SBeDcaSg2nnTHBYPbTX6mgKVKJAqRtb6Zgb/MGNs16ZWG2qr9dmYzWp3hPZDdB6P4JW/6ACvdyAGQwzfxkFAneZUrPIfOquIwe3dPYaWfYuJovOwiSyTCNbWt4mxUPwI6wMeqL5JJiZAlUpkORY0xrjVbZgpfVDZfbz8EFFxvk7P7og28WxRDeo2kG/MqvX8HdxLIw7r/PrRpaZKdBQCqRlbsB/YvJEs8z3Lltbcy2tf/Yvc+O5oY5PPTRGN0DVjzB9ZOUxMwXqWQF7olnF0eNuUwfZslVkTSzLskvNtWP8wvOv1eYi0rcSpr8v0QJzqItX2IHwOLzqwswxBepdgRwN0IXcLKyAewMiHBy9HTmW9CHto6CbU9sG8s2LX9cchb0DupllZgrUnQJcFDuiKp2muYFbQGbzN45UWZ3XWlzm7Y+O/GK0sGGfKVHA/VNDjuqof8k1MwXqXoG2YgNm3bcsuQb0p+hccsVXXvI/j996nopy8WqtnmpGXGh46NRyP5wJM8ArsDGsC/olWjNToGoFkhxr6LjtVCwbs3Jx08UsrnGS1WgseQNF1oxQZThhWnxuFhFnQaZAvSuQlrlBP4TMejFZcHpvh/fgZhyBoES8qsuoREpuzEJzNEv9yMwUaBgFejVMS7qvIbnu21WSe3I/FjThLvTDP/vBInAE6NVZTRofBjNTwBQwBUIKFB1LQuls0xRoDAXcja1wY3LhgB7YVh3StLBTXVQns/IKZElii8zyOlmKOlMgyf/RrDMp6re6++3cf54a1p5raP7/7i6sYZlWlClQ9S/DxpGutcirbHHyWppxCtR4LBlXcMGnv0vSr1ibmQKmQDIK5ChWmJkCpoApkAoF7IlmKg5D1yrx9Ivvf1txCRX89HnFZVsGU8AUqEsFEh5LzkKUk+tSGKu0KRBQwG5sBcQwrylgCpgCJRToZQNmCXUaOarcL9I1ctutbT2iQJJjTZFX2XqknU23UxtLmu6QW4NNAVPAFDAFTIE4CtgTzTgqpTzNcWfe/m7Kq2jVMwVMgTpQwMaSOjhIVsUeV8BubPX4IbAKmAKmQJ0oYN/RrJMDVaqat97z/LdffjPmuRmm7dO3VLpgnP13VlAN83eHAm5ylk1iX0k+LU2ivmktU2NJ/i8QKni13saStB5Nq5cpYAqYAlUpkK0qV89l6ud2bfXunmPg9Y61N3uiGUum9Ce69pbHL49dS3vVLbZUltAUaD4F/uiI3WYbS2JLZQkbRwG7sdU4x9Ja0hAKjKIVmTpsST3XO7bc9j+asaVKd8L9j7r+uf12WqMj/6fMxaqa/7Nm/qh5tr1yxZJYuCmQlAJJTs6SfFqalB5pLVf/r8ufvNtYktYDZPUyBUwBUyBZBbLJFl/z0jOUqKdsWagny1DZeq53LK3bYqWyRPWgQLv7Y+ac/9N1/VWB/xVJffeK1+LUjnaH/GamgClgCkyggHsdNsuCM5uPbGXcyN+o0hY3q1iM5sPtwxRoQgXsxlYTHnRrsilgClSlgH1HsyrZUpepI1ij/Y+6Lr/p3WBcivzj1TlF9SpVlVypSIsrrUCSk7Mkn5aWblVDxmZ8q1hw5pzfuz4q4z3mmgKmgClgCpgCpoApEKWAPdGMUqX+wnL1V2WrsSlgCqRUAb31UE+Wq6fKUtdRdVZfq25IAbuxFRLENk0BU8AUKKKAfUeziDAWbAqYArVVIMnJWZJPS2urQqpLy1E7YWYKmAKmgClgCpgCpkCXFbBfne2yhFaAKWAKmAKmgClgCjSLAu7GVrM019ppCpgCpkDVCvSyAbNq7SyjKWAKVKBAkmNNkk9LK2iiJTUFTAFTwBQwBUwBU8AUcArYE03rCqaAKWAKmAKmgClgCsRUwG5sxRTKkpkCpkDTK9DLBsym7wMmgCnQLQokOdYk+bS0W8SxnZgCpoApYAqYAqaAKdBgCtgTzQY7oNYcU8AUMAVMAVPAFEhOAbuxlZy2VrIpYAo0lgL2Hc3GOp7WGlMgtQokOTlL8mlpagW1ipkCpoApYAqYAqaAKZBiBeyJZooPjlXNFDAFTAFTwBQwBdKlgN3YStfxsNqYAqZAehWw72im99hYzUyBhlIgyclZkk9LG+ogWGNMAVPAFDAFTAFTwBToJgXsiWY3CW27MQVMAVPAFDAFTIH6V8BubNX/MbQWmAKmQPcoYN/R7B6dbS+mQNMrkOTkLMmnpU1/4EwAU8AUMAVMAVPAFDAFqlCgrYo8lsUUMAVMAVPAFAgrsCABG4QDi2z/Qfi/4Nci8QreCmaDj+EG4F7FBLYiIf3hYYdPsAAe1YV7EJE2mtBLI2L0ls/SsAz0hT/hDbgd3gEzU0CdqsNkMAVMAVPAFCivQJsNmOVFasAUmnztD9ODJk+XQRzT5Gsj0OTrangLqrE1yNQPHoO7ixQwI+GaRC4Lc8Jn8Cj8F34Db9vgmcVv4P4On4PSfgBmKVEgybGms6WlnWZmU9LUZq3GxjT8tAoa/x/SvlMk/eyEXxeImwP/GYFt790Oz36gRaMWm97+gWcXvxHhagxTnqDNyobGtf7BQOcfhns57A4aY8xMAVPAFDAFTAFToIwCbWXiLboxFdAiTxMnbw/iibNoPJN0yivTE4Md8r7KP7Yny2C4CaIWmjsRfg5MDmF7nwDlV501Gb0GokwTyWthj/9v78xjNpvuOP4a71hiGSlRYQYV7USL2qNheCXUlEprqH34g1hSgiA0wrxjC9VkghaViCVo2tq3RFQMEqK1dKidKWLfl7GOwfd75xy5751nf+513/vczy/53nPv2Z5zPveZM+ec373PK33SKANxEIBArgTuUm3ZxeABivuh9F/J6dEW6cSbR80s+3/Tqcp4pfR2swKZ+KXD9UsKXS5r9mimbQNdzJVWl76R7pQelCZK20jTJI9Lf5EelrAaE9AXZJa6P1pjBHQdAhCAQEcEhhkwO+I0aJlmZjpkr8Bpmbjs5TqK2C4VubvOvRD8NBWXx+kFquTIUJE9kvZgzpfWk2ZIa0snSPdK6cnoZbp+WZok/VL6qeR+rSJ1+jifsmJFEShyrFmKR9mKum3d1PuoMltpG9GFF5o3SO3GGGVpaPYgrizNkuLY0DBjg8j/KM6L1HbmBbIXmR7PPD5eL6XNY98fpffTkZxDAAIQgAAEINCcwITmSaQMKIHl1K89Qt/mhdBeh3a2nzJoPj/0hOSJ34qSF5t52laqLE4k79D5RtIh0lkhnKLQE0IvPLPm+FHpWGlD6SrJtqu0RXLGAQIQqCKBi0Kj/XTC1AI6sIPq/FWo9xSF2UWmk7yxtbXUaOxxOlYjAmxs1ehm01UIQKAvAvwdzb7wVbLwbmr1JOlV6YjQgx8r9PuQrSwuRs9Xpn+FjDGuVblu0uL7XW+pkBexH2YK+xHY46WjM/HZSznPkkVnjN80nhCWR6DIyVnwlpbXOT65SAJ/UuXvSsPS2QV80F6hzvcUXlJA/VQJAQhAAAIQqCUBPJr1u+3xsdl/qOsPSHGHPsY3IuIfAfKjqAul66S/SbadJD8Wl4e5Hj+eZjtP+iw56/3wUqoo3/MUDE4hUDECH6m9Z4Q2/1bhtC7ar/2NIf/7T8txafNGm83j4YLkjAMEWhBgY6sFHJIgAAEIpAjwdzRTMGpwupr6OD30My4WY7i34ic2YRA9l3cq3Z4Fv2/lhaB/cMO/+pqHxcme6/J7mf2aH8ON9nQ8ISyPQJGTsyK9peUR45NTBC7U+Qvh2h7O7GIxlXXMqV8TWJTRV7peK5Urjj0vpuI4hQAEIAABCECgTwJ4evoEWLHifkTMi0lP2PwjGbb4q61ehO6cxIw9pBeT8c8NfKwst4ZscRE6tlT3V3Gy55Ivdl98TIn1dfXXEPOGwofHpHIBAQhUjcCXarD/ZInNm0jeGOvUXlPGrLz4jLZmOPGjsxgE2hJgY6stIjJAAAIQSAjwjma9vggzQ3fjgtGXT0qPhfiYHi6TYEcd15A+l25MYhYfoid0c136TwP0a2kPQy8Tvj+rAbdI8yT3yT8I9LV0sLRAwkomUOTkrEhvacnYBvXj71bH/O8zLXsaJ7fo8LVKuz+kn6VwmRZ5Y5LLeGxJa4quvQEVzYtQW1xwLr7iCAEIQAACEIBAXwTwaPaFr1KF7eXbOrQ4vdB01DUhfjeFK4fzGESP5W2KsCcz2u06iT/WE/M4bUSytyA9gfR59DDqtKG9mortZcI3ovK/ljaW/FjdPZI9H24nBgEIjC8Cb6o5/jef1iu6XtimmceH9B8pPFzSHkPf9nyoYb2+a6KCWhBgY6sWt5lOQgACORDgHc0cIFakivRi8Ga1eX5Kx4U+LK9wj3DuYAVp93D9G4XpMk+FdCfvL3lxZ/O7m/YQpCeQPn9HamVxsuc8vUz4DlW5baWfSO7HiMQjs4IwXqzIyZm+fLPHSz9pR0cE9lEuexbTWlfXXoC2sgeU+M+Q4WSFHqP6tTj2bKeKehl7+v18ykMAAhCAAAQGksDwQPaKTjUi4MVgNHsDmtlMJVwWEr3IjBM5f1ealVtHadOke6UHJU8eu7U42XO5gyTX1Y3dr8z+G58YBCAw2AT+oO5542t1yY/G92uXqgJvVPl99NOlAyTtiyxh/vVtj1P+FVysxgTY2Krxza9H1++uYDdH1GbaPQ5v3DAD5ji8K/k3yY/M+tFZ2+ZSfCcziQiHYxSeK20vTZb8GJsnXLabpD2Ts7GHibp0vh9Iztvt4lBFvrPXdebHXHeRvNidI/1PytpKipgqPZRN4Hp8EyhyrNGqYJZ6Pzq+CdC6nAi8oHoulDxm5WH/ViX2kv5O2k+aJJ0oPS3pqzW0iXSCZC/sDtJcCYMABCAwiAQ8xlXRZlex0WpzVdvdMe7hjnOSscoEvHCzPSs9kpwtefCP+5wjTZDs/bxC2lGy/V36Kjkbe3CcJ2iHSZ6kHSV9IfVqJ6ngdMkLWHsoj5RulfzjQJ78eaJ3qvScNCJhEIBAPQnY83ig5E2uVuanMhY0yPCl4qZIn4Q0L1onS7+Qdg3yawD2ci4j2Vym3aO9SUYOg02Aja3Bvr81793cmvef7udMgHc0cwY6Dqvzom3v0K7sjwClm+v3KO8JEfZO7it5kuXJ1s1SM7smJKyi0D/G0489rsK/l7xYtefSi913pQ+CLla4pvSyhFWMQJicFdLqpWqwK1gIuOIr9eLMFsPFV+2PC5XF3sSvpUUNsnvzyRtcHp9s8xcH3x2fDGcew1ZoItcf7TWdTJO8kfWE5E205SUvMj+SrpY2k56SMAhAAAIQgAAEOiBg7xU22AQ2UPdWlTxZa7XQNIUrfZBtKHnSZbtBirv+SUTmcJ+u/x/its+kNbuMk84YpvN5MbmldIfkRabN3kzbPMle04N9IYuTUZ83qsvxGAQgUB4BjwnehDq7yyZ44efNphWlj5uUvTbkWU7hmZk85+pa+w9NtazSPs2U8Rh5uuTxz5/9M8leTntNvfnmBSgGAX+pZoMBAhCAAATaE+AdzfaMqp7jMXXACzUvyuLuf7M+Xa6E6yV7EexVtCfgQ6mV2SswVXLeRo+oNSp7hCJPlOwpaGT2bE4PCWsp9GTzdSmb35NRp3lC2WoxrGSsbAJFTs70JZyl/o2W3Uc+fwkCHnfajSFLFAoRnfyb9uLQyts+V4XRK5p33dQHAQhAAAIQqAUBPJq1uM3JAq3dIjOS8GLOC0ZPEP3IqheS7Szm9eNmnZgXsq7bYTvzI73PSNlFZixnr0QnE9KYnxACEIAABCDQM4GwsdVzeQpCAAIQqAsB3tGsy52mnxAomUCRk7MivaUlY+PjIQABCEAAAhCAQCUJ4NGs5G2j0RCAAAQgAAEIlEGAja0yqPOZEIBAFQlMYMCs4m2jzRCoHoEix5oivaXVI02LIQABCEAAAhCAQPkE8GiWfw9oAQQgAAEIQAACFSHAxlZFbhTNhAAESifAO5ql3wIaAIF6EChyclakt7Qed4deQgACEIAABCAAgXwJ4NHMlye1QQACEIAABCAwwATY2Brgm0vXIACBXAnwjmauOKkMAhBoRqDIyVmR3tJm/SEeAhCAAAQgAAEIQKA5gWEn/XzGHM3Tkr96P9thnLTFiSHXyR+DH4LHEN8P/n30PD4IXfL98RhThG0yY86o62W8Yrzy94DxmvG6qPEgmTANDY26fgwCEIAABCAAAQhAAAIQgAAEIAABCEAAAhCAAAQgAAEIQAACEIAABCAAAQhAAAIQgAAEIAABCEAAAhCAAAQgAAEIQAACEIAABCAAAQhAAAIQgAAEIAABCEAAAhCAAAQgAAEIQAACEIAABCAAAQhAAAIQgAAEIAABCEAAAhCAAAQgAAEIQAACEIAABCAAAQhAAAIQgAAEIAABCEAAAhCAAAQgAAEIQAACEIAABCAAAQhAAAIQgAAEIAABCEAAAhCAAAQgAAEIQAACEIAABCAAAQhAAAIQgAAEIAABCEAAAt8DgW8BBRwavCjUTaQAAAAASUVORK5CYII=;" vertex="1" parent="1">
          <mxGeometry x="-278" y="1030" width="922" height="197" as="geometry" />
        </mxCell>
        <mxCell id="tVIQ4qI_l5tq1dGleDvw-38" value="" style="shape=image;verticalLabelPosition=bottom;labelBackgroundColor=default;verticalAlign=top;aspect=fixed;imageAspect=0;image=data:image/png,iVBORw0KGgoAAAANSUhEUgAAAH4AAAAzCAYAAABR5bw6AAAAAXNSR0IArs4c6QAAAHhlWElmTU0AKgAAAAgABAEaAAUAAAABAAAAPgEbAAUAAAABAAAARgEoAAMAAAABAAIAAIdpAAQAAAABAAAATgAAAAAAAABIAAAAAQAAAEgAAAABAAOgAQADAAAAAQABAACgAgAEAAAAAQAAAH6gAwAEAAAAAQAAADMAAAAAs3q/iQAAAAlwSFlzAAALEwAACxMBAJqcGAAACIRJREFUeAHtmAmsVcUZxx9VQFBRQUQEgbiLdY01WkBoBRo3NLjXqBBbjW1E64Zxqc/Qlaq1YkVFocbG3ai0aarVpkikbrWmlli1NFqUKOIGClJ52N/vvpnkeDx3fffBg8w/+d3Z58z5vm9m7r0tLUnJAskCyQLJAskCyQLJAskCyQLJAskCyQLJAskCyQLJAskCyQLJAhuTBbpvTC/TkXc5isH3w1XwlQoTDaPtVZgLQ6EZGsMkC+E+2ByapcFMdDFsXzDh9dSthJkFbV2+atMmrrAfcx0PW8La3Ly9KU+BxfAk7ApbwH+hWRrORG/BJ3VOuBn9twljBpIOgiFwDBwGBvHhMBay7/Ux5V7g+9SiGXQaDx9Adp5qY32+wfwOfAvaoMNqpuN9IXVXe1L6dKe0wrEwAD6H00D9CV6CrWAF6IC+MAHyxvTFrfcZRY41kNTrMMpMTs5tYD4B7+baxlH29MlL57wMz8L7sC0shSgdr15sT6p+rqHHKvgUanF8N/qNAbUIJkEbdDkdwYp07MTMyvYLdRrwXNgTNKD93AH3wiNwJ2hA678Oee1BhW0dxR2XlzvKgHgUboB/wxLoA5U0lUbX49qaLdc0E5xfp+8ITVUzd3zRwtwpyh2lo5VHfNRJMUPqXbovLM/UxaxXxKnwHrjjNUhWGv82uBHuyTaEfG9SA65od7r7PNKjNPIBkF1HD8q7wTJoAxUDw3n7l2paWnqSejq9EsqNJD5rNvi+zuOJ5Ps3VR11vLvTF9VIw8PKdMJosP75ULc76SngXfpgqDOZDBrZABkBqugYXE39XaXW4o94/LtbnyruUqrdhE+P0HzgVBhSajqEz7+U6TQ/V29wxEDINVUtaqe7YX94DNwYH0KX06OsSCMWoQG2K2jbO9R5AswJ+c8y/WIAUVXSSD4NBoNjSRk8CVzDx2XaHWcf5zkOsvJYzeohCm9kKmzfC5z/ATg74BVl3dWZOo/lhdCIvsMgA9g5fwUGaaepozu+lZVdAx/BqJC/jHQBbAFRvyFzE/QDnRB1LhnRYRfDdMhrBRXuUnfzM/lGygfDgaH+D6R++y2SzvsGOF9UTzIa26Aw+FR/6AFvgs/1KD8RlLv7llKupWVr0gngDv1XqPs2abwCQlVNyZn0mgWu4ayQJ+k8ddTxf80sTQOpV2BeKdf+08jsUngu1GUDQofnlY/0VaHD70in5TofRnkyaDAd8mN4G7xmNOQ/4SegzgEdn71KzLvDl4F3d29wvpXwMLiW7cDA7kz5TV9dCa6709VRx1daoEfkVqHDGaSjQz4+0/vra6HOZHDIxzGxyVNCxdS8DrkEWsGgcq4FoIaAx/B+FpBOvB5iYGbnMWBOgKjzQ6YX6QswO5R3CWm9ie96MnwArqOcdg4Ng0gNznIyMLeBe8G1N6zohIYnKBjYjbrT4Ao4Cl4E7+e4u7uTV+7k7LFsu05cDVm9ScG5ngd3349gJOwJyvafgSeJ7ADu+KfhPHgW1HT4NWS/rVsftRkZg0n5DreF9HYrGpSOurOOsfHqqzbkj3RYVq1TpfbOcPwcHrglLILXYH/ISuesgLngi1bTYjp4hCt3+nhwV78Fb4DB45yjQDm3O9d7ty9EGVD5oIptpjp9YKhoI/XenxXK80Jab+IunwReFebLyUC+Em4CT6tyMpDc8eWCt9y4L9U3y/FjmNndpXqBR+Q0mAxHgjt+Lage7Unpt/PNIe9u84j/LTwY6ooSHTIC4tHp+n8AV4Pfhu8BHfgpGBQGyrHgDqmkoTReCktgIewOZ8DjcAuMg0a0hkF31DDQ91d+J/FnXJeXd6uL1eiR0zOr/il5d6DHuO1G/eIcGtu2/4E7uRbtTKerYBE4dgGMhx1hLzgYfgm2eaWMhXIyOOaBfc+Eh8CgURfCBbAL2C46U2I5X/d32urVBAY4zzn1Dlxf/SfxYBf8LrhbzU+EvPwS5473p09eZ1HhuJvzDbnyrZT/ATFQHFMNg86AMuDGQJF+QaXzGDzdIOt4iiUZTPYxQK4IPB7qbszUee++CvVqg3O8L3gR9IcjQOMUOZ7q0n1p+zEWgvqRaqylYL6SrqHR8ctB486H+2EG+KXNNoPvEBgGXjnqRLDNINgWsvohBdsMjq+GhiLHHxr6/Tz0MZka6vbI1P2HvO9TrzZIx8eXrOZ4ja6DdZzO6QFzQcOfCtWkI3uHTgNIvcvjL4R4FF8e2g3Es8FnqFY42UxO+1L2FDIAoooc34fGsbBT7ERa5PjB1Hvd1KuN2vEa4wDwG648Azq92hFPly9oGKXXwLFPgso73lPA9tdhEniP16oixxeNLXJ8Ub9a6ta54/2TZV3qBR42DdxBB8FqmAm1ah86PgU6Wqd/H4o0h0q/4Q8C8y/BcdBV5XeLdapmOj4eq+VeYBgNHqvTYS0shJ7gHzxPwEToC0XyCL0V/gY7gPf9N0GHKn/bZmWAnQI7wQ2wGzwAz4HB0NU0MCxIu6wTbdqEpwxnjl3h9DBXW0i9k93VI2Ak6CgdvQCmgE48EC6E48F2tQgeg+9ZQN6ZL8Pm8DZ8F34PqrX02f5b3ezKUI7JYjLnwR0wCzz+34FKMoCrBbHjo+1iWmnOorbrqBwKa2B86LA0pBtE4h8kGlRWgS+jWiHWm+rwk6BIQ6i8FpaDgTMBshpHYTb0y1aS98+e+IzPyBto5eQ9X+5EyY55moJzVTt+dZzPHg2N6AIGxbWbzofujUy0vsYY8f6cmgrxJ5FrcXf/GWbA3lCL+tDp0Fo6hj77kE6Bo2FAqOto4snjCVRNrtNnew01oq0Z5Gk0EbJ2a2SuNCZZIFkgWSBZIFkgWSBZIFkgWSBZIFkgWSBZIFkgWSBZIFkgWSBZIFkgWSBZIFkgWSBZIFkgWSBZIFkgWSBZIFlgfVng/7+GA95ig5aKAAAAAElFTkSuQmCC;" vertex="1" parent="1">
          <mxGeometry x="40" y="393.9" width="126" height="51" as="geometry" />
        </mxCell>
        <mxCell id="tVIQ4qI_l5tq1dGleDvw-40" value="" style="shape=image;verticalLabelPosition=bottom;labelBackgroundColor=default;verticalAlign=top;aspect=fixed;imageAspect=0;image=data:image/png,iVBORw0KGgoAAAANSUhEUgAAAOAAAABNCAYAAAC/r2jRAAAAAXNSR0IArs4c6QAAAHhlWElmTU0AKgAAAAgABAEaAAUAAAABAAAAPgEbAAUAAAABAAAARgEoAAMAAAABAAIAAIdpAAQAAAABAAAATgAAAAAAAABIAAAAAQAAAEgAAAABAAOgAQADAAAAAQABAACgAgAEAAAAAQAAAOCgAwAEAAAAAQAAAE0AAAAAGWFLJAAAAAlwSFlzAAALEwAACxMBAJqcGAAAEuNJREFUeAHtmwmwXUWZx9kxYQkiRJAtYREIMKDIoiwhIAiEbUCQVUEYZBkYSmZUBExGWYqpkXKwRitQRmVRHPZFRBjCsKosgrKYyJIAYd/3LTDz+z1OU58959577nu575HQ/6r/6/66v17O/3R/3eemMs88BUWBokBRoChQFCgKFAWKAkWBokBRoChQFCgKFAWKAkWBokBRoChQFCgKFAWKAkWBokBRoChQFCgKFAWKAkWBokBRoChQFCgKFAWKAkWBokBRoChQFCgKFAWKAkWBokBRoCjwIVBgoQ/BM87Vjzj/EDzdNoy5GHwJvj0E48chF8c4A24K14DLwhlwFmyHT1N5FrwKvtLOsYd1+9O34z8C74YF7ynguxwPp8K33it6/6/v+DB4I/zf90s/RJlh1YP78O/Ch+B50PKhwMcZ1LlE3tFhIm5SF71t7oej4WBjLQZ8FaZ5n09+6cGexAd0vMsrXV4kPQ2uVs1zQ9JnoJpdCBeGH0q8xlOnhWP6HFykRglPmZWhp9S8NfWxaAGMkXBNuEqs6JC3nYEgzueUNm2cxy2Z/6PYY9q06UXVNdkcnP9TcLcBDKbOq8MR/ejD96fuS0DnsA/0puM7XBEatCJXwl4PjoP6fwrODhhQvVXF9/kktvPwphLLp2AvCj8U+BxPOX/1pOn0UAwX/wbQlz8JptNkffJRLP3cuEb9nG9kvjOwOyGNo1+Kio73NDQyHgUPgW7QHM4zzs28fRhhB4KlaNw0KruYz4X5PLT3g02QL77jaJT6U1MDi++qE18O7c4hPz3Yqb9O6RW0aQevjk1wNE5xrHewDQZLwpuyOv3+G87V39FGnhSt9yUv/F5JIj3RVzLPPF+vynzxJ8N1Kzv5dZP+kbat4Ma7DM6CKeo+QD71b1u/T72+WHYvHA9zTKAgtUmpC3HL3LGh7eZzTvb1PHwQ3glv68A0dkynt2ljnz6vQcyg9jGYcByZ2E9/8v3dgGenSdSkX6PMjTQZ1gXE2OTPGHHe3wmVfuZcktXr+ys4H5zrsAxPpHBJkGnkPQXjFe5+bEV9CCY/06mZbdkLLejCj21/i12H7Sn0FE2+zkPhnUMsOyLYqfyrlOU4iIL4fPoaQHbJHRvYRuE01mCmS4e5DeUGPC3MI2a/lelyOfbw6BDyO2W+Xj3zTxvX30WZ35vYq8O5El4t4oLaDzvfgHtmPi7qw2Bc3Bdjt4JXqTiGEa0OK1PoBom+h2PHDeiJ89fMZyr2OFiHus06C0e/f7qFJ1+c22Dk4wZcm/ENKp74G8G14FEwzeNx8kcG2yvqGKjvDtCT6vNwPWiZ10avym4YA0zkhtipX9MJMIebJ91Eou/NlI/InA3if4HRz3dTB+dzC9TX4O2chwxOvJc4gc63CwMYZV8JttmjM9uo9yP473BYVadYTZH/9Jzaea07FR6TCkhPhAsGe/2QN+vJfDD8nUYNfkjZKOgVOmEKGTdyhCeti8ZN1goutiWqSqPyl2oct6FsV+h32cPQ+d0Aoz6LYp8NX4DWy19DTwRPAOtHwo9CF2CCnwYyYnQwfG8GqwTte5PRZerzRbwejSrvNXkr+Bu4VFVm8ll4FdwavgTFgTD/TnRjbW5lDdL4vg8DhxRu+k9U9Nm2gHM8ruUJXCBNOAM/I6V4DaY2F/WV1P9xQSU/07Pq3fpK9TVyR/92+X+tfH1hM6Gno5E2chp27CP6mH8M+sucJ/pysBXuoiL182wLp2OCT/I1iES4iFJdSu+MDm3y61Dnwv0UXBHuDVMfM8jvEewHyC8JV4Mbwx2gYzfBujilfk2/0abR6tQZRKK/eYPiwnAEfBzm9QO1b6fPuQJGsaZi7B+euBcb0O73g03m4wvwitXEt6nPCvTXCndQkfpptQEPCD76uvDqNrUnW+rLjT8WNsF1OKV2/Un3bDIIPt1sQLtcHt4L45wux/4IvCwrjz4DyQ/KBlyAyfca1zDAH+BG8PoqNXIlXErGD2gFPjMV9jA9m74Pg0ZtX9C8sA7ptKmrG4wyNVkVPgPdkF4pR8MItfOkkhHxmdyMb8FNoSeU332fgD+HXksj0q/Ssayb/NPdOHfhOxPfzeAVcEM4CR4Oj4eevDkeouA7eSH2z2DS5j7yJ8CIxTGWhctAb0o9xwI9HOEk+l4FGqVdQNdB7/Pe1UdC4eK4Gb4LffifQq81X4YRn8E4LRaEvFGwCXwhzsNvp4vhWtAXeCxMP0Y8SP6/4OZwONwLih/B6dAF+g5sCvVdArrgfWa/85riIBx37OB8MPWyHbyiqXGOWynIN+BTmZPztX2C9endWZbbzyXHHqS+O29TX4AXQAOU77QOMymsC+a+x0WqBm7SOp+qes5PbuQR+nsFWIG2r/WzfatvQE+B/s5nPtomuKEWSkaWGl3vhOfAfWHa2GQ7Ir+Cerr1d75N2o2rmdH3wpgGo90ye3ywp5E3QMSx/B5sgvwKahDsBvvg/CaMY8e8a68O/nCU/K6ucxjssgUGe8A5dLzRzHsXaNTdBH4FuslyjKLAxSX3hr5sT59dYX66UNQW71a1z5PK16G/XHqaJjxNpq7fMZQbDIT9+KOR73oxaFBYEKb+yb6P/HSPnwopIL7vXJOxz2/A7aCnYZq7myXCABthUGuK43H8buasNsOysm7NETTwWzN9bz7SbQf98e/lBpzBhBTWBeJVxpfwORjF91S6EPqi/anZxeEiyV/Ys5S1imq23RY2xUs4vgBnQRdzvMK6YaZDF6iL3V9NxaHw6L7ce392JqnbgGsFH7NuglHQsbrF3jRwQb8RGn6efIzc38KeHOpTdiqZ1SvjHtK/SxWkzslnc4N0gosywc+FJlgHpy2aOAYf59MEXrfzzae2e8CfQteQMEhG3foK+RMDilomH284vvMEdT0lGb1Me7kB962Z+BTK4gZ0gU2C/wNzpAhuuZvPE6gObpImi2Nd/J6EceGdjv0PMOGPZPzeTDCAfAyOhHEDuuG9hhpAIvIN+CqVm8M4ZvSPeRdBhCdOjvmzgu2wh2dlms43IS4sywwyTeaj73L+qWDgaoKmfce+loxGm7ybbBX4L9D14bMcCC+HOeJmy+uS3crHfgcFvdyA+QO4sMdlhZ4+V0A311VZXRQh5jO3xqbXsIg1ML4aC8ivD78OT63KPSnlg/BRmBakp/SW8EoY4dUv4jIM2zbB4sHJK1UdHDfiixiyHeIp1s6vrm5sKJxK3oCZULfxrXs+OVSpJ/ZDWZnBJgU3A9zDWX0r820qvgmvgWfBf4NnwjkWg7kBvbvXYRiFl8LdoQt2sHAiA+UnimN/H3olivM1AFwIj4AJO5PJN2B+Arr4miJulLrTz35SAGjap34fh77nbq/Bo2gjE/5MxhM9YXky5yQjpPkGPJm6a0P97MiuSieuGd9VHW6jcOuaiicoS6feDeR3qnxcB0vBZeEy0PaDgsHagNvwNOlh6x5MUS6AfvecX+cwm8s2pr9d2/R5HHWeSP8UfJxf3IA7Yh8G0+lsVF8TRkyJRoe84yW02oDP4nAznAmfgq1OSt+rgc1Aorba3W5Ar3gR12G8EwvIL5bZmp5SvcTKdO7J56bxPT0Jc/gbgjeXHGqQNmDuo7bT8ga9tgdjAy7IQ/ygwYPody78CqyLrA26aOxySgPPI/F5BR5b+RoxfdmeKMLT6NPwdg0wCg43U2EGqWwCv2NdUAnppFmSgsOhG+4xOB3+M2wK369XPTV1vpfANF+yjfE7PO+vvM8j9bbSFClANfVv52dQmAwXqZx+SLpHlZ8jk8HYgCegzJot1HmJ8ufgqKreRXgS/AVU7IQtyVybjCxdKLM7mQfhsHknp6r+26QvQiOu3z8Xw6/BhE3IpAW9biqs0m5OPzdJRDoBV6Dwu7FiAHmvhqd32d7N43s4ObRzwfvd5pVtK/ifcLBwBAONDYMZCHwHN4UyswvDXFPL43rPfYZR73OtBGfCP8E5HjvyBC5cX2QdjarrwJer+ltJvYcLF2Fdm05lZ/W1rv8zluK32vR7D3V319RvT5nYD8bxDRQJPyYT6/ZNFQ1S+49t0w3ATR3LB5JvcmpNDON52h8DfwXHtOBRlMc5rYJ9WFa2BfbswKp08iqM492MnTbV01ld9Os2fwZ9DQrS5Hsx2Gfo9EwYTzIX7GpwA5hwFxkX6y7Ql9fqu4aqAcEXeCFcMPTyGHkjn99Kwhd8CDQQzAeFJ9kNfbn//991/JZM2C5lqvTazG5nbpRV3lvZs6r0GdJH4VowvrO3sX8PI4ZjrB8LyP8MnpeVdTJH4nBS5eSpN5Twnf0c+mwJL5DZCyaNUvnsSN2wczRcmAoUI89T2EvDW0L5/eRbIZ6AXvM8Teu4J+VxnLoTcAl8pmZ+ttkWOofU3rkJI6BlLtqFYMJHyPjCk7+p34RjsjKDSje4EufYp8EowatSwnFkot8T2CumStL5od950cfn8xuzCSbiFNt2m+/2BPS9HADVtR1+QmU+l92yBk9nPm9g58z7SPVvZm27vapnUxl681CmkD/U31fT6s8GvKjNI7m4orB1G/C3mY/+k6o+6zag0f94mE7ByrUvmcbfON7O2EdnZfGbqa9Rmz/eEPwOjn2u1sLf0y/qZ5v7oN+Kbr7JMPZjv2vDppiIY2z/MHY7vpj5d7sBPfkd70l4AjTAxhsTZt81OM7J/I+tyBA34I1ZXTJfIZP6ujoVVqnaLgs3g2tWZXN04kNcD31grw8JcQG5+FshnoAD3YB7Mch1MIn/APl0KtRtwFZzsvwCmPoxdbNdk5Vtgt0UW+AY+/NaXLfxU39uTk++2GYGtlflWOZi2xh2g4k4pz4ebNDQDZP8TbvdgOoU25v3l+UEr77vwuhzD3bdiTnQDZjGHNS03Yse6ET+Qgdj4e7wyIF2NsD2v6S9c9kBzoD7Qxdof3B31mhV7E1D2bPkfx/sTtlvZg6/wHbRtYIn3lbQBZewEplxySD1hyZvHN3MIzQftOzobKR3sF034rPQwD2vRoW3SfeFXh3nCnjs9hJGrvN7OUCXff8afzkQuAFdAOdBvxWWgl+ECb8h40JqAn/l3DZzPDOz60xPgQPhpXWVlPlj000t6poWuzn8Z6J2GN6usqqLGyi6L4xxVCwg/1f4OnRd+gz5STeBsjtgL+EPPr7TUXAGfBzOVRiKK2g7AeuuoIvTYGu4MlwExkU0DHsETJhExkCT+KVUUaW+0FFwczgeJthn/oNJk8U1jnYXwVkwjVmXvkq9wc/r92KwCSbiVNdX0zI/Ow7O+vBEXweuBNeAnt6Hwukw7/ccyhKOIxOvnzdit7uxeSOI/XkLyBnrzef1nrDRxzn0FL0+AbuZvIvFBW/EeRm60BM2InNGMrI0j5LbU38l9IcUX8oXYLfYhAZXZI18MXWIm9P6c+Evg2Os9wUvVNWdSrpT8DM7IbM154efhGPh4XBt2ASeTv5SKN+EU+A0ODPjY9jOSyzyXtLvvwYmT7EIA4DsBDfDycHpBPL3wbOhN44vQzdkK+Sb08DXCU18OvUxx9XfyoxTlHkwzP7OUJ7qB5pOD/23yjqHNM5tldN2oSzVzY7URSaMrHl/V/XVvPdDhifEJPgHGH+Mytto3w53hRvDq2GdT7uy79Em4Sdkkq9XweU6cELwt53BztuDmzr10zQ9hjZ18Nn8MaYTDCJNx2rq1/MTsNND9aL+3iDUc2GAodqAj4f5pIDQ6w14CGOeB1+oxnbxjIHCE6vJArkZP0/7HBtScDr0+61TPxfj4wmboJ3aeNrEuuQT0xODv+3S9Xs98lPgrKw+9R1Tv8nHwoHA0z72+SfsYf3gorQZDTeBu8PVYE8Rr0c9HSh07oJfprIVzWuAP1r8B1wBPgndmCnyk+0KXkk/Ch3jRXgQbAUXmNebBSoHv5t8CcvDfeAj8GH4FHSu/YF9e7VbFa4ET4EJS5M5CT4D4wkwEXsCzPEKBZfAydAF3g6O6QYdDw0oI2GEz7QKtM+E68lslgzSZeETwc6ze1EQr9GnYt8anPwxwzF8H3JhaGDwHduvVPOBwnftukq4j8wnk1HSv1XAa5iLOdGXNFRwo6V5pNQNPNQwMNwFnZMB4kJoRB4G+wO/jzyVDoVnwmnwH2EOT7BjK36b9IOgRT7HOnt1CtP7S5r5zB94DPYJ6HgTYXqxXnO034RDAV/SVmFgr0zXBnsosxsw+BjotdCTvKC1Aq6nA0K1Qd7v2YKiQFGgKFAUKAoUBYoCRYGiQFGgKFAUKAoUBYoCRYGiQFGgKFAUKAoUBYoCRYGiQFGgKFAUKAoUBYoCRYGiQFGgKFAUKAoUBYoCRYGiQFGgKFAUKAoUBYoCRYGiQFGgKFAUKAoUBYoCRYGiQFGgKFAUKAoUBYoCRYGiQFGgKFAUKAoUBYoCRYGiQFGgKFAUKAoUBYoCRYGiQFGgKFAUKAoUBYoCRYGiQFGgT4H/Azp9bptzRK52AAAAAElFTkSuQmCC;" vertex="1" parent="1">
          <mxGeometry x="16" y="163" width="224" height="77" as="geometry" />
        </mxCell>
        <mxCell id="tVIQ4qI_l5tq1dGleDvw-41" value="" style="shape=image;verticalLabelPosition=bottom;labelBackgroundColor=default;verticalAlign=top;aspect=fixed;imageAspect=0;image=data:image/png,iVBORw0KGgoAAAANSUhEUgAAAFQAAACJCAYAAACyyx8wAAAAAXNSR0IArs4c6QAAAHhlWElmTU0AKgAAAAgABAEaAAUAAAABAAAAPgEbAAUAAAABAAAARgEoAAMAAAABAAIAAIdpAAQAAAABAAAATgAAAAAAAABIAAAAAQAAAEgAAAABAAOgAQADAAAAAQABAACgAgAEAAAAAQAAAFSgAwAEAAAAAQAAAIkAAAAA9YJCnwAAAAlwSFlzAAALEwAACxMBAJqcGAAAET5JREFUeAHtnAm0VVUdh8UJQXBgEBQVcM7UFMUZeAVppanhWGY9h1LInDAnUjB1mWammZVDolmUFk6osVY5QZIDDjmiaOCEiiAqBSiifd9jb9sez33v8d69z3vj/Nb63h7PPvv8z38PZ18Wyy1XqLBAYYHCAoUFCgsUFigsUFigsEBhgcICbWyBVblf9ybuuTLlKzRRp2aKj6Gnj8DYCvV4BO1+CK+DhstKQ94G4yCvPFu/7OkVy9yiD7Q1PJbT7ink9YS3YFGmfBXSq8HDcE2mLE16rfoJvNcQ+/ifziQ3gw3gVvga/AdqSjvQ231Djw8n1IP2CunrCI+AdjAZLHsnBx/asisgqzoy9g+ZBxBabw/oAU/BN8H2o8x/EKx3L6wBNaPl6ekcmA16Rz34ILvCTiG+gHAbuB1egDytQ6bX6XmpViXx74Betx9Y70tweoi/RNgLUnUi4dRj3UdB728TaZDW6AMuvhS6wtGZhk4NaT3Uh3s3U56XzA5jPXc4aNirIfbX9DDQ231xr0AqX4KjxLl2IsyHmlEXeuqD6aUaVa84CjT2gxB1I5GmPPScWDkT3kTadieF0HZNj4TNYRpMgQcyPJtJP0R6BmwLFVE5FqU36ZleuifoqWoW/BkuM1EGnUAba8HfwelkJmjUn4HD3cVKb1wEqbKe24FCX8T7aaVyxltrUIfVIHCIjYX45ncjrsdYpgHOBOWCcUND7ON/HMJ5GkKm12gwvXcgKOfFy2EPWBn6w/+FzuMpfOONEYe5Q9458s4c7gttZIf8uJDfWPuOBuWi5SjJ061kjodv5RVWU97qdEYPah+YTujDfwH0fufXdUC1ZA7tx3V18DnYElxgbP9o2Ap2Ab14eZgLb0N21LUjbx543fFQMzqEntppcUh2h1QtMWh6fV8SzpG2PxqyuoYMy1z1U3md+S+mmZWK+2bLIds5LWlIj7ob1k7yWhv1Syt63yjiIzIN/imkB2fytwhp98E1o4PoqV4QmRDizxKuB6o1Hmob70JsP4Yn2nCQi5OL110xI4S+aOsfmMmv2uSm9GwOuBc9Fez8ALgqxIcRKg3qRv2iHGLd7KJE1Yb5+V5C270+hGcQRgOfRDxqLJGF4PYo6joiXuu2q+plJ58HO+yEXx/ibpVWgi9ClAb9AKbn8Ap5tnEOZBXnxlso2A+s56enHw/GnwYXReU0YF687wrEZ8MTUBO6l176AIbOo/VgWoNm1ZIhfzKN2J7evy6kBiW53AnQ1UjQ7oTW/3FI2w/TF4d0xYPWLkrn00Pf/qGg95VTelec95wHX85p/ELynG6iHg+RwSGM+9LbYoVKh3HVbOl9buZCqYQW0+i2MATuaOYNZlLvTXCuVhrU+D0m2kKtNWil++hw/etS3mRz6r8O7j8/C75wF7A2UaUN2pun2AH0kp7gN3tcMIh+pLgCb0zO3uD2pzle5Qpv3QWQVZzHnYoOSQpXJ/4q+Flb9TqcHupVdaGn2f2pZc3hrnB9Njg4XK/RVXPayqszfsnl5f9bbg/tHLqoF6g74QvgvOb+sCm5EK0JpepapmLo8NZD55vZDLWjjn0r9wL60a3LbdB/0/IUiA84i7iUS1Np6DJ4LjT4dAsa9gUUKixQWKCwQGGBwgKFBcppATfvHvUVKpMF3JO6vzwZ3G8urfwu91R+FDR2qNOHcg+2Pe7rDf+38ujtDfDLZVILnvLb4doJOdd2JO8U8EtqPfAeHpS4kW9TlXNj/w16fiDMhfdKPIXnpn42+oVzeU6dlcjzS+ZKuD1TbrvKU/monkRGwz7QAzRk/G73UMXjPNubB6tAF9gLJkJFVE6D9qGHdtavpPR0x9P0NK1h9Bw91k9IH/Z9UCuDByh/M5FRrOPXWJQGPRKmwjngdY4C5aH0k6AhjW8JfSG2Q7S6NZzu6SG7Zbp5LWmNEE/RY7GGtr7e3D9mEmrUvDn2K+RbfyhErU/EvPNiBmGnkHdJkmf0ByF/i0x+WZPl9NBFJXqmMfW6GzLleu1CeAYeTMrS6WJn8r1WD3OaUJvBIDDfcwPl7uHroMenx3KHku4HHs7sAqpiByM2Xk6D2p7aHUbCbFgM24AaDelwNc85sxdcD04Dq4GGvwzUKMh6vENbzYFo5L2Ji0oXvIGk68FhXolnpdmPqxI3cRHYELqCBu0CagPQK1O5/ekIepjDXA9LDTKa9AXwNgwI8dMIJ0MniLqayC/Be86EqO8TEV+kQ/58qKgqYVC97Yik185vJ4HeMivJN2ra4b6HiRz9I8nrFuJOEfeEuN6tYjvGU0NnR4TlvriKqZwGdfjmKd7DbY3DOpVlLkItkd7taFDfBudVFe/nFi5d7NZtKP3fNSFZ3iDevBytuj1R6aJi2mGsHlsSfOJvLP9EQYkMX4p7zR/CnvAouOhEb4wvdgF5/lgXZbmenJ12YnlZwkoY1JU71S0kHof4wLFMw+hh78SMZoZjqNcZnodpsA2kcsjPA+/r/NmmqpRBHd6fgzkwPUCQK/swBKZAqZ8n6ig7FlQHuArOgkPB+VcPjduhOIUMJu/XoBw9vrzfwTioCV1ELz+ETeCAEDfdHPQ2t0xZOQ8+AWkb30oqnUtcb9T7reNX2ksZXPUtcypaH2pGf6Gneoke1BfqYX/Q63ygI8A5LzI85C8i3BHyVE+m174BepfxoZCVi4/3/kO2gPR3weuit+ZUqc4sPWNGTtc0pA90B8QFozvxqSH/FMLGdCKF1v8KlDKo118Ryvc2EeS+dDa4GBmvGa1DT33Y8SV6/OdQfhvhWvBQSP+SsLlqyqDdaEjDucjtBM6lLkz262CoKZ1Nb+14fYle+3Aa2zoRh6d7yeaqKYPaTj/wq0ruB+/VpkN9aR6IvuWqC7lHwkLwOzxPrrBucVLNI7F1mlGG+MO0cRa4wG0P7jl/BTUjF6B7QU84L6fXfci7GFx9rfNqSL8S0uY9AsfBQHDqKKV9KLD+0BIV+pCv17s4LYZ0d+D87XW+/KqWK6gP8Bp0hvXgZHCv5yKlAcS5bQT4AlR7GA4vQKwTQ7dAp0PU5kRcaPR+68RFx7YGwWlwOzhCLPcFbwtqO9DI7iRi+88RX5q5m+ptq0253c7hlj0IXVXtvIa+B74Dq0KeViJTo5wJE8EhqkHjdzfRhp83ojEWkO5tJhoNMd9wMhwIeVqfzJ/CO6D37gU1o6/S01PBh1hadeSCjTMXrUj6UtDzt0jK9PI74RLYMslvLOrcOrCxCkVZYYHCAoUFCgsUFigsUFjg07VAHbd/Eq6HUntSipqUZwJuyvs3WfNTquAer63kF88r8J9W3PAQrh0Gfix4ojQFNgQ/Sz0zdYPfmDy76A5jYWZjFVtaVi6D6nV+fcyFPIPFzfoMygdAVv5E0RXuAA2TJ41xUiiYRxiN56b+gpDf3OABKlbEoM3tQFP1NqNC+hnY0vhujdxo/3APv//9bvcztB5Wh63Az9VegXMJ7cOYJM+yPtAf/CKriMrloR6EHAxzQA/1YVJp8CvhF/DHtCDEfcBu8GhOmVkrgIcgfoc7vDvDTaDBPAA5HjwAidokRH5L6DSTakaaqNZ4Uy9mazqukY9t4gE0XLucOleQ5/UeBUb5kqaD+TfGzBDOInwNnCZqTrvS4w/gTXBeykPP9cE9ScorN886trMvpDqDhNda58twM3QC1QPuAqeDafAPmAzWnw8TE1zAJkFF1ZRnNefmLhB61XNwf84FO5LnsFS3w+sNsU/++SxZnwfbizqMyJkhYbwfuPhdBQeAbXmNU8D1oKGdNiZAVvZhejazGtOb0Ck94vSczg0mT698Dy6BnqDcFYwF58WoYURsZ0jMIDwf3oI41HUAvdB6ccUn2iDzxoS4wdrgi456ksh9MVHNoftBH+aipJPOhZ6JvgsvQTyAJtpwTvoIodfIcaB8Iaazh8SrkJeOpA1Ie1D8AlgW5bVjQmJNQtO+TF+q0qC+jKrXevRwJOwOa8Hl8BT4QOJDOJc9DM+CDxnztyce1Z6Iv/mkxrNsU3BL1D1hT+IbhbRe73Rhm2NAdQDTLk6xvTYxaLwZ922x9MBzwtV65m6wPrhd0Yuc55zbBoByjtQrp4IGjNKbJatbydB4jelfmcI41CeR/36mrKLJchg07eBiErvAXJgPtn88nAl6zB/hJFgIGtsXsA9MgFJy/vTaRZkKtn0pfAD14CiI6hYipb66Yr2aCTekp6PgedAYbmX0XKcHh+eO8DOwzC+eIbC0OpYLvP7CcKHxMSG+HaHps0PaoE2GfHK/VkedOx+DmeDDNAeH/3ugN9dBY3Ix2ihU6EXowuS04XypvN+YhtiS3+BNa/SoNjGow6Zc8gG3BI00DZw7XwssTzgcfg8O01fBcr3zALgOxkNfmA1ZbUaGi5vXbA8ariPUg204daj4PEOXJD+2ke9AXnbaCNWqM7DDPqTqAc6VK5lAepYeM9IE6g5Hwsom0Gg4yEgJaahJYBsvh/A8wqi1iFh2G7gAupN4CnqCZcoX/mJDrMb+9KG/eqgPOBFU1qCXkGf5DKiH6GFES2ptSvRsr3NaaQ9RfiicDPvDL8A6Z8GT4CjZHdybrg41pa3ordslH+gecApQWYP2I+8P4BC0rt60LzSlOiq4k/C6HSCr08mwvb+CRv55SLsTuADiiCBa3XLj7aIUDfQT4qnX9Sftg46EVK76bovcK1r+IPSCxnQ+hdZ177laqGg7N4H5T8MaELUHkVlg2UOwMVS1fBjnLDvskNwTokYTkUfBcvekedJjfdgHYMW8CkmeXvZPWAzDQAPH+99H3JeblXPp3WAfrJv2kWT16Yt06SromunaONI+hOi920Mp6dFdShVm8j9Dele4A2L7lxJvbEj7opwC3Kb5AmtSzqnHwFfBlb/cchfxY/jmUjRc9UN+KZ6lqFpYoLBAYYHCAoUFCgu0mQXSr5nW3vRLNPAd8HvZr5XGNJbCUeDnYW9YBWZCocQCJxJ3k31uklcqemuo+w1CN9pvwwCoeXlOWS7NDQ1NakaDGlHdAIeDnjoBPBWqaZXToPEHtvnNsMhC6mhUw2tBT/Wz8SioaTV1ENGah/N7uT28BR6fpXLO9LNx05DpYYcHHVOhDjxHzV5DVvWrkga9mMf3AKMxacA8ubC9k1dQ7XmtNai7hA7gkVhWV5JxNcyDrLd5mHwQjIAXQbWDzuAZ5wJYJrUPT+3K7lwoxjWG8+lsKKXDKLDuTqGCxmztyw1NfbpBax/iBbr/W9B4nlF+GcbDHFD14FzptkgDuvB0hOmg1lkSNFw7mfiNMBpsd5mXZ5IarS6xxLSQZ35E428S0kcTKld5yx+BLlCzWr7CPX+T9v1q8hdLuQ/MewnUukuCj/4zK3/OsLxm1doh39SDO686zF8LFU07x4qeui2oXcCF7WYTtaxKe2hjtnmIwh2gL+wI46A5HwVUq15V2kP9pOwOhwcTOMRd0dXd4Kfmj8C8a6FQYoHsoqSRpkNcjGIYv/n1ypjnnPppjhZuXx5VwkMH0rX9wM37geC/ColDuRNxPwTUFHDeNG8sZDf/ZC17WpNHdh48ESZD9DhDjdgNsupJRm/we17PtO4gKIQFUiP6LzlMnwWfBw9GusKu8F24Ap4BDei8+ZsQN30ZKI3svLvM6mie3L3lsaDnKY0yE94FjZXigYf/3GZsyNdDXwT/VclG4L+Bmg3DoVBiAb+QXHxugREwGHqBC9UxoLEXggYcChrdr6TvhfjvCAslFnCrlF21nW9vAo3n9PB1iLqGSOrJw2JBEZa2wIXBaO8THpyp5nz7a3Do69l5ixnZhbIWcG48KJuZpF2Q1kjSRbSwQGGBwgKFBQoLFBYoLFBYoLBAYYHCAoUFCgsUFigsUFigsEBhgcIChQUKCywbFvgvQSBrIztQ5DAAAAAASUVORK5CYII=;" vertex="1" parent="1">
          <mxGeometry x="-241.23" y="474.31" width="84" height="137" as="geometry" />
        </mxCell>
        <mxCell id="tVIQ4qI_l5tq1dGleDvw-42" value="" style="shape=image;verticalLabelPosition=bottom;labelBackgroundColor=default;verticalAlign=top;aspect=fixed;imageAspect=0;image=data:image/png,iVBORw0KGgoAAAANSUhEUgAAAOEAAACMCAYAAACK2c7+AAAAAXNSR0IArs4c6QAAAHhlWElmTU0AKgAAAAgABAEaAAUAAAABAAAAPgEbAAUAAAABAAAARgEoAAMAAAABAAIAAIdpAAQAAAABAAAATgAAAAAAAABIAAAAAQAAAEgAAAABAAOgAQADAAAAAQABAACgAgAEAAAAAQAAAOGgAwAEAAAAAQAAAIwAAAAASrJBDAAAAAlwSFlzAAALEwAACxMBAJqcGAAAG3xJREFUeAHtnQecXFXZh2dDCIRAQpUOoYUmVcKPIhBaQATU0OFDgyCCNEUhIsWV9gEqHSIgoCJVuuWjKr0LKESaKN1QA6GXZL/nmb0n3FzuzM7M7qb5vr/fM6efe+7/nveccycLU6mEhQKhQCgQCoQCoUAoEAqEAqFAKBAKhAKhQCgQCoQCoUAoEAqEAqFAKBAKhAKhQCgQCoQCoUAoEAqEAqFAKDCtKDDztDKQGEcokBTYksjv4MfQJ2WWhIPJexKuhcWhJ2wYnYyBy2AA9JQtQkcHwQIlHZ5M3nswuqQssmYQBfpOZ/cxD+PdFuaAiYWxz0Z6f3geboNlYHZ4DnrKVqCjF+HdJjuclfpzZW0WJFwYFoOvwMbggvIl2ATy9/UO6f7g/TRip1FpOIyDfD9dtfX6Liwvw2YwAcKmkALTmxM6ubSLOoPqpztIO3wV5ocO2BW0G+ERGARvg84wN2wNxYntJDTfa5Q5mU6tPQPrGSmYfbtI3AyvFso2Je2uXDQd5TG4D96AeeEVSKYTag93Bl1+fkKN9+EDaMQJ26g3DLSnYSRMgLBQoKYCW1Cik43I1Vg1y3My7wfLg5PZeu4Ml8I1cAE4mc1fB4q2HBmWdRd3oqK50+ic18Op8E94CQZCPRtFoeNxbD1tjmk02L8OuCiETQUFpredsEwidxDNnUan0zyGJtshRQh991oFxufyUtRj7C7wOrgTOjnzpiP8Ek6HS/IFWXw2Qp2/bNdyV/LYmcwJvzrkx9GP9BB4DSaAlpzUfuer5lQqsxC6az+RpVsJvNZ54P3ajzu19x82FRSYHpzQXctJ54RdIdNIh9gAzH8gy1uWcCfw3euKLM9gN3DC66zrglZ2VPuQ/IuqpeUf6YjqLnZneZVq7kx8eswrOnGdJtWitfm8pUal2wv5OmpyykJRl0l1uhhWgxvARepNCJtKCjhZJrMV21fst2xb/137tLVtyzTiqNcxN3PqDabVwxM7Oi5/ouP9C8a0j/loska9m7ie7ofXuIS7lo7pFwp5W5nE38Fdy11xJPi+lBadFYn/A5J9kYjviE5G36fKzB0ILaq75PiyCuRZx0VgO8gvBB798o5/FenVYXHQLPcY/SjYzndZzeP31nAkvATaweAYvYdmbQ8anALu2qfCgZB2XaJhU0OBNCmr1x5x5NChbR0dl7S1tS1Zzai6aPXDLz82xzE3X67S/0fLHjl0xyuPuP/+KTTgdq7zM3gL1sviPyK8C3SwZL8icib45UiasESr74n7Eb4DB8EJULS3yfBG3eXuLRaSXgvWyPL/RFh0+qyo6hgbkrC/ZDqmu6gLxsdZprtYP3gBvO68sD1o7npnVWOVypyEOqE71+NZ3s6EA7N4M8HuVD4HHMOeWZwgbGorMMkJRxy5xrp9Oio3VdraZq03KB20raNyG/U3ufKIB+ody+p100zZ3bnKTlbtCbi1Guv8ut/oK5AWhrxz6nxFm6mQ8X6W/j3hUYWyjUnvBk5eneMYGAsDwEn9KBwL2t6gE+Z3PePufK+Bu467kP29B1eDY/kcuMj0prl7aoeD4w6bRhSoOuHWBy87R5+OtstZk+s64KQxU8/6tBty7QlP5Ff9SVWmUMRj3KDsWt8g9D1RS4uL7ztDqzmdH4tk8dQmFc2TRVJoUuc4GNpBB7evu0BbDK4BjutV06FOhrRI5PvReber1ur8+G4W70/4IJyXpZfOwmYD73VHGAeOo5YtlRUsTOhCUctcJOaCS8Gxh/WyAtXJ2nfAwH1xwAWauhb1q+0qlf9tql3PVG6jm13hMNgSHoY3IO16MxPX3OHyR0fLdagPIW8vkLCvB8Bd6Wj4IiwPmuXHgTusLATuhPfAAXAfaCfAGVDrndFFTsfWvIdfZuG5ZrRoOs0FTbT1aC5d2XVUeK2rSlHefQWqTtinrbJNK11l7aaGE57PeOeAp+EpWA3ypqO8DddCIxPueep5zNTcAYeDu92L8CzoyPa5Hmj27Y72OMwNyXTuooOnMkMdcMEsYwLh63BOlr41C5sN3P1GgsdZ47XMReVwOBPcxWuZTu1OWGshqdUu8ltUoOqEHfz7lMtys2a7Ztt0o/4w2rrraP3BY9xRsBt8GdwJJ4LWrzOo/tvcL7K4u5DH0N/CFVleWaBzrAvpeKdG34OfALdc/TdCnekDeBZ02q+CO0c9W5zCH8JLMAaWhW/ATXAWbAqt2Cc0+nUDDb1/zXfYG6qx+JgmFKg64TQxktqD8F3MFXzFXJXdif8mS7sQbAZt4BHRI6g7zAswB+igOoo7kO84yZGJ1jR3wKXgf+Dr4LfFd0M7PAY68yJwNrgjXgVbgQ5VZl7f8bp47AdbgnYLjAKd+3nQToafV2Od4zbqNV0cNPt6uBqLjxlCgaoTMnuf5G6+0OwdZe2abdZsfSeuDuj7yfWwC6R3P6KVQzL8AuZe8Ki1E+RtTxJngbvnc/mCQlynWgvmhQULZWuTvr6QZ9KxzAIefbeAW6Box5GxPujIjiE5IdFJDpcWmdvIu9ECbBhsDL5njgVNp3exCZtBFKg64cSOyhW83zXthLabAjr8imvoFB65dDSdsMzuJ/Nc2AMugfTeMw/xY+FVOBTqme9BK4HvfE/By+Dklz7wHbgQdIr/gOXuvNvDpfB7WAJcMJIdQeQH8DG4GLjrlZnj1O6Bo6uxzjY64enweJb3TcL8e2iWHcH0qkDVCT95d/zp/QYM3L+pb0g7KmNtN4Vu/GcNXucQ6n0FLoDN4K9wPjjBPVq+DvXMY69O4xcc84PvbCeBDrQ06IQeDd3R5oOvg/1fBiuAjpJ3QJLVxWB5Qts9akYN84jpe+G/apSn7PWJcAgJm1EUcHWv+G99E9s6/DO1Dxq6MepZfyr/G2HZUHWAzcHd5jq4HbaCs8AdrCtzV9MBB8MdcDzcDGWms/4CPMqPhKPgEija38jYCY4sFhTS7sK+U3blhC9Q5/lC20hOxwpUndDx+9cvE9sq63d0dNSdBJZbbwr9tUwr0voP4DrEQFgTPoTR0KitTMU7wZ3vNtgHyswdUKdbGIw/AtvAtGqxe06jT2aSEzo+/x708Y73l+cPtfcgeR37yVg2lY87w8p15ls+Bf9utChbv2JGIT2Y9MVwAkyEMTALeNRzRxsBtd6n0redHmEXAo/AG4HOpc3VGUz61Nnd4ZaEU2EIXA6+m+qY05otmA1IXcJCgaYV8H3Ld70rwaOmca0/bAA/gj+Bx2nL3cm+ANoaoGP6XmeZ/BPOhGSLEnkHLPsPbAnJ2omIjmz596DMVidTB74P+pZVyOX9kbjX6coOpYLX/HxXFWuUn0j+FeCXRuPAvr4GYaFA0wp8lRZOIPG9bXHQ2iHlG94FO0CZLUbmz2E8TICtIW9+KXIezJPPJO4kTtfQkT3i1rKZKKi10+bb3EPCvro6IupEXnsDaMUOpFEau+HtMHMrHUWbUMCdxX8WGAX5XcGj5p/hNFgJGrGBVFq/kYpZnZUJ94etYP4sr7uBx9xtG+jEcXptj8qt2Jw0OgBGQF63VvqKNqFAKBAKhAKhQCgQCoQCoUAoEAqEAqFAKBAKhAKhQCgQCoQCoUAoEAqEAqFAKBAKhAKhQCgQCoQCoUAoEAqEAqFAKBAKhAKhQCgQCoQCoUAoEAqEAqFAKBAKhAKhQCgQCoQCoUAoEAqEAqFAKBAKhAKhQCgQCoQCoUAoEAqEAqFAKBAKhAKhQCgQCoQC048Cn/mfz3aMae9XmXOBXfnf0vr/xVy10tE2d6Wt4w3iD/O/kb288ubYC9pWbP9o+rnFGGkoMG0rMJkTdjx3xtBK35n4kZM2f1+hhvGDMZ9M2LFtsX38zYWwUCAU6KYCk5yw48XR6/I7mDexA87aZZ/Vn1CbuEnbwnv7mw9hoUAo0A0Fqk7Y8fjxc1QGDuJ39toWaLyvjrGV8W8NaVtu1NuNt4maoUAoUFSgTzVj4KB9m3NAW+Gw1XbFLiMdCoQCzSjQ6YSVtm2aafRp3VbbfdpDxEKB/3YFMies/sBlK1r4w5hhoUAo0A0FkhN2o4toGgqEAt1RIDkhX8q0ZK22a+li0SgUmBEVyJyww1+jbcFabdfCpaJJKDCDKtDphOPfOp1fVR7b3D1W/4mCdmGhQCjQHQWqTlj9t76Ojm35s7QPGurMetSPfyNsSK2oFArUVSC9E1aqf/0y4RN+I50/S6trlFMv/lqmrkhRGAo0rMCkP1tLLT7zB9yVtnlwzNcpjz/gTiJFGAqEAqFAKBAKhAKhQCgQCoQCoUAoEAqEAqFAKBAKhAKhQCgQCoQCoUAoEAqEAqFAKBAKhAKhQCgQCoQCoUAoEAqEAqFAKBAKhAKhQCgQCoQCoUAoEAqEAqFAKBAKhAKhQCgQCoQCoUAoEAqEAqFAKBAKhAKhQCgQCoQCoUAoEAqEAqFAKBAKhAKhQCgQCoQCoUAoEAqEAqFAKBAKhAKhQCgQCoQCoUAoEAqEAqFAKDDdKTDzdDfi3hvwILpeFmbpvUtEz40osCWVfgc/hkk/61bScDB5/pT3tbA49IQNo5MxcBkMgJ6yRejoIFigpMOTyXsPRpeUTc2sc7n4cbBKnUHcS9kZsHydOs0UjaRyB/gMumPOmztAzT/zq2Td6bjVtn1bbTiV2vEzbZVtYQ6YWBjDbKT3h+fhNlgGZofnoKdsBTp6Ed5tssNZqT9X1mZBwoVhMfgKbAxOjC/BJpC/r3dI9wfvpxE7jUrDYRzk++mqrdd3YXkZNoMJUMt8BiPBNjrE36BoXyBjTTC8HB6D7po/z6dd0xlM9jk/qaXhzslyyxMHkL0urA0Pg89S7V+Dj6DMvNdBoK49viBOb06oCNpFnUH10x2kHb4KPgxXy11BuxGcAE6wt0FnmBu2huLEVuQvwxtQ5mRLka89DetVY5N/2LcT1H5fmryosilpd+Wi6SiO7z7wuvPCK5BMJ9ScLI3YJ1R6H/zF5Uac0J1gGGje10iYAPXMhcJJ6f1cUKOiz0I7B/5SjTX24eJ6CZwFRb3SM9Hxi+Z1fHY/gSOLhbn0EsSPBk8XzoGbYU84DBqxvRqpNKPX2YIb1MlG5G501SzPybwfLA9OZuudBr8FV08nzF/B/HWgaMuRYVl3cScqmpPWB349nArPgI46EOrZKAodj2PraXNMo8H+dcBFoRE7j0q22bxO5UeyOqvUqVNWdETW7mPCXQsVNsrKdi7k757lTyCs54CeQO4H+9Zhkw0gor6fgzlL8D6934dAzf7rrcwJF0MVRTo+p47HUPN0wrwdRML8z+czs7gv/DuBx7EvwroFdiNtW1ddy4u429k+HTuJ1rSrKHm2UNqPtONyZ58vw0nlNV00Ut4ixJeF7pjXcnGy78ehUQekavU47gIyk4kSW5o8+32wpKyrrL5UuBRs706+FyQrc8INKXTnt+6OqWJJuBZ5vkbYr8+xUZuNik+C/fu8e8W86WndnICuVuMhTb4hxDcAV667QVsGdAKPhE7yZHsSWQk87q2dZSpq0VxJLy5m5tLvZvFHCe/I5RejTs428IE3Y47tlhoN7izk+/6iU7Ziauh9rgY3wA7wJtQz7+dWUKOFwGehs2g+G5/D3vAw/Ag0d5f7qrFPP2Ym6vP5Eoz5NHtS7BNiO4PX8VmeCdovOoPJPoeS8oQzKxwCl0CZbU7m1TALOLbzYWFQww+hlvkczwbn1TFQ75lTPGPb9dyeE7oMhfQYUSzT6cxzJ/xlFvcY4kM2fwXIm6ucjqmjusqX8Sr5tn2rRrltXgf72QbyVjzGFHdCy9OYf0/82xlXEnrNo3N5/yZeNoHJ7tL2oMa7YJ+nQK3djKLPmO18l9LR8rxM2v7WAe/buO+y3mMRd13LV4R65rh+A9Z9FvpBcSdM2ugo9WxOCn8LJ2WVXFAegGdgOygzHfYK8Pq3QPH5kfXfZWtzu5vCmvBdUJh22ACGQ3LCC4kPzfIU3no6oSv17KAdBOYXnXCVLN+HY5si92fltr2spDzVvymr57iS+UB1fifrCxkeocwz/SK4In8N7P8ASDaKiHnuKsnckR5KiSbC3alrXx/Bt5pol6o6Tneeou1Hhv1uBi5Cxn8IZXYsmZY3cvx14h8DS4FWdEJ19dp9LWzC3Pkdg4uKmhRtaTJuAeuIC8rxMD/0ijV7A70yiC46vTtX7hcu2t/Byah5tNCc0DqLlpzOuGIXzZU2bzqF5iQ7qhr79GNjoruBO+lZ4MQYCzr3OeDx1Mml7Q3Wzx93jV8Fr4HHrNnA/sy/GhzLfPAq9KZ9kHV+OKHjbtZ03nr2cwrnhn/CiTUqeq+ai07RXLiGgY6crqXOW4A2pDOoOvs8WdxAzZPNSsSy0fBsysyFMxM/OkvvRXhBrmwu4ofBvtAPLgIXHvs/GPaHc+GnUNY32a3Z9OCE9e7M1XJQVmFXwg2yeHrYO5MemuUZLJjFU5tUlB5qCs23D8Vvh1fAFfQu0BYDHXZVE9h7cDKk1dKdOJnOu11KEH43i7cRPgjnZemls7DZwGe4I4wDx1HLBmcFCxBuWKsS+S4S6nAZJMcl2qX9gBpbw7WQnKjYKM03F6CirU7GIcXMkvTXyZN6dgWFZY7yHfLV+Y+gA7r4+Vy3gmGg8/msdVAXTu04OAB0wn1gT7gQnBu9vXByiWnPtmBIHhG2AZ3uCVgGHoKbQceQP4D1ns/SKf8m0k78vGOSrCwJh8JG8Dk4G/4B9iHuxreBbZ+EdyDlr0k8WX8ic0GflFEIXalfgtSvk3H3rI6Tw3wfeLJRRMxbLmUQ3greb7KBRFJ/PRnOmy6Qhf8mVMei7UeG1x2SK3Dx2yOXTtFTiFhXjYo2BxmDwQXMk0yRL5Nn22+VlKW6LoJq1QZF24UMF0T7OCYr9LmPy/LeIHQnVM8yU4/zwGf2Jrjr94illalHOpuCnegkivA0PAWrQd58KG/D1eAk6cr+RYX0YNwBh8Ni8CK4or4M9rkeaPbtjvY45B/G+6Sllrl6pt14AvHX4Zysss7Vir1Ho5HwFhivZWtT0A5OJHe5WuZCMgicnEVzEUnjT2XWzZu76Pmgjv8Bd51kab5570VTU6llSdd3qeAiWGbm+6yK5u41GoqLo8/dBcNd+DQYD7XsNQq+Cd7b4qDTTj1jKTkYdoHiTfXmoIbR+fXAZasr2rmEg8GV8XLQMX+RYZn1nsjl/Yr4VbANdGULU2G2rJIT5yBwgk+Ei2ARcGV0Qnhk2xy6ssWpYB869g2gcw+DTzI2JHTMB0CyUUTMq7cTprpdhVtnfe3dVcUa5f/O2jueMvI7oc/EOjrVqpDsLCLmD0gZTYQbZW11mmbMI2Qa75lZ/JhcB37BkxaHXHbNaL+aJVOygDs6FzrgH7A9tPXi9Xeg70eBy0xi19z1jiTuw3YVtI4r5vMFXsrKPiJ0h2vElqLSj+FpsN+7YDgsCivCWnASpGtuQryWuSvcCtbdHVwMdELt+3AgLA2WT4DkmDq9eSltaPohaNZ6wgn/xkW3L/Bb0o5pCOQtTfgXyHRR084F67rb5s3ThMfRetaoE/ahk/lh5qyzdQifgQvBcXj9vBOqvzqPA98H6+HJxbrrQs8ao5oIE+Bj+Ag+gPfgHXgb3oJx8Aa8BpbrhIlHiI+A3nDGkdwtXVdfgtMDH1GiwFDyFOjikrI9ybMPd8p6djaFf4eXwPqN4AKgc7vLDYMy+ymZ9nUXqFHeCUlWTcdOdQ4jLjdkee4gKc8j3pPQrPWEE15TclGP+4676IQ6QVp40qLx66xuP8K83U7CPlxk1LKMjxuoYzsXseJ4dHB3vIWysrwTDifPcZ0KJ2acRGgfLiD5POePR/nB0GPWN+upjVBcRVqxJWnk6vBn8KW1J+1XdObRT6F0tF2gzO4n05V2D7gE0oSZh/ix8CocCvVsPIUrgY71FPh+MTbDSfVtuBDOAJ3Bcnded4dL4fewBPj+kOwIIj+Aj2FP8OGWmePUnJBHV2OVyijCTcFJ8XiW5046dxaflgPvdzu4AdKkT/NNR8mbz+pe8DTjQlpmzrFvgP3dU1Yhy+tPqD7uaMl8nrXM/qRovvPfDQcWC3otzczoA32hH8wC/WEAzA4DYU6YC+aBS8Fd0F3yeJiv1wY2ecdbkORyk/0Bd76Gzqr4OtPa4Ip7LdhmF+jKfICzZZU80hwMOp+2NNjPoSYw71mn9BpaO+xopGCrkL4YdMZkVxF5NiWyUCfcBBbN5euEXjP/TjiY9MLQrE3pnbBsfC5U3o8LfrO2EQ1su3OzDXP1F8r6SItCrugzUa/1u8/k9kJGWplUxRWo1io02aUZnSu9u8uJtPOcPK2Y49oc/gLXgbvHmuBx7kLoytzVtMFwI+h4W8L6UDSdal84BNrhKCiu8GRV/3u7nYx0Yep4Uxd1LH6mgTrTahXnm5NbwjIFJjlhk4rsi/NNq0I+yL3oED8FHfBDGA2N2spU/D9w1bwNdLQyO59Md95twbi75uFwBUyLxiPrtnlUP7XQizt9ozYrFcsWqkbbz5D1+rRyV1PRAdPRr9awB1Pg0e8EcFcfA7PAw3AzjIC5ocwWIfNs+CvogD8Dj0CPgDZXZzDpU2d3h1sSnJhD4HLw3bSV4yLNetUWzHpv6LRTMhLnive1Q4F0SvAoX890wNWg3vtZvfa9UeZcmKOFjn11SK8tLTSfvEmrO+HkvfR+agUusQx8PbtUWk198O5268IXQafR6e6C/UGHWgO+D+5YlmtPww3wHRPYovAYDICx8C34A2jt1c/O/3Lf6HtZOgXPEzkAfg3ngCeEl6GeuZh0taDYPj2fFNbrs6zsRDIXB791HJ5VeCULmw0G0eBG2LLQ8ATSB0HZ4rYP+Tqv+m4KLgTq1IolDVLYSh9J8xR64nH+OJ/KFqdtyP8I8ub9zARfg6vzBa3Gu3NDrV6zlXZDaOSXGdoH4M6mjYIfV2OdH3cTnAJ+AZDsASLuWNbVWXSwJcB3xmQ6kqJazwn1OiRbiciILOFkvjMVFEJ3Rh+ok9V69cyVdF7gUFH3WG89LYWdqcY/X6Dq93LV7yCeFpdcdpdRx+nEnb2k5mjy/gyPlpQ5iTfM5auRz6EVU1cthZ2p5j5T2xReRfNb4V1w8WzEXPhdcJ5opPKMVMfF4gzwAX4+d2Puek6A00BnacQGUmn9RipmdVYm3B+2gvmzvO4G69HB9uCqWs/WptBrL1GvUp2yOSk7AFxE8rrVadKjRe5+Pre9YPVu9rwd7cfBQd3oZ0na3gSHdqOPaBoKhAKhQCgQCoQCoUAoEAqEAqFAKBAKhAKhQCgQCoQCoUAoEAqEAqFAKBAKhAKhQCgQCoQCoUAoEAqEAqFAKBAKhAKhQCgQCoQCoUAoEAqEAqFAKBAKhAKhQCgQCoQCoUAoEAqEAtObAv8PnnBtpcn7UnAAAAAASUVORK5CYII=;" vertex="1" parent="1">
          <mxGeometry x="40" y="548" width="225" height="140" as="geometry" />
        </mxCell>
        <mxCell id="tVIQ4qI_l5tq1dGleDvw-43" value="" style="shape=image;verticalLabelPosition=bottom;labelBackgroundColor=default;verticalAlign=top;aspect=fixed;imageAspect=0;image=data:image/png,iVBORw0KGgoAAAANSUhEUgAAAQAAAAAzCAYAAAB469bRAAAAAXNSR0IArs4c6QAAAHhlWElmTU0AKgAAAAgABAEaAAUAAAABAAAAPgEbAAUAAAABAAAARgEoAAMAAAABAAIAAIdpAAQAAAABAAAATgAAAAAAAABIAAAAAQAAAEgAAAABAAOgAQADAAAAAQABAACgAgAEAAAAAQAAAQCgAwAEAAAAAQAAADMAAAAAebg/jQAAAAlwSFlzAAALEwAACxMBAJqcGAAAEVRJREFUeAHtmQe4V8WZh0URsYAoSCRYgPjYYgiisu5GDYuGWBHFJRh7QKNRNwbRmKiBmM3GFmIhSgoWYnSJDTUauxhjjRJdV8VYEKxgRQWx533/d4YdDudf7uXyPHIzv+d5/zPzzTdzzvnOzDfnwgorZOUI5AjkCOQI5AjkCOQI5AjkCOQI5AjkCOQI5AjkCOQI5AjkCOQI5AjkCOQI5AjkCOQI5AjkCOQI5AjkCOQI5AjkCOQI5AjkCOQI5AjkCOQILH0EVmSKVZZ+mjY5Q7c2+VT/JA/Viee8DA6HtT/jz7wG99cbOsPqDeLi3BAaUTucroD9oH1hwBDan8AM6FDoa07zhzhfBYObM6iVfP+beSbBMa00n9PsD+/BSBvLQCbdX8Bmy2Duz/yUxUW4LG54PJOOCLxKeWULL7ID40bDPJjfzDnczB/AoXXGHUL/OXV8yrrfxNhIcvMZhgVceBdA1DtUTBB/Au91KIyBPeF1aETr4XQirAr3ws0QZQy2hDfADVWUa2EteBmeL3Y22N4ZP68xtkH/Rtz8MvLefgsD4GgwPq2lA5nIhHUYOHf6Tmi2bS3rBLAb4RsF8YW5MKZBowsa10Val5qbwY3y7iJrYxXHPtOA69vBZwLl/zbgr4vPtLBBXxOM+j0UF1p8ppkVj6Zk9xXqd8DXYE6w1yp+SudqYKLtCqdCR+gCj8HpUE/6fD9x6kl9W7gysVWrxsTs87WWJjPRbLgc3KR9YQj4jI3KxOYaMFF/WBh0FW1jdhb49WLymw6pTEKdwXfUyHtIx36m68syAWzEkxvQj+E/4H2YCrfBIHgDmqO3gvNRlC6K5ugJnOPmrjUuLuDuOG1QyzHp60D9taRdreqfF/vAp2DSKEq7Ml5qKNwKnqh3wo7wIlRTfzoOAJPtJ3Aw+Bx+VTwDXtPnM+7aLgXnPxfUFmACKW4sv0jsOwJ+BbW0IHSapFtT05hsG7gGfC8+X3P0LZzPbHBA+tVUHGKs/rNoXJ7byyoB9CIot8PnwL/9rwXlojYJ/AXcDI9Do2r0lK0230fVOkrsu2AbWGIvM3XDWGtjxjEmwdXhJnBD1pMbdSe4BdzcU2A7KJMb3aToxt4fPC19t/4ZsBWMhFlwHqhBTUXlKye+m7h5iyecG+dCOB+c85egfK++T+8zxrYfdaWvySbKP3dsuxGLOhaD68TTOc5T9Intq6mYAMrmWRl7Z+gEJ8JbEDU3VMZTPh2NoTR2h8AlUO09+o5PgZZ8uTLssytfaGtrQya8DdaHn0B6arj4XTRT4QFwERn45mgznLdvzgB814C4wGsNjfEYjtONtRyTvoeo+5ldTy4y5cnbqGIS+B0DflhlUA/sxtu4uFHd/Opk2Bpc9HdCO/gU1I5NRSW5hGrla8H6K9EQysmUbq7fwAQwRmeDG9HE9DZ8DKpLU7HClymjzS+kXuA9lMlYDyjrWArbGYxNE8CaYS7jdENh3otpu2ZHgfF6AYrqh8EEEJ+v2J/bIQLDKF20LrRJwVZWDMb4Huh3Fbh462kHHPRvKc/VuwD93wnz+7Xhwm4E78d/OKulneiM9+0JbeL7BuyRMIa6Pm601B7re2I/CHaFqJ5U/g5xbjfdLHgOPE21u6FfB0/gduBmfgTeDHWKii7iV/++ldaSP96z/R/Chkt2VywmeH06Jv3rBVu1xOfpvxaYKFYqcAlt53OOYl+x7TXXgd7gc0aZ/IfCz2DzaAzl9pTO/yx0D7ayYm2Mh4DvsVOZw/Jqa99KN25mPB0OBRfIiXAqVJN/Z5n1z4G9YAj4sj1hHgJfSjX5Iq+v1llidzF4AqxY0lc0PYHB080k5mZqRJ3rOBmbCxOfrtTPStrF6igMUk1+mcRTbDfq64ML2PvwGa+AjWBDmAr27Q2fgJvML4S+MBGMjZ+9JrpNwaTwNJRJf2UymVWpLfnjZjNuJtCobqFS/NMi9lez2+/9qveh3vuI1321MuL/f46j+iNwTVlPFddEb4wvpR0ldX2N13jwz5Y2ofZL+RRmze+BJ6cL0EV2ErjB653q+h4P34YhcFDABTkFqgV5Bn13Q2toKJMMBhf1R2FCN4EvutHYLAjjxoYxxuFimB7sJjlPsCgX/M4wF0yWUQOpnAv/BT5/US5AT8r5ScevqV8H3utl4Olk3HYFY3o++C42gm3hWvB5/wZ+cXwAt8M+8DicAPF5qC6hiUtYFjd4/XcXN1X+N0KTz9tcrR0GxHfT3PH6PwAm3HkQ51mF+kmgJsNTlVrTjwnru6DvmRDjvTJ1438PtBk1usjLHtiA3At9QuevKF1QpwWCuaFiG7x2BxNCd/gzFOUnnxoJ/1apNe/HDbQ6PAxnhKH9KU1A70AHWBXcAAshSluZPfanZfR10ZkA9oYDgoOL8BgwRn4qF9U3GGZTbgxvgff6BtTSy6EzTSZl/r5rk5v+xteYe1ruAU+C9/koLI18d14jlTY1p6lo1m9MAPczyrgV5TvtDKvBBlBMPpgqX4vXWwkyDn8Idb8apoGb+u/gvd4K6nCYVKm14Z+lSQAuuO1gAlwEnkS2Z4KL1uBGjaNi9jSzRnnK+uK0PwPj4ELoDdOgKH3VF+ELlVrzfjrgvg6YuKJOoTIO/BoZCleDf5v/EaKGU5kCe8HN0VijXIU+Y+NJEk/My6nfAiaAalo3dLxC6ReEcdkFboRGtQWOL0CM1f9QXwAu7BdhBHwVpoHP6TOtCd5zI5t/c/yeho/AmKUyQRvf6amRenyuucHupi2OLQxZ1IwJwDnT9bTIgcoQ8E+PhamxRr0Pfd7L3fAluACUa9bnMlaug2in2na1NAnAqHiaDEvC8xfqUtS3MbhALil2FNqzaEuZVg/GfSinlTnUsfWg/yWYl/j5wosagCFdbFsFh90o/wVeL/Tb7bN1hb9C3LCeWDGhjKbeF2opbhRPY6+hTBrN0Zs4G+ONwc19O7hhh0M7UIOaihWOonwq1OM929Tv02AvFib792AB+MXmpomxcmPL1jAbojqHyu8o3wfjpM8jUE8mAN/XiBqOT9D3eSh7l2XDPOk93b3X/nAYHAox2VCtxO4FSt/flfBniM9Jte2o/XL0KDEBPB/u2YV0IrwGLspUPpen0WT4v9DhKafmNxVVf0+u0vN17JtU6YvmwbFC+TaY+EaD16yXALbDx0X8LCwEN2dzF52n/AmwK5gAfg03w2bg9TvCgaDObioqv26AYbAWPAQDoajeGAaC9zY+lO9SRm1LpWdozKF8MHYk5WrUvca8xFat2oeOTjC9mkOw62Piq6UhdO4BJjav79rpF+oUlYPscsozoRuMhG/CkQEPDtfSBDDGbUbLUwLwBPcFmplVZ/hepbbkRvFEVndBMQF4CtXSwXTelDj4p8H5MA7cSD8CF8KxoLS5SD2JboGi6iUc/dcHN9DD0OhJhutiWpFWBzDxuciVp5rtVW0gk0Mv8PkeAzekp6HJZhqsCbOhTIdg9OvAjXBSicONic2EfETSbkl1zzBoRp3BrgOTZi35TKMSBw+Nu+HegF8094GJ08RwFIyBvcBkMAiOg0uhTSUAnqdV9UVmmwe+kMcTFlL3NEttLrrX4TBoRFfg9Eri6GI1IfwsscXqiND3lWig7BtsP0lsadWN7ny/gaMTLg72wZR+hcwFN+mXQbnwHedCqSUXl357lziZyOw7PvQ9Snl/qDdaGFvnqIbvwI35JnQBZYLQ/+c2amhF+mbBJ2DCK6onBt/v2/A0OOdOsDS6g8HO45dJNa1Eh/c0rZpDYvd+toHPJbZY7UPFa7nGytQL45CyjuXd1r6VH8DT9UmYAx8mc/cI9RmJrQP1bvBWYqtV3YrO5xOHRj6PU59Vw1g3Qi0Np3P3xMFNHzWfymlwJkyEU+Hr8CBcBC2R7+Bb4EK+tCUThDHG2NPJBLYpjADn82/e/cHrmLTc9I3GHNeK9uV3A7gJ/NIp6vsYTBLGxI17A/wCtgVj1lz1YsB24GHyR6imrnT4VfJGNQfsrptJ8Bp8AGWKa6Mfnd57mXy+H4AHgs/ZJtTaCcDsP6AkMndhWw/KTr8S9yVM62PpBdOTHl98PaU+awTnBXUG7Ud/uuiG054CveFf4SzYE7aHqWCicwOnyYZmwzoBzy3gRnih4VGLO7qAu4Bx/jH4tTECLgb/DaA/+AXk19LW4MZSqzQVlX8k/BJ1F7nzzACThnLu+JXlsxf1VQxHgRv9bDAJXQ+7wWTYBzxdG1VHHK8E16ZJ5H2opnVCh19l1bQyHZ3A91RMACZ3k2LUF6iIuqepWPTr/Zg8Y7JY1LE8V1o7ASyrWBwRJnbDRXUOlX0pt4zGUPYMZfSxGU/yegnAmPQBN0Q/2AXURLgBXNhu+KdA3QSPVmrN//EaJ4OL89gGhvvVNBYmwMuJf49QnxVKN7KKZVOrKUn5pfFRILUvpLESuEnsjxpNxQT8DPisqfycvhDagX5ufnUgPAR7wxlwPHjdRnQeTv3hPvhpnQEeKuqVpqL013nipk4dvPfrwOR0DnwXJsP2sCHcAeMgjQXNrJZE4C4GzWzJQMaYcf18ewHM5lEuyr/BreCJk+JC9WthEES5KH3ZB0RDKI+kvAgeBPurcQV9/w4uHE+H1O9a2utCLRX/DeDzOD8GznNaYaAJ5f6CzaYbXf/ZNhLFuccEm8+o376hfQ3lzFBPi7Vp6Pfz1JjUfaZ3QB83capNaDwL9jl/USbleWC/78i41ZIJ2vvQ32uWbVrMi+kYWvqPWsxav+FXiclqPuwNPqfznBjqD4e277k3ZNWIgKdSd/D0qKZGEsBqDF6zZIKJ2Hw5x5X01TPFE9BP3Zjtdy8MOom284un6lUwFvYCF+EIsM+FMho8bWxfCp7gblbbLnbvdQCUKW5S5+kLz4PjTAIu/lSP0HgVuiVGN/8kcExxw/qZr317UEPhbtjDBpoKMyu1xX/Wplk2X/QyBgsD8V487YfD6+DYO8EkXab+GOeCfnPgZPA5ivoGhhiP96nbLpNrZD8YBsdCfBfbUa8n14D3fQd4Py/BVqDWBW0mAOWX4w2gza8z42uS6QpZhQh8k7aB8hPvgyrYL9X6Pwr9UyhTHUHDcW9DWXJIfYv1Xhg+BheqL9F53gJfdirbLqpqmf4g+hwbcS4XshtBuSjPBa+ljwt5LSjKzWS/vj6PdU/y9aCouPiMqRvnPYjXt74ZRG1DxT6/kOI92WdSuRp+Cd7zDChqHQyOPavYkbR7Uo9fEjtS98sq3su91DtBLW1Cp9eOY7yXIcmAPyV9M6n7PNXUkQ7fYZzL8mFYCappIB3e8wLQ/w0YBya/KN+BfWOjIZQ+r4nUPvHefY9tRu1b4UlmMsfvwcAubOF83oebxheVyvYFMAvmpR0N1J/D5wHYFubDrXAKeGqksu39V1PM+mfiMAgOh78mzi6so+Fi+DGMhjehKJ9PmSDOgwNhMLhxizoOg/fVC1zcJgx5FH4Lr0HUD0LlD5Qu0iifuQsMDYZrYkdSxk0Qy6RrUfVFapeF1qaU/ULdL6CRUO+dP4nPlnA6HAnG+jqImkBlB7gNDoKy2GGuyGuNh63hObgPTHIm32q6h4524PoZCxPhHUgV343xSuU9yc7g2pkBUyFrOYnARtzn5uAmaqlc9PtDn5ZOEMbtSHkJuJiUi7I15Ob6DmxcMpmb1U01oKRPUw84Bw6GRnUwjmMadS749add9i78ymiteBQuWWl257djWUew+W5NoKNq+OSuHIEcgRyBHIEcgRyBHIEcgRyBHIEcgRyBHIEcgRyBHIEcgRyBHIEcgRyBHIEcgRyBHIEcgRyBHIEcgRyBHIEcgRyBHIEcgRyBHIEcgRyBHIEcgRyBHIEcgRyBHIEcgRyBHIEcgRyBHIEcgRyBHIEcgRyBHIEcgRyBHIEcgRyBHIEcgRyBHIFlG4F/AJNE2Yo/q/KCAAAAAElFTkSuQmCC;" vertex="1" parent="1">
          <mxGeometry x="64" y="592.5" width="256" height="51" as="geometry" />
        </mxCell>
        <mxCell id="tVIQ4qI_l5tq1dGleDvw-45" value="" style="shape=image;verticalLabelPosition=bottom;labelBackgroundColor=default;verticalAlign=top;aspect=fixed;imageAspect=0;image=data:image/png,iVBORw0KGgoAAAANSUhEUgAAAOAAAABNCAYAAAC/r2jRAAAAAXNSR0IArs4c6QAAAHhlWElmTU0AKgAAAAgABAEaAAUAAAABAAAAPgEbAAUAAAABAAAARgEoAAMAAAABAAIAAIdpAAQAAAABAAAATgAAAAAAAABIAAAAAQAAAEgAAAABAAOgAQADAAAAAQABAACgAgAEAAAAAQAAAOCgAwAEAAAAAQAAAE0AAAAAGWFLJAAAAAlwSFlzAAALEwAACxMBAJqcGAAAE1FJREFUeAHtnAnUntO1x6sxJuZZDUkEIcYaqzTEdGtWWq7SpUjVsKhWqTmJUtftwr24VnGrKLfUUNVU9aqoZWop0VJzkyDmWY0Nen+/eA77nvUOz/t93/tF5PzX+n9n73P2Oc959jlnn/28WSuf+lRB8UDxQPFA8UDxQPFA8UDxQPFA8UDxQPFA8UDxQPFA8UDxQPFA8UDxQPFA8UDxQPFA8UDxQPFA8UDxQPFA8UDxQPFA8UDxQPFA8UDxQPFA8UDxQPFA8UDxQPFA8UDxQPFA8UDxQPFA8cAs4oE5Z5H3LK/5CfXA/LzXRfBUeAjcCc4N22FtDH4Hl2xn2MX2rzP2i3D3Lj5jZhx6YyZ9AJy3weRXpu54OKBB2yxTdTpvuvPH5G2XYB7/zDixzdyWov2Jqs+jlEPb2HejeVUGfQOmuV+BvFg3HjQTjjm+8surlGfAFat3WJ/yBajProJzwVkOq/HGadNcizxsBntgdp7/fpiTczulxZxmo+2OzP5J9BEt+nSj6YZsDs77ObhLLx5mNjAcLtCDMQbRx7VcEDqHPeBW0ExhOWjQihyMvhYcBbX/LOwLGFCnwbTHLJ+FzuP1rH4CeqNbkupPLs7i1aJz3kTfbQa8bry1UlR0Xs9DI+OhcH/oAc1xDhXxHZQdwwjbGyxK57pR2c18Kcznof41WAf55juWTmm8t5ENLN707fj30O8S5MlBT+O1Kw3GrWDqWAeHYRSf9R66wWBheGvWpp2fETPsO7rR5mI+XYNRMt8cziFPnY6mTodPhR4II5dRrR0cy2e4kY2El0FviggPnmnJ1nA9aLppqrIIFG42F2Qc9Ebwu/Bw+GuY8E2Ep+DYVEFpf5+1IzSydgrn/AwcAF+BL8PX4LuwU5xAh2816aSP5oN+u84D9b3fkTkMBJ/JK7uov9RibP19NrwQ7gdb+WQv2iNcR4OC2AIatHZQqbA55U/h7tBM6BMNnRejk47UATnc7NGup/Jx2cDboHvjpvFMJT8NH83qDg56st2HuhyjqXgPJhtLb46dYKfw0Mdx+kv2ACYci9Db5/b0BjQoNsKRVMY5jUcf2MiQOg9WtDX1NCBHGOB+AaPdO+jDo9EnUZ6Dl4obXQec2ORFz6M+OqinsgcpYnkUD0gc7yD0OK8/oT+c2TyIPgo2QqPD+i6GWzUyblPnrRfn1h9yPICr8XyDyrZwA7gqNBVP83ga2Ywg6U8ij4Dabge9qbxl1oLWmcWYKntgDDCRputpHMsxMIeHx+wk2infBheAEbOjPACjbb7+yd753FHZmj475xkCJ91f2JcHDQsPewz5pEo/ntKb6VSoA03FIu5FebGqWIkypkb3oL9StXnAlqtki1SfqiYhnAaPShWUzsHgkLBOEqrSee4Hb8/qk3omwhD4nVRBOQF6kCO8ad00HrJmcLMtWDUalXdrYLgVdTvDJ+Dj0PndDPVbwrwIF0Pf33ZpVuGNMADavjhcCLoBE+5DkBFDg/I6ssEqQf3+pHRY+n4Rb0Wlkt+g3Bz+Bi5a1VlsCP8XbglN08W+0AMf4cEaGSuCnJ7vehg4pPDQu7+k77YpnOnht8aTMEanL1VvNRelh8u266Ab47uVnuzXR08Yg5DqLVdLDZQxOtu2fWhLopsvn0scL5fHYW+dCzYVPgyNtJEPocd+0Ub5Keg3rOnq0rAZDDRpnBRwctujgk2yPSkzchOltlTek9k0U1enwY37WWgw+ypMY0xB3jXof0NeGK4IPwe3gz67DtbEKI1reUSLTsNpM4hEe+XbofvHwPY0zNt7q9/FmJ8IHM5bRGf8NrzVHlmbt9+lWd16wX5M1rZqaMsP4DahLYpfy8aIc4uyCzCipm3s10peNk4kkyeGZzU7gHsHG5/jxmt0qL3Z0jw8+JvAOrgJo9SvJ+W/1nkINp0cQIdcBt4P45zGo88Nf5XVR5veyF0/gLMz8W7D6HRkeMg/kA+udNOy2Gb1EnA3hS7iYsY+EBq1XaDZYCOk26ZRW3/U7cBDVoAvQA+kKeVQGHENijeVjIjv5GHU7xtDb6jF4GfghdC0NMIA2Bs835vOLfpOpe0L8Fq4PjwHHgSPg968OR6j4vi8Ev0CmHzzCPKJMGJ+lKXgktBMqauYvaujf7DYF/MM05SE0xH8dnEDmIauBhM8DKYi88FGzkt2PS0d043s86+G3p4u4DHQTSkmwZ/DkXAg3B2Ks+Fk6Ab1RqkLfbwg9H0Xh6/CuhiN4fZtjP0+la1gELytgcGd1OUH8LnMzvnaP8F23yMh119KDV0oXTu/Cf8FXgkNUM32yVTaLoI5XMdBVaWHtJFN3mem1Jdj1kaQTlKAcdWbHpr166sU1Fugk/lE209Xc7PwQM0Z9CgaXe+Bl8A9YTrYiG0xEYv0TDebt1vSu1GOajCj74dnGox2yfRtg/4QsgEizm1F9DpYE6PYzyDYCfbA+B0Yx4jyLU0G84ejZHd9E5t+qzY6dwtGxoEdDP4XbE/swL6/TYfywJ2gUXcjuBf0kOUYQoWbS34VutjePjtDfdIJ3q+MX6aUb8GFoLdpwvMIjcYdQb3BQDiOPxq53vNBg8IcMI2P+CHy290fORLeRPB9WsExj4BbQ2/DNHcPS8SyUUE2qNWFWcsJmbG+8ce+3mABOvutmb43n+jNYHX6dvMAvs0E3KAH1ZjIu9jsDafVsO0Lk9cY5BXoc93MfsgnuMEmQzeom31eKA6Ah02XPvizI0WjA7hqsFH0EAyBPqtTeIDd0PoyYQuEGLmPRD8/NYbyQeThlf5XyjVCm3Py3Twg7eCmTPBbsg5Wx2jTOobBxvnUgel2fvj07a7wJzD9c4VBMvoNdTpiQNGXycYMxzVP0K+nJKVbZTcPoHP+MTwQPgLvCjTN2Rgm/BDh7qQ0KI3myVF55PQbUueJIdP/Nv+zJk3PwrjxzkX/RujiPNYNupF5Ebg4jAfwi+imof+AEfkBfIPGkTA+M9pHOb1HqvPGyTEgq9gafWBWp+p8E+LGss4gU2c+2i7tnwoGrjqoO3Yca+GotJA9ZMPg4dBA4rvsC/1FNEc8bHlb0pvZOG7X0e0DOJE3GARNDxL2QYiH7z70camxSXlBk3qrL23RljeZhkWsjOJ8ItZB+Q48rar0ppST4JMwbUhTuc3gdTDCYBHxKxT71sH8wSj6LFRPTyGj/mUU2QrxFmtl16htk1D5IPL7QW908G1+OdgoXg8fy+oMNim4GeAez9qbqdNo+B68Af4U/ju8CM6U6PYB1ClxI3l7nR485e2xB8y/D4JJV8WTGD2/UXzgqdCU6DiVCkbEq+DBqYJyR5gfwPwGdPPVRTwojW4/x1m67mDBbglk17rTNHgIfWTCXxC80ROWQbgkKaHMD+DJtN0Y2vtCXIFBroGuVSP8icotGzQ8Q1269W5G3qGycR8sCpeCS0L7dx39cQDTS/iCP4Exyh+D7qK2wzQM0kH25jH1SPAQv10pfq8ZWevgcxjt3MLwWNqc67eCzZXI8QBuj34g9HAKn73KdOmjPxM+EttK0TfNDuCLjOKPOlPhczD5BfH/wbWdBxpI3HDqnR7A6Ge6f+om+J5CwHxBTqLr1U0sz+DefO4p18nPihwGdTOXHPogHcDcRt8+lHfopt5fB9CNeQHcPLzM75HPhKvDteCaFd1Ud8KIjVBS3RjksaFxbWR/ZBCHwP+cLrX/c0p7k+njvY6dgULcDF1sbxSxNPT5d6mAIXCgQoUplLIODB5uqIR00yxMxUFwKnwKTobfhXXhGpvq7QWd7y9hmi9ibdyO5aOV9eWUX6nd86MA1UGXpqYGhfPhoMrCPbRrJc90RX8cQL+zzoEjM+948F6D/pARcVZUuiSPZtx8Ps0edTQNr0Ij7vvwavhNmGBwSBvaIBIxISptZA9JRLoBTdtPiA29kE0Nz+2wv7e7m/7k0M8N73ebKZtB9b9gf+FgHrRJeJiBwDW4NdQpzgVzn1of93xuY8bgew2GU+GfYVcRJ9OtB/2WgZdrMLgv2gjjqVylUUMf1bl4Z7cY637a3HSrBhtvy/vgtdCFjgfQVPYMKLb6oPjw740fSu2FNTITM4G+hvN2Y9WFc/gPuBb8GxwBc+QBNG/vS30FBjs5G/B29D9mdarrQgNOK3yBxmY2/03bN1p17ou2/jiAFzNRb5F28HaZDH8Pu3UAXcCr4Bww4SmEeeBCVYWp3/7wTmjqLLzJTD+FBzHCA5iwdRKqspMDuEHW10Ag/GYRL8AnoYEhrts09D/AiIEo68QK5Avg5VldO3VxDH5QGe3azrjL7a7ZhdB3S3gFYXeYfJTq+6I0CHcdaYN180FnMbg/lCS4YUzZdOYRcHvogdOxHpB3YDdgOjIe+k0VsS/KS7EC+W54flV3BaUH6++V/gBl/CFiKLrfhN4Og2GCB9UDUxf5Afxr1dFybrgY9CYaByOc+55wZMVRlPlzvb1M3T6OcF32hr5jK/yIxs9nBqPRH8vqoupeyhnblVN73KO5Tdf0GEm79ZCnGdhNo4N/A93crQ5Zt1Kay3jucBhxLsp1sSLIxyA/Dk+C3s4JbyO4oVdKFZTeggaPCA97XcyG4fqZcTqAVkd//Rv6DnA9G4CH/wa4GfQ2Pw/anmCKtRN8PVV0WD7Rxn4B2udvY9Oq2TUx2Plezv2PUN/FG+go9H1ghAfyyliRybeib5zVqeqHQVX97yi3rGQLz4OBzrU045gl4ALuDM+BU+DP4aHQBUhMm42q6f91Qaq3NCVLOAQhtm2TGih3hzeFdg+RvzyKR2Hqd8f0mtZ/XPhkb3ky9BDEuo3Q62JTDGNfD1Kr7GRF2p/J+kxBn5DVudkMDp1gLMZpLpNqdDSDSfaWw+CBWd2m6M2gn2J/5bWDsamvATDaGJwM6DmepyLZ3ZI3Vro+STbXN7Hpt+pWi9ytSczDwG6KY6HfVUYaN/R+cDDUid3Azxh0E7gdnAK/Dl2MnuC+rJMRM0bbF9H/kNm0Ur+XNf4PupuuGR6hYXMYfaXvRoUOplRfgp3MI3TvN3Fo9qT30B+o6jakvBDOVukW0+Ce8G2VmR1eud3Esgy+BlwzlEbvAbAZvJlyrEtFmuuwrNHULaVAK2VtjdRfUyl7Aw+gG+ByaBq7KPwyTDDVdiPVgb75YmZ4UaY3Ur0F9oXXNGqk7ipoGtYbeDheazPAwDbtNscDFM3nQjHbiXgY5S3oevsO+U03hrqJsJuYg8Fd0yFwCnwaznSYkxm/Cf/ZAY3sn4ff7qBPq/FjCsqQTdEoBfVQbwmXh4Ng3ETe4qbOCabPcR67pYaqdEGHwJFwW5jgmL+EsW+dzTWKPr+A72Z94zjKb8AroOn3fLAOxmKUj9OJvgr9zWZiH2/01eFguDL09j4ATobRTvkSmHAsQkw/b0FvlbWZEcTxzAJyxnblvN0bNto4h5kWLn58mVx+ifbL4Gg4BCYcjZDb9kTfMQ3Ypmx0ALduMAc3QyM2mlu0i+0ueMLpCLFNeYfUGEozBjf2/vBemPepo3tjXwt95mHQILERHAwNEAk/RKgzXjMbPy827eEY79BvNRjhPD0U/gptMGwFU/9m8+ppfVcPYErrWr1Ub9oupfMu2QCmmEbv8fBW+C7MMW9W8Sx6nTRgRey8rRLqpEfaxqga5TROKr2x6qKdrQubp1/XU2dKaZq9FVyrorfHPLAZ7qbhJPgU/D7cAuYw3TOoyBwnUnFcVblwaPTQrhD0RuJoKseGhgWQb4eu11Khvo44FqP7MsPL0D2As8NJWVuumrUUBA+4aYxcfkecAf1eq4PzMIoRyx8T6uA0jGK/g+t0wsbNkvqlRXajprq+LNMN6G12OXyleo6bbAQUBq06z7wNu0Zptn4+F+r3duNcjY03bIJ66uMtHtuSTSw9+MneMqXfBo8J0AAb2xvJfpNvAnsDg20c+8/o7r9OafAfCjeCX4EG9a7BqNJNvMXg28OJ8NUOHuQHcES71CPZDk5CVS6S6Y1UN1h83uKV0b2UR8In4OPwOegC9wT62Zt5BZjm+CNkuRj8AXwB3g/FlXAcHKOS4XV0vxvPh27wRriDSvltuA3cFhpQ0rshTofvtCeMPxjFG9Bb3Pk9A5vBG8tMJ2FSJdxDuRnUt8PgQhW9iQ0Mz0LHlW/A3iK//Tx47r+eQB9P7knHTvu0S5M6Ha+v7NdgoCFhMA+wB6EdXOiY9jyC7kK3wjI05mO7eKZfMxIDeLib2G8iv42uhT+D42FPNpaptX7dsOIGlGfCs2DEbigGCmHAMauY0b5wLu0wHIMHg5E+GwjfD3UfO/HjegD701FuzM3DA02Zbgz6jBTX4+EjoGlhJxnEjJzzjHr23Dx47/BwU/0fB72IxQPFA8UDxQPFA8UDxQPFA8UDxQPFA8UDxQPFA8UDxQPFA8UDxQPFA8UDxQPFA8UDxQPFA8UDxQPFA8UDxQPFA8UDxQPFA8UDxQPFA8UDxQPFA8UDxQPFA8UDxQPFA8UDxQPFA8UDxQPFA8UDxQPFA8UDxQPFA8UDxQPFA8UDxQPFA8UDxQPFA8UDxQPFA8UDxQPFA8UDxQPFA8UDxQPFA8UDxQPFA8UDxQPFA8UDxQPFA7OwB/4PobhFUz/uMzcAAAAASUVORK5CYII=;" vertex="1" parent="1">
          <mxGeometry x="40" y="710" width="224" height="77" as="geometry" />
        </mxCell>
      </root>
    </mxGraphModel>
  </diagram>
</mxfile>
